M48
; DRILL file KiCad 10.0.5 date 2026-08-13T15:43:34
; FORMAT={-:-/ absolute / metric / decimal}
; #@! TF.CreationDate,2026-08-13T15:43:34+02:00
; #@! TF.GenerationSoftware,Kicad,Pcbnew,10.0.5
; #@! TF.FileFunction,Plated,1,2,PTH
FMAT,2
METRIC
; #@! TA.AperFunction,Plated,PTH,ViaDrill
T1C0.300
; #@! TA.AperFunction,Plated,PTH,ComponentDrill
T2C0.330
; #@! TA.AperFunction,Plated,PTH,ComponentDrill
T3C0.600
; #@! TA.AperFunction,Plated,PTH,ComponentDrill
T4C0.650
; #@! TA.AperFunction,Plated,PTH,ComponentDrill
T5C0.800
; #@! TA.AperFunction,Plated,PTH,ComponentDrill
T6C1.000
; #@! TA.AperFunction,Plated,PTH,ComponentDrill
T7C1.400
; #@! TA.AperFunction,Plated,PTH,ComponentDrill
T8C1.600
; #@! TA.AperFunction,Plated,PTH,ComponentDrill
T9C2.200
%
G90
G05
T1
X50.038Y-63.525
X50.038Y-66.319
X50.038Y-71.12
X50.038Y-73.914
X50.419Y-82.296
X50.419Y-88.138
X51.429Y-52.602
X51.429Y-54.507
X51.683Y-57.912
X51.816Y-99.568
X52.324Y-63.525
X52.324Y-66.319
X52.324Y-71.12
X52.324Y-73.914
X53.026Y-83.205
X53.081Y-56.666
X53.207Y-54.507
X53.334Y-52.602
X53.534Y-87.015
X53.594Y-64.922
X53.594Y-72.517
X54.61Y-90.678
X54.61Y-97.79
X54.61Y-101.346
X55.345Y-52.602
X55.345Y-54.634
X55.493Y-57.851
X55.62Y-56.327
X55.82Y-79.649
X56.134Y-76.454
X56.328Y-80.919
X56.48Y-89.631
X56.483Y-82.799
X56.483Y-87.637
X56.89Y-56.327
X57.023Y-84.582
X57.023Y-85.598
X57.15Y-99.568
X57.372Y-81.028
X57.394Y-89.631
X58.039Y-78.105
X58.166Y-70.866
X58.166Y-74.041
X58.674Y-62.738
X58.801Y-80.645
X58.896Y-89.629
X59.182Y-137.795
X59.563Y-70.485
X59.563Y-74.803
X60.833Y-71.12
X60.833Y-75.946
X61.214Y-137.795
X62.329Y-109.728
X62.329Y-113.792
X62.329Y-114.808
X62.329Y-115.824
X62.329Y-116.84
X62.357Y-71.374
X62.357Y-73.533
X62.611Y-68.453
X62.611Y-70.358
X63.345Y-112.268
X63.345Y-113.284
X63.5Y-59.817
X63.5Y-61.595
X63.599Y-110.998
X63.881Y-69.088
X64.579Y-68.389
X64.615Y-115.316
X66.04Y-136.652
X66.802Y-69.405
X67.137Y-60.96
X67.183Y-59.817
X69.342Y-134.62
X70.612Y-59.817
X70.612Y-61.595
X71.374Y-134.62
X71.628Y-64.008
X72.39Y-106.934
X72.39Y-108.458
X72.771Y-112.839
X73.406Y-105.41
X75.565Y-118.745
X75.692Y-105.41
X75.692Y-106.934
X75.692Y-108.458
X77.851Y-103.505
X77.851Y-108.204
X77.851Y-112.839
X78.359Y-118.745
X78.994Y-85.09
X78.994Y-97.79
X79.908Y-122.428
X80.264Y-68.662
X80.264Y-114.808
X80.391Y-116.332
X80.772Y-82.55
X80.772Y-87.63
X80.772Y-95.25
X80.772Y-100.33
X82.104Y-114.808
X82.169Y-126.873
X82.423Y-97.79
X82.55Y-85.09
X83.185Y-109.22
X83.82Y-121.666
X83.905Y-61.423
X83.947Y-57.74
X84.808Y-113.284
X84.963Y-59.137
X85.09Y-117.145
X85.302Y-61.55
X85.302Y-62.947
X85.598Y-125.476
X85.598Y-132.08
X85.598Y-135.636
X85.915Y-120.713
X85.979Y-119.228
X85.979Y-137.033
X86.36Y-126.873
X86.919Y-118.262
X86.995Y-61.401
X86.995Y-77.343
X87.122Y-57.486
X87.122Y-59.264
X87.503Y-125.603
X87.63Y-113.03
X87.63Y-114.046
X87.833Y-67.869
X87.833Y-70.409
X88.138Y-122.682
X88.904Y-122.682
X89.027Y-57.486
X89.027Y-59.391
X89.027Y-61.401
X89.408Y-128.651
X90.17Y-102.362
X90.452Y-124.968
X90.725Y-65.614
X91.059Y-103.759
X91.545Y-109.22
X92.1Y-137.008
X92.583Y-77.343
X92.684Y-70.948
X92.684Y-73.869
X92.964Y-61.849
X94.107Y-102.489
X94.107Y-116.205
X94.107Y-119.761
X94.295Y-62.931
X94.386Y-129.438
X94.488Y-130.81
X95.25Y-96.393
X95.25Y-116.205
X95.25Y-119.126
X98.044Y-130.81
X98.679Y-118.618
X99.365Y-131.826
X100.33Y-142.494
X100.903Y-124.431
X100.965Y-58.039
X100.965Y-72.009
X100.965Y-85.09
X103.443Y-122.653
X103.443Y-126.209
X103.505Y-56.261
X103.505Y-59.817
X103.505Y-70.231
X103.505Y-73.787
X103.505Y-83.312
X103.505Y-86.868
X105.983Y-124.431
X106.045Y-58.039
X106.045Y-72.009
X106.045Y-85.09
X120.908Y-132.08
X122.432Y-124.079
X124.168Y-126.553
X127.381Y-121.412
X127.385Y-125.095
X132.907Y-129.667
X162.306Y-142.494
X162.433Y-140.462
X165.989Y-140.462
X165.989Y-142.494
T2
X66.487Y-63.343
X66.487Y-64.643
X66.487Y-65.943
X67.787Y-63.343
X67.787Y-64.643
X67.787Y-65.943
T4
X88.646Y-139.573
X88.646Y-140.843
X89.916Y-139.573
X89.916Y-140.843
X91.186Y-139.573
X91.186Y-140.843
X92.456Y-139.573
X92.456Y-140.843
X93.726Y-139.573
X93.726Y-140.843
X94.996Y-139.573
X94.996Y-140.843
X96.266Y-139.573
X96.266Y-140.843
T5
X142.875Y-115.933
X142.875Y-126.383
X145.415Y-115.933
X145.415Y-126.383
T6
X76.073Y-132.461
X77.777Y-54.709
X77.777Y-57.249
X77.777Y-59.789
X77.777Y-62.329
X77.777Y-64.869
X77.777Y-67.409
X78.573Y-132.461
X81.073Y-132.461
X103.117Y-135.636
X103.117Y-138.176
X103.117Y-140.716
X103.117Y-143.256
X103.124Y-135.636
X103.124Y-138.176
X103.124Y-140.716
X103.124Y-143.256
T7
X54.57Y-99.568
X54.57Y-104.648
T8
X67.818Y-77.216
X67.818Y-83.121
X67.818Y-89.027
X67.818Y-94.932
X67.818Y-100.838
X86.36Y-83.121
X86.36Y-89.027
X86.36Y-94.932
X86.36Y-100.838
X98.044Y-106.66
X98.044Y-113.284
T9
X74.173Y-139.461
X82.973Y-139.461
T3
G00X50.578Y-118.74
M15
G01X49.978Y-118.74
M16
G05
G00X50.578Y-127.38
M15
G01X49.978Y-127.38
M16
G05
G00X50.725Y-80.917
M15
G01X50.125Y-80.917
M16
G05
G00X50.725Y-89.557
M15
G01X50.125Y-89.557
M16
G05
G00X55.008Y-118.74
M15
G01X53.908Y-118.74
M16
G05
G00X55.008Y-127.38
M15
G01X53.908Y-127.38
M16
G05
G00X55.155Y-80.917
M15
G01X54.055Y-80.917
M16
G05
G00X55.155Y-89.557
M15
G01X54.055Y-89.557
M16
G05
M30
