%TF.GenerationSoftware,KiCad,Pcbnew,10.0.5*%
%TF.CreationDate,2026-08-13T15:43:34+02:00*%
%TF.ProjectId,dcMotor,64634d6f-746f-4722-9e6b-696361645f70,rev?*%
%TF.SameCoordinates,Original*%
%TF.FileFunction,Drillmap*%
%TF.FilePolarity,Positive*%
%FSLAX45Y45*%
G04 Gerber Fmt 4.5, Leading zero omitted, Abs format (unit mm)*
G04 Created by KiCad (PCBNEW 10.0.5) date 2026-08-13 15:43:34*
%MOMM*%
%LPD*%
G01*
G04 APERTURE LIST*
%ADD10C,0.050000*%
%ADD11C,0.200000*%
%ADD12C,0.100000*%
%ADD13C,0.140000*%
%ADD14C,0.160000*%
%ADD15C,0.220000*%
G04 APERTURE END LIST*
D10*
X4837430Y-5080000D02*
X17337430Y-5080000D01*
X17337430Y-14880000D01*
X4837430Y-14880000D01*
X4837430Y-5080000D01*
D11*
D12*
X4988800Y-6337540D02*
X5018800Y-6367540D01*
X5018800Y-6337540D02*
X4988800Y-6367540D01*
X4988800Y-6616940D02*
X5018800Y-6646940D01*
X5018800Y-6616940D02*
X4988800Y-6646940D01*
X4988800Y-7097000D02*
X5018800Y-7127000D01*
X5018800Y-7097000D02*
X4988800Y-7127000D01*
X4988800Y-7376400D02*
X5018800Y-7406400D01*
X5018800Y-7376400D02*
X4988800Y-7406400D01*
X5026900Y-8214600D02*
X5056900Y-8244600D01*
X5056900Y-8214600D02*
X5026900Y-8244600D01*
X5026900Y-8798800D02*
X5056900Y-8828800D01*
X5056900Y-8798800D02*
X5026900Y-8828800D01*
X5127950Y-5245200D02*
X5157950Y-5275200D01*
X5157950Y-5245200D02*
X5127950Y-5275200D01*
X5127950Y-5435700D02*
X5157950Y-5465700D01*
X5157950Y-5435700D02*
X5127950Y-5465700D01*
X5153350Y-5776200D02*
X5183350Y-5806200D01*
X5183350Y-5776200D02*
X5153350Y-5806200D01*
X5166600Y-9941800D02*
X5196600Y-9971800D01*
X5196600Y-9941800D02*
X5166600Y-9971800D01*
X5217400Y-6337540D02*
X5247400Y-6367540D01*
X5247400Y-6337540D02*
X5217400Y-6367540D01*
X5217400Y-6616940D02*
X5247400Y-6646940D01*
X5247400Y-6616940D02*
X5217400Y-6646940D01*
X5217400Y-7097000D02*
X5247400Y-7127000D01*
X5247400Y-7097000D02*
X5217400Y-7127000D01*
X5217400Y-7376400D02*
X5247400Y-7406400D01*
X5247400Y-7376400D02*
X5217400Y-7406400D01*
X5287555Y-8305510D02*
X5317555Y-8335510D01*
X5317555Y-8305510D02*
X5287555Y-8335510D01*
X5293050Y-5651600D02*
X5323050Y-5681600D01*
X5323050Y-5651600D02*
X5293050Y-5681600D01*
X5305750Y-5435700D02*
X5335750Y-5465700D01*
X5335750Y-5435700D02*
X5305750Y-5465700D01*
X5318450Y-5245200D02*
X5348450Y-5275200D01*
X5348450Y-5245200D02*
X5318450Y-5275200D01*
X5338355Y-8686510D02*
X5368355Y-8716510D01*
X5368355Y-8686510D02*
X5338355Y-8716510D01*
X5344400Y-6477240D02*
X5374400Y-6507240D01*
X5374400Y-6477240D02*
X5344400Y-6507240D01*
X5344400Y-7236700D02*
X5374400Y-7266700D01*
X5374400Y-7236700D02*
X5344400Y-7266700D01*
X5446000Y-9052800D02*
X5476000Y-9082800D01*
X5476000Y-9052800D02*
X5446000Y-9082800D01*
X5446000Y-9764000D02*
X5476000Y-9794000D01*
X5476000Y-9764000D02*
X5446000Y-9794000D01*
X5446000Y-10119600D02*
X5476000Y-10149600D01*
X5476000Y-10119600D02*
X5446000Y-10149600D01*
X5519500Y-5245200D02*
X5549500Y-5275200D01*
X5549500Y-5245200D02*
X5519500Y-5275200D01*
X5519500Y-5448400D02*
X5549500Y-5478400D01*
X5549500Y-5448400D02*
X5519500Y-5478400D01*
X5534350Y-5770100D02*
X5564350Y-5800100D01*
X5564350Y-5770100D02*
X5534350Y-5800100D01*
X5547050Y-5617700D02*
X5577050Y-5647700D01*
X5577050Y-5617700D02*
X5547050Y-5647700D01*
X5566955Y-7949910D02*
X5596955Y-7979910D01*
X5596955Y-7949910D02*
X5566955Y-7979910D01*
X5598400Y-7630400D02*
X5628400Y-7660400D01*
X5628400Y-7630400D02*
X5598400Y-7660400D01*
X5617755Y-8076910D02*
X5647755Y-8106910D01*
X5647755Y-8076910D02*
X5617755Y-8106910D01*
X5632995Y-8948136D02*
X5662995Y-8978136D01*
X5662995Y-8948136D02*
X5632995Y-8978136D01*
X5633300Y-8264870D02*
X5663300Y-8294870D01*
X5663300Y-8264870D02*
X5633300Y-8294870D01*
X5633300Y-8748710D02*
X5663300Y-8778710D01*
X5663300Y-8748710D02*
X5633300Y-8778710D01*
X5674050Y-5617700D02*
X5704050Y-5647700D01*
X5704050Y-5617700D02*
X5674050Y-5647700D01*
X5687300Y-8443200D02*
X5717300Y-8473200D01*
X5717300Y-8443200D02*
X5687300Y-8473200D01*
X5687300Y-8544800D02*
X5717300Y-8574800D01*
X5717300Y-8544800D02*
X5687300Y-8574800D01*
X5700000Y-9941800D02*
X5730000Y-9971800D01*
X5730000Y-9941800D02*
X5700000Y-9971800D01*
X5722200Y-8087836D02*
X5752200Y-8117836D01*
X5752200Y-8087836D02*
X5722200Y-8117836D01*
X5724435Y-8948136D02*
X5754435Y-8978136D01*
X5754435Y-8948136D02*
X5724435Y-8978136D01*
X5788900Y-7795500D02*
X5818900Y-7825500D01*
X5818900Y-7795500D02*
X5788900Y-7825500D01*
X5801600Y-7071600D02*
X5831600Y-7101600D01*
X5831600Y-7071600D02*
X5801600Y-7101600D01*
X5801600Y-7389100D02*
X5831600Y-7419100D01*
X5831600Y-7389100D02*
X5801600Y-7419100D01*
X5852400Y-6258800D02*
X5882400Y-6288800D01*
X5882400Y-6258800D02*
X5852400Y-6288800D01*
X5865100Y-8049500D02*
X5895100Y-8079500D01*
X5895100Y-8049500D02*
X5865100Y-8079500D01*
X5874600Y-8947900D02*
X5904600Y-8977900D01*
X5904600Y-8947900D02*
X5874600Y-8977900D01*
X5903200Y-13764500D02*
X5933200Y-13794500D01*
X5933200Y-13764500D02*
X5903200Y-13794500D01*
X5941300Y-7033500D02*
X5971300Y-7063500D01*
X5971300Y-7033500D02*
X5941300Y-7063500D01*
X5941300Y-7465300D02*
X5971300Y-7495300D01*
X5971300Y-7465300D02*
X5941300Y-7495300D01*
X6068300Y-7097000D02*
X6098300Y-7127000D01*
X6098300Y-7097000D02*
X6068300Y-7127000D01*
X6068300Y-7579600D02*
X6098300Y-7609600D01*
X6098300Y-7579600D02*
X6068300Y-7609600D01*
X6106400Y-13764500D02*
X6136400Y-13794500D01*
X6136400Y-13764500D02*
X6106400Y-13794500D01*
X6217925Y-10957800D02*
X6247925Y-10987800D01*
X6247925Y-10957800D02*
X6217925Y-10987800D01*
X6217925Y-11364200D02*
X6247925Y-11394200D01*
X6247925Y-11364200D02*
X6217925Y-11394200D01*
X6217925Y-11465800D02*
X6247925Y-11495800D01*
X6247925Y-11465800D02*
X6217925Y-11495800D01*
X6217925Y-11567400D02*
X6247925Y-11597400D01*
X6247925Y-11567400D02*
X6217925Y-11597400D01*
X6217925Y-11669000D02*
X6247925Y-11699000D01*
X6247925Y-11669000D02*
X6217925Y-11699000D01*
X6220700Y-7122400D02*
X6250700Y-7152400D01*
X6250700Y-7122400D02*
X6220700Y-7152400D01*
X6220700Y-7338300D02*
X6250700Y-7368300D01*
X6250700Y-7338300D02*
X6220700Y-7368300D01*
X6246100Y-6830300D02*
X6276100Y-6860300D01*
X6276100Y-6830300D02*
X6246100Y-6860300D01*
X6246100Y-7020800D02*
X6276100Y-7050800D01*
X6276100Y-7020800D02*
X6246100Y-7050800D01*
X6319525Y-11211800D02*
X6349525Y-11241800D01*
X6349525Y-11211800D02*
X6319525Y-11241800D01*
X6319525Y-11313400D02*
X6349525Y-11343400D01*
X6349525Y-11313400D02*
X6319525Y-11343400D01*
X6335000Y-5966700D02*
X6365000Y-5996700D01*
X6365000Y-5966700D02*
X6335000Y-5996700D01*
X6335000Y-6144500D02*
X6365000Y-6174500D01*
X6365000Y-6144500D02*
X6335000Y-6174500D01*
X6344925Y-11084800D02*
X6374925Y-11114800D01*
X6374925Y-11084800D02*
X6344925Y-11114800D01*
X6373100Y-6893800D02*
X6403100Y-6923800D01*
X6403100Y-6893800D02*
X6373100Y-6923800D01*
X6442900Y-6823900D02*
X6472900Y-6853900D01*
X6472900Y-6823900D02*
X6442900Y-6853900D01*
X6446525Y-11516600D02*
X6476525Y-11546600D01*
X6476525Y-11516600D02*
X6446525Y-11546600D01*
X6589000Y-13650200D02*
X6619000Y-13680200D01*
X6619000Y-13650200D02*
X6589000Y-13680200D01*
X6665200Y-6925500D02*
X6695200Y-6955500D01*
X6695200Y-6925500D02*
X6665200Y-6955500D01*
X6698700Y-6081000D02*
X6728700Y-6111000D01*
X6728700Y-6081000D02*
X6698700Y-6111000D01*
X6703300Y-5966700D02*
X6733300Y-5996700D01*
X6733300Y-5966700D02*
X6703300Y-5996700D01*
X6919200Y-13447000D02*
X6949200Y-13477000D01*
X6949200Y-13447000D02*
X6919200Y-13477000D01*
X7046200Y-5966700D02*
X7076200Y-5996700D01*
X7076200Y-5966700D02*
X7046200Y-5996700D01*
X7046200Y-6144500D02*
X7076200Y-6174500D01*
X7076200Y-6144500D02*
X7046200Y-6174500D01*
X7122400Y-13447000D02*
X7152400Y-13477000D01*
X7152400Y-13447000D02*
X7122400Y-13477000D01*
X7147800Y-6385800D02*
X7177800Y-6415800D01*
X7177800Y-6385800D02*
X7147800Y-6415800D01*
X7224000Y-10678400D02*
X7254000Y-10708400D01*
X7254000Y-10678400D02*
X7224000Y-10708400D01*
X7224000Y-10830800D02*
X7254000Y-10860800D01*
X7254000Y-10830800D02*
X7224000Y-10860800D01*
X7262100Y-11268900D02*
X7292100Y-11298900D01*
X7292100Y-11268900D02*
X7262100Y-11298900D01*
X7325600Y-10526000D02*
X7355600Y-10556000D01*
X7355600Y-10526000D02*
X7325600Y-10556000D01*
X7541500Y-11859500D02*
X7571500Y-11889500D01*
X7571500Y-11859500D02*
X7541500Y-11889500D01*
X7554200Y-10526000D02*
X7584200Y-10556000D01*
X7584200Y-10526000D02*
X7554200Y-10556000D01*
X7554200Y-10678400D02*
X7584200Y-10708400D01*
X7584200Y-10678400D02*
X7554200Y-10708400D01*
X7554200Y-10830800D02*
X7584200Y-10860800D01*
X7584200Y-10830800D02*
X7554200Y-10860800D01*
X7770100Y-10335500D02*
X7800100Y-10365500D01*
X7800100Y-10335500D02*
X7770100Y-10365500D01*
X7770100Y-10805400D02*
X7800100Y-10835400D01*
X7800100Y-10805400D02*
X7770100Y-10835400D01*
X7770100Y-11268900D02*
X7800100Y-11298900D01*
X7800100Y-11268900D02*
X7770100Y-11298900D01*
X7820900Y-11859500D02*
X7850900Y-11889500D01*
X7850900Y-11859500D02*
X7820900Y-11889500D01*
X7884400Y-8494000D02*
X7914400Y-8524000D01*
X7914400Y-8494000D02*
X7884400Y-8524000D01*
X7884400Y-9764000D02*
X7914400Y-9794000D01*
X7914400Y-9764000D02*
X7884400Y-9794000D01*
X7975840Y-12227800D02*
X8005840Y-12257800D01*
X8005840Y-12227800D02*
X7975840Y-12257800D01*
X8011400Y-6851200D02*
X8041400Y-6881200D01*
X8041400Y-6851200D02*
X8011400Y-6881200D01*
X8011400Y-11465800D02*
X8041400Y-11495800D01*
X8041400Y-11465800D02*
X8011400Y-11495800D01*
X8024100Y-11618200D02*
X8054100Y-11648200D01*
X8054100Y-11618200D02*
X8024100Y-11648200D01*
X8062200Y-8240000D02*
X8092200Y-8270000D01*
X8092200Y-8240000D02*
X8062200Y-8270000D01*
X8062200Y-8748000D02*
X8092200Y-8778000D01*
X8092200Y-8748000D02*
X8062200Y-8778000D01*
X8062200Y-9510000D02*
X8092200Y-9540000D01*
X8092200Y-9510000D02*
X8062200Y-9540000D01*
X8062200Y-10018000D02*
X8092200Y-10048000D01*
X8092200Y-10018000D02*
X8062200Y-10048000D01*
X8195390Y-11465800D02*
X8225390Y-11495800D01*
X8225390Y-11465800D02*
X8195390Y-11495800D01*
X8201900Y-12672300D02*
X8231900Y-12702300D01*
X8231900Y-12672300D02*
X8201900Y-12702300D01*
X8227300Y-9764000D02*
X8257300Y-9794000D01*
X8257300Y-9764000D02*
X8227300Y-9794000D01*
X8240000Y-8494000D02*
X8270000Y-8524000D01*
X8270000Y-8494000D02*
X8240000Y-8524000D01*
X8303500Y-10907000D02*
X8333500Y-10937000D01*
X8333500Y-10907000D02*
X8303500Y-10937000D01*
X8367000Y-12151600D02*
X8397000Y-12181600D01*
X8397000Y-12151600D02*
X8367000Y-12181600D01*
X8375500Y-6127300D02*
X8405500Y-6157300D01*
X8405500Y-6127300D02*
X8375500Y-6157300D01*
X8379700Y-5759000D02*
X8409700Y-5789000D01*
X8409700Y-5759000D02*
X8379700Y-5789000D01*
X8465800Y-11313400D02*
X8495800Y-11343400D01*
X8495800Y-11313400D02*
X8465800Y-11343400D01*
X8481300Y-5898700D02*
X8511300Y-5928700D01*
X8511300Y-5898700D02*
X8481300Y-5928700D01*
X8494000Y-11699480D02*
X8524000Y-11729480D01*
X8524000Y-11699480D02*
X8494000Y-11729480D01*
X8515200Y-6140000D02*
X8545200Y-6170000D01*
X8545200Y-6140000D02*
X8515200Y-6170000D01*
X8515200Y-6279700D02*
X8545200Y-6309700D01*
X8545200Y-6279700D02*
X8515200Y-6309700D01*
X8544800Y-12532600D02*
X8574800Y-12562600D01*
X8574800Y-12532600D02*
X8544800Y-12562600D01*
X8544800Y-13193000D02*
X8574800Y-13223000D01*
X8574800Y-13193000D02*
X8544800Y-13223000D01*
X8544800Y-13548600D02*
X8574800Y-13578600D01*
X8574800Y-13548600D02*
X8544800Y-13578600D01*
X8576550Y-12056350D02*
X8606550Y-12086350D01*
X8606550Y-12056350D02*
X8576550Y-12086350D01*
X8582900Y-11907760D02*
X8612900Y-11937760D01*
X8612900Y-11907760D02*
X8582900Y-11937760D01*
X8582900Y-13688300D02*
X8612900Y-13718300D01*
X8612900Y-13688300D02*
X8582900Y-13718300D01*
X8621000Y-12672300D02*
X8651000Y-12702300D01*
X8651000Y-12672300D02*
X8621000Y-12702300D01*
X8676880Y-11811240D02*
X8706880Y-11841240D01*
X8706880Y-11811240D02*
X8676880Y-11841240D01*
X8684500Y-6125150D02*
X8714500Y-6155150D01*
X8714500Y-6125150D02*
X8684500Y-6155150D01*
X8684500Y-7719300D02*
X8714500Y-7749300D01*
X8714500Y-7719300D02*
X8684500Y-7749300D01*
X8697200Y-5733600D02*
X8727200Y-5763600D01*
X8727200Y-5733600D02*
X8697200Y-5763600D01*
X8697200Y-5911400D02*
X8727200Y-5941400D01*
X8727200Y-5911400D02*
X8697200Y-5941400D01*
X8735300Y-12545300D02*
X8765300Y-12575300D01*
X8765300Y-12545300D02*
X8735300Y-12575300D01*
X8748000Y-11288000D02*
X8778000Y-11318000D01*
X8778000Y-11288000D02*
X8748000Y-11318000D01*
X8748000Y-11389600D02*
X8778000Y-11419600D01*
X8778000Y-11389600D02*
X8748000Y-11419600D01*
X8768320Y-6771880D02*
X8798320Y-6801880D01*
X8798320Y-6771880D02*
X8768320Y-6801880D01*
X8768320Y-7025880D02*
X8798320Y-7055880D01*
X8798320Y-7025880D02*
X8768320Y-7055880D01*
X8798800Y-12253200D02*
X8828800Y-12283200D01*
X8828800Y-12253200D02*
X8798800Y-12283200D01*
X8875447Y-12253200D02*
X8905447Y-12283200D01*
X8905447Y-12253200D02*
X8875447Y-12283200D01*
X8887700Y-5733600D02*
X8917700Y-5763600D01*
X8917700Y-5733600D02*
X8887700Y-5763600D01*
X8887700Y-5924100D02*
X8917700Y-5954100D01*
X8917700Y-5924100D02*
X8887700Y-5954100D01*
X8887700Y-6125150D02*
X8917700Y-6155150D01*
X8917700Y-6125150D02*
X8887700Y-6155150D01*
X8925800Y-12850100D02*
X8955800Y-12880100D01*
X8955800Y-12850100D02*
X8925800Y-12880100D01*
X9002000Y-10221200D02*
X9032000Y-10251200D01*
X9032000Y-10221200D02*
X9002000Y-10251200D01*
X9030200Y-12481800D02*
X9060200Y-12511800D01*
X9060200Y-12481800D02*
X9030200Y-12511800D01*
X9057550Y-6546400D02*
X9087550Y-6576400D01*
X9087550Y-6546400D02*
X9057550Y-6576400D01*
X9090900Y-10360900D02*
X9120900Y-10390900D01*
X9120900Y-10360900D02*
X9090900Y-10390900D01*
X9139550Y-10907000D02*
X9169550Y-10937000D01*
X9169550Y-10907000D02*
X9139550Y-10937000D01*
X9195040Y-13685760D02*
X9225040Y-13715760D01*
X9225040Y-13685760D02*
X9195040Y-13715760D01*
X9243300Y-7719300D02*
X9273300Y-7749300D01*
X9273300Y-7719300D02*
X9243300Y-7749300D01*
X9253450Y-7079800D02*
X9283450Y-7109800D01*
X9283450Y-7079800D02*
X9253450Y-7109800D01*
X9253450Y-7371900D02*
X9283450Y-7401900D01*
X9283450Y-7371900D02*
X9253450Y-7401900D01*
X9281400Y-6169900D02*
X9311400Y-6199900D01*
X9311400Y-6169900D02*
X9281400Y-6199900D01*
X9395700Y-10233900D02*
X9425700Y-10263900D01*
X9425700Y-10233900D02*
X9395700Y-10263900D01*
X9395700Y-11605500D02*
X9425700Y-11635500D01*
X9425700Y-11605500D02*
X9395700Y-11635500D01*
X9395700Y-11961100D02*
X9425700Y-11991100D01*
X9425700Y-11961100D02*
X9395700Y-11991100D01*
X9414500Y-6278100D02*
X9444500Y-6308100D01*
X9444500Y-6278100D02*
X9414500Y-6308100D01*
X9423640Y-12928840D02*
X9453640Y-12958840D01*
X9453640Y-12928840D02*
X9423640Y-12958840D01*
X9433800Y-13066000D02*
X9463800Y-13096000D01*
X9463800Y-13066000D02*
X9433800Y-13096000D01*
X9510000Y-9624300D02*
X9540000Y-9654300D01*
X9540000Y-9624300D02*
X9510000Y-9654300D01*
X9510000Y-11605500D02*
X9540000Y-11635500D01*
X9540000Y-11605500D02*
X9510000Y-11635500D01*
X9510000Y-11897600D02*
X9540000Y-11927600D01*
X9540000Y-11897600D02*
X9510000Y-11927600D01*
X9789400Y-13066000D02*
X9819400Y-13096000D01*
X9819400Y-13066000D02*
X9789400Y-13096000D01*
X9852900Y-11846800D02*
X9882900Y-11876800D01*
X9882900Y-11846800D02*
X9852900Y-11876800D01*
X9921480Y-13167600D02*
X9951480Y-13197600D01*
X9951480Y-13167600D02*
X9921480Y-13197600D01*
X10018000Y-14234400D02*
X10048000Y-14264400D01*
X10048000Y-14234400D02*
X10018000Y-14264400D01*
X10075296Y-12428072D02*
X10105296Y-12458072D01*
X10105296Y-12428072D02*
X10075296Y-12458072D01*
X10081500Y-5788900D02*
X10111500Y-5818900D01*
X10111500Y-5788900D02*
X10081500Y-5818900D01*
X10081500Y-7185900D02*
X10111500Y-7215900D01*
X10111500Y-7185900D02*
X10081500Y-7215900D01*
X10081500Y-8494000D02*
X10111500Y-8524000D01*
X10111500Y-8494000D02*
X10081500Y-8524000D01*
X10329296Y-12250272D02*
X10359296Y-12280272D01*
X10359296Y-12250272D02*
X10329296Y-12280272D01*
X10329296Y-12605872D02*
X10359296Y-12635872D01*
X10359296Y-12605872D02*
X10329296Y-12635872D01*
X10335500Y-5611100D02*
X10365500Y-5641100D01*
X10365500Y-5611100D02*
X10335500Y-5641100D01*
X10335500Y-5966700D02*
X10365500Y-5996700D01*
X10365500Y-5966700D02*
X10335500Y-5996700D01*
X10335500Y-7008100D02*
X10365500Y-7038100D01*
X10365500Y-7008100D02*
X10335500Y-7038100D01*
X10335500Y-7363700D02*
X10365500Y-7393700D01*
X10365500Y-7363700D02*
X10335500Y-7393700D01*
X10335500Y-8316200D02*
X10365500Y-8346200D01*
X10365500Y-8316200D02*
X10335500Y-8346200D01*
X10335500Y-8671800D02*
X10365500Y-8701800D01*
X10365500Y-8671800D02*
X10335500Y-8701800D01*
X10583296Y-12428072D02*
X10613296Y-12458072D01*
X10613296Y-12428072D02*
X10583296Y-12458072D01*
X10589500Y-5788900D02*
X10619500Y-5818900D01*
X10619500Y-5788900D02*
X10589500Y-5818900D01*
X10589500Y-7185900D02*
X10619500Y-7215900D01*
X10619500Y-7185900D02*
X10589500Y-7215900D01*
X10589500Y-8494000D02*
X10619500Y-8524000D01*
X10619500Y-8494000D02*
X10589500Y-8524000D01*
X12075751Y-13193000D02*
X12105751Y-13223000D01*
X12105751Y-13193000D02*
X12075751Y-13223000D01*
X12228151Y-12392900D02*
X12258151Y-12422900D01*
X12258151Y-12392900D02*
X12228151Y-12422900D01*
X12401751Y-12640300D02*
X12431751Y-12670300D01*
X12431751Y-12640300D02*
X12401751Y-12670300D01*
X12723100Y-12126200D02*
X12753100Y-12156200D01*
X12753100Y-12126200D02*
X12723100Y-12156200D01*
X12723451Y-12494500D02*
X12753451Y-12524500D01*
X12753451Y-12494500D02*
X12723451Y-12524500D01*
X13275651Y-12951700D02*
X13305651Y-12981700D01*
X13305651Y-12951700D02*
X13275651Y-12981700D01*
X16215600Y-14234400D02*
X16245600Y-14264400D01*
X16245600Y-14234400D02*
X16215600Y-14264400D01*
X16228300Y-14031200D02*
X16258300Y-14061200D01*
X16258300Y-14031200D02*
X16228300Y-14061200D01*
X16583900Y-14031200D02*
X16613900Y-14061200D01*
X16613900Y-14031200D02*
X16583900Y-14061200D01*
X16583900Y-14234400D02*
X16613900Y-14264400D01*
X16613900Y-14234400D02*
X16583900Y-14264400D01*
X6665200Y-6334300D02*
G75*
G02*
X6632200Y-6334300I-16500J0D01*
G01*
X6632200Y-6334300D02*
G75*
G02*
X6665200Y-6334300I16500J0D01*
G01*
X6665200Y-6464300D02*
G75*
G02*
X6632200Y-6464300I-16500J0D01*
G01*
X6632200Y-6464300D02*
G75*
G02*
X6665200Y-6464300I16500J0D01*
G01*
X6665200Y-6594300D02*
G75*
G02*
X6632200Y-6594300I-16500J0D01*
G01*
X6632200Y-6594300D02*
G75*
G02*
X6665200Y-6594300I16500J0D01*
G01*
X6795200Y-6334300D02*
G75*
G02*
X6762200Y-6334300I-16500J0D01*
G01*
X6762200Y-6334300D02*
G75*
G02*
X6795200Y-6334300I16500J0D01*
G01*
X6795200Y-6464300D02*
G75*
G02*
X6762200Y-6464300I-16500J0D01*
G01*
X6762200Y-6464300D02*
G75*
G02*
X6795200Y-6464300I16500J0D01*
G01*
X6795200Y-6594300D02*
G75*
G02*
X6762200Y-6594300I-16500J0D01*
G01*
X6762200Y-6594300D02*
G75*
G02*
X6795200Y-6594300I16500J0D01*
G01*
X5027800Y-11844000D02*
X5027800Y-11904000D01*
X4997800Y-11874000D02*
X5057800Y-11874000D01*
X5057800Y-11844000D02*
X4997800Y-11844000D01*
X4997800Y-11904000D02*
G75*
G02*
X4997800Y-11844000I0J30000D01*
G01*
X4997800Y-11904000D02*
X5057800Y-11904000D01*
X5057800Y-11904000D02*
G75*
G03*
X5057800Y-11844000I0J30000D01*
G01*
X5027800Y-12708000D02*
X5027800Y-12768000D01*
X4997800Y-12738000D02*
X5057800Y-12738000D01*
X5057800Y-12708000D02*
X4997800Y-12708000D01*
X4997800Y-12768000D02*
G75*
G02*
X4997800Y-12708000I0J30000D01*
G01*
X4997800Y-12768000D02*
X5057800Y-12768000D01*
X5057800Y-12768000D02*
G75*
G03*
X5057800Y-12708000I0J30000D01*
G01*
X5042500Y-8061710D02*
X5042500Y-8121710D01*
X5012500Y-8091710D02*
X5072500Y-8091710D01*
X5072500Y-8061710D02*
X5012500Y-8061710D01*
X5012500Y-8121710D02*
G75*
G02*
X5012500Y-8061710I0J30000D01*
G01*
X5012500Y-8121710D02*
X5072500Y-8121710D01*
X5072500Y-8121710D02*
G75*
G03*
X5072500Y-8061710I0J30000D01*
G01*
X5042500Y-8925710D02*
X5042500Y-8985710D01*
X5012500Y-8955710D02*
X5072500Y-8955710D01*
X5072500Y-8925710D02*
X5012500Y-8925710D01*
X5012500Y-8985710D02*
G75*
G02*
X5012500Y-8925710I0J30000D01*
G01*
X5012500Y-8985710D02*
X5072500Y-8985710D01*
X5072500Y-8985710D02*
G75*
G03*
X5072500Y-8925710I0J30000D01*
G01*
X5445800Y-11844000D02*
X5445800Y-11904000D01*
X5415800Y-11874000D02*
X5475800Y-11874000D01*
X5500800Y-11844000D02*
X5390800Y-11844000D01*
X5390800Y-11904000D02*
G75*
G02*
X5390800Y-11844000I0J30000D01*
G01*
X5390800Y-11904000D02*
X5500800Y-11904000D01*
X5500800Y-11904000D02*
G75*
G03*
X5500800Y-11844000I0J30000D01*
G01*
X5445800Y-12708000D02*
X5445800Y-12768000D01*
X5415800Y-12738000D02*
X5475800Y-12738000D01*
X5500800Y-12708000D02*
X5390800Y-12708000D01*
X5390800Y-12768000D02*
G75*
G02*
X5390800Y-12708000I0J30000D01*
G01*
X5390800Y-12768000D02*
X5500800Y-12768000D01*
X5500800Y-12768000D02*
G75*
G03*
X5500800Y-12708000I0J30000D01*
G01*
X5460500Y-8061710D02*
X5460500Y-8121710D01*
X5430500Y-8091710D02*
X5490500Y-8091710D01*
X5515500Y-8061710D02*
X5405500Y-8061710D01*
X5405500Y-8121710D02*
G75*
G02*
X5405500Y-8061710I0J30000D01*
G01*
X5405500Y-8121710D02*
X5515500Y-8121710D01*
X5515500Y-8121710D02*
G75*
G03*
X5515500Y-8061710I0J30000D01*
G01*
X5460500Y-8925710D02*
X5460500Y-8985710D01*
X5430500Y-8955710D02*
X5490500Y-8955710D01*
X5515500Y-8925710D02*
X5405500Y-8925710D01*
X5405500Y-8985710D02*
G75*
G02*
X5405500Y-8925710I0J30000D01*
G01*
X5405500Y-8985710D02*
X5515500Y-8985710D01*
X5515500Y-8985710D02*
G75*
G03*
X5515500Y-8925710I0J30000D01*
G01*
X8887581Y-13980281D02*
X8887581Y-13934319D01*
X8841619Y-13934319D01*
X8841619Y-13980281D01*
X8887581Y-13980281D01*
X8887581Y-14107281D02*
X8887581Y-14061319D01*
X8841619Y-14061319D01*
X8841619Y-14107281D01*
X8887581Y-14107281D01*
X9014581Y-13980281D02*
X9014581Y-13934319D01*
X8968619Y-13934319D01*
X8968619Y-13980281D01*
X9014581Y-13980281D01*
X9014581Y-14107281D02*
X9014581Y-14061319D01*
X8968619Y-14061319D01*
X8968619Y-14107281D01*
X9014581Y-14107281D01*
X9141581Y-13980281D02*
X9141581Y-13934319D01*
X9095619Y-13934319D01*
X9095619Y-13980281D01*
X9141581Y-13980281D01*
X9141581Y-14107281D02*
X9141581Y-14061319D01*
X9095619Y-14061319D01*
X9095619Y-14107281D01*
X9141581Y-14107281D01*
X9268581Y-13980281D02*
X9268581Y-13934319D01*
X9222619Y-13934319D01*
X9222619Y-13980281D01*
X9268581Y-13980281D01*
X9268581Y-14107281D02*
X9268581Y-14061319D01*
X9222619Y-14061319D01*
X9222619Y-14107281D01*
X9268581Y-14107281D01*
X9395581Y-13980281D02*
X9395581Y-13934319D01*
X9349619Y-13934319D01*
X9349619Y-13980281D01*
X9395581Y-13980281D01*
X9395581Y-14107281D02*
X9395581Y-14061319D01*
X9349619Y-14061319D01*
X9349619Y-14107281D01*
X9395581Y-14107281D01*
X9522581Y-13980281D02*
X9522581Y-13934319D01*
X9476619Y-13934319D01*
X9476619Y-13980281D01*
X9522581Y-13980281D01*
X9522581Y-14107281D02*
X9522581Y-14061319D01*
X9476619Y-14061319D01*
X9476619Y-14107281D01*
X9522581Y-14107281D01*
X9649581Y-13980281D02*
X9649581Y-13934319D01*
X9603619Y-13934319D01*
X9603619Y-13980281D01*
X9649581Y-13980281D01*
X9649581Y-14107281D02*
X9649581Y-14061319D01*
X9603619Y-14061319D01*
X9603619Y-14107281D01*
X9649581Y-14107281D01*
X14287500Y-11633300D02*
X14327500Y-11593300D01*
X14287500Y-11553300D01*
X14247500Y-11593300D01*
X14287500Y-11633300D01*
X14287500Y-12678300D02*
X14327500Y-12638300D01*
X14287500Y-12598300D01*
X14247500Y-12638300D01*
X14287500Y-12678300D01*
X14541500Y-11633300D02*
X14581500Y-11593300D01*
X14541500Y-11553300D01*
X14501500Y-11593300D01*
X14541500Y-11633300D01*
X14541500Y-12678300D02*
X14581500Y-12638300D01*
X14541500Y-12598300D01*
X14501500Y-12638300D01*
X14541500Y-12678300D01*
X7557300Y-13196100D02*
X7657300Y-13296100D01*
X7657300Y-13196100D02*
X7557300Y-13296100D01*
X7657300Y-13246100D02*
G75*
G02*
X7557300Y-13246100I-50000J0D01*
G01*
X7557300Y-13246100D02*
G75*
G02*
X7657300Y-13246100I50000J0D01*
G01*
X7727700Y-5420900D02*
X7827700Y-5520900D01*
X7827700Y-5420900D02*
X7727700Y-5520900D01*
X7827700Y-5470900D02*
G75*
G02*
X7727700Y-5470900I-50000J0D01*
G01*
X7727700Y-5470900D02*
G75*
G02*
X7827700Y-5470900I50000J0D01*
G01*
X7727700Y-5674900D02*
X7827700Y-5774900D01*
X7827700Y-5674900D02*
X7727700Y-5774900D01*
X7827700Y-5724900D02*
G75*
G02*
X7727700Y-5724900I-50000J0D01*
G01*
X7727700Y-5724900D02*
G75*
G02*
X7827700Y-5724900I50000J0D01*
G01*
X7727700Y-5928900D02*
X7827700Y-6028900D01*
X7827700Y-5928900D02*
X7727700Y-6028900D01*
X7827700Y-5978900D02*
G75*
G02*
X7727700Y-5978900I-50000J0D01*
G01*
X7727700Y-5978900D02*
G75*
G02*
X7827700Y-5978900I50000J0D01*
G01*
X7727700Y-6182900D02*
X7827700Y-6282900D01*
X7827700Y-6182900D02*
X7727700Y-6282900D01*
X7827700Y-6232900D02*
G75*
G02*
X7727700Y-6232900I-50000J0D01*
G01*
X7727700Y-6232900D02*
G75*
G02*
X7827700Y-6232900I50000J0D01*
G01*
X7727700Y-6436900D02*
X7827700Y-6536900D01*
X7827700Y-6436900D02*
X7727700Y-6536900D01*
X7827700Y-6486900D02*
G75*
G02*
X7727700Y-6486900I-50000J0D01*
G01*
X7727700Y-6486900D02*
G75*
G02*
X7827700Y-6486900I50000J0D01*
G01*
X7727700Y-6690900D02*
X7827700Y-6790900D01*
X7827700Y-6690900D02*
X7727700Y-6790900D01*
X7827700Y-6740900D02*
G75*
G02*
X7727700Y-6740900I-50000J0D01*
G01*
X7727700Y-6740900D02*
G75*
G02*
X7827700Y-6740900I50000J0D01*
G01*
X7807300Y-13196100D02*
X7907300Y-13296100D01*
X7907300Y-13196100D02*
X7807300Y-13296100D01*
X7907300Y-13246100D02*
G75*
G02*
X7807300Y-13246100I-50000J0D01*
G01*
X7807300Y-13246100D02*
G75*
G02*
X7907300Y-13246100I50000J0D01*
G01*
X8057300Y-13196100D02*
X8157300Y-13296100D01*
X8157300Y-13196100D02*
X8057300Y-13296100D01*
X8157300Y-13246100D02*
G75*
G02*
X8057300Y-13246100I-50000J0D01*
G01*
X8057300Y-13246100D02*
G75*
G02*
X8157300Y-13246100I50000J0D01*
G01*
X10261695Y-13513600D02*
X10361695Y-13613600D01*
X10361695Y-13513600D02*
X10261695Y-13613600D01*
X10361695Y-13563600D02*
G75*
G02*
X10261695Y-13563600I-50000J0D01*
G01*
X10261695Y-13563600D02*
G75*
G02*
X10361695Y-13563600I50000J0D01*
G01*
X10261695Y-13767600D02*
X10361695Y-13867600D01*
X10361695Y-13767600D02*
X10261695Y-13867600D01*
X10361695Y-13817600D02*
G75*
G02*
X10261695Y-13817600I-50000J0D01*
G01*
X10261695Y-13817600D02*
G75*
G02*
X10361695Y-13817600I50000J0D01*
G01*
X10261695Y-14021600D02*
X10361695Y-14121600D01*
X10361695Y-14021600D02*
X10261695Y-14121600D01*
X10361695Y-14071600D02*
G75*
G02*
X10261695Y-14071600I-50000J0D01*
G01*
X10261695Y-14071600D02*
G75*
G02*
X10361695Y-14071600I50000J0D01*
G01*
X10261695Y-14275600D02*
X10361695Y-14375600D01*
X10361695Y-14275600D02*
X10261695Y-14375600D01*
X10361695Y-14325600D02*
G75*
G02*
X10261695Y-14325600I-50000J0D01*
G01*
X10261695Y-14325600D02*
G75*
G02*
X10361695Y-14325600I50000J0D01*
G01*
X10262400Y-13513600D02*
X10362400Y-13613600D01*
X10362400Y-13513600D02*
X10262400Y-13613600D01*
X10362400Y-13563600D02*
G75*
G02*
X10262400Y-13563600I-50000J0D01*
G01*
X10262400Y-13563600D02*
G75*
G02*
X10362400Y-13563600I50000J0D01*
G01*
X10262400Y-13767600D02*
X10362400Y-13867600D01*
X10362400Y-13767600D02*
X10262400Y-13867600D01*
X10362400Y-13817600D02*
G75*
G02*
X10262400Y-13817600I-50000J0D01*
G01*
X10262400Y-13817600D02*
G75*
G02*
X10362400Y-13817600I50000J0D01*
G01*
X10262400Y-14021600D02*
X10362400Y-14121600D01*
X10362400Y-14021600D02*
X10262400Y-14121600D01*
X10362400Y-14071600D02*
G75*
G02*
X10262400Y-14071600I-50000J0D01*
G01*
X10262400Y-14071600D02*
G75*
G02*
X10362400Y-14071600I50000J0D01*
G01*
X10262400Y-14275600D02*
X10362400Y-14375600D01*
X10362400Y-14275600D02*
X10262400Y-14375600D01*
X10362400Y-14325600D02*
G75*
G02*
X10262400Y-14325600I-50000J0D01*
G01*
X10262400Y-14325600D02*
G75*
G02*
X10362400Y-14325600I50000J0D01*
G01*
D13*
X5387050Y-9886800D02*
X5527050Y-10026800D01*
X5527050Y-9886800D02*
X5387050Y-10026800D01*
X5457050Y-9886800D02*
X5457050Y-10026800D01*
X5387050Y-9956800D02*
X5527050Y-9956800D01*
X5387050Y-10394800D02*
X5527050Y-10534800D01*
X5527050Y-10394800D02*
X5387050Y-10534800D01*
X5457050Y-10394800D02*
X5457050Y-10534800D01*
X5387050Y-10464800D02*
X5527050Y-10464800D01*
D14*
X6701800Y-7641600D02*
X6861800Y-7801600D01*
X6861800Y-7641600D02*
X6701800Y-7801600D01*
X6838369Y-7778169D02*
X6838369Y-7665031D01*
X6725231Y-7665031D01*
X6725231Y-7778169D01*
X6838369Y-7778169D01*
X6701800Y-8232150D02*
X6861800Y-8392150D01*
X6861800Y-8232150D02*
X6701800Y-8392150D01*
X6838369Y-8368719D02*
X6838369Y-8255581D01*
X6725231Y-8255581D01*
X6725231Y-8368719D01*
X6838369Y-8368719D01*
X6701800Y-8822700D02*
X6861800Y-8982700D01*
X6861800Y-8822700D02*
X6701800Y-8982700D01*
X6838369Y-8959269D02*
X6838369Y-8846131D01*
X6725231Y-8846131D01*
X6725231Y-8959269D01*
X6838369Y-8959269D01*
X6701800Y-9413250D02*
X6861800Y-9573250D01*
X6861800Y-9413250D02*
X6701800Y-9573250D01*
X6838369Y-9549819D02*
X6838369Y-9436681D01*
X6725231Y-9436681D01*
X6725231Y-9549819D01*
X6838369Y-9549819D01*
X6701800Y-10003800D02*
X6861800Y-10163800D01*
X6861800Y-10003800D02*
X6701800Y-10163800D01*
X6838369Y-10140369D02*
X6838369Y-10027231D01*
X6725231Y-10027231D01*
X6725231Y-10140369D01*
X6838369Y-10140369D01*
X8556000Y-8232150D02*
X8716000Y-8392150D01*
X8716000Y-8232150D02*
X8556000Y-8392150D01*
X8692569Y-8368719D02*
X8692569Y-8255581D01*
X8579431Y-8255581D01*
X8579431Y-8368719D01*
X8692569Y-8368719D01*
X8556000Y-8822700D02*
X8716000Y-8982700D01*
X8716000Y-8822700D02*
X8556000Y-8982700D01*
X8692569Y-8959269D02*
X8692569Y-8846131D01*
X8579431Y-8846131D01*
X8579431Y-8959269D01*
X8692569Y-8959269D01*
X8556000Y-9413250D02*
X8716000Y-9573250D01*
X8716000Y-9413250D02*
X8556000Y-9573250D01*
X8692569Y-9549819D02*
X8692569Y-9436681D01*
X8579431Y-9436681D01*
X8579431Y-9549819D01*
X8692569Y-9549819D01*
X8556000Y-10003800D02*
X8716000Y-10163800D01*
X8716000Y-10003800D02*
X8556000Y-10163800D01*
X8692569Y-10140369D02*
X8692569Y-10027231D01*
X8579431Y-10027231D01*
X8579431Y-10140369D01*
X8692569Y-10140369D01*
X9724400Y-10586018D02*
X9884400Y-10746018D01*
X9884400Y-10586018D02*
X9724400Y-10746018D01*
X9860969Y-10722587D02*
X9860969Y-10609449D01*
X9747831Y-10609449D01*
X9747831Y-10722587D01*
X9860969Y-10722587D01*
X9724400Y-11248400D02*
X9884400Y-11408400D01*
X9884400Y-11248400D02*
X9724400Y-11408400D01*
X9860969Y-11384969D02*
X9860969Y-11271831D01*
X9747831Y-11271831D01*
X9747831Y-11384969D01*
X9860969Y-11384969D01*
D15*
X7307300Y-13836100D02*
X7527300Y-14056100D01*
X7527300Y-13836100D02*
X7307300Y-14056100D01*
X7417300Y-14056100D02*
X7527300Y-13946100D01*
X7417300Y-13836100D01*
X7307300Y-13946100D01*
X7417300Y-14056100D01*
X8187300Y-13836100D02*
X8407300Y-14056100D01*
X8407300Y-13836100D02*
X8187300Y-14056100D01*
X8297300Y-14056100D02*
X8407300Y-13946100D01*
X8297300Y-13836100D01*
X8187300Y-13946100D01*
X8297300Y-14056100D01*
D11*
X5095707Y-15193984D02*
X5095707Y-14993984D01*
X5095707Y-14993984D02*
X5143326Y-14993984D01*
X5143326Y-14993984D02*
X5171897Y-15003507D01*
X5171897Y-15003507D02*
X5190945Y-15022555D01*
X5190945Y-15022555D02*
X5200469Y-15041603D01*
X5200469Y-15041603D02*
X5209993Y-15079698D01*
X5209993Y-15079698D02*
X5209993Y-15108269D01*
X5209993Y-15108269D02*
X5200469Y-15146365D01*
X5200469Y-15146365D02*
X5190945Y-15165412D01*
X5190945Y-15165412D02*
X5171897Y-15184460D01*
X5171897Y-15184460D02*
X5143326Y-15193984D01*
X5143326Y-15193984D02*
X5095707Y-15193984D01*
X5295707Y-15193984D02*
X5295707Y-15060650D01*
X5295707Y-15098746D02*
X5305231Y-15079698D01*
X5305231Y-15079698D02*
X5314754Y-15070174D01*
X5314754Y-15070174D02*
X5333802Y-15060650D01*
X5333802Y-15060650D02*
X5352850Y-15060650D01*
X5419516Y-15193984D02*
X5419516Y-15060650D01*
X5419516Y-14993984D02*
X5409993Y-15003507D01*
X5409993Y-15003507D02*
X5419516Y-15013031D01*
X5419516Y-15013031D02*
X5429040Y-15003507D01*
X5429040Y-15003507D02*
X5419516Y-14993984D01*
X5419516Y-14993984D02*
X5419516Y-15013031D01*
X5543326Y-15193984D02*
X5524278Y-15184460D01*
X5524278Y-15184460D02*
X5514754Y-15165412D01*
X5514754Y-15165412D02*
X5514754Y-14993984D01*
X5648088Y-15193984D02*
X5629040Y-15184460D01*
X5629040Y-15184460D02*
X5619516Y-15165412D01*
X5619516Y-15165412D02*
X5619516Y-14993984D01*
X5876659Y-15193984D02*
X5876659Y-14993984D01*
X5876659Y-14993984D02*
X5943326Y-15136841D01*
X5943326Y-15136841D02*
X6009992Y-14993984D01*
X6009992Y-14993984D02*
X6009992Y-15193984D01*
X6190945Y-15193984D02*
X6190945Y-15089222D01*
X6190945Y-15089222D02*
X6181421Y-15070174D01*
X6181421Y-15070174D02*
X6162373Y-15060650D01*
X6162373Y-15060650D02*
X6124278Y-15060650D01*
X6124278Y-15060650D02*
X6105231Y-15070174D01*
X6190945Y-15184460D02*
X6171897Y-15193984D01*
X6171897Y-15193984D02*
X6124278Y-15193984D01*
X6124278Y-15193984D02*
X6105231Y-15184460D01*
X6105231Y-15184460D02*
X6095707Y-15165412D01*
X6095707Y-15165412D02*
X6095707Y-15146365D01*
X6095707Y-15146365D02*
X6105231Y-15127317D01*
X6105231Y-15127317D02*
X6124278Y-15117793D01*
X6124278Y-15117793D02*
X6171897Y-15117793D01*
X6171897Y-15117793D02*
X6190945Y-15108269D01*
X6286183Y-15060650D02*
X6286183Y-15260650D01*
X6286183Y-15070174D02*
X6305231Y-15060650D01*
X6305231Y-15060650D02*
X6343326Y-15060650D01*
X6343326Y-15060650D02*
X6362373Y-15070174D01*
X6362373Y-15070174D02*
X6371897Y-15079698D01*
X6371897Y-15079698D02*
X6381421Y-15098746D01*
X6381421Y-15098746D02*
X6381421Y-15155888D01*
X6381421Y-15155888D02*
X6371897Y-15174936D01*
X6371897Y-15174936D02*
X6362373Y-15184460D01*
X6362373Y-15184460D02*
X6343326Y-15193984D01*
X6343326Y-15193984D02*
X6305231Y-15193984D01*
X6305231Y-15193984D02*
X6286183Y-15184460D01*
X6467135Y-15174936D02*
X6476659Y-15184460D01*
X6476659Y-15184460D02*
X6467135Y-15193984D01*
X6467135Y-15193984D02*
X6457612Y-15184460D01*
X6457612Y-15184460D02*
X6467135Y-15174936D01*
X6467135Y-15174936D02*
X6467135Y-15193984D01*
X6467135Y-15070174D02*
X6476659Y-15079698D01*
X6476659Y-15079698D02*
X6467135Y-15089222D01*
X6467135Y-15089222D02*
X6457612Y-15079698D01*
X6457612Y-15079698D02*
X6467135Y-15070174D01*
X6467135Y-15070174D02*
X6467135Y-15089222D01*
D12*
X4804930Y-15507500D02*
X4834930Y-15537500D01*
X4834930Y-15507500D02*
X4804930Y-15537500D01*
D11*
X5133802Y-15413984D02*
X5152850Y-15413984D01*
X5152850Y-15413984D02*
X5171897Y-15423507D01*
X5171897Y-15423507D02*
X5181421Y-15433031D01*
X5181421Y-15433031D02*
X5190945Y-15452079D01*
X5190945Y-15452079D02*
X5200469Y-15490174D01*
X5200469Y-15490174D02*
X5200469Y-15537793D01*
X5200469Y-15537793D02*
X5190945Y-15575888D01*
X5190945Y-15575888D02*
X5181421Y-15594936D01*
X5181421Y-15594936D02*
X5171897Y-15604460D01*
X5171897Y-15604460D02*
X5152850Y-15613984D01*
X5152850Y-15613984D02*
X5133802Y-15613984D01*
X5133802Y-15613984D02*
X5114754Y-15604460D01*
X5114754Y-15604460D02*
X5105231Y-15594936D01*
X5105231Y-15594936D02*
X5095707Y-15575888D01*
X5095707Y-15575888D02*
X5086183Y-15537793D01*
X5086183Y-15537793D02*
X5086183Y-15490174D01*
X5086183Y-15490174D02*
X5095707Y-15452079D01*
X5095707Y-15452079D02*
X5105231Y-15433031D01*
X5105231Y-15433031D02*
X5114754Y-15423507D01*
X5114754Y-15423507D02*
X5133802Y-15413984D01*
X5295707Y-15604460D02*
X5295707Y-15613984D01*
X5295707Y-15613984D02*
X5286183Y-15633031D01*
X5286183Y-15633031D02*
X5276659Y-15642555D01*
X5362374Y-15413984D02*
X5486183Y-15413984D01*
X5486183Y-15413984D02*
X5419516Y-15490174D01*
X5419516Y-15490174D02*
X5448088Y-15490174D01*
X5448088Y-15490174D02*
X5467135Y-15499698D01*
X5467135Y-15499698D02*
X5476659Y-15509222D01*
X5476659Y-15509222D02*
X5486183Y-15528269D01*
X5486183Y-15528269D02*
X5486183Y-15575888D01*
X5486183Y-15575888D02*
X5476659Y-15594936D01*
X5476659Y-15594936D02*
X5467135Y-15604460D01*
X5467135Y-15604460D02*
X5448088Y-15613984D01*
X5448088Y-15613984D02*
X5390945Y-15613984D01*
X5390945Y-15613984D02*
X5371897Y-15604460D01*
X5371897Y-15604460D02*
X5362374Y-15594936D01*
X5609992Y-15413984D02*
X5629040Y-15413984D01*
X5629040Y-15413984D02*
X5648088Y-15423507D01*
X5648088Y-15423507D02*
X5657612Y-15433031D01*
X5657612Y-15433031D02*
X5667135Y-15452079D01*
X5667135Y-15452079D02*
X5676659Y-15490174D01*
X5676659Y-15490174D02*
X5676659Y-15537793D01*
X5676659Y-15537793D02*
X5667135Y-15575888D01*
X5667135Y-15575888D02*
X5657612Y-15594936D01*
X5657612Y-15594936D02*
X5648088Y-15604460D01*
X5648088Y-15604460D02*
X5629040Y-15613984D01*
X5629040Y-15613984D02*
X5609992Y-15613984D01*
X5609992Y-15613984D02*
X5590945Y-15604460D01*
X5590945Y-15604460D02*
X5581421Y-15594936D01*
X5581421Y-15594936D02*
X5571897Y-15575888D01*
X5571897Y-15575888D02*
X5562374Y-15537793D01*
X5562374Y-15537793D02*
X5562374Y-15490174D01*
X5562374Y-15490174D02*
X5571897Y-15452079D01*
X5571897Y-15452079D02*
X5581421Y-15433031D01*
X5581421Y-15433031D02*
X5590945Y-15423507D01*
X5590945Y-15423507D02*
X5609992Y-15413984D01*
X5800469Y-15413984D02*
X5819516Y-15413984D01*
X5819516Y-15413984D02*
X5838564Y-15423507D01*
X5838564Y-15423507D02*
X5848088Y-15433031D01*
X5848088Y-15433031D02*
X5857612Y-15452079D01*
X5857612Y-15452079D02*
X5867135Y-15490174D01*
X5867135Y-15490174D02*
X5867135Y-15537793D01*
X5867135Y-15537793D02*
X5857612Y-15575888D01*
X5857612Y-15575888D02*
X5848088Y-15594936D01*
X5848088Y-15594936D02*
X5838564Y-15604460D01*
X5838564Y-15604460D02*
X5819516Y-15613984D01*
X5819516Y-15613984D02*
X5800469Y-15613984D01*
X5800469Y-15613984D02*
X5781421Y-15604460D01*
X5781421Y-15604460D02*
X5771897Y-15594936D01*
X5771897Y-15594936D02*
X5762373Y-15575888D01*
X5762373Y-15575888D02*
X5752850Y-15537793D01*
X5752850Y-15537793D02*
X5752850Y-15490174D01*
X5752850Y-15490174D02*
X5762373Y-15452079D01*
X5762373Y-15452079D02*
X5771897Y-15433031D01*
X5771897Y-15433031D02*
X5781421Y-15423507D01*
X5781421Y-15423507D02*
X5800469Y-15413984D01*
X5952850Y-15613984D02*
X5952850Y-15480650D01*
X5952850Y-15499698D02*
X5962373Y-15490174D01*
X5962373Y-15490174D02*
X5981421Y-15480650D01*
X5981421Y-15480650D02*
X6009993Y-15480650D01*
X6009993Y-15480650D02*
X6029040Y-15490174D01*
X6029040Y-15490174D02*
X6038564Y-15509222D01*
X6038564Y-15509222D02*
X6038564Y-15613984D01*
X6038564Y-15509222D02*
X6048088Y-15490174D01*
X6048088Y-15490174D02*
X6067135Y-15480650D01*
X6067135Y-15480650D02*
X6095707Y-15480650D01*
X6095707Y-15480650D02*
X6114754Y-15490174D01*
X6114754Y-15490174D02*
X6124278Y-15509222D01*
X6124278Y-15509222D02*
X6124278Y-15613984D01*
X6219516Y-15613984D02*
X6219516Y-15480650D01*
X6219516Y-15499698D02*
X6229040Y-15490174D01*
X6229040Y-15490174D02*
X6248088Y-15480650D01*
X6248088Y-15480650D02*
X6276659Y-15480650D01*
X6276659Y-15480650D02*
X6295707Y-15490174D01*
X6295707Y-15490174D02*
X6305231Y-15509222D01*
X6305231Y-15509222D02*
X6305231Y-15613984D01*
X6305231Y-15509222D02*
X6314754Y-15490174D01*
X6314754Y-15490174D02*
X6333802Y-15480650D01*
X6333802Y-15480650D02*
X6362373Y-15480650D01*
X6362373Y-15480650D02*
X6381421Y-15490174D01*
X6381421Y-15490174D02*
X6390945Y-15509222D01*
X6390945Y-15509222D02*
X6390945Y-15613984D01*
X6781421Y-15404460D02*
X6609993Y-15661603D01*
X7038564Y-15413984D02*
X7057612Y-15413984D01*
X7057612Y-15413984D02*
X7076659Y-15423507D01*
X7076659Y-15423507D02*
X7086183Y-15433031D01*
X7086183Y-15433031D02*
X7095707Y-15452079D01*
X7095707Y-15452079D02*
X7105231Y-15490174D01*
X7105231Y-15490174D02*
X7105231Y-15537793D01*
X7105231Y-15537793D02*
X7095707Y-15575888D01*
X7095707Y-15575888D02*
X7086183Y-15594936D01*
X7086183Y-15594936D02*
X7076659Y-15604460D01*
X7076659Y-15604460D02*
X7057612Y-15613984D01*
X7057612Y-15613984D02*
X7038564Y-15613984D01*
X7038564Y-15613984D02*
X7019516Y-15604460D01*
X7019516Y-15604460D02*
X7009993Y-15594936D01*
X7009993Y-15594936D02*
X7000469Y-15575888D01*
X7000469Y-15575888D02*
X6990945Y-15537793D01*
X6990945Y-15537793D02*
X6990945Y-15490174D01*
X6990945Y-15490174D02*
X7000469Y-15452079D01*
X7000469Y-15452079D02*
X7009993Y-15433031D01*
X7009993Y-15433031D02*
X7019516Y-15423507D01*
X7019516Y-15423507D02*
X7038564Y-15413984D01*
X7200469Y-15604460D02*
X7200469Y-15613984D01*
X7200469Y-15613984D02*
X7190945Y-15633031D01*
X7190945Y-15633031D02*
X7181421Y-15642555D01*
X7324278Y-15413984D02*
X7343326Y-15413984D01*
X7343326Y-15413984D02*
X7362374Y-15423507D01*
X7362374Y-15423507D02*
X7371897Y-15433031D01*
X7371897Y-15433031D02*
X7381421Y-15452079D01*
X7381421Y-15452079D02*
X7390945Y-15490174D01*
X7390945Y-15490174D02*
X7390945Y-15537793D01*
X7390945Y-15537793D02*
X7381421Y-15575888D01*
X7381421Y-15575888D02*
X7371897Y-15594936D01*
X7371897Y-15594936D02*
X7362374Y-15604460D01*
X7362374Y-15604460D02*
X7343326Y-15613984D01*
X7343326Y-15613984D02*
X7324278Y-15613984D01*
X7324278Y-15613984D02*
X7305231Y-15604460D01*
X7305231Y-15604460D02*
X7295707Y-15594936D01*
X7295707Y-15594936D02*
X7286183Y-15575888D01*
X7286183Y-15575888D02*
X7276659Y-15537793D01*
X7276659Y-15537793D02*
X7276659Y-15490174D01*
X7276659Y-15490174D02*
X7286183Y-15452079D01*
X7286183Y-15452079D02*
X7295707Y-15433031D01*
X7295707Y-15433031D02*
X7305231Y-15423507D01*
X7305231Y-15423507D02*
X7324278Y-15413984D01*
X7581421Y-15613984D02*
X7467136Y-15613984D01*
X7524278Y-15613984D02*
X7524278Y-15413984D01*
X7524278Y-15413984D02*
X7505231Y-15442555D01*
X7505231Y-15442555D02*
X7486183Y-15461603D01*
X7486183Y-15461603D02*
X7467136Y-15471126D01*
X7771897Y-15613984D02*
X7657612Y-15613984D01*
X7714755Y-15613984D02*
X7714755Y-15413984D01*
X7714755Y-15413984D02*
X7695707Y-15442555D01*
X7695707Y-15442555D02*
X7676659Y-15461603D01*
X7676659Y-15461603D02*
X7657612Y-15471126D01*
X7886183Y-15499698D02*
X7867136Y-15490174D01*
X7867136Y-15490174D02*
X7857612Y-15480650D01*
X7857612Y-15480650D02*
X7848088Y-15461603D01*
X7848088Y-15461603D02*
X7848088Y-15452079D01*
X7848088Y-15452079D02*
X7857612Y-15433031D01*
X7857612Y-15433031D02*
X7867136Y-15423507D01*
X7867136Y-15423507D02*
X7886183Y-15413984D01*
X7886183Y-15413984D02*
X7924278Y-15413984D01*
X7924278Y-15413984D02*
X7943326Y-15423507D01*
X7943326Y-15423507D02*
X7952850Y-15433031D01*
X7952850Y-15433031D02*
X7962374Y-15452079D01*
X7962374Y-15452079D02*
X7962374Y-15461603D01*
X7962374Y-15461603D02*
X7952850Y-15480650D01*
X7952850Y-15480650D02*
X7943326Y-15490174D01*
X7943326Y-15490174D02*
X7924278Y-15499698D01*
X7924278Y-15499698D02*
X7886183Y-15499698D01*
X7886183Y-15499698D02*
X7867136Y-15509222D01*
X7867136Y-15509222D02*
X7857612Y-15518746D01*
X7857612Y-15518746D02*
X7848088Y-15537793D01*
X7848088Y-15537793D02*
X7848088Y-15575888D01*
X7848088Y-15575888D02*
X7857612Y-15594936D01*
X7857612Y-15594936D02*
X7867136Y-15604460D01*
X7867136Y-15604460D02*
X7886183Y-15613984D01*
X7886183Y-15613984D02*
X7924278Y-15613984D01*
X7924278Y-15613984D02*
X7943326Y-15604460D01*
X7943326Y-15604460D02*
X7952850Y-15594936D01*
X7952850Y-15594936D02*
X7962374Y-15575888D01*
X7962374Y-15575888D02*
X7962374Y-15537793D01*
X7962374Y-15537793D02*
X7952850Y-15518746D01*
X7952850Y-15518746D02*
X7943326Y-15509222D01*
X7943326Y-15509222D02*
X7924278Y-15499698D01*
X8038564Y-15413984D02*
X8038564Y-15452079D01*
X8114755Y-15413984D02*
X8114755Y-15452079D01*
X8409993Y-15690174D02*
X8400469Y-15680650D01*
X8400469Y-15680650D02*
X8381421Y-15652079D01*
X8381421Y-15652079D02*
X8371898Y-15633031D01*
X8371898Y-15633031D02*
X8362374Y-15604460D01*
X8362374Y-15604460D02*
X8352850Y-15556841D01*
X8352850Y-15556841D02*
X8352850Y-15518746D01*
X8352850Y-15518746D02*
X8362374Y-15471126D01*
X8362374Y-15471126D02*
X8371898Y-15442555D01*
X8371898Y-15442555D02*
X8381421Y-15423507D01*
X8381421Y-15423507D02*
X8400469Y-15394936D01*
X8400469Y-15394936D02*
X8409993Y-15385412D01*
X8590945Y-15613984D02*
X8476660Y-15613984D01*
X8533802Y-15613984D02*
X8533802Y-15413984D01*
X8533802Y-15413984D02*
X8514755Y-15442555D01*
X8514755Y-15442555D02*
X8495707Y-15461603D01*
X8495707Y-15461603D02*
X8476660Y-15471126D01*
X8705231Y-15499698D02*
X8686183Y-15490174D01*
X8686183Y-15490174D02*
X8676660Y-15480650D01*
X8676660Y-15480650D02*
X8667136Y-15461603D01*
X8667136Y-15461603D02*
X8667136Y-15452079D01*
X8667136Y-15452079D02*
X8676660Y-15433031D01*
X8676660Y-15433031D02*
X8686183Y-15423507D01*
X8686183Y-15423507D02*
X8705231Y-15413984D01*
X8705231Y-15413984D02*
X8743326Y-15413984D01*
X8743326Y-15413984D02*
X8762374Y-15423507D01*
X8762374Y-15423507D02*
X8771898Y-15433031D01*
X8771898Y-15433031D02*
X8781421Y-15452079D01*
X8781421Y-15452079D02*
X8781421Y-15461603D01*
X8781421Y-15461603D02*
X8771898Y-15480650D01*
X8771898Y-15480650D02*
X8762374Y-15490174D01*
X8762374Y-15490174D02*
X8743326Y-15499698D01*
X8743326Y-15499698D02*
X8705231Y-15499698D01*
X8705231Y-15499698D02*
X8686183Y-15509222D01*
X8686183Y-15509222D02*
X8676660Y-15518746D01*
X8676660Y-15518746D02*
X8667136Y-15537793D01*
X8667136Y-15537793D02*
X8667136Y-15575888D01*
X8667136Y-15575888D02*
X8676660Y-15594936D01*
X8676660Y-15594936D02*
X8686183Y-15604460D01*
X8686183Y-15604460D02*
X8705231Y-15613984D01*
X8705231Y-15613984D02*
X8743326Y-15613984D01*
X8743326Y-15613984D02*
X8762374Y-15604460D01*
X8762374Y-15604460D02*
X8771898Y-15594936D01*
X8771898Y-15594936D02*
X8781421Y-15575888D01*
X8781421Y-15575888D02*
X8781421Y-15537793D01*
X8781421Y-15537793D02*
X8771898Y-15518746D01*
X8771898Y-15518746D02*
X8762374Y-15509222D01*
X8762374Y-15509222D02*
X8743326Y-15499698D01*
X8962374Y-15413984D02*
X8867136Y-15413984D01*
X8867136Y-15413984D02*
X8857612Y-15509222D01*
X8857612Y-15509222D02*
X8867136Y-15499698D01*
X8867136Y-15499698D02*
X8886183Y-15490174D01*
X8886183Y-15490174D02*
X8933802Y-15490174D01*
X8933802Y-15490174D02*
X8952850Y-15499698D01*
X8952850Y-15499698D02*
X8962374Y-15509222D01*
X8962374Y-15509222D02*
X8971898Y-15528269D01*
X8971898Y-15528269D02*
X8971898Y-15575888D01*
X8971898Y-15575888D02*
X8962374Y-15594936D01*
X8962374Y-15594936D02*
X8952850Y-15604460D01*
X8952850Y-15604460D02*
X8933802Y-15613984D01*
X8933802Y-15613984D02*
X8886183Y-15613984D01*
X8886183Y-15613984D02*
X8867136Y-15604460D01*
X8867136Y-15604460D02*
X8857612Y-15594936D01*
X9209993Y-15613984D02*
X9209993Y-15413984D01*
X9295707Y-15613984D02*
X9295707Y-15509222D01*
X9295707Y-15509222D02*
X9286183Y-15490174D01*
X9286183Y-15490174D02*
X9267136Y-15480650D01*
X9267136Y-15480650D02*
X9238564Y-15480650D01*
X9238564Y-15480650D02*
X9219517Y-15490174D01*
X9219517Y-15490174D02*
X9209993Y-15499698D01*
X9419517Y-15613984D02*
X9400469Y-15604460D01*
X9400469Y-15604460D02*
X9390945Y-15594936D01*
X9390945Y-15594936D02*
X9381422Y-15575888D01*
X9381422Y-15575888D02*
X9381422Y-15518746D01*
X9381422Y-15518746D02*
X9390945Y-15499698D01*
X9390945Y-15499698D02*
X9400469Y-15490174D01*
X9400469Y-15490174D02*
X9419517Y-15480650D01*
X9419517Y-15480650D02*
X9448088Y-15480650D01*
X9448088Y-15480650D02*
X9467136Y-15490174D01*
X9467136Y-15490174D02*
X9476660Y-15499698D01*
X9476660Y-15499698D02*
X9486183Y-15518746D01*
X9486183Y-15518746D02*
X9486183Y-15575888D01*
X9486183Y-15575888D02*
X9476660Y-15594936D01*
X9476660Y-15594936D02*
X9467136Y-15604460D01*
X9467136Y-15604460D02*
X9448088Y-15613984D01*
X9448088Y-15613984D02*
X9419517Y-15613984D01*
X9600469Y-15613984D02*
X9581422Y-15604460D01*
X9581422Y-15604460D02*
X9571898Y-15585412D01*
X9571898Y-15585412D02*
X9571898Y-15413984D01*
X9752850Y-15604460D02*
X9733803Y-15613984D01*
X9733803Y-15613984D02*
X9695707Y-15613984D01*
X9695707Y-15613984D02*
X9676660Y-15604460D01*
X9676660Y-15604460D02*
X9667136Y-15585412D01*
X9667136Y-15585412D02*
X9667136Y-15509222D01*
X9667136Y-15509222D02*
X9676660Y-15490174D01*
X9676660Y-15490174D02*
X9695707Y-15480650D01*
X9695707Y-15480650D02*
X9733803Y-15480650D01*
X9733803Y-15480650D02*
X9752850Y-15490174D01*
X9752850Y-15490174D02*
X9762374Y-15509222D01*
X9762374Y-15509222D02*
X9762374Y-15528269D01*
X9762374Y-15528269D02*
X9667136Y-15547317D01*
X9838564Y-15604460D02*
X9857612Y-15613984D01*
X9857612Y-15613984D02*
X9895707Y-15613984D01*
X9895707Y-15613984D02*
X9914755Y-15604460D01*
X9914755Y-15604460D02*
X9924279Y-15585412D01*
X9924279Y-15585412D02*
X9924279Y-15575888D01*
X9924279Y-15575888D02*
X9914755Y-15556841D01*
X9914755Y-15556841D02*
X9895707Y-15547317D01*
X9895707Y-15547317D02*
X9867136Y-15547317D01*
X9867136Y-15547317D02*
X9848088Y-15537793D01*
X9848088Y-15537793D02*
X9838564Y-15518746D01*
X9838564Y-15518746D02*
X9838564Y-15509222D01*
X9838564Y-15509222D02*
X9848088Y-15490174D01*
X9848088Y-15490174D02*
X9867136Y-15480650D01*
X9867136Y-15480650D02*
X9895707Y-15480650D01*
X9895707Y-15480650D02*
X9914755Y-15490174D01*
X9990945Y-15690174D02*
X10000469Y-15680650D01*
X10000469Y-15680650D02*
X10019517Y-15652079D01*
X10019517Y-15652079D02*
X10029041Y-15633031D01*
X10029041Y-15633031D02*
X10038564Y-15604460D01*
X10038564Y-15604460D02*
X10048088Y-15556841D01*
X10048088Y-15556841D02*
X10048088Y-15518746D01*
X10048088Y-15518746D02*
X10038564Y-15471126D01*
X10038564Y-15471126D02*
X10029041Y-15442555D01*
X10029041Y-15442555D02*
X10019517Y-15423507D01*
X10019517Y-15423507D02*
X10000469Y-15394936D01*
X10000469Y-15394936D02*
X9990945Y-15385412D01*
D12*
X4834930Y-15786500D02*
G75*
G02*
X4801930Y-15786500I-16500J0D01*
G01*
X4801930Y-15786500D02*
G75*
G02*
X4834930Y-15786500I16500J0D01*
G01*
D11*
X5133802Y-15677984D02*
X5152850Y-15677984D01*
X5152850Y-15677984D02*
X5171897Y-15687507D01*
X5171897Y-15687507D02*
X5181421Y-15697031D01*
X5181421Y-15697031D02*
X5190945Y-15716079D01*
X5190945Y-15716079D02*
X5200469Y-15754174D01*
X5200469Y-15754174D02*
X5200469Y-15801793D01*
X5200469Y-15801793D02*
X5190945Y-15839888D01*
X5190945Y-15839888D02*
X5181421Y-15858936D01*
X5181421Y-15858936D02*
X5171897Y-15868460D01*
X5171897Y-15868460D02*
X5152850Y-15877984D01*
X5152850Y-15877984D02*
X5133802Y-15877984D01*
X5133802Y-15877984D02*
X5114754Y-15868460D01*
X5114754Y-15868460D02*
X5105231Y-15858936D01*
X5105231Y-15858936D02*
X5095707Y-15839888D01*
X5095707Y-15839888D02*
X5086183Y-15801793D01*
X5086183Y-15801793D02*
X5086183Y-15754174D01*
X5086183Y-15754174D02*
X5095707Y-15716079D01*
X5095707Y-15716079D02*
X5105231Y-15697031D01*
X5105231Y-15697031D02*
X5114754Y-15687507D01*
X5114754Y-15687507D02*
X5133802Y-15677984D01*
X5295707Y-15868460D02*
X5295707Y-15877984D01*
X5295707Y-15877984D02*
X5286183Y-15897031D01*
X5286183Y-15897031D02*
X5276659Y-15906555D01*
X5362374Y-15677984D02*
X5486183Y-15677984D01*
X5486183Y-15677984D02*
X5419516Y-15754174D01*
X5419516Y-15754174D02*
X5448088Y-15754174D01*
X5448088Y-15754174D02*
X5467135Y-15763698D01*
X5467135Y-15763698D02*
X5476659Y-15773222D01*
X5476659Y-15773222D02*
X5486183Y-15792269D01*
X5486183Y-15792269D02*
X5486183Y-15839888D01*
X5486183Y-15839888D02*
X5476659Y-15858936D01*
X5476659Y-15858936D02*
X5467135Y-15868460D01*
X5467135Y-15868460D02*
X5448088Y-15877984D01*
X5448088Y-15877984D02*
X5390945Y-15877984D01*
X5390945Y-15877984D02*
X5371897Y-15868460D01*
X5371897Y-15868460D02*
X5362374Y-15858936D01*
X5552850Y-15677984D02*
X5676659Y-15677984D01*
X5676659Y-15677984D02*
X5609992Y-15754174D01*
X5609992Y-15754174D02*
X5638564Y-15754174D01*
X5638564Y-15754174D02*
X5657612Y-15763698D01*
X5657612Y-15763698D02*
X5667135Y-15773222D01*
X5667135Y-15773222D02*
X5676659Y-15792269D01*
X5676659Y-15792269D02*
X5676659Y-15839888D01*
X5676659Y-15839888D02*
X5667135Y-15858936D01*
X5667135Y-15858936D02*
X5657612Y-15868460D01*
X5657612Y-15868460D02*
X5638564Y-15877984D01*
X5638564Y-15877984D02*
X5581421Y-15877984D01*
X5581421Y-15877984D02*
X5562374Y-15868460D01*
X5562374Y-15868460D02*
X5552850Y-15858936D01*
X5800469Y-15677984D02*
X5819516Y-15677984D01*
X5819516Y-15677984D02*
X5838564Y-15687507D01*
X5838564Y-15687507D02*
X5848088Y-15697031D01*
X5848088Y-15697031D02*
X5857612Y-15716079D01*
X5857612Y-15716079D02*
X5867135Y-15754174D01*
X5867135Y-15754174D02*
X5867135Y-15801793D01*
X5867135Y-15801793D02*
X5857612Y-15839888D01*
X5857612Y-15839888D02*
X5848088Y-15858936D01*
X5848088Y-15858936D02*
X5838564Y-15868460D01*
X5838564Y-15868460D02*
X5819516Y-15877984D01*
X5819516Y-15877984D02*
X5800469Y-15877984D01*
X5800469Y-15877984D02*
X5781421Y-15868460D01*
X5781421Y-15868460D02*
X5771897Y-15858936D01*
X5771897Y-15858936D02*
X5762373Y-15839888D01*
X5762373Y-15839888D02*
X5752850Y-15801793D01*
X5752850Y-15801793D02*
X5752850Y-15754174D01*
X5752850Y-15754174D02*
X5762373Y-15716079D01*
X5762373Y-15716079D02*
X5771897Y-15697031D01*
X5771897Y-15697031D02*
X5781421Y-15687507D01*
X5781421Y-15687507D02*
X5800469Y-15677984D01*
X5952850Y-15877984D02*
X5952850Y-15744650D01*
X5952850Y-15763698D02*
X5962373Y-15754174D01*
X5962373Y-15754174D02*
X5981421Y-15744650D01*
X5981421Y-15744650D02*
X6009993Y-15744650D01*
X6009993Y-15744650D02*
X6029040Y-15754174D01*
X6029040Y-15754174D02*
X6038564Y-15773222D01*
X6038564Y-15773222D02*
X6038564Y-15877984D01*
X6038564Y-15773222D02*
X6048088Y-15754174D01*
X6048088Y-15754174D02*
X6067135Y-15744650D01*
X6067135Y-15744650D02*
X6095707Y-15744650D01*
X6095707Y-15744650D02*
X6114754Y-15754174D01*
X6114754Y-15754174D02*
X6124278Y-15773222D01*
X6124278Y-15773222D02*
X6124278Y-15877984D01*
X6219516Y-15877984D02*
X6219516Y-15744650D01*
X6219516Y-15763698D02*
X6229040Y-15754174D01*
X6229040Y-15754174D02*
X6248088Y-15744650D01*
X6248088Y-15744650D02*
X6276659Y-15744650D01*
X6276659Y-15744650D02*
X6295707Y-15754174D01*
X6295707Y-15754174D02*
X6305231Y-15773222D01*
X6305231Y-15773222D02*
X6305231Y-15877984D01*
X6305231Y-15773222D02*
X6314754Y-15754174D01*
X6314754Y-15754174D02*
X6333802Y-15744650D01*
X6333802Y-15744650D02*
X6362373Y-15744650D01*
X6362373Y-15744650D02*
X6381421Y-15754174D01*
X6381421Y-15754174D02*
X6390945Y-15773222D01*
X6390945Y-15773222D02*
X6390945Y-15877984D01*
X6781421Y-15668460D02*
X6609993Y-15925603D01*
X7038564Y-15677984D02*
X7057612Y-15677984D01*
X7057612Y-15677984D02*
X7076659Y-15687507D01*
X7076659Y-15687507D02*
X7086183Y-15697031D01*
X7086183Y-15697031D02*
X7095707Y-15716079D01*
X7095707Y-15716079D02*
X7105231Y-15754174D01*
X7105231Y-15754174D02*
X7105231Y-15801793D01*
X7105231Y-15801793D02*
X7095707Y-15839888D01*
X7095707Y-15839888D02*
X7086183Y-15858936D01*
X7086183Y-15858936D02*
X7076659Y-15868460D01*
X7076659Y-15868460D02*
X7057612Y-15877984D01*
X7057612Y-15877984D02*
X7038564Y-15877984D01*
X7038564Y-15877984D02*
X7019516Y-15868460D01*
X7019516Y-15868460D02*
X7009993Y-15858936D01*
X7009993Y-15858936D02*
X7000469Y-15839888D01*
X7000469Y-15839888D02*
X6990945Y-15801793D01*
X6990945Y-15801793D02*
X6990945Y-15754174D01*
X6990945Y-15754174D02*
X7000469Y-15716079D01*
X7000469Y-15716079D02*
X7009993Y-15697031D01*
X7009993Y-15697031D02*
X7019516Y-15687507D01*
X7019516Y-15687507D02*
X7038564Y-15677984D01*
X7200469Y-15868460D02*
X7200469Y-15877984D01*
X7200469Y-15877984D02*
X7190945Y-15897031D01*
X7190945Y-15897031D02*
X7181421Y-15906555D01*
X7324278Y-15677984D02*
X7343326Y-15677984D01*
X7343326Y-15677984D02*
X7362374Y-15687507D01*
X7362374Y-15687507D02*
X7371897Y-15697031D01*
X7371897Y-15697031D02*
X7381421Y-15716079D01*
X7381421Y-15716079D02*
X7390945Y-15754174D01*
X7390945Y-15754174D02*
X7390945Y-15801793D01*
X7390945Y-15801793D02*
X7381421Y-15839888D01*
X7381421Y-15839888D02*
X7371897Y-15858936D01*
X7371897Y-15858936D02*
X7362374Y-15868460D01*
X7362374Y-15868460D02*
X7343326Y-15877984D01*
X7343326Y-15877984D02*
X7324278Y-15877984D01*
X7324278Y-15877984D02*
X7305231Y-15868460D01*
X7305231Y-15868460D02*
X7295707Y-15858936D01*
X7295707Y-15858936D02*
X7286183Y-15839888D01*
X7286183Y-15839888D02*
X7276659Y-15801793D01*
X7276659Y-15801793D02*
X7276659Y-15754174D01*
X7276659Y-15754174D02*
X7286183Y-15716079D01*
X7286183Y-15716079D02*
X7295707Y-15697031D01*
X7295707Y-15697031D02*
X7305231Y-15687507D01*
X7305231Y-15687507D02*
X7324278Y-15677984D01*
X7581421Y-15877984D02*
X7467136Y-15877984D01*
X7524278Y-15877984D02*
X7524278Y-15677984D01*
X7524278Y-15677984D02*
X7505231Y-15706555D01*
X7505231Y-15706555D02*
X7486183Y-15725603D01*
X7486183Y-15725603D02*
X7467136Y-15735126D01*
X7648088Y-15677984D02*
X7771897Y-15677984D01*
X7771897Y-15677984D02*
X7705231Y-15754174D01*
X7705231Y-15754174D02*
X7733802Y-15754174D01*
X7733802Y-15754174D02*
X7752850Y-15763698D01*
X7752850Y-15763698D02*
X7762374Y-15773222D01*
X7762374Y-15773222D02*
X7771897Y-15792269D01*
X7771897Y-15792269D02*
X7771897Y-15839888D01*
X7771897Y-15839888D02*
X7762374Y-15858936D01*
X7762374Y-15858936D02*
X7752850Y-15868460D01*
X7752850Y-15868460D02*
X7733802Y-15877984D01*
X7733802Y-15877984D02*
X7676659Y-15877984D01*
X7676659Y-15877984D02*
X7657612Y-15868460D01*
X7657612Y-15868460D02*
X7648088Y-15858936D01*
X7895707Y-15677984D02*
X7914755Y-15677984D01*
X7914755Y-15677984D02*
X7933802Y-15687507D01*
X7933802Y-15687507D02*
X7943326Y-15697031D01*
X7943326Y-15697031D02*
X7952850Y-15716079D01*
X7952850Y-15716079D02*
X7962374Y-15754174D01*
X7962374Y-15754174D02*
X7962374Y-15801793D01*
X7962374Y-15801793D02*
X7952850Y-15839888D01*
X7952850Y-15839888D02*
X7943326Y-15858936D01*
X7943326Y-15858936D02*
X7933802Y-15868460D01*
X7933802Y-15868460D02*
X7914755Y-15877984D01*
X7914755Y-15877984D02*
X7895707Y-15877984D01*
X7895707Y-15877984D02*
X7876659Y-15868460D01*
X7876659Y-15868460D02*
X7867136Y-15858936D01*
X7867136Y-15858936D02*
X7857612Y-15839888D01*
X7857612Y-15839888D02*
X7848088Y-15801793D01*
X7848088Y-15801793D02*
X7848088Y-15754174D01*
X7848088Y-15754174D02*
X7857612Y-15716079D01*
X7857612Y-15716079D02*
X7867136Y-15697031D01*
X7867136Y-15697031D02*
X7876659Y-15687507D01*
X7876659Y-15687507D02*
X7895707Y-15677984D01*
X8038564Y-15677984D02*
X8038564Y-15716079D01*
X8114755Y-15677984D02*
X8114755Y-15716079D01*
X8409993Y-15954174D02*
X8400469Y-15944650D01*
X8400469Y-15944650D02*
X8381421Y-15916079D01*
X8381421Y-15916079D02*
X8371898Y-15897031D01*
X8371898Y-15897031D02*
X8362374Y-15868460D01*
X8362374Y-15868460D02*
X8352850Y-15820841D01*
X8352850Y-15820841D02*
X8352850Y-15782746D01*
X8352850Y-15782746D02*
X8362374Y-15735126D01*
X8362374Y-15735126D02*
X8371898Y-15706555D01*
X8371898Y-15706555D02*
X8381421Y-15687507D01*
X8381421Y-15687507D02*
X8400469Y-15658936D01*
X8400469Y-15658936D02*
X8409993Y-15649412D01*
X8571898Y-15677984D02*
X8533802Y-15677984D01*
X8533802Y-15677984D02*
X8514755Y-15687507D01*
X8514755Y-15687507D02*
X8505231Y-15697031D01*
X8505231Y-15697031D02*
X8486183Y-15725603D01*
X8486183Y-15725603D02*
X8476660Y-15763698D01*
X8476660Y-15763698D02*
X8476660Y-15839888D01*
X8476660Y-15839888D02*
X8486183Y-15858936D01*
X8486183Y-15858936D02*
X8495707Y-15868460D01*
X8495707Y-15868460D02*
X8514755Y-15877984D01*
X8514755Y-15877984D02*
X8552850Y-15877984D01*
X8552850Y-15877984D02*
X8571898Y-15868460D01*
X8571898Y-15868460D02*
X8581421Y-15858936D01*
X8581421Y-15858936D02*
X8590945Y-15839888D01*
X8590945Y-15839888D02*
X8590945Y-15792269D01*
X8590945Y-15792269D02*
X8581421Y-15773222D01*
X8581421Y-15773222D02*
X8571898Y-15763698D01*
X8571898Y-15763698D02*
X8552850Y-15754174D01*
X8552850Y-15754174D02*
X8514755Y-15754174D01*
X8514755Y-15754174D02*
X8495707Y-15763698D01*
X8495707Y-15763698D02*
X8486183Y-15773222D01*
X8486183Y-15773222D02*
X8476660Y-15792269D01*
X8829041Y-15877984D02*
X8829041Y-15677984D01*
X8914755Y-15877984D02*
X8914755Y-15773222D01*
X8914755Y-15773222D02*
X8905231Y-15754174D01*
X8905231Y-15754174D02*
X8886183Y-15744650D01*
X8886183Y-15744650D02*
X8857612Y-15744650D01*
X8857612Y-15744650D02*
X8838564Y-15754174D01*
X8838564Y-15754174D02*
X8829041Y-15763698D01*
X9038564Y-15877984D02*
X9019517Y-15868460D01*
X9019517Y-15868460D02*
X9009993Y-15858936D01*
X9009993Y-15858936D02*
X9000469Y-15839888D01*
X9000469Y-15839888D02*
X9000469Y-15782746D01*
X9000469Y-15782746D02*
X9009993Y-15763698D01*
X9009993Y-15763698D02*
X9019517Y-15754174D01*
X9019517Y-15754174D02*
X9038564Y-15744650D01*
X9038564Y-15744650D02*
X9067136Y-15744650D01*
X9067136Y-15744650D02*
X9086183Y-15754174D01*
X9086183Y-15754174D02*
X9095707Y-15763698D01*
X9095707Y-15763698D02*
X9105231Y-15782746D01*
X9105231Y-15782746D02*
X9105231Y-15839888D01*
X9105231Y-15839888D02*
X9095707Y-15858936D01*
X9095707Y-15858936D02*
X9086183Y-15868460D01*
X9086183Y-15868460D02*
X9067136Y-15877984D01*
X9067136Y-15877984D02*
X9038564Y-15877984D01*
X9219517Y-15877984D02*
X9200469Y-15868460D01*
X9200469Y-15868460D02*
X9190945Y-15849412D01*
X9190945Y-15849412D02*
X9190945Y-15677984D01*
X9371898Y-15868460D02*
X9352850Y-15877984D01*
X9352850Y-15877984D02*
X9314755Y-15877984D01*
X9314755Y-15877984D02*
X9295707Y-15868460D01*
X9295707Y-15868460D02*
X9286183Y-15849412D01*
X9286183Y-15849412D02*
X9286183Y-15773222D01*
X9286183Y-15773222D02*
X9295707Y-15754174D01*
X9295707Y-15754174D02*
X9314755Y-15744650D01*
X9314755Y-15744650D02*
X9352850Y-15744650D01*
X9352850Y-15744650D02*
X9371898Y-15754174D01*
X9371898Y-15754174D02*
X9381422Y-15773222D01*
X9381422Y-15773222D02*
X9381422Y-15792269D01*
X9381422Y-15792269D02*
X9286183Y-15811317D01*
X9457612Y-15868460D02*
X9476660Y-15877984D01*
X9476660Y-15877984D02*
X9514755Y-15877984D01*
X9514755Y-15877984D02*
X9533803Y-15868460D01*
X9533803Y-15868460D02*
X9543326Y-15849412D01*
X9543326Y-15849412D02*
X9543326Y-15839888D01*
X9543326Y-15839888D02*
X9533803Y-15820841D01*
X9533803Y-15820841D02*
X9514755Y-15811317D01*
X9514755Y-15811317D02*
X9486183Y-15811317D01*
X9486183Y-15811317D02*
X9467136Y-15801793D01*
X9467136Y-15801793D02*
X9457612Y-15782746D01*
X9457612Y-15782746D02*
X9457612Y-15773222D01*
X9457612Y-15773222D02*
X9467136Y-15754174D01*
X9467136Y-15754174D02*
X9486183Y-15744650D01*
X9486183Y-15744650D02*
X9514755Y-15744650D01*
X9514755Y-15744650D02*
X9533803Y-15754174D01*
X9609993Y-15954174D02*
X9619517Y-15944650D01*
X9619517Y-15944650D02*
X9638564Y-15916079D01*
X9638564Y-15916079D02*
X9648088Y-15897031D01*
X9648088Y-15897031D02*
X9657612Y-15868460D01*
X9657612Y-15868460D02*
X9667136Y-15820841D01*
X9667136Y-15820841D02*
X9667136Y-15782746D01*
X9667136Y-15782746D02*
X9657612Y-15735126D01*
X9657612Y-15735126D02*
X9648088Y-15706555D01*
X9648088Y-15706555D02*
X9638564Y-15687507D01*
X9638564Y-15687507D02*
X9619517Y-15658936D01*
X9619517Y-15658936D02*
X9609993Y-15649412D01*
D12*
X4804930Y-16020500D02*
X4804930Y-16080500D01*
X4774930Y-16050500D02*
X4834930Y-16050500D01*
D11*
X5133802Y-15941984D02*
X5152850Y-15941984D01*
X5152850Y-15941984D02*
X5171897Y-15951507D01*
X5171897Y-15951507D02*
X5181421Y-15961031D01*
X5181421Y-15961031D02*
X5190945Y-15980079D01*
X5190945Y-15980079D02*
X5200469Y-16018174D01*
X5200469Y-16018174D02*
X5200469Y-16065793D01*
X5200469Y-16065793D02*
X5190945Y-16103888D01*
X5190945Y-16103888D02*
X5181421Y-16122936D01*
X5181421Y-16122936D02*
X5171897Y-16132460D01*
X5171897Y-16132460D02*
X5152850Y-16141984D01*
X5152850Y-16141984D02*
X5133802Y-16141984D01*
X5133802Y-16141984D02*
X5114754Y-16132460D01*
X5114754Y-16132460D02*
X5105231Y-16122936D01*
X5105231Y-16122936D02*
X5095707Y-16103888D01*
X5095707Y-16103888D02*
X5086183Y-16065793D01*
X5086183Y-16065793D02*
X5086183Y-16018174D01*
X5086183Y-16018174D02*
X5095707Y-15980079D01*
X5095707Y-15980079D02*
X5105231Y-15961031D01*
X5105231Y-15961031D02*
X5114754Y-15951507D01*
X5114754Y-15951507D02*
X5133802Y-15941984D01*
X5295707Y-16132460D02*
X5295707Y-16141984D01*
X5295707Y-16141984D02*
X5286183Y-16161031D01*
X5286183Y-16161031D02*
X5276659Y-16170555D01*
X5467135Y-15941984D02*
X5429040Y-15941984D01*
X5429040Y-15941984D02*
X5409993Y-15951507D01*
X5409993Y-15951507D02*
X5400469Y-15961031D01*
X5400469Y-15961031D02*
X5381421Y-15989603D01*
X5381421Y-15989603D02*
X5371897Y-16027698D01*
X5371897Y-16027698D02*
X5371897Y-16103888D01*
X5371897Y-16103888D02*
X5381421Y-16122936D01*
X5381421Y-16122936D02*
X5390945Y-16132460D01*
X5390945Y-16132460D02*
X5409993Y-16141984D01*
X5409993Y-16141984D02*
X5448088Y-16141984D01*
X5448088Y-16141984D02*
X5467135Y-16132460D01*
X5467135Y-16132460D02*
X5476659Y-16122936D01*
X5476659Y-16122936D02*
X5486183Y-16103888D01*
X5486183Y-16103888D02*
X5486183Y-16056269D01*
X5486183Y-16056269D02*
X5476659Y-16037222D01*
X5476659Y-16037222D02*
X5467135Y-16027698D01*
X5467135Y-16027698D02*
X5448088Y-16018174D01*
X5448088Y-16018174D02*
X5409993Y-16018174D01*
X5409993Y-16018174D02*
X5390945Y-16027698D01*
X5390945Y-16027698D02*
X5381421Y-16037222D01*
X5381421Y-16037222D02*
X5371897Y-16056269D01*
X5609992Y-15941984D02*
X5629040Y-15941984D01*
X5629040Y-15941984D02*
X5648088Y-15951507D01*
X5648088Y-15951507D02*
X5657612Y-15961031D01*
X5657612Y-15961031D02*
X5667135Y-15980079D01*
X5667135Y-15980079D02*
X5676659Y-16018174D01*
X5676659Y-16018174D02*
X5676659Y-16065793D01*
X5676659Y-16065793D02*
X5667135Y-16103888D01*
X5667135Y-16103888D02*
X5657612Y-16122936D01*
X5657612Y-16122936D02*
X5648088Y-16132460D01*
X5648088Y-16132460D02*
X5629040Y-16141984D01*
X5629040Y-16141984D02*
X5609992Y-16141984D01*
X5609992Y-16141984D02*
X5590945Y-16132460D01*
X5590945Y-16132460D02*
X5581421Y-16122936D01*
X5581421Y-16122936D02*
X5571897Y-16103888D01*
X5571897Y-16103888D02*
X5562374Y-16065793D01*
X5562374Y-16065793D02*
X5562374Y-16018174D01*
X5562374Y-16018174D02*
X5571897Y-15980079D01*
X5571897Y-15980079D02*
X5581421Y-15961031D01*
X5581421Y-15961031D02*
X5590945Y-15951507D01*
X5590945Y-15951507D02*
X5609992Y-15941984D01*
X5800469Y-15941984D02*
X5819516Y-15941984D01*
X5819516Y-15941984D02*
X5838564Y-15951507D01*
X5838564Y-15951507D02*
X5848088Y-15961031D01*
X5848088Y-15961031D02*
X5857612Y-15980079D01*
X5857612Y-15980079D02*
X5867135Y-16018174D01*
X5867135Y-16018174D02*
X5867135Y-16065793D01*
X5867135Y-16065793D02*
X5857612Y-16103888D01*
X5857612Y-16103888D02*
X5848088Y-16122936D01*
X5848088Y-16122936D02*
X5838564Y-16132460D01*
X5838564Y-16132460D02*
X5819516Y-16141984D01*
X5819516Y-16141984D02*
X5800469Y-16141984D01*
X5800469Y-16141984D02*
X5781421Y-16132460D01*
X5781421Y-16132460D02*
X5771897Y-16122936D01*
X5771897Y-16122936D02*
X5762373Y-16103888D01*
X5762373Y-16103888D02*
X5752850Y-16065793D01*
X5752850Y-16065793D02*
X5752850Y-16018174D01*
X5752850Y-16018174D02*
X5762373Y-15980079D01*
X5762373Y-15980079D02*
X5771897Y-15961031D01*
X5771897Y-15961031D02*
X5781421Y-15951507D01*
X5781421Y-15951507D02*
X5800469Y-15941984D01*
X5952850Y-16141984D02*
X5952850Y-16008650D01*
X5952850Y-16027698D02*
X5962373Y-16018174D01*
X5962373Y-16018174D02*
X5981421Y-16008650D01*
X5981421Y-16008650D02*
X6009993Y-16008650D01*
X6009993Y-16008650D02*
X6029040Y-16018174D01*
X6029040Y-16018174D02*
X6038564Y-16037222D01*
X6038564Y-16037222D02*
X6038564Y-16141984D01*
X6038564Y-16037222D02*
X6048088Y-16018174D01*
X6048088Y-16018174D02*
X6067135Y-16008650D01*
X6067135Y-16008650D02*
X6095707Y-16008650D01*
X6095707Y-16008650D02*
X6114754Y-16018174D01*
X6114754Y-16018174D02*
X6124278Y-16037222D01*
X6124278Y-16037222D02*
X6124278Y-16141984D01*
X6219516Y-16141984D02*
X6219516Y-16008650D01*
X6219516Y-16027698D02*
X6229040Y-16018174D01*
X6229040Y-16018174D02*
X6248088Y-16008650D01*
X6248088Y-16008650D02*
X6276659Y-16008650D01*
X6276659Y-16008650D02*
X6295707Y-16018174D01*
X6295707Y-16018174D02*
X6305231Y-16037222D01*
X6305231Y-16037222D02*
X6305231Y-16141984D01*
X6305231Y-16037222D02*
X6314754Y-16018174D01*
X6314754Y-16018174D02*
X6333802Y-16008650D01*
X6333802Y-16008650D02*
X6362373Y-16008650D01*
X6362373Y-16008650D02*
X6381421Y-16018174D01*
X6381421Y-16018174D02*
X6390945Y-16037222D01*
X6390945Y-16037222D02*
X6390945Y-16141984D01*
X6781421Y-15932460D02*
X6609993Y-16189603D01*
X7038564Y-15941984D02*
X7057612Y-15941984D01*
X7057612Y-15941984D02*
X7076659Y-15951507D01*
X7076659Y-15951507D02*
X7086183Y-15961031D01*
X7086183Y-15961031D02*
X7095707Y-15980079D01*
X7095707Y-15980079D02*
X7105231Y-16018174D01*
X7105231Y-16018174D02*
X7105231Y-16065793D01*
X7105231Y-16065793D02*
X7095707Y-16103888D01*
X7095707Y-16103888D02*
X7086183Y-16122936D01*
X7086183Y-16122936D02*
X7076659Y-16132460D01*
X7076659Y-16132460D02*
X7057612Y-16141984D01*
X7057612Y-16141984D02*
X7038564Y-16141984D01*
X7038564Y-16141984D02*
X7019516Y-16132460D01*
X7019516Y-16132460D02*
X7009993Y-16122936D01*
X7009993Y-16122936D02*
X7000469Y-16103888D01*
X7000469Y-16103888D02*
X6990945Y-16065793D01*
X6990945Y-16065793D02*
X6990945Y-16018174D01*
X6990945Y-16018174D02*
X7000469Y-15980079D01*
X7000469Y-15980079D02*
X7009993Y-15961031D01*
X7009993Y-15961031D02*
X7019516Y-15951507D01*
X7019516Y-15951507D02*
X7038564Y-15941984D01*
X7200469Y-16132460D02*
X7200469Y-16141984D01*
X7200469Y-16141984D02*
X7190945Y-16161031D01*
X7190945Y-16161031D02*
X7181421Y-16170555D01*
X7324278Y-15941984D02*
X7343326Y-15941984D01*
X7343326Y-15941984D02*
X7362374Y-15951507D01*
X7362374Y-15951507D02*
X7371897Y-15961031D01*
X7371897Y-15961031D02*
X7381421Y-15980079D01*
X7381421Y-15980079D02*
X7390945Y-16018174D01*
X7390945Y-16018174D02*
X7390945Y-16065793D01*
X7390945Y-16065793D02*
X7381421Y-16103888D01*
X7381421Y-16103888D02*
X7371897Y-16122936D01*
X7371897Y-16122936D02*
X7362374Y-16132460D01*
X7362374Y-16132460D02*
X7343326Y-16141984D01*
X7343326Y-16141984D02*
X7324278Y-16141984D01*
X7324278Y-16141984D02*
X7305231Y-16132460D01*
X7305231Y-16132460D02*
X7295707Y-16122936D01*
X7295707Y-16122936D02*
X7286183Y-16103888D01*
X7286183Y-16103888D02*
X7276659Y-16065793D01*
X7276659Y-16065793D02*
X7276659Y-16018174D01*
X7276659Y-16018174D02*
X7286183Y-15980079D01*
X7286183Y-15980079D02*
X7295707Y-15961031D01*
X7295707Y-15961031D02*
X7305231Y-15951507D01*
X7305231Y-15951507D02*
X7324278Y-15941984D01*
X7467136Y-15961031D02*
X7476659Y-15951507D01*
X7476659Y-15951507D02*
X7495707Y-15941984D01*
X7495707Y-15941984D02*
X7543326Y-15941984D01*
X7543326Y-15941984D02*
X7562374Y-15951507D01*
X7562374Y-15951507D02*
X7571897Y-15961031D01*
X7571897Y-15961031D02*
X7581421Y-15980079D01*
X7581421Y-15980079D02*
X7581421Y-15999126D01*
X7581421Y-15999126D02*
X7571897Y-16027698D01*
X7571897Y-16027698D02*
X7457612Y-16141984D01*
X7457612Y-16141984D02*
X7581421Y-16141984D01*
X7648088Y-15941984D02*
X7771897Y-15941984D01*
X7771897Y-15941984D02*
X7705231Y-16018174D01*
X7705231Y-16018174D02*
X7733802Y-16018174D01*
X7733802Y-16018174D02*
X7752850Y-16027698D01*
X7752850Y-16027698D02*
X7762374Y-16037222D01*
X7762374Y-16037222D02*
X7771897Y-16056269D01*
X7771897Y-16056269D02*
X7771897Y-16103888D01*
X7771897Y-16103888D02*
X7762374Y-16122936D01*
X7762374Y-16122936D02*
X7752850Y-16132460D01*
X7752850Y-16132460D02*
X7733802Y-16141984D01*
X7733802Y-16141984D02*
X7676659Y-16141984D01*
X7676659Y-16141984D02*
X7657612Y-16132460D01*
X7657612Y-16132460D02*
X7648088Y-16122936D01*
X7943326Y-15941984D02*
X7905231Y-15941984D01*
X7905231Y-15941984D02*
X7886183Y-15951507D01*
X7886183Y-15951507D02*
X7876659Y-15961031D01*
X7876659Y-15961031D02*
X7857612Y-15989603D01*
X7857612Y-15989603D02*
X7848088Y-16027698D01*
X7848088Y-16027698D02*
X7848088Y-16103888D01*
X7848088Y-16103888D02*
X7857612Y-16122936D01*
X7857612Y-16122936D02*
X7867136Y-16132460D01*
X7867136Y-16132460D02*
X7886183Y-16141984D01*
X7886183Y-16141984D02*
X7924278Y-16141984D01*
X7924278Y-16141984D02*
X7943326Y-16132460D01*
X7943326Y-16132460D02*
X7952850Y-16122936D01*
X7952850Y-16122936D02*
X7962374Y-16103888D01*
X7962374Y-16103888D02*
X7962374Y-16056269D01*
X7962374Y-16056269D02*
X7952850Y-16037222D01*
X7952850Y-16037222D02*
X7943326Y-16027698D01*
X7943326Y-16027698D02*
X7924278Y-16018174D01*
X7924278Y-16018174D02*
X7886183Y-16018174D01*
X7886183Y-16018174D02*
X7867136Y-16027698D01*
X7867136Y-16027698D02*
X7857612Y-16037222D01*
X7857612Y-16037222D02*
X7848088Y-16056269D01*
X8038564Y-15941984D02*
X8038564Y-15980079D01*
X8114755Y-15941984D02*
X8114755Y-15980079D01*
X8409993Y-16218174D02*
X8400469Y-16208650D01*
X8400469Y-16208650D02*
X8381421Y-16180079D01*
X8381421Y-16180079D02*
X8371898Y-16161031D01*
X8371898Y-16161031D02*
X8362374Y-16132460D01*
X8362374Y-16132460D02*
X8352850Y-16084841D01*
X8352850Y-16084841D02*
X8352850Y-16046746D01*
X8352850Y-16046746D02*
X8362374Y-15999126D01*
X8362374Y-15999126D02*
X8371898Y-15970555D01*
X8371898Y-15970555D02*
X8381421Y-15951507D01*
X8381421Y-15951507D02*
X8400469Y-15922936D01*
X8400469Y-15922936D02*
X8409993Y-15913412D01*
X8524279Y-15941984D02*
X8543326Y-15941984D01*
X8543326Y-15941984D02*
X8562374Y-15951507D01*
X8562374Y-15951507D02*
X8571898Y-15961031D01*
X8571898Y-15961031D02*
X8581421Y-15980079D01*
X8581421Y-15980079D02*
X8590945Y-16018174D01*
X8590945Y-16018174D02*
X8590945Y-16065793D01*
X8590945Y-16065793D02*
X8581421Y-16103888D01*
X8581421Y-16103888D02*
X8571898Y-16122936D01*
X8571898Y-16122936D02*
X8562374Y-16132460D01*
X8562374Y-16132460D02*
X8543326Y-16141984D01*
X8543326Y-16141984D02*
X8524279Y-16141984D01*
X8524279Y-16141984D02*
X8505231Y-16132460D01*
X8505231Y-16132460D02*
X8495707Y-16122936D01*
X8495707Y-16122936D02*
X8486183Y-16103888D01*
X8486183Y-16103888D02*
X8476660Y-16065793D01*
X8476660Y-16065793D02*
X8476660Y-16018174D01*
X8476660Y-16018174D02*
X8486183Y-15980079D01*
X8486183Y-15980079D02*
X8495707Y-15961031D01*
X8495707Y-15961031D02*
X8505231Y-15951507D01*
X8505231Y-15951507D02*
X8524279Y-15941984D01*
X8829041Y-16141984D02*
X8829041Y-15941984D01*
X8914755Y-16141984D02*
X8914755Y-16037222D01*
X8914755Y-16037222D02*
X8905231Y-16018174D01*
X8905231Y-16018174D02*
X8886183Y-16008650D01*
X8886183Y-16008650D02*
X8857612Y-16008650D01*
X8857612Y-16008650D02*
X8838564Y-16018174D01*
X8838564Y-16018174D02*
X8829041Y-16027698D01*
X9038564Y-16141984D02*
X9019517Y-16132460D01*
X9019517Y-16132460D02*
X9009993Y-16122936D01*
X9009993Y-16122936D02*
X9000469Y-16103888D01*
X9000469Y-16103888D02*
X9000469Y-16046746D01*
X9000469Y-16046746D02*
X9009993Y-16027698D01*
X9009993Y-16027698D02*
X9019517Y-16018174D01*
X9019517Y-16018174D02*
X9038564Y-16008650D01*
X9038564Y-16008650D02*
X9067136Y-16008650D01*
X9067136Y-16008650D02*
X9086183Y-16018174D01*
X9086183Y-16018174D02*
X9095707Y-16027698D01*
X9095707Y-16027698D02*
X9105231Y-16046746D01*
X9105231Y-16046746D02*
X9105231Y-16103888D01*
X9105231Y-16103888D02*
X9095707Y-16122936D01*
X9095707Y-16122936D02*
X9086183Y-16132460D01*
X9086183Y-16132460D02*
X9067136Y-16141984D01*
X9067136Y-16141984D02*
X9038564Y-16141984D01*
X9219517Y-16141984D02*
X9200469Y-16132460D01*
X9200469Y-16132460D02*
X9190945Y-16113412D01*
X9190945Y-16113412D02*
X9190945Y-15941984D01*
X9371898Y-16132460D02*
X9352850Y-16141984D01*
X9352850Y-16141984D02*
X9314755Y-16141984D01*
X9314755Y-16141984D02*
X9295707Y-16132460D01*
X9295707Y-16132460D02*
X9286183Y-16113412D01*
X9286183Y-16113412D02*
X9286183Y-16037222D01*
X9286183Y-16037222D02*
X9295707Y-16018174D01*
X9295707Y-16018174D02*
X9314755Y-16008650D01*
X9314755Y-16008650D02*
X9352850Y-16008650D01*
X9352850Y-16008650D02*
X9371898Y-16018174D01*
X9371898Y-16018174D02*
X9381422Y-16037222D01*
X9381422Y-16037222D02*
X9381422Y-16056269D01*
X9381422Y-16056269D02*
X9286183Y-16075317D01*
X9457612Y-16132460D02*
X9476660Y-16141984D01*
X9476660Y-16141984D02*
X9514755Y-16141984D01*
X9514755Y-16141984D02*
X9533803Y-16132460D01*
X9533803Y-16132460D02*
X9543326Y-16113412D01*
X9543326Y-16113412D02*
X9543326Y-16103888D01*
X9543326Y-16103888D02*
X9533803Y-16084841D01*
X9533803Y-16084841D02*
X9514755Y-16075317D01*
X9514755Y-16075317D02*
X9486183Y-16075317D01*
X9486183Y-16075317D02*
X9467136Y-16065793D01*
X9467136Y-16065793D02*
X9457612Y-16046746D01*
X9457612Y-16046746D02*
X9457612Y-16037222D01*
X9457612Y-16037222D02*
X9467136Y-16018174D01*
X9467136Y-16018174D02*
X9486183Y-16008650D01*
X9486183Y-16008650D02*
X9514755Y-16008650D01*
X9514755Y-16008650D02*
X9533803Y-16018174D01*
X9781422Y-16065793D02*
X9933803Y-16065793D01*
X9857612Y-16141984D02*
X9857612Y-15989603D01*
X10209993Y-16027698D02*
X10190945Y-16018174D01*
X10190945Y-16018174D02*
X10181422Y-16008650D01*
X10181422Y-16008650D02*
X10171898Y-15989603D01*
X10171898Y-15989603D02*
X10171898Y-15980079D01*
X10171898Y-15980079D02*
X10181422Y-15961031D01*
X10181422Y-15961031D02*
X10190945Y-15951507D01*
X10190945Y-15951507D02*
X10209993Y-15941984D01*
X10209993Y-15941984D02*
X10248088Y-15941984D01*
X10248088Y-15941984D02*
X10267136Y-15951507D01*
X10267136Y-15951507D02*
X10276660Y-15961031D01*
X10276660Y-15961031D02*
X10286184Y-15980079D01*
X10286184Y-15980079D02*
X10286184Y-15989603D01*
X10286184Y-15989603D02*
X10276660Y-16008650D01*
X10276660Y-16008650D02*
X10267136Y-16018174D01*
X10267136Y-16018174D02*
X10248088Y-16027698D01*
X10248088Y-16027698D02*
X10209993Y-16027698D01*
X10209993Y-16027698D02*
X10190945Y-16037222D01*
X10190945Y-16037222D02*
X10181422Y-16046746D01*
X10181422Y-16046746D02*
X10171898Y-16065793D01*
X10171898Y-16065793D02*
X10171898Y-16103888D01*
X10171898Y-16103888D02*
X10181422Y-16122936D01*
X10181422Y-16122936D02*
X10190945Y-16132460D01*
X10190945Y-16132460D02*
X10209993Y-16141984D01*
X10209993Y-16141984D02*
X10248088Y-16141984D01*
X10248088Y-16141984D02*
X10267136Y-16132460D01*
X10267136Y-16132460D02*
X10276660Y-16122936D01*
X10276660Y-16122936D02*
X10286184Y-16103888D01*
X10286184Y-16103888D02*
X10286184Y-16065793D01*
X10286184Y-16065793D02*
X10276660Y-16046746D01*
X10276660Y-16046746D02*
X10267136Y-16037222D01*
X10267136Y-16037222D02*
X10248088Y-16027698D01*
X10514755Y-16132460D02*
X10533803Y-16141984D01*
X10533803Y-16141984D02*
X10571898Y-16141984D01*
X10571898Y-16141984D02*
X10590946Y-16132460D01*
X10590946Y-16132460D02*
X10600469Y-16113412D01*
X10600469Y-16113412D02*
X10600469Y-16103888D01*
X10600469Y-16103888D02*
X10590946Y-16084841D01*
X10590946Y-16084841D02*
X10571898Y-16075317D01*
X10571898Y-16075317D02*
X10543326Y-16075317D01*
X10543326Y-16075317D02*
X10524279Y-16065793D01*
X10524279Y-16065793D02*
X10514755Y-16046746D01*
X10514755Y-16046746D02*
X10514755Y-16037222D01*
X10514755Y-16037222D02*
X10524279Y-16018174D01*
X10524279Y-16018174D02*
X10543326Y-16008650D01*
X10543326Y-16008650D02*
X10571898Y-16008650D01*
X10571898Y-16008650D02*
X10590946Y-16018174D01*
X10714755Y-16141984D02*
X10695707Y-16132460D01*
X10695707Y-16132460D02*
X10686184Y-16113412D01*
X10686184Y-16113412D02*
X10686184Y-15941984D01*
X10819517Y-16141984D02*
X10800469Y-16132460D01*
X10800469Y-16132460D02*
X10790946Y-16122936D01*
X10790946Y-16122936D02*
X10781422Y-16103888D01*
X10781422Y-16103888D02*
X10781422Y-16046746D01*
X10781422Y-16046746D02*
X10790946Y-16027698D01*
X10790946Y-16027698D02*
X10800469Y-16018174D01*
X10800469Y-16018174D02*
X10819517Y-16008650D01*
X10819517Y-16008650D02*
X10848088Y-16008650D01*
X10848088Y-16008650D02*
X10867136Y-16018174D01*
X10867136Y-16018174D02*
X10876660Y-16027698D01*
X10876660Y-16027698D02*
X10886184Y-16046746D01*
X10886184Y-16046746D02*
X10886184Y-16103888D01*
X10886184Y-16103888D02*
X10876660Y-16122936D01*
X10876660Y-16122936D02*
X10867136Y-16132460D01*
X10867136Y-16132460D02*
X10848088Y-16141984D01*
X10848088Y-16141984D02*
X10819517Y-16141984D01*
X10943327Y-16008650D02*
X11019517Y-16008650D01*
X10971898Y-15941984D02*
X10971898Y-16113412D01*
X10971898Y-16113412D02*
X10981422Y-16132460D01*
X10981422Y-16132460D02*
X11000469Y-16141984D01*
X11000469Y-16141984D02*
X11019517Y-16141984D01*
X11076660Y-16132460D02*
X11095707Y-16141984D01*
X11095707Y-16141984D02*
X11133803Y-16141984D01*
X11133803Y-16141984D02*
X11152850Y-16132460D01*
X11152850Y-16132460D02*
X11162374Y-16113412D01*
X11162374Y-16113412D02*
X11162374Y-16103888D01*
X11162374Y-16103888D02*
X11152850Y-16084841D01*
X11152850Y-16084841D02*
X11133803Y-16075317D01*
X11133803Y-16075317D02*
X11105231Y-16075317D01*
X11105231Y-16075317D02*
X11086184Y-16065793D01*
X11086184Y-16065793D02*
X11076660Y-16046746D01*
X11076660Y-16046746D02*
X11076660Y-16037222D01*
X11076660Y-16037222D02*
X11086184Y-16018174D01*
X11086184Y-16018174D02*
X11105231Y-16008650D01*
X11105231Y-16008650D02*
X11133803Y-16008650D01*
X11133803Y-16008650D02*
X11152850Y-16018174D01*
X11229041Y-16218174D02*
X11238565Y-16208650D01*
X11238565Y-16208650D02*
X11257612Y-16180079D01*
X11257612Y-16180079D02*
X11267136Y-16161031D01*
X11267136Y-16161031D02*
X11276660Y-16132460D01*
X11276660Y-16132460D02*
X11286184Y-16084841D01*
X11286184Y-16084841D02*
X11286184Y-16046746D01*
X11286184Y-16046746D02*
X11276660Y-15999126D01*
X11276660Y-15999126D02*
X11267136Y-15970555D01*
X11267136Y-15970555D02*
X11257612Y-15951507D01*
X11257612Y-15951507D02*
X11238565Y-15922936D01*
X11238565Y-15922936D02*
X11229041Y-15913412D01*
D12*
X4825411Y-16337481D02*
X4825411Y-16291519D01*
X4779449Y-16291519D01*
X4779449Y-16337481D01*
X4825411Y-16337481D01*
D11*
X5133802Y-16205984D02*
X5152850Y-16205984D01*
X5152850Y-16205984D02*
X5171897Y-16215507D01*
X5171897Y-16215507D02*
X5181421Y-16225031D01*
X5181421Y-16225031D02*
X5190945Y-16244079D01*
X5190945Y-16244079D02*
X5200469Y-16282174D01*
X5200469Y-16282174D02*
X5200469Y-16329793D01*
X5200469Y-16329793D02*
X5190945Y-16367888D01*
X5190945Y-16367888D02*
X5181421Y-16386936D01*
X5181421Y-16386936D02*
X5171897Y-16396460D01*
X5171897Y-16396460D02*
X5152850Y-16405984D01*
X5152850Y-16405984D02*
X5133802Y-16405984D01*
X5133802Y-16405984D02*
X5114754Y-16396460D01*
X5114754Y-16396460D02*
X5105231Y-16386936D01*
X5105231Y-16386936D02*
X5095707Y-16367888D01*
X5095707Y-16367888D02*
X5086183Y-16329793D01*
X5086183Y-16329793D02*
X5086183Y-16282174D01*
X5086183Y-16282174D02*
X5095707Y-16244079D01*
X5095707Y-16244079D02*
X5105231Y-16225031D01*
X5105231Y-16225031D02*
X5114754Y-16215507D01*
X5114754Y-16215507D02*
X5133802Y-16205984D01*
X5295707Y-16396460D02*
X5295707Y-16405984D01*
X5295707Y-16405984D02*
X5286183Y-16425031D01*
X5286183Y-16425031D02*
X5276659Y-16434555D01*
X5467135Y-16205984D02*
X5429040Y-16205984D01*
X5429040Y-16205984D02*
X5409993Y-16215507D01*
X5409993Y-16215507D02*
X5400469Y-16225031D01*
X5400469Y-16225031D02*
X5381421Y-16253603D01*
X5381421Y-16253603D02*
X5371897Y-16291698D01*
X5371897Y-16291698D02*
X5371897Y-16367888D01*
X5371897Y-16367888D02*
X5381421Y-16386936D01*
X5381421Y-16386936D02*
X5390945Y-16396460D01*
X5390945Y-16396460D02*
X5409993Y-16405984D01*
X5409993Y-16405984D02*
X5448088Y-16405984D01*
X5448088Y-16405984D02*
X5467135Y-16396460D01*
X5467135Y-16396460D02*
X5476659Y-16386936D01*
X5476659Y-16386936D02*
X5486183Y-16367888D01*
X5486183Y-16367888D02*
X5486183Y-16320269D01*
X5486183Y-16320269D02*
X5476659Y-16301222D01*
X5476659Y-16301222D02*
X5467135Y-16291698D01*
X5467135Y-16291698D02*
X5448088Y-16282174D01*
X5448088Y-16282174D02*
X5409993Y-16282174D01*
X5409993Y-16282174D02*
X5390945Y-16291698D01*
X5390945Y-16291698D02*
X5381421Y-16301222D01*
X5381421Y-16301222D02*
X5371897Y-16320269D01*
X5667135Y-16205984D02*
X5571897Y-16205984D01*
X5571897Y-16205984D02*
X5562374Y-16301222D01*
X5562374Y-16301222D02*
X5571897Y-16291698D01*
X5571897Y-16291698D02*
X5590945Y-16282174D01*
X5590945Y-16282174D02*
X5638564Y-16282174D01*
X5638564Y-16282174D02*
X5657612Y-16291698D01*
X5657612Y-16291698D02*
X5667135Y-16301222D01*
X5667135Y-16301222D02*
X5676659Y-16320269D01*
X5676659Y-16320269D02*
X5676659Y-16367888D01*
X5676659Y-16367888D02*
X5667135Y-16386936D01*
X5667135Y-16386936D02*
X5657612Y-16396460D01*
X5657612Y-16396460D02*
X5638564Y-16405984D01*
X5638564Y-16405984D02*
X5590945Y-16405984D01*
X5590945Y-16405984D02*
X5571897Y-16396460D01*
X5571897Y-16396460D02*
X5562374Y-16386936D01*
X5800469Y-16205984D02*
X5819516Y-16205984D01*
X5819516Y-16205984D02*
X5838564Y-16215507D01*
X5838564Y-16215507D02*
X5848088Y-16225031D01*
X5848088Y-16225031D02*
X5857612Y-16244079D01*
X5857612Y-16244079D02*
X5867135Y-16282174D01*
X5867135Y-16282174D02*
X5867135Y-16329793D01*
X5867135Y-16329793D02*
X5857612Y-16367888D01*
X5857612Y-16367888D02*
X5848088Y-16386936D01*
X5848088Y-16386936D02*
X5838564Y-16396460D01*
X5838564Y-16396460D02*
X5819516Y-16405984D01*
X5819516Y-16405984D02*
X5800469Y-16405984D01*
X5800469Y-16405984D02*
X5781421Y-16396460D01*
X5781421Y-16396460D02*
X5771897Y-16386936D01*
X5771897Y-16386936D02*
X5762373Y-16367888D01*
X5762373Y-16367888D02*
X5752850Y-16329793D01*
X5752850Y-16329793D02*
X5752850Y-16282174D01*
X5752850Y-16282174D02*
X5762373Y-16244079D01*
X5762373Y-16244079D02*
X5771897Y-16225031D01*
X5771897Y-16225031D02*
X5781421Y-16215507D01*
X5781421Y-16215507D02*
X5800469Y-16205984D01*
X5952850Y-16405984D02*
X5952850Y-16272650D01*
X5952850Y-16291698D02*
X5962373Y-16282174D01*
X5962373Y-16282174D02*
X5981421Y-16272650D01*
X5981421Y-16272650D02*
X6009993Y-16272650D01*
X6009993Y-16272650D02*
X6029040Y-16282174D01*
X6029040Y-16282174D02*
X6038564Y-16301222D01*
X6038564Y-16301222D02*
X6038564Y-16405984D01*
X6038564Y-16301222D02*
X6048088Y-16282174D01*
X6048088Y-16282174D02*
X6067135Y-16272650D01*
X6067135Y-16272650D02*
X6095707Y-16272650D01*
X6095707Y-16272650D02*
X6114754Y-16282174D01*
X6114754Y-16282174D02*
X6124278Y-16301222D01*
X6124278Y-16301222D02*
X6124278Y-16405984D01*
X6219516Y-16405984D02*
X6219516Y-16272650D01*
X6219516Y-16291698D02*
X6229040Y-16282174D01*
X6229040Y-16282174D02*
X6248088Y-16272650D01*
X6248088Y-16272650D02*
X6276659Y-16272650D01*
X6276659Y-16272650D02*
X6295707Y-16282174D01*
X6295707Y-16282174D02*
X6305231Y-16301222D01*
X6305231Y-16301222D02*
X6305231Y-16405984D01*
X6305231Y-16301222D02*
X6314754Y-16282174D01*
X6314754Y-16282174D02*
X6333802Y-16272650D01*
X6333802Y-16272650D02*
X6362373Y-16272650D01*
X6362373Y-16272650D02*
X6381421Y-16282174D01*
X6381421Y-16282174D02*
X6390945Y-16301222D01*
X6390945Y-16301222D02*
X6390945Y-16405984D01*
X6781421Y-16196460D02*
X6609993Y-16453603D01*
X7038564Y-16205984D02*
X7057612Y-16205984D01*
X7057612Y-16205984D02*
X7076659Y-16215507D01*
X7076659Y-16215507D02*
X7086183Y-16225031D01*
X7086183Y-16225031D02*
X7095707Y-16244079D01*
X7095707Y-16244079D02*
X7105231Y-16282174D01*
X7105231Y-16282174D02*
X7105231Y-16329793D01*
X7105231Y-16329793D02*
X7095707Y-16367888D01*
X7095707Y-16367888D02*
X7086183Y-16386936D01*
X7086183Y-16386936D02*
X7076659Y-16396460D01*
X7076659Y-16396460D02*
X7057612Y-16405984D01*
X7057612Y-16405984D02*
X7038564Y-16405984D01*
X7038564Y-16405984D02*
X7019516Y-16396460D01*
X7019516Y-16396460D02*
X7009993Y-16386936D01*
X7009993Y-16386936D02*
X7000469Y-16367888D01*
X7000469Y-16367888D02*
X6990945Y-16329793D01*
X6990945Y-16329793D02*
X6990945Y-16282174D01*
X6990945Y-16282174D02*
X7000469Y-16244079D01*
X7000469Y-16244079D02*
X7009993Y-16225031D01*
X7009993Y-16225031D02*
X7019516Y-16215507D01*
X7019516Y-16215507D02*
X7038564Y-16205984D01*
X7200469Y-16396460D02*
X7200469Y-16405984D01*
X7200469Y-16405984D02*
X7190945Y-16425031D01*
X7190945Y-16425031D02*
X7181421Y-16434555D01*
X7324278Y-16205984D02*
X7343326Y-16205984D01*
X7343326Y-16205984D02*
X7362374Y-16215507D01*
X7362374Y-16215507D02*
X7371897Y-16225031D01*
X7371897Y-16225031D02*
X7381421Y-16244079D01*
X7381421Y-16244079D02*
X7390945Y-16282174D01*
X7390945Y-16282174D02*
X7390945Y-16329793D01*
X7390945Y-16329793D02*
X7381421Y-16367888D01*
X7381421Y-16367888D02*
X7371897Y-16386936D01*
X7371897Y-16386936D02*
X7362374Y-16396460D01*
X7362374Y-16396460D02*
X7343326Y-16405984D01*
X7343326Y-16405984D02*
X7324278Y-16405984D01*
X7324278Y-16405984D02*
X7305231Y-16396460D01*
X7305231Y-16396460D02*
X7295707Y-16386936D01*
X7295707Y-16386936D02*
X7286183Y-16367888D01*
X7286183Y-16367888D02*
X7276659Y-16329793D01*
X7276659Y-16329793D02*
X7276659Y-16282174D01*
X7276659Y-16282174D02*
X7286183Y-16244079D01*
X7286183Y-16244079D02*
X7295707Y-16225031D01*
X7295707Y-16225031D02*
X7305231Y-16215507D01*
X7305231Y-16215507D02*
X7324278Y-16205984D01*
X7467136Y-16225031D02*
X7476659Y-16215507D01*
X7476659Y-16215507D02*
X7495707Y-16205984D01*
X7495707Y-16205984D02*
X7543326Y-16205984D01*
X7543326Y-16205984D02*
X7562374Y-16215507D01*
X7562374Y-16215507D02*
X7571897Y-16225031D01*
X7571897Y-16225031D02*
X7581421Y-16244079D01*
X7581421Y-16244079D02*
X7581421Y-16263126D01*
X7581421Y-16263126D02*
X7571897Y-16291698D01*
X7571897Y-16291698D02*
X7457612Y-16405984D01*
X7457612Y-16405984D02*
X7581421Y-16405984D01*
X7762374Y-16205984D02*
X7667136Y-16205984D01*
X7667136Y-16205984D02*
X7657612Y-16301222D01*
X7657612Y-16301222D02*
X7667136Y-16291698D01*
X7667136Y-16291698D02*
X7686183Y-16282174D01*
X7686183Y-16282174D02*
X7733802Y-16282174D01*
X7733802Y-16282174D02*
X7752850Y-16291698D01*
X7752850Y-16291698D02*
X7762374Y-16301222D01*
X7762374Y-16301222D02*
X7771897Y-16320269D01*
X7771897Y-16320269D02*
X7771897Y-16367888D01*
X7771897Y-16367888D02*
X7762374Y-16386936D01*
X7762374Y-16386936D02*
X7752850Y-16396460D01*
X7752850Y-16396460D02*
X7733802Y-16405984D01*
X7733802Y-16405984D02*
X7686183Y-16405984D01*
X7686183Y-16405984D02*
X7667136Y-16396460D01*
X7667136Y-16396460D02*
X7657612Y-16386936D01*
X7943326Y-16205984D02*
X7905231Y-16205984D01*
X7905231Y-16205984D02*
X7886183Y-16215507D01*
X7886183Y-16215507D02*
X7876659Y-16225031D01*
X7876659Y-16225031D02*
X7857612Y-16253603D01*
X7857612Y-16253603D02*
X7848088Y-16291698D01*
X7848088Y-16291698D02*
X7848088Y-16367888D01*
X7848088Y-16367888D02*
X7857612Y-16386936D01*
X7857612Y-16386936D02*
X7867136Y-16396460D01*
X7867136Y-16396460D02*
X7886183Y-16405984D01*
X7886183Y-16405984D02*
X7924278Y-16405984D01*
X7924278Y-16405984D02*
X7943326Y-16396460D01*
X7943326Y-16396460D02*
X7952850Y-16386936D01*
X7952850Y-16386936D02*
X7962374Y-16367888D01*
X7962374Y-16367888D02*
X7962374Y-16320269D01*
X7962374Y-16320269D02*
X7952850Y-16301222D01*
X7952850Y-16301222D02*
X7943326Y-16291698D01*
X7943326Y-16291698D02*
X7924278Y-16282174D01*
X7924278Y-16282174D02*
X7886183Y-16282174D01*
X7886183Y-16282174D02*
X7867136Y-16291698D01*
X7867136Y-16291698D02*
X7857612Y-16301222D01*
X7857612Y-16301222D02*
X7848088Y-16320269D01*
X8038564Y-16205984D02*
X8038564Y-16244079D01*
X8114755Y-16205984D02*
X8114755Y-16244079D01*
X8409993Y-16482174D02*
X8400469Y-16472650D01*
X8400469Y-16472650D02*
X8381421Y-16444079D01*
X8381421Y-16444079D02*
X8371898Y-16425031D01*
X8371898Y-16425031D02*
X8362374Y-16396460D01*
X8362374Y-16396460D02*
X8352850Y-16348841D01*
X8352850Y-16348841D02*
X8352850Y-16310746D01*
X8352850Y-16310746D02*
X8362374Y-16263126D01*
X8362374Y-16263126D02*
X8371898Y-16234555D01*
X8371898Y-16234555D02*
X8381421Y-16215507D01*
X8381421Y-16215507D02*
X8400469Y-16186936D01*
X8400469Y-16186936D02*
X8409993Y-16177412D01*
X8590945Y-16405984D02*
X8476660Y-16405984D01*
X8533802Y-16405984D02*
X8533802Y-16205984D01*
X8533802Y-16205984D02*
X8514755Y-16234555D01*
X8514755Y-16234555D02*
X8495707Y-16253603D01*
X8495707Y-16253603D02*
X8476660Y-16263126D01*
X8762374Y-16272650D02*
X8762374Y-16405984D01*
X8714755Y-16196460D02*
X8667136Y-16339317D01*
X8667136Y-16339317D02*
X8790945Y-16339317D01*
X9019517Y-16405984D02*
X9019517Y-16205984D01*
X9105231Y-16405984D02*
X9105231Y-16301222D01*
X9105231Y-16301222D02*
X9095707Y-16282174D01*
X9095707Y-16282174D02*
X9076660Y-16272650D01*
X9076660Y-16272650D02*
X9048088Y-16272650D01*
X9048088Y-16272650D02*
X9029041Y-16282174D01*
X9029041Y-16282174D02*
X9019517Y-16291698D01*
X9229041Y-16405984D02*
X9209993Y-16396460D01*
X9209993Y-16396460D02*
X9200469Y-16386936D01*
X9200469Y-16386936D02*
X9190945Y-16367888D01*
X9190945Y-16367888D02*
X9190945Y-16310746D01*
X9190945Y-16310746D02*
X9200469Y-16291698D01*
X9200469Y-16291698D02*
X9209993Y-16282174D01*
X9209993Y-16282174D02*
X9229041Y-16272650D01*
X9229041Y-16272650D02*
X9257612Y-16272650D01*
X9257612Y-16272650D02*
X9276660Y-16282174D01*
X9276660Y-16282174D02*
X9286183Y-16291698D01*
X9286183Y-16291698D02*
X9295707Y-16310746D01*
X9295707Y-16310746D02*
X9295707Y-16367888D01*
X9295707Y-16367888D02*
X9286183Y-16386936D01*
X9286183Y-16386936D02*
X9276660Y-16396460D01*
X9276660Y-16396460D02*
X9257612Y-16405984D01*
X9257612Y-16405984D02*
X9229041Y-16405984D01*
X9409993Y-16405984D02*
X9390945Y-16396460D01*
X9390945Y-16396460D02*
X9381422Y-16377412D01*
X9381422Y-16377412D02*
X9381422Y-16205984D01*
X9562374Y-16396460D02*
X9543326Y-16405984D01*
X9543326Y-16405984D02*
X9505231Y-16405984D01*
X9505231Y-16405984D02*
X9486183Y-16396460D01*
X9486183Y-16396460D02*
X9476660Y-16377412D01*
X9476660Y-16377412D02*
X9476660Y-16301222D01*
X9476660Y-16301222D02*
X9486183Y-16282174D01*
X9486183Y-16282174D02*
X9505231Y-16272650D01*
X9505231Y-16272650D02*
X9543326Y-16272650D01*
X9543326Y-16272650D02*
X9562374Y-16282174D01*
X9562374Y-16282174D02*
X9571898Y-16301222D01*
X9571898Y-16301222D02*
X9571898Y-16320269D01*
X9571898Y-16320269D02*
X9476660Y-16339317D01*
X9648088Y-16396460D02*
X9667136Y-16405984D01*
X9667136Y-16405984D02*
X9705231Y-16405984D01*
X9705231Y-16405984D02*
X9724279Y-16396460D01*
X9724279Y-16396460D02*
X9733803Y-16377412D01*
X9733803Y-16377412D02*
X9733803Y-16367888D01*
X9733803Y-16367888D02*
X9724279Y-16348841D01*
X9724279Y-16348841D02*
X9705231Y-16339317D01*
X9705231Y-16339317D02*
X9676660Y-16339317D01*
X9676660Y-16339317D02*
X9657612Y-16329793D01*
X9657612Y-16329793D02*
X9648088Y-16310746D01*
X9648088Y-16310746D02*
X9648088Y-16301222D01*
X9648088Y-16301222D02*
X9657612Y-16282174D01*
X9657612Y-16282174D02*
X9676660Y-16272650D01*
X9676660Y-16272650D02*
X9705231Y-16272650D01*
X9705231Y-16272650D02*
X9724279Y-16282174D01*
X9800469Y-16482174D02*
X9809993Y-16472650D01*
X9809993Y-16472650D02*
X9829041Y-16444079D01*
X9829041Y-16444079D02*
X9838564Y-16425031D01*
X9838564Y-16425031D02*
X9848088Y-16396460D01*
X9848088Y-16396460D02*
X9857612Y-16348841D01*
X9857612Y-16348841D02*
X9857612Y-16310746D01*
X9857612Y-16310746D02*
X9848088Y-16263126D01*
X9848088Y-16263126D02*
X9838564Y-16234555D01*
X9838564Y-16234555D02*
X9829041Y-16215507D01*
X9829041Y-16215507D02*
X9809993Y-16186936D01*
X9809993Y-16186936D02*
X9800469Y-16177412D01*
D12*
X4794930Y-16618500D02*
X4834930Y-16578500D01*
X4794930Y-16538500D01*
X4754930Y-16578500D01*
X4794930Y-16618500D01*
D11*
X5133802Y-16469984D02*
X5152850Y-16469984D01*
X5152850Y-16469984D02*
X5171897Y-16479507D01*
X5171897Y-16479507D02*
X5181421Y-16489031D01*
X5181421Y-16489031D02*
X5190945Y-16508079D01*
X5190945Y-16508079D02*
X5200469Y-16546174D01*
X5200469Y-16546174D02*
X5200469Y-16593793D01*
X5200469Y-16593793D02*
X5190945Y-16631888D01*
X5190945Y-16631888D02*
X5181421Y-16650936D01*
X5181421Y-16650936D02*
X5171897Y-16660460D01*
X5171897Y-16660460D02*
X5152850Y-16669984D01*
X5152850Y-16669984D02*
X5133802Y-16669984D01*
X5133802Y-16669984D02*
X5114754Y-16660460D01*
X5114754Y-16660460D02*
X5105231Y-16650936D01*
X5105231Y-16650936D02*
X5095707Y-16631888D01*
X5095707Y-16631888D02*
X5086183Y-16593793D01*
X5086183Y-16593793D02*
X5086183Y-16546174D01*
X5086183Y-16546174D02*
X5095707Y-16508079D01*
X5095707Y-16508079D02*
X5105231Y-16489031D01*
X5105231Y-16489031D02*
X5114754Y-16479507D01*
X5114754Y-16479507D02*
X5133802Y-16469984D01*
X5295707Y-16660460D02*
X5295707Y-16669984D01*
X5295707Y-16669984D02*
X5286183Y-16689031D01*
X5286183Y-16689031D02*
X5276659Y-16698555D01*
X5409993Y-16555698D02*
X5390945Y-16546174D01*
X5390945Y-16546174D02*
X5381421Y-16536650D01*
X5381421Y-16536650D02*
X5371897Y-16517603D01*
X5371897Y-16517603D02*
X5371897Y-16508079D01*
X5371897Y-16508079D02*
X5381421Y-16489031D01*
X5381421Y-16489031D02*
X5390945Y-16479507D01*
X5390945Y-16479507D02*
X5409993Y-16469984D01*
X5409993Y-16469984D02*
X5448088Y-16469984D01*
X5448088Y-16469984D02*
X5467135Y-16479507D01*
X5467135Y-16479507D02*
X5476659Y-16489031D01*
X5476659Y-16489031D02*
X5486183Y-16508079D01*
X5486183Y-16508079D02*
X5486183Y-16517603D01*
X5486183Y-16517603D02*
X5476659Y-16536650D01*
X5476659Y-16536650D02*
X5467135Y-16546174D01*
X5467135Y-16546174D02*
X5448088Y-16555698D01*
X5448088Y-16555698D02*
X5409993Y-16555698D01*
X5409993Y-16555698D02*
X5390945Y-16565222D01*
X5390945Y-16565222D02*
X5381421Y-16574746D01*
X5381421Y-16574746D02*
X5371897Y-16593793D01*
X5371897Y-16593793D02*
X5371897Y-16631888D01*
X5371897Y-16631888D02*
X5381421Y-16650936D01*
X5381421Y-16650936D02*
X5390945Y-16660460D01*
X5390945Y-16660460D02*
X5409993Y-16669984D01*
X5409993Y-16669984D02*
X5448088Y-16669984D01*
X5448088Y-16669984D02*
X5467135Y-16660460D01*
X5467135Y-16660460D02*
X5476659Y-16650936D01*
X5476659Y-16650936D02*
X5486183Y-16631888D01*
X5486183Y-16631888D02*
X5486183Y-16593793D01*
X5486183Y-16593793D02*
X5476659Y-16574746D01*
X5476659Y-16574746D02*
X5467135Y-16565222D01*
X5467135Y-16565222D02*
X5448088Y-16555698D01*
X5609992Y-16469984D02*
X5629040Y-16469984D01*
X5629040Y-16469984D02*
X5648088Y-16479507D01*
X5648088Y-16479507D02*
X5657612Y-16489031D01*
X5657612Y-16489031D02*
X5667135Y-16508079D01*
X5667135Y-16508079D02*
X5676659Y-16546174D01*
X5676659Y-16546174D02*
X5676659Y-16593793D01*
X5676659Y-16593793D02*
X5667135Y-16631888D01*
X5667135Y-16631888D02*
X5657612Y-16650936D01*
X5657612Y-16650936D02*
X5648088Y-16660460D01*
X5648088Y-16660460D02*
X5629040Y-16669984D01*
X5629040Y-16669984D02*
X5609992Y-16669984D01*
X5609992Y-16669984D02*
X5590945Y-16660460D01*
X5590945Y-16660460D02*
X5581421Y-16650936D01*
X5581421Y-16650936D02*
X5571897Y-16631888D01*
X5571897Y-16631888D02*
X5562374Y-16593793D01*
X5562374Y-16593793D02*
X5562374Y-16546174D01*
X5562374Y-16546174D02*
X5571897Y-16508079D01*
X5571897Y-16508079D02*
X5581421Y-16489031D01*
X5581421Y-16489031D02*
X5590945Y-16479507D01*
X5590945Y-16479507D02*
X5609992Y-16469984D01*
X5800469Y-16469984D02*
X5819516Y-16469984D01*
X5819516Y-16469984D02*
X5838564Y-16479507D01*
X5838564Y-16479507D02*
X5848088Y-16489031D01*
X5848088Y-16489031D02*
X5857612Y-16508079D01*
X5857612Y-16508079D02*
X5867135Y-16546174D01*
X5867135Y-16546174D02*
X5867135Y-16593793D01*
X5867135Y-16593793D02*
X5857612Y-16631888D01*
X5857612Y-16631888D02*
X5848088Y-16650936D01*
X5848088Y-16650936D02*
X5838564Y-16660460D01*
X5838564Y-16660460D02*
X5819516Y-16669984D01*
X5819516Y-16669984D02*
X5800469Y-16669984D01*
X5800469Y-16669984D02*
X5781421Y-16660460D01*
X5781421Y-16660460D02*
X5771897Y-16650936D01*
X5771897Y-16650936D02*
X5762373Y-16631888D01*
X5762373Y-16631888D02*
X5752850Y-16593793D01*
X5752850Y-16593793D02*
X5752850Y-16546174D01*
X5752850Y-16546174D02*
X5762373Y-16508079D01*
X5762373Y-16508079D02*
X5771897Y-16489031D01*
X5771897Y-16489031D02*
X5781421Y-16479507D01*
X5781421Y-16479507D02*
X5800469Y-16469984D01*
X5952850Y-16669984D02*
X5952850Y-16536650D01*
X5952850Y-16555698D02*
X5962373Y-16546174D01*
X5962373Y-16546174D02*
X5981421Y-16536650D01*
X5981421Y-16536650D02*
X6009993Y-16536650D01*
X6009993Y-16536650D02*
X6029040Y-16546174D01*
X6029040Y-16546174D02*
X6038564Y-16565222D01*
X6038564Y-16565222D02*
X6038564Y-16669984D01*
X6038564Y-16565222D02*
X6048088Y-16546174D01*
X6048088Y-16546174D02*
X6067135Y-16536650D01*
X6067135Y-16536650D02*
X6095707Y-16536650D01*
X6095707Y-16536650D02*
X6114754Y-16546174D01*
X6114754Y-16546174D02*
X6124278Y-16565222D01*
X6124278Y-16565222D02*
X6124278Y-16669984D01*
X6219516Y-16669984D02*
X6219516Y-16536650D01*
X6219516Y-16555698D02*
X6229040Y-16546174D01*
X6229040Y-16546174D02*
X6248088Y-16536650D01*
X6248088Y-16536650D02*
X6276659Y-16536650D01*
X6276659Y-16536650D02*
X6295707Y-16546174D01*
X6295707Y-16546174D02*
X6305231Y-16565222D01*
X6305231Y-16565222D02*
X6305231Y-16669984D01*
X6305231Y-16565222D02*
X6314754Y-16546174D01*
X6314754Y-16546174D02*
X6333802Y-16536650D01*
X6333802Y-16536650D02*
X6362373Y-16536650D01*
X6362373Y-16536650D02*
X6381421Y-16546174D01*
X6381421Y-16546174D02*
X6390945Y-16565222D01*
X6390945Y-16565222D02*
X6390945Y-16669984D01*
X6781421Y-16460460D02*
X6609993Y-16717603D01*
X7038564Y-16469984D02*
X7057612Y-16469984D01*
X7057612Y-16469984D02*
X7076659Y-16479507D01*
X7076659Y-16479507D02*
X7086183Y-16489031D01*
X7086183Y-16489031D02*
X7095707Y-16508079D01*
X7095707Y-16508079D02*
X7105231Y-16546174D01*
X7105231Y-16546174D02*
X7105231Y-16593793D01*
X7105231Y-16593793D02*
X7095707Y-16631888D01*
X7095707Y-16631888D02*
X7086183Y-16650936D01*
X7086183Y-16650936D02*
X7076659Y-16660460D01*
X7076659Y-16660460D02*
X7057612Y-16669984D01*
X7057612Y-16669984D02*
X7038564Y-16669984D01*
X7038564Y-16669984D02*
X7019516Y-16660460D01*
X7019516Y-16660460D02*
X7009993Y-16650936D01*
X7009993Y-16650936D02*
X7000469Y-16631888D01*
X7000469Y-16631888D02*
X6990945Y-16593793D01*
X6990945Y-16593793D02*
X6990945Y-16546174D01*
X6990945Y-16546174D02*
X7000469Y-16508079D01*
X7000469Y-16508079D02*
X7009993Y-16489031D01*
X7009993Y-16489031D02*
X7019516Y-16479507D01*
X7019516Y-16479507D02*
X7038564Y-16469984D01*
X7200469Y-16660460D02*
X7200469Y-16669984D01*
X7200469Y-16669984D02*
X7190945Y-16689031D01*
X7190945Y-16689031D02*
X7181421Y-16698555D01*
X7324278Y-16469984D02*
X7343326Y-16469984D01*
X7343326Y-16469984D02*
X7362374Y-16479507D01*
X7362374Y-16479507D02*
X7371897Y-16489031D01*
X7371897Y-16489031D02*
X7381421Y-16508079D01*
X7381421Y-16508079D02*
X7390945Y-16546174D01*
X7390945Y-16546174D02*
X7390945Y-16593793D01*
X7390945Y-16593793D02*
X7381421Y-16631888D01*
X7381421Y-16631888D02*
X7371897Y-16650936D01*
X7371897Y-16650936D02*
X7362374Y-16660460D01*
X7362374Y-16660460D02*
X7343326Y-16669984D01*
X7343326Y-16669984D02*
X7324278Y-16669984D01*
X7324278Y-16669984D02*
X7305231Y-16660460D01*
X7305231Y-16660460D02*
X7295707Y-16650936D01*
X7295707Y-16650936D02*
X7286183Y-16631888D01*
X7286183Y-16631888D02*
X7276659Y-16593793D01*
X7276659Y-16593793D02*
X7276659Y-16546174D01*
X7276659Y-16546174D02*
X7286183Y-16508079D01*
X7286183Y-16508079D02*
X7295707Y-16489031D01*
X7295707Y-16489031D02*
X7305231Y-16479507D01*
X7305231Y-16479507D02*
X7324278Y-16469984D01*
X7457612Y-16469984D02*
X7581421Y-16469984D01*
X7581421Y-16469984D02*
X7514755Y-16546174D01*
X7514755Y-16546174D02*
X7543326Y-16546174D01*
X7543326Y-16546174D02*
X7562374Y-16555698D01*
X7562374Y-16555698D02*
X7571897Y-16565222D01*
X7571897Y-16565222D02*
X7581421Y-16584269D01*
X7581421Y-16584269D02*
X7581421Y-16631888D01*
X7581421Y-16631888D02*
X7571897Y-16650936D01*
X7571897Y-16650936D02*
X7562374Y-16660460D01*
X7562374Y-16660460D02*
X7543326Y-16669984D01*
X7543326Y-16669984D02*
X7486183Y-16669984D01*
X7486183Y-16669984D02*
X7467136Y-16660460D01*
X7467136Y-16660460D02*
X7457612Y-16650936D01*
X7771897Y-16669984D02*
X7657612Y-16669984D01*
X7714755Y-16669984D02*
X7714755Y-16469984D01*
X7714755Y-16469984D02*
X7695707Y-16498555D01*
X7695707Y-16498555D02*
X7676659Y-16517603D01*
X7676659Y-16517603D02*
X7657612Y-16527126D01*
X7952850Y-16469984D02*
X7857612Y-16469984D01*
X7857612Y-16469984D02*
X7848088Y-16565222D01*
X7848088Y-16565222D02*
X7857612Y-16555698D01*
X7857612Y-16555698D02*
X7876659Y-16546174D01*
X7876659Y-16546174D02*
X7924278Y-16546174D01*
X7924278Y-16546174D02*
X7943326Y-16555698D01*
X7943326Y-16555698D02*
X7952850Y-16565222D01*
X7952850Y-16565222D02*
X7962374Y-16584269D01*
X7962374Y-16584269D02*
X7962374Y-16631888D01*
X7962374Y-16631888D02*
X7952850Y-16650936D01*
X7952850Y-16650936D02*
X7943326Y-16660460D01*
X7943326Y-16660460D02*
X7924278Y-16669984D01*
X7924278Y-16669984D02*
X7876659Y-16669984D01*
X7876659Y-16669984D02*
X7857612Y-16660460D01*
X7857612Y-16660460D02*
X7848088Y-16650936D01*
X8038564Y-16469984D02*
X8038564Y-16508079D01*
X8114755Y-16469984D02*
X8114755Y-16508079D01*
X8409993Y-16746174D02*
X8400469Y-16736650D01*
X8400469Y-16736650D02*
X8381421Y-16708079D01*
X8381421Y-16708079D02*
X8371898Y-16689031D01*
X8371898Y-16689031D02*
X8362374Y-16660460D01*
X8362374Y-16660460D02*
X8352850Y-16612841D01*
X8352850Y-16612841D02*
X8352850Y-16574746D01*
X8352850Y-16574746D02*
X8362374Y-16527126D01*
X8362374Y-16527126D02*
X8371898Y-16498555D01*
X8371898Y-16498555D02*
X8381421Y-16479507D01*
X8381421Y-16479507D02*
X8400469Y-16450936D01*
X8400469Y-16450936D02*
X8409993Y-16441412D01*
X8571898Y-16536650D02*
X8571898Y-16669984D01*
X8524279Y-16460460D02*
X8476660Y-16603317D01*
X8476660Y-16603317D02*
X8600469Y-16603317D01*
X8829041Y-16669984D02*
X8829041Y-16469984D01*
X8914755Y-16669984D02*
X8914755Y-16565222D01*
X8914755Y-16565222D02*
X8905231Y-16546174D01*
X8905231Y-16546174D02*
X8886183Y-16536650D01*
X8886183Y-16536650D02*
X8857612Y-16536650D01*
X8857612Y-16536650D02*
X8838564Y-16546174D01*
X8838564Y-16546174D02*
X8829041Y-16555698D01*
X9038564Y-16669984D02*
X9019517Y-16660460D01*
X9019517Y-16660460D02*
X9009993Y-16650936D01*
X9009993Y-16650936D02*
X9000469Y-16631888D01*
X9000469Y-16631888D02*
X9000469Y-16574746D01*
X9000469Y-16574746D02*
X9009993Y-16555698D01*
X9009993Y-16555698D02*
X9019517Y-16546174D01*
X9019517Y-16546174D02*
X9038564Y-16536650D01*
X9038564Y-16536650D02*
X9067136Y-16536650D01*
X9067136Y-16536650D02*
X9086183Y-16546174D01*
X9086183Y-16546174D02*
X9095707Y-16555698D01*
X9095707Y-16555698D02*
X9105231Y-16574746D01*
X9105231Y-16574746D02*
X9105231Y-16631888D01*
X9105231Y-16631888D02*
X9095707Y-16650936D01*
X9095707Y-16650936D02*
X9086183Y-16660460D01*
X9086183Y-16660460D02*
X9067136Y-16669984D01*
X9067136Y-16669984D02*
X9038564Y-16669984D01*
X9219517Y-16669984D02*
X9200469Y-16660460D01*
X9200469Y-16660460D02*
X9190945Y-16641412D01*
X9190945Y-16641412D02*
X9190945Y-16469984D01*
X9371898Y-16660460D02*
X9352850Y-16669984D01*
X9352850Y-16669984D02*
X9314755Y-16669984D01*
X9314755Y-16669984D02*
X9295707Y-16660460D01*
X9295707Y-16660460D02*
X9286183Y-16641412D01*
X9286183Y-16641412D02*
X9286183Y-16565222D01*
X9286183Y-16565222D02*
X9295707Y-16546174D01*
X9295707Y-16546174D02*
X9314755Y-16536650D01*
X9314755Y-16536650D02*
X9352850Y-16536650D01*
X9352850Y-16536650D02*
X9371898Y-16546174D01*
X9371898Y-16546174D02*
X9381422Y-16565222D01*
X9381422Y-16565222D02*
X9381422Y-16584269D01*
X9381422Y-16584269D02*
X9286183Y-16603317D01*
X9457612Y-16660460D02*
X9476660Y-16669984D01*
X9476660Y-16669984D02*
X9514755Y-16669984D01*
X9514755Y-16669984D02*
X9533803Y-16660460D01*
X9533803Y-16660460D02*
X9543326Y-16641412D01*
X9543326Y-16641412D02*
X9543326Y-16631888D01*
X9543326Y-16631888D02*
X9533803Y-16612841D01*
X9533803Y-16612841D02*
X9514755Y-16603317D01*
X9514755Y-16603317D02*
X9486183Y-16603317D01*
X9486183Y-16603317D02*
X9467136Y-16593793D01*
X9467136Y-16593793D02*
X9457612Y-16574746D01*
X9457612Y-16574746D02*
X9457612Y-16565222D01*
X9457612Y-16565222D02*
X9467136Y-16546174D01*
X9467136Y-16546174D02*
X9486183Y-16536650D01*
X9486183Y-16536650D02*
X9514755Y-16536650D01*
X9514755Y-16536650D02*
X9533803Y-16546174D01*
X9609993Y-16746174D02*
X9619517Y-16736650D01*
X9619517Y-16736650D02*
X9638564Y-16708079D01*
X9638564Y-16708079D02*
X9648088Y-16689031D01*
X9648088Y-16689031D02*
X9657612Y-16660460D01*
X9657612Y-16660460D02*
X9667136Y-16612841D01*
X9667136Y-16612841D02*
X9667136Y-16574746D01*
X9667136Y-16574746D02*
X9657612Y-16527126D01*
X9657612Y-16527126D02*
X9648088Y-16498555D01*
X9648088Y-16498555D02*
X9638564Y-16479507D01*
X9638564Y-16479507D02*
X9619517Y-16450936D01*
X9619517Y-16450936D02*
X9609993Y-16441412D01*
D12*
X4734930Y-16792500D02*
X4834930Y-16892500D01*
X4834930Y-16792500D02*
X4734930Y-16892500D01*
X4834930Y-16842500D02*
G75*
G02*
X4734930Y-16842500I-50000J0D01*
G01*
X4734930Y-16842500D02*
G75*
G02*
X4834930Y-16842500I50000J0D01*
G01*
D11*
X5200469Y-16933984D02*
X5086183Y-16933984D01*
X5143326Y-16933984D02*
X5143326Y-16733984D01*
X5143326Y-16733984D02*
X5124278Y-16762555D01*
X5124278Y-16762555D02*
X5105231Y-16781603D01*
X5105231Y-16781603D02*
X5086183Y-16791127D01*
X5295707Y-16924460D02*
X5295707Y-16933984D01*
X5295707Y-16933984D02*
X5286183Y-16953031D01*
X5286183Y-16953031D02*
X5276659Y-16962555D01*
X5419516Y-16733984D02*
X5438564Y-16733984D01*
X5438564Y-16733984D02*
X5457612Y-16743507D01*
X5457612Y-16743507D02*
X5467135Y-16753031D01*
X5467135Y-16753031D02*
X5476659Y-16772079D01*
X5476659Y-16772079D02*
X5486183Y-16810174D01*
X5486183Y-16810174D02*
X5486183Y-16857793D01*
X5486183Y-16857793D02*
X5476659Y-16895888D01*
X5476659Y-16895888D02*
X5467135Y-16914936D01*
X5467135Y-16914936D02*
X5457612Y-16924460D01*
X5457612Y-16924460D02*
X5438564Y-16933984D01*
X5438564Y-16933984D02*
X5419516Y-16933984D01*
X5419516Y-16933984D02*
X5400469Y-16924460D01*
X5400469Y-16924460D02*
X5390945Y-16914936D01*
X5390945Y-16914936D02*
X5381421Y-16895888D01*
X5381421Y-16895888D02*
X5371897Y-16857793D01*
X5371897Y-16857793D02*
X5371897Y-16810174D01*
X5371897Y-16810174D02*
X5381421Y-16772079D01*
X5381421Y-16772079D02*
X5390945Y-16753031D01*
X5390945Y-16753031D02*
X5400469Y-16743507D01*
X5400469Y-16743507D02*
X5419516Y-16733984D01*
X5609992Y-16733984D02*
X5629040Y-16733984D01*
X5629040Y-16733984D02*
X5648088Y-16743507D01*
X5648088Y-16743507D02*
X5657612Y-16753031D01*
X5657612Y-16753031D02*
X5667135Y-16772079D01*
X5667135Y-16772079D02*
X5676659Y-16810174D01*
X5676659Y-16810174D02*
X5676659Y-16857793D01*
X5676659Y-16857793D02*
X5667135Y-16895888D01*
X5667135Y-16895888D02*
X5657612Y-16914936D01*
X5657612Y-16914936D02*
X5648088Y-16924460D01*
X5648088Y-16924460D02*
X5629040Y-16933984D01*
X5629040Y-16933984D02*
X5609992Y-16933984D01*
X5609992Y-16933984D02*
X5590945Y-16924460D01*
X5590945Y-16924460D02*
X5581421Y-16914936D01*
X5581421Y-16914936D02*
X5571897Y-16895888D01*
X5571897Y-16895888D02*
X5562374Y-16857793D01*
X5562374Y-16857793D02*
X5562374Y-16810174D01*
X5562374Y-16810174D02*
X5571897Y-16772079D01*
X5571897Y-16772079D02*
X5581421Y-16753031D01*
X5581421Y-16753031D02*
X5590945Y-16743507D01*
X5590945Y-16743507D02*
X5609992Y-16733984D01*
X5800469Y-16733984D02*
X5819516Y-16733984D01*
X5819516Y-16733984D02*
X5838564Y-16743507D01*
X5838564Y-16743507D02*
X5848088Y-16753031D01*
X5848088Y-16753031D02*
X5857612Y-16772079D01*
X5857612Y-16772079D02*
X5867135Y-16810174D01*
X5867135Y-16810174D02*
X5867135Y-16857793D01*
X5867135Y-16857793D02*
X5857612Y-16895888D01*
X5857612Y-16895888D02*
X5848088Y-16914936D01*
X5848088Y-16914936D02*
X5838564Y-16924460D01*
X5838564Y-16924460D02*
X5819516Y-16933984D01*
X5819516Y-16933984D02*
X5800469Y-16933984D01*
X5800469Y-16933984D02*
X5781421Y-16924460D01*
X5781421Y-16924460D02*
X5771897Y-16914936D01*
X5771897Y-16914936D02*
X5762373Y-16895888D01*
X5762373Y-16895888D02*
X5752850Y-16857793D01*
X5752850Y-16857793D02*
X5752850Y-16810174D01*
X5752850Y-16810174D02*
X5762373Y-16772079D01*
X5762373Y-16772079D02*
X5771897Y-16753031D01*
X5771897Y-16753031D02*
X5781421Y-16743507D01*
X5781421Y-16743507D02*
X5800469Y-16733984D01*
X5952850Y-16933984D02*
X5952850Y-16800650D01*
X5952850Y-16819698D02*
X5962373Y-16810174D01*
X5962373Y-16810174D02*
X5981421Y-16800650D01*
X5981421Y-16800650D02*
X6009993Y-16800650D01*
X6009993Y-16800650D02*
X6029040Y-16810174D01*
X6029040Y-16810174D02*
X6038564Y-16829222D01*
X6038564Y-16829222D02*
X6038564Y-16933984D01*
X6038564Y-16829222D02*
X6048088Y-16810174D01*
X6048088Y-16810174D02*
X6067135Y-16800650D01*
X6067135Y-16800650D02*
X6095707Y-16800650D01*
X6095707Y-16800650D02*
X6114754Y-16810174D01*
X6114754Y-16810174D02*
X6124278Y-16829222D01*
X6124278Y-16829222D02*
X6124278Y-16933984D01*
X6219516Y-16933984D02*
X6219516Y-16800650D01*
X6219516Y-16819698D02*
X6229040Y-16810174D01*
X6229040Y-16810174D02*
X6248088Y-16800650D01*
X6248088Y-16800650D02*
X6276659Y-16800650D01*
X6276659Y-16800650D02*
X6295707Y-16810174D01*
X6295707Y-16810174D02*
X6305231Y-16829222D01*
X6305231Y-16829222D02*
X6305231Y-16933984D01*
X6305231Y-16829222D02*
X6314754Y-16810174D01*
X6314754Y-16810174D02*
X6333802Y-16800650D01*
X6333802Y-16800650D02*
X6362373Y-16800650D01*
X6362373Y-16800650D02*
X6381421Y-16810174D01*
X6381421Y-16810174D02*
X6390945Y-16829222D01*
X6390945Y-16829222D02*
X6390945Y-16933984D01*
X6781421Y-16724460D02*
X6609993Y-16981603D01*
X7038564Y-16733984D02*
X7057612Y-16733984D01*
X7057612Y-16733984D02*
X7076659Y-16743507D01*
X7076659Y-16743507D02*
X7086183Y-16753031D01*
X7086183Y-16753031D02*
X7095707Y-16772079D01*
X7095707Y-16772079D02*
X7105231Y-16810174D01*
X7105231Y-16810174D02*
X7105231Y-16857793D01*
X7105231Y-16857793D02*
X7095707Y-16895888D01*
X7095707Y-16895888D02*
X7086183Y-16914936D01*
X7086183Y-16914936D02*
X7076659Y-16924460D01*
X7076659Y-16924460D02*
X7057612Y-16933984D01*
X7057612Y-16933984D02*
X7038564Y-16933984D01*
X7038564Y-16933984D02*
X7019516Y-16924460D01*
X7019516Y-16924460D02*
X7009993Y-16914936D01*
X7009993Y-16914936D02*
X7000469Y-16895888D01*
X7000469Y-16895888D02*
X6990945Y-16857793D01*
X6990945Y-16857793D02*
X6990945Y-16810174D01*
X6990945Y-16810174D02*
X7000469Y-16772079D01*
X7000469Y-16772079D02*
X7009993Y-16753031D01*
X7009993Y-16753031D02*
X7019516Y-16743507D01*
X7019516Y-16743507D02*
X7038564Y-16733984D01*
X7200469Y-16924460D02*
X7200469Y-16933984D01*
X7200469Y-16933984D02*
X7190945Y-16953031D01*
X7190945Y-16953031D02*
X7181421Y-16962555D01*
X7324278Y-16733984D02*
X7343326Y-16733984D01*
X7343326Y-16733984D02*
X7362374Y-16743507D01*
X7362374Y-16743507D02*
X7371897Y-16753031D01*
X7371897Y-16753031D02*
X7381421Y-16772079D01*
X7381421Y-16772079D02*
X7390945Y-16810174D01*
X7390945Y-16810174D02*
X7390945Y-16857793D01*
X7390945Y-16857793D02*
X7381421Y-16895888D01*
X7381421Y-16895888D02*
X7371897Y-16914936D01*
X7371897Y-16914936D02*
X7362374Y-16924460D01*
X7362374Y-16924460D02*
X7343326Y-16933984D01*
X7343326Y-16933984D02*
X7324278Y-16933984D01*
X7324278Y-16933984D02*
X7305231Y-16924460D01*
X7305231Y-16924460D02*
X7295707Y-16914936D01*
X7295707Y-16914936D02*
X7286183Y-16895888D01*
X7286183Y-16895888D02*
X7276659Y-16857793D01*
X7276659Y-16857793D02*
X7276659Y-16810174D01*
X7276659Y-16810174D02*
X7286183Y-16772079D01*
X7286183Y-16772079D02*
X7295707Y-16753031D01*
X7295707Y-16753031D02*
X7305231Y-16743507D01*
X7305231Y-16743507D02*
X7324278Y-16733984D01*
X7457612Y-16733984D02*
X7581421Y-16733984D01*
X7581421Y-16733984D02*
X7514755Y-16810174D01*
X7514755Y-16810174D02*
X7543326Y-16810174D01*
X7543326Y-16810174D02*
X7562374Y-16819698D01*
X7562374Y-16819698D02*
X7571897Y-16829222D01*
X7571897Y-16829222D02*
X7581421Y-16848269D01*
X7581421Y-16848269D02*
X7581421Y-16895888D01*
X7581421Y-16895888D02*
X7571897Y-16914936D01*
X7571897Y-16914936D02*
X7562374Y-16924460D01*
X7562374Y-16924460D02*
X7543326Y-16933984D01*
X7543326Y-16933984D02*
X7486183Y-16933984D01*
X7486183Y-16933984D02*
X7467136Y-16924460D01*
X7467136Y-16924460D02*
X7457612Y-16914936D01*
X7676659Y-16933984D02*
X7714755Y-16933984D01*
X7714755Y-16933984D02*
X7733802Y-16924460D01*
X7733802Y-16924460D02*
X7743326Y-16914936D01*
X7743326Y-16914936D02*
X7762374Y-16886365D01*
X7762374Y-16886365D02*
X7771897Y-16848269D01*
X7771897Y-16848269D02*
X7771897Y-16772079D01*
X7771897Y-16772079D02*
X7762374Y-16753031D01*
X7762374Y-16753031D02*
X7752850Y-16743507D01*
X7752850Y-16743507D02*
X7733802Y-16733984D01*
X7733802Y-16733984D02*
X7695707Y-16733984D01*
X7695707Y-16733984D02*
X7676659Y-16743507D01*
X7676659Y-16743507D02*
X7667136Y-16753031D01*
X7667136Y-16753031D02*
X7657612Y-16772079D01*
X7657612Y-16772079D02*
X7657612Y-16819698D01*
X7657612Y-16819698D02*
X7667136Y-16838746D01*
X7667136Y-16838746D02*
X7676659Y-16848269D01*
X7676659Y-16848269D02*
X7695707Y-16857793D01*
X7695707Y-16857793D02*
X7733802Y-16857793D01*
X7733802Y-16857793D02*
X7752850Y-16848269D01*
X7752850Y-16848269D02*
X7762374Y-16838746D01*
X7762374Y-16838746D02*
X7771897Y-16819698D01*
X7943326Y-16800650D02*
X7943326Y-16933984D01*
X7895707Y-16724460D02*
X7848088Y-16867317D01*
X7848088Y-16867317D02*
X7971897Y-16867317D01*
X8038564Y-16733984D02*
X8038564Y-16772079D01*
X8114755Y-16733984D02*
X8114755Y-16772079D01*
X8409993Y-17010174D02*
X8400469Y-17000650D01*
X8400469Y-17000650D02*
X8381421Y-16972079D01*
X8381421Y-16972079D02*
X8371898Y-16953031D01*
X8371898Y-16953031D02*
X8362374Y-16924460D01*
X8362374Y-16924460D02*
X8352850Y-16876841D01*
X8352850Y-16876841D02*
X8352850Y-16838746D01*
X8352850Y-16838746D02*
X8362374Y-16791127D01*
X8362374Y-16791127D02*
X8371898Y-16762555D01*
X8371898Y-16762555D02*
X8381421Y-16743507D01*
X8381421Y-16743507D02*
X8400469Y-16714936D01*
X8400469Y-16714936D02*
X8409993Y-16705412D01*
X8590945Y-16933984D02*
X8476660Y-16933984D01*
X8533802Y-16933984D02*
X8533802Y-16733984D01*
X8533802Y-16733984D02*
X8514755Y-16762555D01*
X8514755Y-16762555D02*
X8495707Y-16781603D01*
X8495707Y-16781603D02*
X8476660Y-16791127D01*
X8657612Y-16733984D02*
X8790945Y-16733984D01*
X8790945Y-16733984D02*
X8705231Y-16933984D01*
X9019517Y-16933984D02*
X9019517Y-16733984D01*
X9105231Y-16933984D02*
X9105231Y-16829222D01*
X9105231Y-16829222D02*
X9095707Y-16810174D01*
X9095707Y-16810174D02*
X9076660Y-16800650D01*
X9076660Y-16800650D02*
X9048088Y-16800650D01*
X9048088Y-16800650D02*
X9029041Y-16810174D01*
X9029041Y-16810174D02*
X9019517Y-16819698D01*
X9229041Y-16933984D02*
X9209993Y-16924460D01*
X9209993Y-16924460D02*
X9200469Y-16914936D01*
X9200469Y-16914936D02*
X9190945Y-16895888D01*
X9190945Y-16895888D02*
X9190945Y-16838746D01*
X9190945Y-16838746D02*
X9200469Y-16819698D01*
X9200469Y-16819698D02*
X9209993Y-16810174D01*
X9209993Y-16810174D02*
X9229041Y-16800650D01*
X9229041Y-16800650D02*
X9257612Y-16800650D01*
X9257612Y-16800650D02*
X9276660Y-16810174D01*
X9276660Y-16810174D02*
X9286183Y-16819698D01*
X9286183Y-16819698D02*
X9295707Y-16838746D01*
X9295707Y-16838746D02*
X9295707Y-16895888D01*
X9295707Y-16895888D02*
X9286183Y-16914936D01*
X9286183Y-16914936D02*
X9276660Y-16924460D01*
X9276660Y-16924460D02*
X9257612Y-16933984D01*
X9257612Y-16933984D02*
X9229041Y-16933984D01*
X9409993Y-16933984D02*
X9390945Y-16924460D01*
X9390945Y-16924460D02*
X9381422Y-16905412D01*
X9381422Y-16905412D02*
X9381422Y-16733984D01*
X9562374Y-16924460D02*
X9543326Y-16933984D01*
X9543326Y-16933984D02*
X9505231Y-16933984D01*
X9505231Y-16933984D02*
X9486183Y-16924460D01*
X9486183Y-16924460D02*
X9476660Y-16905412D01*
X9476660Y-16905412D02*
X9476660Y-16829222D01*
X9476660Y-16829222D02*
X9486183Y-16810174D01*
X9486183Y-16810174D02*
X9505231Y-16800650D01*
X9505231Y-16800650D02*
X9543326Y-16800650D01*
X9543326Y-16800650D02*
X9562374Y-16810174D01*
X9562374Y-16810174D02*
X9571898Y-16829222D01*
X9571898Y-16829222D02*
X9571898Y-16848269D01*
X9571898Y-16848269D02*
X9476660Y-16867317D01*
X9648088Y-16924460D02*
X9667136Y-16933984D01*
X9667136Y-16933984D02*
X9705231Y-16933984D01*
X9705231Y-16933984D02*
X9724279Y-16924460D01*
X9724279Y-16924460D02*
X9733803Y-16905412D01*
X9733803Y-16905412D02*
X9733803Y-16895888D01*
X9733803Y-16895888D02*
X9724279Y-16876841D01*
X9724279Y-16876841D02*
X9705231Y-16867317D01*
X9705231Y-16867317D02*
X9676660Y-16867317D01*
X9676660Y-16867317D02*
X9657612Y-16857793D01*
X9657612Y-16857793D02*
X9648088Y-16838746D01*
X9648088Y-16838746D02*
X9648088Y-16829222D01*
X9648088Y-16829222D02*
X9657612Y-16810174D01*
X9657612Y-16810174D02*
X9676660Y-16800650D01*
X9676660Y-16800650D02*
X9705231Y-16800650D01*
X9705231Y-16800650D02*
X9724279Y-16810174D01*
X9800469Y-17010174D02*
X9809993Y-17000650D01*
X9809993Y-17000650D02*
X9829041Y-16972079D01*
X9829041Y-16972079D02*
X9838564Y-16953031D01*
X9838564Y-16953031D02*
X9848088Y-16924460D01*
X9848088Y-16924460D02*
X9857612Y-16876841D01*
X9857612Y-16876841D02*
X9857612Y-16838746D01*
X9857612Y-16838746D02*
X9848088Y-16791127D01*
X9848088Y-16791127D02*
X9838564Y-16762555D01*
X9838564Y-16762555D02*
X9829041Y-16743507D01*
X9829041Y-16743507D02*
X9809993Y-16714936D01*
X9809993Y-16714936D02*
X9800469Y-16705412D01*
D13*
X4694930Y-17036500D02*
X4834930Y-17176500D01*
X4834930Y-17036500D02*
X4694930Y-17176500D01*
X4764930Y-17036500D02*
X4764930Y-17176500D01*
X4694930Y-17106500D02*
X4834930Y-17106500D01*
D11*
X5200469Y-17197984D02*
X5086183Y-17197984D01*
X5143326Y-17197984D02*
X5143326Y-16997984D01*
X5143326Y-16997984D02*
X5124278Y-17026555D01*
X5124278Y-17026555D02*
X5105231Y-17045603D01*
X5105231Y-17045603D02*
X5086183Y-17055127D01*
X5295707Y-17188460D02*
X5295707Y-17197984D01*
X5295707Y-17197984D02*
X5286183Y-17217031D01*
X5286183Y-17217031D02*
X5276659Y-17226555D01*
X5467135Y-17064650D02*
X5467135Y-17197984D01*
X5419516Y-16988460D02*
X5371897Y-17131317D01*
X5371897Y-17131317D02*
X5495707Y-17131317D01*
X5609992Y-16997984D02*
X5629040Y-16997984D01*
X5629040Y-16997984D02*
X5648088Y-17007508D01*
X5648088Y-17007508D02*
X5657612Y-17017031D01*
X5657612Y-17017031D02*
X5667135Y-17036079D01*
X5667135Y-17036079D02*
X5676659Y-17074174D01*
X5676659Y-17074174D02*
X5676659Y-17121793D01*
X5676659Y-17121793D02*
X5667135Y-17159888D01*
X5667135Y-17159888D02*
X5657612Y-17178936D01*
X5657612Y-17178936D02*
X5648088Y-17188460D01*
X5648088Y-17188460D02*
X5629040Y-17197984D01*
X5629040Y-17197984D02*
X5609992Y-17197984D01*
X5609992Y-17197984D02*
X5590945Y-17188460D01*
X5590945Y-17188460D02*
X5581421Y-17178936D01*
X5581421Y-17178936D02*
X5571897Y-17159888D01*
X5571897Y-17159888D02*
X5562374Y-17121793D01*
X5562374Y-17121793D02*
X5562374Y-17074174D01*
X5562374Y-17074174D02*
X5571897Y-17036079D01*
X5571897Y-17036079D02*
X5581421Y-17017031D01*
X5581421Y-17017031D02*
X5590945Y-17007508D01*
X5590945Y-17007508D02*
X5609992Y-16997984D01*
X5800469Y-16997984D02*
X5819516Y-16997984D01*
X5819516Y-16997984D02*
X5838564Y-17007508D01*
X5838564Y-17007508D02*
X5848088Y-17017031D01*
X5848088Y-17017031D02*
X5857612Y-17036079D01*
X5857612Y-17036079D02*
X5867135Y-17074174D01*
X5867135Y-17074174D02*
X5867135Y-17121793D01*
X5867135Y-17121793D02*
X5857612Y-17159888D01*
X5857612Y-17159888D02*
X5848088Y-17178936D01*
X5848088Y-17178936D02*
X5838564Y-17188460D01*
X5838564Y-17188460D02*
X5819516Y-17197984D01*
X5819516Y-17197984D02*
X5800469Y-17197984D01*
X5800469Y-17197984D02*
X5781421Y-17188460D01*
X5781421Y-17188460D02*
X5771897Y-17178936D01*
X5771897Y-17178936D02*
X5762373Y-17159888D01*
X5762373Y-17159888D02*
X5752850Y-17121793D01*
X5752850Y-17121793D02*
X5752850Y-17074174D01*
X5752850Y-17074174D02*
X5762373Y-17036079D01*
X5762373Y-17036079D02*
X5771897Y-17017031D01*
X5771897Y-17017031D02*
X5781421Y-17007508D01*
X5781421Y-17007508D02*
X5800469Y-16997984D01*
X5952850Y-17197984D02*
X5952850Y-17064650D01*
X5952850Y-17083698D02*
X5962373Y-17074174D01*
X5962373Y-17074174D02*
X5981421Y-17064650D01*
X5981421Y-17064650D02*
X6009993Y-17064650D01*
X6009993Y-17064650D02*
X6029040Y-17074174D01*
X6029040Y-17074174D02*
X6038564Y-17093222D01*
X6038564Y-17093222D02*
X6038564Y-17197984D01*
X6038564Y-17093222D02*
X6048088Y-17074174D01*
X6048088Y-17074174D02*
X6067135Y-17064650D01*
X6067135Y-17064650D02*
X6095707Y-17064650D01*
X6095707Y-17064650D02*
X6114754Y-17074174D01*
X6114754Y-17074174D02*
X6124278Y-17093222D01*
X6124278Y-17093222D02*
X6124278Y-17197984D01*
X6219516Y-17197984D02*
X6219516Y-17064650D01*
X6219516Y-17083698D02*
X6229040Y-17074174D01*
X6229040Y-17074174D02*
X6248088Y-17064650D01*
X6248088Y-17064650D02*
X6276659Y-17064650D01*
X6276659Y-17064650D02*
X6295707Y-17074174D01*
X6295707Y-17074174D02*
X6305231Y-17093222D01*
X6305231Y-17093222D02*
X6305231Y-17197984D01*
X6305231Y-17093222D02*
X6314754Y-17074174D01*
X6314754Y-17074174D02*
X6333802Y-17064650D01*
X6333802Y-17064650D02*
X6362373Y-17064650D01*
X6362373Y-17064650D02*
X6381421Y-17074174D01*
X6381421Y-17074174D02*
X6390945Y-17093222D01*
X6390945Y-17093222D02*
X6390945Y-17197984D01*
X6781421Y-16988460D02*
X6609993Y-17245603D01*
X7038564Y-16997984D02*
X7057612Y-16997984D01*
X7057612Y-16997984D02*
X7076659Y-17007508D01*
X7076659Y-17007508D02*
X7086183Y-17017031D01*
X7086183Y-17017031D02*
X7095707Y-17036079D01*
X7095707Y-17036079D02*
X7105231Y-17074174D01*
X7105231Y-17074174D02*
X7105231Y-17121793D01*
X7105231Y-17121793D02*
X7095707Y-17159888D01*
X7095707Y-17159888D02*
X7086183Y-17178936D01*
X7086183Y-17178936D02*
X7076659Y-17188460D01*
X7076659Y-17188460D02*
X7057612Y-17197984D01*
X7057612Y-17197984D02*
X7038564Y-17197984D01*
X7038564Y-17197984D02*
X7019516Y-17188460D01*
X7019516Y-17188460D02*
X7009993Y-17178936D01*
X7009993Y-17178936D02*
X7000469Y-17159888D01*
X7000469Y-17159888D02*
X6990945Y-17121793D01*
X6990945Y-17121793D02*
X6990945Y-17074174D01*
X6990945Y-17074174D02*
X7000469Y-17036079D01*
X7000469Y-17036079D02*
X7009993Y-17017031D01*
X7009993Y-17017031D02*
X7019516Y-17007508D01*
X7019516Y-17007508D02*
X7038564Y-16997984D01*
X7200469Y-17188460D02*
X7200469Y-17197984D01*
X7200469Y-17197984D02*
X7190945Y-17217031D01*
X7190945Y-17217031D02*
X7181421Y-17226555D01*
X7324278Y-16997984D02*
X7343326Y-16997984D01*
X7343326Y-16997984D02*
X7362374Y-17007508D01*
X7362374Y-17007508D02*
X7371897Y-17017031D01*
X7371897Y-17017031D02*
X7381421Y-17036079D01*
X7381421Y-17036079D02*
X7390945Y-17074174D01*
X7390945Y-17074174D02*
X7390945Y-17121793D01*
X7390945Y-17121793D02*
X7381421Y-17159888D01*
X7381421Y-17159888D02*
X7371897Y-17178936D01*
X7371897Y-17178936D02*
X7362374Y-17188460D01*
X7362374Y-17188460D02*
X7343326Y-17197984D01*
X7343326Y-17197984D02*
X7324278Y-17197984D01*
X7324278Y-17197984D02*
X7305231Y-17188460D01*
X7305231Y-17188460D02*
X7295707Y-17178936D01*
X7295707Y-17178936D02*
X7286183Y-17159888D01*
X7286183Y-17159888D02*
X7276659Y-17121793D01*
X7276659Y-17121793D02*
X7276659Y-17074174D01*
X7276659Y-17074174D02*
X7286183Y-17036079D01*
X7286183Y-17036079D02*
X7295707Y-17017031D01*
X7295707Y-17017031D02*
X7305231Y-17007508D01*
X7305231Y-17007508D02*
X7324278Y-16997984D01*
X7571897Y-16997984D02*
X7476659Y-16997984D01*
X7476659Y-16997984D02*
X7467136Y-17093222D01*
X7467136Y-17093222D02*
X7476659Y-17083698D01*
X7476659Y-17083698D02*
X7495707Y-17074174D01*
X7495707Y-17074174D02*
X7543326Y-17074174D01*
X7543326Y-17074174D02*
X7562374Y-17083698D01*
X7562374Y-17083698D02*
X7571897Y-17093222D01*
X7571897Y-17093222D02*
X7581421Y-17112269D01*
X7581421Y-17112269D02*
X7581421Y-17159888D01*
X7581421Y-17159888D02*
X7571897Y-17178936D01*
X7571897Y-17178936D02*
X7562374Y-17188460D01*
X7562374Y-17188460D02*
X7543326Y-17197984D01*
X7543326Y-17197984D02*
X7495707Y-17197984D01*
X7495707Y-17197984D02*
X7476659Y-17188460D01*
X7476659Y-17188460D02*
X7467136Y-17178936D01*
X7762374Y-16997984D02*
X7667136Y-16997984D01*
X7667136Y-16997984D02*
X7657612Y-17093222D01*
X7657612Y-17093222D02*
X7667136Y-17083698D01*
X7667136Y-17083698D02*
X7686183Y-17074174D01*
X7686183Y-17074174D02*
X7733802Y-17074174D01*
X7733802Y-17074174D02*
X7752850Y-17083698D01*
X7752850Y-17083698D02*
X7762374Y-17093222D01*
X7762374Y-17093222D02*
X7771897Y-17112269D01*
X7771897Y-17112269D02*
X7771897Y-17159888D01*
X7771897Y-17159888D02*
X7762374Y-17178936D01*
X7762374Y-17178936D02*
X7752850Y-17188460D01*
X7752850Y-17188460D02*
X7733802Y-17197984D01*
X7733802Y-17197984D02*
X7686183Y-17197984D01*
X7686183Y-17197984D02*
X7667136Y-17188460D01*
X7667136Y-17188460D02*
X7657612Y-17178936D01*
X7962374Y-17197984D02*
X7848088Y-17197984D01*
X7905231Y-17197984D02*
X7905231Y-16997984D01*
X7905231Y-16997984D02*
X7886183Y-17026555D01*
X7886183Y-17026555D02*
X7867136Y-17045603D01*
X7867136Y-17045603D02*
X7848088Y-17055127D01*
X8038564Y-16997984D02*
X8038564Y-17036079D01*
X8114755Y-16997984D02*
X8114755Y-17036079D01*
X8409993Y-17274174D02*
X8400469Y-17264650D01*
X8400469Y-17264650D02*
X8381421Y-17236079D01*
X8381421Y-17236079D02*
X8371898Y-17217031D01*
X8371898Y-17217031D02*
X8362374Y-17188460D01*
X8362374Y-17188460D02*
X8352850Y-17140841D01*
X8352850Y-17140841D02*
X8352850Y-17102746D01*
X8352850Y-17102746D02*
X8362374Y-17055127D01*
X8362374Y-17055127D02*
X8371898Y-17026555D01*
X8371898Y-17026555D02*
X8381421Y-17007508D01*
X8381421Y-17007508D02*
X8400469Y-16978936D01*
X8400469Y-16978936D02*
X8409993Y-16969412D01*
X8476660Y-17017031D02*
X8486183Y-17007508D01*
X8486183Y-17007508D02*
X8505231Y-16997984D01*
X8505231Y-16997984D02*
X8552850Y-16997984D01*
X8552850Y-16997984D02*
X8571898Y-17007508D01*
X8571898Y-17007508D02*
X8581421Y-17017031D01*
X8581421Y-17017031D02*
X8590945Y-17036079D01*
X8590945Y-17036079D02*
X8590945Y-17055127D01*
X8590945Y-17055127D02*
X8581421Y-17083698D01*
X8581421Y-17083698D02*
X8467136Y-17197984D01*
X8467136Y-17197984D02*
X8590945Y-17197984D01*
X8829041Y-17197984D02*
X8829041Y-16997984D01*
X8914755Y-17197984D02*
X8914755Y-17093222D01*
X8914755Y-17093222D02*
X8905231Y-17074174D01*
X8905231Y-17074174D02*
X8886183Y-17064650D01*
X8886183Y-17064650D02*
X8857612Y-17064650D01*
X8857612Y-17064650D02*
X8838564Y-17074174D01*
X8838564Y-17074174D02*
X8829041Y-17083698D01*
X9038564Y-17197984D02*
X9019517Y-17188460D01*
X9019517Y-17188460D02*
X9009993Y-17178936D01*
X9009993Y-17178936D02*
X9000469Y-17159888D01*
X9000469Y-17159888D02*
X9000469Y-17102746D01*
X9000469Y-17102746D02*
X9009993Y-17083698D01*
X9009993Y-17083698D02*
X9019517Y-17074174D01*
X9019517Y-17074174D02*
X9038564Y-17064650D01*
X9038564Y-17064650D02*
X9067136Y-17064650D01*
X9067136Y-17064650D02*
X9086183Y-17074174D01*
X9086183Y-17074174D02*
X9095707Y-17083698D01*
X9095707Y-17083698D02*
X9105231Y-17102746D01*
X9105231Y-17102746D02*
X9105231Y-17159888D01*
X9105231Y-17159888D02*
X9095707Y-17178936D01*
X9095707Y-17178936D02*
X9086183Y-17188460D01*
X9086183Y-17188460D02*
X9067136Y-17197984D01*
X9067136Y-17197984D02*
X9038564Y-17197984D01*
X9219517Y-17197984D02*
X9200469Y-17188460D01*
X9200469Y-17188460D02*
X9190945Y-17169412D01*
X9190945Y-17169412D02*
X9190945Y-16997984D01*
X9371898Y-17188460D02*
X9352850Y-17197984D01*
X9352850Y-17197984D02*
X9314755Y-17197984D01*
X9314755Y-17197984D02*
X9295707Y-17188460D01*
X9295707Y-17188460D02*
X9286183Y-17169412D01*
X9286183Y-17169412D02*
X9286183Y-17093222D01*
X9286183Y-17093222D02*
X9295707Y-17074174D01*
X9295707Y-17074174D02*
X9314755Y-17064650D01*
X9314755Y-17064650D02*
X9352850Y-17064650D01*
X9352850Y-17064650D02*
X9371898Y-17074174D01*
X9371898Y-17074174D02*
X9381422Y-17093222D01*
X9381422Y-17093222D02*
X9381422Y-17112269D01*
X9381422Y-17112269D02*
X9286183Y-17131317D01*
X9457612Y-17188460D02*
X9476660Y-17197984D01*
X9476660Y-17197984D02*
X9514755Y-17197984D01*
X9514755Y-17197984D02*
X9533803Y-17188460D01*
X9533803Y-17188460D02*
X9543326Y-17169412D01*
X9543326Y-17169412D02*
X9543326Y-17159888D01*
X9543326Y-17159888D02*
X9533803Y-17140841D01*
X9533803Y-17140841D02*
X9514755Y-17131317D01*
X9514755Y-17131317D02*
X9486183Y-17131317D01*
X9486183Y-17131317D02*
X9467136Y-17121793D01*
X9467136Y-17121793D02*
X9457612Y-17102746D01*
X9457612Y-17102746D02*
X9457612Y-17093222D01*
X9457612Y-17093222D02*
X9467136Y-17074174D01*
X9467136Y-17074174D02*
X9486183Y-17064650D01*
X9486183Y-17064650D02*
X9514755Y-17064650D01*
X9514755Y-17064650D02*
X9533803Y-17074174D01*
X9609993Y-17274174D02*
X9619517Y-17264650D01*
X9619517Y-17264650D02*
X9638564Y-17236079D01*
X9638564Y-17236079D02*
X9648088Y-17217031D01*
X9648088Y-17217031D02*
X9657612Y-17188460D01*
X9657612Y-17188460D02*
X9667136Y-17140841D01*
X9667136Y-17140841D02*
X9667136Y-17102746D01*
X9667136Y-17102746D02*
X9657612Y-17055127D01*
X9657612Y-17055127D02*
X9648088Y-17026555D01*
X9648088Y-17026555D02*
X9638564Y-17007508D01*
X9638564Y-17007508D02*
X9619517Y-16978936D01*
X9619517Y-16978936D02*
X9609993Y-16969412D01*
D14*
X4674930Y-17290500D02*
X4834930Y-17450500D01*
X4834930Y-17290500D02*
X4674930Y-17450500D01*
X4811499Y-17427069D02*
X4811499Y-17313931D01*
X4698361Y-17313931D01*
X4698361Y-17427069D01*
X4811499Y-17427069D01*
D11*
X5200469Y-17461984D02*
X5086183Y-17461984D01*
X5143326Y-17461984D02*
X5143326Y-17261984D01*
X5143326Y-17261984D02*
X5124278Y-17290555D01*
X5124278Y-17290555D02*
X5105231Y-17309603D01*
X5105231Y-17309603D02*
X5086183Y-17319127D01*
X5295707Y-17452460D02*
X5295707Y-17461984D01*
X5295707Y-17461984D02*
X5286183Y-17481031D01*
X5286183Y-17481031D02*
X5276659Y-17490555D01*
X5467135Y-17261984D02*
X5429040Y-17261984D01*
X5429040Y-17261984D02*
X5409993Y-17271508D01*
X5409993Y-17271508D02*
X5400469Y-17281031D01*
X5400469Y-17281031D02*
X5381421Y-17309603D01*
X5381421Y-17309603D02*
X5371897Y-17347698D01*
X5371897Y-17347698D02*
X5371897Y-17423888D01*
X5371897Y-17423888D02*
X5381421Y-17442936D01*
X5381421Y-17442936D02*
X5390945Y-17452460D01*
X5390945Y-17452460D02*
X5409993Y-17461984D01*
X5409993Y-17461984D02*
X5448088Y-17461984D01*
X5448088Y-17461984D02*
X5467135Y-17452460D01*
X5467135Y-17452460D02*
X5476659Y-17442936D01*
X5476659Y-17442936D02*
X5486183Y-17423888D01*
X5486183Y-17423888D02*
X5486183Y-17376269D01*
X5486183Y-17376269D02*
X5476659Y-17357222D01*
X5476659Y-17357222D02*
X5467135Y-17347698D01*
X5467135Y-17347698D02*
X5448088Y-17338174D01*
X5448088Y-17338174D02*
X5409993Y-17338174D01*
X5409993Y-17338174D02*
X5390945Y-17347698D01*
X5390945Y-17347698D02*
X5381421Y-17357222D01*
X5381421Y-17357222D02*
X5371897Y-17376269D01*
X5609992Y-17261984D02*
X5629040Y-17261984D01*
X5629040Y-17261984D02*
X5648088Y-17271508D01*
X5648088Y-17271508D02*
X5657612Y-17281031D01*
X5657612Y-17281031D02*
X5667135Y-17300079D01*
X5667135Y-17300079D02*
X5676659Y-17338174D01*
X5676659Y-17338174D02*
X5676659Y-17385793D01*
X5676659Y-17385793D02*
X5667135Y-17423888D01*
X5667135Y-17423888D02*
X5657612Y-17442936D01*
X5657612Y-17442936D02*
X5648088Y-17452460D01*
X5648088Y-17452460D02*
X5629040Y-17461984D01*
X5629040Y-17461984D02*
X5609992Y-17461984D01*
X5609992Y-17461984D02*
X5590945Y-17452460D01*
X5590945Y-17452460D02*
X5581421Y-17442936D01*
X5581421Y-17442936D02*
X5571897Y-17423888D01*
X5571897Y-17423888D02*
X5562374Y-17385793D01*
X5562374Y-17385793D02*
X5562374Y-17338174D01*
X5562374Y-17338174D02*
X5571897Y-17300079D01*
X5571897Y-17300079D02*
X5581421Y-17281031D01*
X5581421Y-17281031D02*
X5590945Y-17271508D01*
X5590945Y-17271508D02*
X5609992Y-17261984D01*
X5800469Y-17261984D02*
X5819516Y-17261984D01*
X5819516Y-17261984D02*
X5838564Y-17271508D01*
X5838564Y-17271508D02*
X5848088Y-17281031D01*
X5848088Y-17281031D02*
X5857612Y-17300079D01*
X5857612Y-17300079D02*
X5867135Y-17338174D01*
X5867135Y-17338174D02*
X5867135Y-17385793D01*
X5867135Y-17385793D02*
X5857612Y-17423888D01*
X5857612Y-17423888D02*
X5848088Y-17442936D01*
X5848088Y-17442936D02*
X5838564Y-17452460D01*
X5838564Y-17452460D02*
X5819516Y-17461984D01*
X5819516Y-17461984D02*
X5800469Y-17461984D01*
X5800469Y-17461984D02*
X5781421Y-17452460D01*
X5781421Y-17452460D02*
X5771897Y-17442936D01*
X5771897Y-17442936D02*
X5762373Y-17423888D01*
X5762373Y-17423888D02*
X5752850Y-17385793D01*
X5752850Y-17385793D02*
X5752850Y-17338174D01*
X5752850Y-17338174D02*
X5762373Y-17300079D01*
X5762373Y-17300079D02*
X5771897Y-17281031D01*
X5771897Y-17281031D02*
X5781421Y-17271508D01*
X5781421Y-17271508D02*
X5800469Y-17261984D01*
X5952850Y-17461984D02*
X5952850Y-17328650D01*
X5952850Y-17347698D02*
X5962373Y-17338174D01*
X5962373Y-17338174D02*
X5981421Y-17328650D01*
X5981421Y-17328650D02*
X6009993Y-17328650D01*
X6009993Y-17328650D02*
X6029040Y-17338174D01*
X6029040Y-17338174D02*
X6038564Y-17357222D01*
X6038564Y-17357222D02*
X6038564Y-17461984D01*
X6038564Y-17357222D02*
X6048088Y-17338174D01*
X6048088Y-17338174D02*
X6067135Y-17328650D01*
X6067135Y-17328650D02*
X6095707Y-17328650D01*
X6095707Y-17328650D02*
X6114754Y-17338174D01*
X6114754Y-17338174D02*
X6124278Y-17357222D01*
X6124278Y-17357222D02*
X6124278Y-17461984D01*
X6219516Y-17461984D02*
X6219516Y-17328650D01*
X6219516Y-17347698D02*
X6229040Y-17338174D01*
X6229040Y-17338174D02*
X6248088Y-17328650D01*
X6248088Y-17328650D02*
X6276659Y-17328650D01*
X6276659Y-17328650D02*
X6295707Y-17338174D01*
X6295707Y-17338174D02*
X6305231Y-17357222D01*
X6305231Y-17357222D02*
X6305231Y-17461984D01*
X6305231Y-17357222D02*
X6314754Y-17338174D01*
X6314754Y-17338174D02*
X6333802Y-17328650D01*
X6333802Y-17328650D02*
X6362373Y-17328650D01*
X6362373Y-17328650D02*
X6381421Y-17338174D01*
X6381421Y-17338174D02*
X6390945Y-17357222D01*
X6390945Y-17357222D02*
X6390945Y-17461984D01*
X6781421Y-17252460D02*
X6609993Y-17509603D01*
X7038564Y-17261984D02*
X7057612Y-17261984D01*
X7057612Y-17261984D02*
X7076659Y-17271508D01*
X7076659Y-17271508D02*
X7086183Y-17281031D01*
X7086183Y-17281031D02*
X7095707Y-17300079D01*
X7095707Y-17300079D02*
X7105231Y-17338174D01*
X7105231Y-17338174D02*
X7105231Y-17385793D01*
X7105231Y-17385793D02*
X7095707Y-17423888D01*
X7095707Y-17423888D02*
X7086183Y-17442936D01*
X7086183Y-17442936D02*
X7076659Y-17452460D01*
X7076659Y-17452460D02*
X7057612Y-17461984D01*
X7057612Y-17461984D02*
X7038564Y-17461984D01*
X7038564Y-17461984D02*
X7019516Y-17452460D01*
X7019516Y-17452460D02*
X7009993Y-17442936D01*
X7009993Y-17442936D02*
X7000469Y-17423888D01*
X7000469Y-17423888D02*
X6990945Y-17385793D01*
X6990945Y-17385793D02*
X6990945Y-17338174D01*
X6990945Y-17338174D02*
X7000469Y-17300079D01*
X7000469Y-17300079D02*
X7009993Y-17281031D01*
X7009993Y-17281031D02*
X7019516Y-17271508D01*
X7019516Y-17271508D02*
X7038564Y-17261984D01*
X7200469Y-17452460D02*
X7200469Y-17461984D01*
X7200469Y-17461984D02*
X7190945Y-17481031D01*
X7190945Y-17481031D02*
X7181421Y-17490555D01*
X7324278Y-17261984D02*
X7343326Y-17261984D01*
X7343326Y-17261984D02*
X7362374Y-17271508D01*
X7362374Y-17271508D02*
X7371897Y-17281031D01*
X7371897Y-17281031D02*
X7381421Y-17300079D01*
X7381421Y-17300079D02*
X7390945Y-17338174D01*
X7390945Y-17338174D02*
X7390945Y-17385793D01*
X7390945Y-17385793D02*
X7381421Y-17423888D01*
X7381421Y-17423888D02*
X7371897Y-17442936D01*
X7371897Y-17442936D02*
X7362374Y-17452460D01*
X7362374Y-17452460D02*
X7343326Y-17461984D01*
X7343326Y-17461984D02*
X7324278Y-17461984D01*
X7324278Y-17461984D02*
X7305231Y-17452460D01*
X7305231Y-17452460D02*
X7295707Y-17442936D01*
X7295707Y-17442936D02*
X7286183Y-17423888D01*
X7286183Y-17423888D02*
X7276659Y-17385793D01*
X7276659Y-17385793D02*
X7276659Y-17338174D01*
X7276659Y-17338174D02*
X7286183Y-17300079D01*
X7286183Y-17300079D02*
X7295707Y-17281031D01*
X7295707Y-17281031D02*
X7305231Y-17271508D01*
X7305231Y-17271508D02*
X7324278Y-17261984D01*
X7562374Y-17261984D02*
X7524278Y-17261984D01*
X7524278Y-17261984D02*
X7505231Y-17271508D01*
X7505231Y-17271508D02*
X7495707Y-17281031D01*
X7495707Y-17281031D02*
X7476659Y-17309603D01*
X7476659Y-17309603D02*
X7467136Y-17347698D01*
X7467136Y-17347698D02*
X7467136Y-17423888D01*
X7467136Y-17423888D02*
X7476659Y-17442936D01*
X7476659Y-17442936D02*
X7486183Y-17452460D01*
X7486183Y-17452460D02*
X7505231Y-17461984D01*
X7505231Y-17461984D02*
X7543326Y-17461984D01*
X7543326Y-17461984D02*
X7562374Y-17452460D01*
X7562374Y-17452460D02*
X7571897Y-17442936D01*
X7571897Y-17442936D02*
X7581421Y-17423888D01*
X7581421Y-17423888D02*
X7581421Y-17376269D01*
X7581421Y-17376269D02*
X7571897Y-17357222D01*
X7571897Y-17357222D02*
X7562374Y-17347698D01*
X7562374Y-17347698D02*
X7543326Y-17338174D01*
X7543326Y-17338174D02*
X7505231Y-17338174D01*
X7505231Y-17338174D02*
X7486183Y-17347698D01*
X7486183Y-17347698D02*
X7476659Y-17357222D01*
X7476659Y-17357222D02*
X7467136Y-17376269D01*
X7648088Y-17261984D02*
X7771897Y-17261984D01*
X7771897Y-17261984D02*
X7705231Y-17338174D01*
X7705231Y-17338174D02*
X7733802Y-17338174D01*
X7733802Y-17338174D02*
X7752850Y-17347698D01*
X7752850Y-17347698D02*
X7762374Y-17357222D01*
X7762374Y-17357222D02*
X7771897Y-17376269D01*
X7771897Y-17376269D02*
X7771897Y-17423888D01*
X7771897Y-17423888D02*
X7762374Y-17442936D01*
X7762374Y-17442936D02*
X7752850Y-17452460D01*
X7752850Y-17452460D02*
X7733802Y-17461984D01*
X7733802Y-17461984D02*
X7676659Y-17461984D01*
X7676659Y-17461984D02*
X7657612Y-17452460D01*
X7657612Y-17452460D02*
X7648088Y-17442936D01*
X7895707Y-17261984D02*
X7914755Y-17261984D01*
X7914755Y-17261984D02*
X7933802Y-17271508D01*
X7933802Y-17271508D02*
X7943326Y-17281031D01*
X7943326Y-17281031D02*
X7952850Y-17300079D01*
X7952850Y-17300079D02*
X7962374Y-17338174D01*
X7962374Y-17338174D02*
X7962374Y-17385793D01*
X7962374Y-17385793D02*
X7952850Y-17423888D01*
X7952850Y-17423888D02*
X7943326Y-17442936D01*
X7943326Y-17442936D02*
X7933802Y-17452460D01*
X7933802Y-17452460D02*
X7914755Y-17461984D01*
X7914755Y-17461984D02*
X7895707Y-17461984D01*
X7895707Y-17461984D02*
X7876659Y-17452460D01*
X7876659Y-17452460D02*
X7867136Y-17442936D01*
X7867136Y-17442936D02*
X7857612Y-17423888D01*
X7857612Y-17423888D02*
X7848088Y-17385793D01*
X7848088Y-17385793D02*
X7848088Y-17338174D01*
X7848088Y-17338174D02*
X7857612Y-17300079D01*
X7857612Y-17300079D02*
X7867136Y-17281031D01*
X7867136Y-17281031D02*
X7876659Y-17271508D01*
X7876659Y-17271508D02*
X7895707Y-17261984D01*
X8038564Y-17261984D02*
X8038564Y-17300079D01*
X8114755Y-17261984D02*
X8114755Y-17300079D01*
X8409993Y-17538174D02*
X8400469Y-17528650D01*
X8400469Y-17528650D02*
X8381421Y-17500079D01*
X8381421Y-17500079D02*
X8371898Y-17481031D01*
X8371898Y-17481031D02*
X8362374Y-17452460D01*
X8362374Y-17452460D02*
X8352850Y-17404841D01*
X8352850Y-17404841D02*
X8352850Y-17366746D01*
X8352850Y-17366746D02*
X8362374Y-17319127D01*
X8362374Y-17319127D02*
X8371898Y-17290555D01*
X8371898Y-17290555D02*
X8381421Y-17271508D01*
X8381421Y-17271508D02*
X8400469Y-17242936D01*
X8400469Y-17242936D02*
X8409993Y-17233412D01*
X8590945Y-17461984D02*
X8476660Y-17461984D01*
X8533802Y-17461984D02*
X8533802Y-17261984D01*
X8533802Y-17261984D02*
X8514755Y-17290555D01*
X8514755Y-17290555D02*
X8495707Y-17309603D01*
X8495707Y-17309603D02*
X8476660Y-17319127D01*
X8781421Y-17461984D02*
X8667136Y-17461984D01*
X8724279Y-17461984D02*
X8724279Y-17261984D01*
X8724279Y-17261984D02*
X8705231Y-17290555D01*
X8705231Y-17290555D02*
X8686183Y-17309603D01*
X8686183Y-17309603D02*
X8667136Y-17319127D01*
X9019517Y-17461984D02*
X9019517Y-17261984D01*
X9105231Y-17461984D02*
X9105231Y-17357222D01*
X9105231Y-17357222D02*
X9095707Y-17338174D01*
X9095707Y-17338174D02*
X9076660Y-17328650D01*
X9076660Y-17328650D02*
X9048088Y-17328650D01*
X9048088Y-17328650D02*
X9029041Y-17338174D01*
X9029041Y-17338174D02*
X9019517Y-17347698D01*
X9229041Y-17461984D02*
X9209993Y-17452460D01*
X9209993Y-17452460D02*
X9200469Y-17442936D01*
X9200469Y-17442936D02*
X9190945Y-17423888D01*
X9190945Y-17423888D02*
X9190945Y-17366746D01*
X9190945Y-17366746D02*
X9200469Y-17347698D01*
X9200469Y-17347698D02*
X9209993Y-17338174D01*
X9209993Y-17338174D02*
X9229041Y-17328650D01*
X9229041Y-17328650D02*
X9257612Y-17328650D01*
X9257612Y-17328650D02*
X9276660Y-17338174D01*
X9276660Y-17338174D02*
X9286183Y-17347698D01*
X9286183Y-17347698D02*
X9295707Y-17366746D01*
X9295707Y-17366746D02*
X9295707Y-17423888D01*
X9295707Y-17423888D02*
X9286183Y-17442936D01*
X9286183Y-17442936D02*
X9276660Y-17452460D01*
X9276660Y-17452460D02*
X9257612Y-17461984D01*
X9257612Y-17461984D02*
X9229041Y-17461984D01*
X9409993Y-17461984D02*
X9390945Y-17452460D01*
X9390945Y-17452460D02*
X9381422Y-17433412D01*
X9381422Y-17433412D02*
X9381422Y-17261984D01*
X9562374Y-17452460D02*
X9543326Y-17461984D01*
X9543326Y-17461984D02*
X9505231Y-17461984D01*
X9505231Y-17461984D02*
X9486183Y-17452460D01*
X9486183Y-17452460D02*
X9476660Y-17433412D01*
X9476660Y-17433412D02*
X9476660Y-17357222D01*
X9476660Y-17357222D02*
X9486183Y-17338174D01*
X9486183Y-17338174D02*
X9505231Y-17328650D01*
X9505231Y-17328650D02*
X9543326Y-17328650D01*
X9543326Y-17328650D02*
X9562374Y-17338174D01*
X9562374Y-17338174D02*
X9571898Y-17357222D01*
X9571898Y-17357222D02*
X9571898Y-17376269D01*
X9571898Y-17376269D02*
X9476660Y-17395317D01*
X9648088Y-17452460D02*
X9667136Y-17461984D01*
X9667136Y-17461984D02*
X9705231Y-17461984D01*
X9705231Y-17461984D02*
X9724279Y-17452460D01*
X9724279Y-17452460D02*
X9733803Y-17433412D01*
X9733803Y-17433412D02*
X9733803Y-17423888D01*
X9733803Y-17423888D02*
X9724279Y-17404841D01*
X9724279Y-17404841D02*
X9705231Y-17395317D01*
X9705231Y-17395317D02*
X9676660Y-17395317D01*
X9676660Y-17395317D02*
X9657612Y-17385793D01*
X9657612Y-17385793D02*
X9648088Y-17366746D01*
X9648088Y-17366746D02*
X9648088Y-17357222D01*
X9648088Y-17357222D02*
X9657612Y-17338174D01*
X9657612Y-17338174D02*
X9676660Y-17328650D01*
X9676660Y-17328650D02*
X9705231Y-17328650D01*
X9705231Y-17328650D02*
X9724279Y-17338174D01*
X9800469Y-17538174D02*
X9809993Y-17528650D01*
X9809993Y-17528650D02*
X9829041Y-17500079D01*
X9829041Y-17500079D02*
X9838564Y-17481031D01*
X9838564Y-17481031D02*
X9848088Y-17452460D01*
X9848088Y-17452460D02*
X9857612Y-17404841D01*
X9857612Y-17404841D02*
X9857612Y-17366746D01*
X9857612Y-17366746D02*
X9848088Y-17319127D01*
X9848088Y-17319127D02*
X9838564Y-17290555D01*
X9838564Y-17290555D02*
X9829041Y-17271508D01*
X9829041Y-17271508D02*
X9809993Y-17242936D01*
X9809993Y-17242936D02*
X9800469Y-17233412D01*
X4634930Y-17550500D02*
X4834930Y-17750500D01*
X4834930Y-17550500D02*
X4634930Y-17750500D01*
X4734930Y-17750500D02*
X4834930Y-17650500D01*
X4734930Y-17550500D01*
X4634930Y-17650500D01*
X4734930Y-17750500D01*
X5086183Y-17561031D02*
X5095707Y-17551508D01*
X5095707Y-17551508D02*
X5114754Y-17541984D01*
X5114754Y-17541984D02*
X5162374Y-17541984D01*
X5162374Y-17541984D02*
X5181421Y-17551508D01*
X5181421Y-17551508D02*
X5190945Y-17561031D01*
X5190945Y-17561031D02*
X5200469Y-17580079D01*
X5200469Y-17580079D02*
X5200469Y-17599127D01*
X5200469Y-17599127D02*
X5190945Y-17627698D01*
X5190945Y-17627698D02*
X5076659Y-17741984D01*
X5076659Y-17741984D02*
X5200469Y-17741984D01*
X5295707Y-17732460D02*
X5295707Y-17741984D01*
X5295707Y-17741984D02*
X5286183Y-17761031D01*
X5286183Y-17761031D02*
X5276659Y-17770555D01*
X5371897Y-17561031D02*
X5381421Y-17551508D01*
X5381421Y-17551508D02*
X5400469Y-17541984D01*
X5400469Y-17541984D02*
X5448088Y-17541984D01*
X5448088Y-17541984D02*
X5467135Y-17551508D01*
X5467135Y-17551508D02*
X5476659Y-17561031D01*
X5476659Y-17561031D02*
X5486183Y-17580079D01*
X5486183Y-17580079D02*
X5486183Y-17599127D01*
X5486183Y-17599127D02*
X5476659Y-17627698D01*
X5476659Y-17627698D02*
X5362374Y-17741984D01*
X5362374Y-17741984D02*
X5486183Y-17741984D01*
X5609992Y-17541984D02*
X5629040Y-17541984D01*
X5629040Y-17541984D02*
X5648088Y-17551508D01*
X5648088Y-17551508D02*
X5657612Y-17561031D01*
X5657612Y-17561031D02*
X5667135Y-17580079D01*
X5667135Y-17580079D02*
X5676659Y-17618174D01*
X5676659Y-17618174D02*
X5676659Y-17665793D01*
X5676659Y-17665793D02*
X5667135Y-17703888D01*
X5667135Y-17703888D02*
X5657612Y-17722936D01*
X5657612Y-17722936D02*
X5648088Y-17732460D01*
X5648088Y-17732460D02*
X5629040Y-17741984D01*
X5629040Y-17741984D02*
X5609992Y-17741984D01*
X5609992Y-17741984D02*
X5590945Y-17732460D01*
X5590945Y-17732460D02*
X5581421Y-17722936D01*
X5581421Y-17722936D02*
X5571897Y-17703888D01*
X5571897Y-17703888D02*
X5562374Y-17665793D01*
X5562374Y-17665793D02*
X5562374Y-17618174D01*
X5562374Y-17618174D02*
X5571897Y-17580079D01*
X5571897Y-17580079D02*
X5581421Y-17561031D01*
X5581421Y-17561031D02*
X5590945Y-17551508D01*
X5590945Y-17551508D02*
X5609992Y-17541984D01*
X5800469Y-17541984D02*
X5819516Y-17541984D01*
X5819516Y-17541984D02*
X5838564Y-17551508D01*
X5838564Y-17551508D02*
X5848088Y-17561031D01*
X5848088Y-17561031D02*
X5857612Y-17580079D01*
X5857612Y-17580079D02*
X5867135Y-17618174D01*
X5867135Y-17618174D02*
X5867135Y-17665793D01*
X5867135Y-17665793D02*
X5857612Y-17703888D01*
X5857612Y-17703888D02*
X5848088Y-17722936D01*
X5848088Y-17722936D02*
X5838564Y-17732460D01*
X5838564Y-17732460D02*
X5819516Y-17741984D01*
X5819516Y-17741984D02*
X5800469Y-17741984D01*
X5800469Y-17741984D02*
X5781421Y-17732460D01*
X5781421Y-17732460D02*
X5771897Y-17722936D01*
X5771897Y-17722936D02*
X5762373Y-17703888D01*
X5762373Y-17703888D02*
X5752850Y-17665793D01*
X5752850Y-17665793D02*
X5752850Y-17618174D01*
X5752850Y-17618174D02*
X5762373Y-17580079D01*
X5762373Y-17580079D02*
X5771897Y-17561031D01*
X5771897Y-17561031D02*
X5781421Y-17551508D01*
X5781421Y-17551508D02*
X5800469Y-17541984D01*
X5952850Y-17741984D02*
X5952850Y-17608650D01*
X5952850Y-17627698D02*
X5962373Y-17618174D01*
X5962373Y-17618174D02*
X5981421Y-17608650D01*
X5981421Y-17608650D02*
X6009993Y-17608650D01*
X6009993Y-17608650D02*
X6029040Y-17618174D01*
X6029040Y-17618174D02*
X6038564Y-17637222D01*
X6038564Y-17637222D02*
X6038564Y-17741984D01*
X6038564Y-17637222D02*
X6048088Y-17618174D01*
X6048088Y-17618174D02*
X6067135Y-17608650D01*
X6067135Y-17608650D02*
X6095707Y-17608650D01*
X6095707Y-17608650D02*
X6114754Y-17618174D01*
X6114754Y-17618174D02*
X6124278Y-17637222D01*
X6124278Y-17637222D02*
X6124278Y-17741984D01*
X6219516Y-17741984D02*
X6219516Y-17608650D01*
X6219516Y-17627698D02*
X6229040Y-17618174D01*
X6229040Y-17618174D02*
X6248088Y-17608650D01*
X6248088Y-17608650D02*
X6276659Y-17608650D01*
X6276659Y-17608650D02*
X6295707Y-17618174D01*
X6295707Y-17618174D02*
X6305231Y-17637222D01*
X6305231Y-17637222D02*
X6305231Y-17741984D01*
X6305231Y-17637222D02*
X6314754Y-17618174D01*
X6314754Y-17618174D02*
X6333802Y-17608650D01*
X6333802Y-17608650D02*
X6362373Y-17608650D01*
X6362373Y-17608650D02*
X6381421Y-17618174D01*
X6381421Y-17618174D02*
X6390945Y-17637222D01*
X6390945Y-17637222D02*
X6390945Y-17741984D01*
X6781421Y-17532460D02*
X6609993Y-17789603D01*
X7038564Y-17541984D02*
X7057612Y-17541984D01*
X7057612Y-17541984D02*
X7076659Y-17551508D01*
X7076659Y-17551508D02*
X7086183Y-17561031D01*
X7086183Y-17561031D02*
X7095707Y-17580079D01*
X7095707Y-17580079D02*
X7105231Y-17618174D01*
X7105231Y-17618174D02*
X7105231Y-17665793D01*
X7105231Y-17665793D02*
X7095707Y-17703888D01*
X7095707Y-17703888D02*
X7086183Y-17722936D01*
X7086183Y-17722936D02*
X7076659Y-17732460D01*
X7076659Y-17732460D02*
X7057612Y-17741984D01*
X7057612Y-17741984D02*
X7038564Y-17741984D01*
X7038564Y-17741984D02*
X7019516Y-17732460D01*
X7019516Y-17732460D02*
X7009993Y-17722936D01*
X7009993Y-17722936D02*
X7000469Y-17703888D01*
X7000469Y-17703888D02*
X6990945Y-17665793D01*
X6990945Y-17665793D02*
X6990945Y-17618174D01*
X6990945Y-17618174D02*
X7000469Y-17580079D01*
X7000469Y-17580079D02*
X7009993Y-17561031D01*
X7009993Y-17561031D02*
X7019516Y-17551508D01*
X7019516Y-17551508D02*
X7038564Y-17541984D01*
X7200469Y-17732460D02*
X7200469Y-17741984D01*
X7200469Y-17741984D02*
X7190945Y-17761031D01*
X7190945Y-17761031D02*
X7181421Y-17770555D01*
X7324278Y-17541984D02*
X7343326Y-17541984D01*
X7343326Y-17541984D02*
X7362374Y-17551508D01*
X7362374Y-17551508D02*
X7371897Y-17561031D01*
X7371897Y-17561031D02*
X7381421Y-17580079D01*
X7381421Y-17580079D02*
X7390945Y-17618174D01*
X7390945Y-17618174D02*
X7390945Y-17665793D01*
X7390945Y-17665793D02*
X7381421Y-17703888D01*
X7381421Y-17703888D02*
X7371897Y-17722936D01*
X7371897Y-17722936D02*
X7362374Y-17732460D01*
X7362374Y-17732460D02*
X7343326Y-17741984D01*
X7343326Y-17741984D02*
X7324278Y-17741984D01*
X7324278Y-17741984D02*
X7305231Y-17732460D01*
X7305231Y-17732460D02*
X7295707Y-17722936D01*
X7295707Y-17722936D02*
X7286183Y-17703888D01*
X7286183Y-17703888D02*
X7276659Y-17665793D01*
X7276659Y-17665793D02*
X7276659Y-17618174D01*
X7276659Y-17618174D02*
X7286183Y-17580079D01*
X7286183Y-17580079D02*
X7295707Y-17561031D01*
X7295707Y-17561031D02*
X7305231Y-17551508D01*
X7305231Y-17551508D02*
X7324278Y-17541984D01*
X7505231Y-17627698D02*
X7486183Y-17618174D01*
X7486183Y-17618174D02*
X7476659Y-17608650D01*
X7476659Y-17608650D02*
X7467136Y-17589603D01*
X7467136Y-17589603D02*
X7467136Y-17580079D01*
X7467136Y-17580079D02*
X7476659Y-17561031D01*
X7476659Y-17561031D02*
X7486183Y-17551508D01*
X7486183Y-17551508D02*
X7505231Y-17541984D01*
X7505231Y-17541984D02*
X7543326Y-17541984D01*
X7543326Y-17541984D02*
X7562374Y-17551508D01*
X7562374Y-17551508D02*
X7571897Y-17561031D01*
X7571897Y-17561031D02*
X7581421Y-17580079D01*
X7581421Y-17580079D02*
X7581421Y-17589603D01*
X7581421Y-17589603D02*
X7571897Y-17608650D01*
X7571897Y-17608650D02*
X7562374Y-17618174D01*
X7562374Y-17618174D02*
X7543326Y-17627698D01*
X7543326Y-17627698D02*
X7505231Y-17627698D01*
X7505231Y-17627698D02*
X7486183Y-17637222D01*
X7486183Y-17637222D02*
X7476659Y-17646746D01*
X7476659Y-17646746D02*
X7467136Y-17665793D01*
X7467136Y-17665793D02*
X7467136Y-17703888D01*
X7467136Y-17703888D02*
X7476659Y-17722936D01*
X7476659Y-17722936D02*
X7486183Y-17732460D01*
X7486183Y-17732460D02*
X7505231Y-17741984D01*
X7505231Y-17741984D02*
X7543326Y-17741984D01*
X7543326Y-17741984D02*
X7562374Y-17732460D01*
X7562374Y-17732460D02*
X7571897Y-17722936D01*
X7571897Y-17722936D02*
X7581421Y-17703888D01*
X7581421Y-17703888D02*
X7581421Y-17665793D01*
X7581421Y-17665793D02*
X7571897Y-17646746D01*
X7571897Y-17646746D02*
X7562374Y-17637222D01*
X7562374Y-17637222D02*
X7543326Y-17627698D01*
X7752850Y-17541984D02*
X7714755Y-17541984D01*
X7714755Y-17541984D02*
X7695707Y-17551508D01*
X7695707Y-17551508D02*
X7686183Y-17561031D01*
X7686183Y-17561031D02*
X7667136Y-17589603D01*
X7667136Y-17589603D02*
X7657612Y-17627698D01*
X7657612Y-17627698D02*
X7657612Y-17703888D01*
X7657612Y-17703888D02*
X7667136Y-17722936D01*
X7667136Y-17722936D02*
X7676659Y-17732460D01*
X7676659Y-17732460D02*
X7695707Y-17741984D01*
X7695707Y-17741984D02*
X7733802Y-17741984D01*
X7733802Y-17741984D02*
X7752850Y-17732460D01*
X7752850Y-17732460D02*
X7762374Y-17722936D01*
X7762374Y-17722936D02*
X7771897Y-17703888D01*
X7771897Y-17703888D02*
X7771897Y-17656269D01*
X7771897Y-17656269D02*
X7762374Y-17637222D01*
X7762374Y-17637222D02*
X7752850Y-17627698D01*
X7752850Y-17627698D02*
X7733802Y-17618174D01*
X7733802Y-17618174D02*
X7695707Y-17618174D01*
X7695707Y-17618174D02*
X7676659Y-17627698D01*
X7676659Y-17627698D02*
X7667136Y-17637222D01*
X7667136Y-17637222D02*
X7657612Y-17656269D01*
X7943326Y-17541984D02*
X7905231Y-17541984D01*
X7905231Y-17541984D02*
X7886183Y-17551508D01*
X7886183Y-17551508D02*
X7876659Y-17561031D01*
X7876659Y-17561031D02*
X7857612Y-17589603D01*
X7857612Y-17589603D02*
X7848088Y-17627698D01*
X7848088Y-17627698D02*
X7848088Y-17703888D01*
X7848088Y-17703888D02*
X7857612Y-17722936D01*
X7857612Y-17722936D02*
X7867136Y-17732460D01*
X7867136Y-17732460D02*
X7886183Y-17741984D01*
X7886183Y-17741984D02*
X7924278Y-17741984D01*
X7924278Y-17741984D02*
X7943326Y-17732460D01*
X7943326Y-17732460D02*
X7952850Y-17722936D01*
X7952850Y-17722936D02*
X7962374Y-17703888D01*
X7962374Y-17703888D02*
X7962374Y-17656269D01*
X7962374Y-17656269D02*
X7952850Y-17637222D01*
X7952850Y-17637222D02*
X7943326Y-17627698D01*
X7943326Y-17627698D02*
X7924278Y-17618174D01*
X7924278Y-17618174D02*
X7886183Y-17618174D01*
X7886183Y-17618174D02*
X7867136Y-17627698D01*
X7867136Y-17627698D02*
X7857612Y-17637222D01*
X7857612Y-17637222D02*
X7848088Y-17656269D01*
X8038564Y-17541984D02*
X8038564Y-17580079D01*
X8114755Y-17541984D02*
X8114755Y-17580079D01*
X8409993Y-17818174D02*
X8400469Y-17808650D01*
X8400469Y-17808650D02*
X8381421Y-17780079D01*
X8381421Y-17780079D02*
X8371898Y-17761031D01*
X8371898Y-17761031D02*
X8362374Y-17732460D01*
X8362374Y-17732460D02*
X8352850Y-17684841D01*
X8352850Y-17684841D02*
X8352850Y-17646746D01*
X8352850Y-17646746D02*
X8362374Y-17599127D01*
X8362374Y-17599127D02*
X8371898Y-17570555D01*
X8371898Y-17570555D02*
X8381421Y-17551508D01*
X8381421Y-17551508D02*
X8400469Y-17522936D01*
X8400469Y-17522936D02*
X8409993Y-17513412D01*
X8476660Y-17561031D02*
X8486183Y-17551508D01*
X8486183Y-17551508D02*
X8505231Y-17541984D01*
X8505231Y-17541984D02*
X8552850Y-17541984D01*
X8552850Y-17541984D02*
X8571898Y-17551508D01*
X8571898Y-17551508D02*
X8581421Y-17561031D01*
X8581421Y-17561031D02*
X8590945Y-17580079D01*
X8590945Y-17580079D02*
X8590945Y-17599127D01*
X8590945Y-17599127D02*
X8581421Y-17627698D01*
X8581421Y-17627698D02*
X8467136Y-17741984D01*
X8467136Y-17741984D02*
X8590945Y-17741984D01*
X8829041Y-17741984D02*
X8829041Y-17541984D01*
X8914755Y-17741984D02*
X8914755Y-17637222D01*
X8914755Y-17637222D02*
X8905231Y-17618174D01*
X8905231Y-17618174D02*
X8886183Y-17608650D01*
X8886183Y-17608650D02*
X8857612Y-17608650D01*
X8857612Y-17608650D02*
X8838564Y-17618174D01*
X8838564Y-17618174D02*
X8829041Y-17627698D01*
X9038564Y-17741984D02*
X9019517Y-17732460D01*
X9019517Y-17732460D02*
X9009993Y-17722936D01*
X9009993Y-17722936D02*
X9000469Y-17703888D01*
X9000469Y-17703888D02*
X9000469Y-17646746D01*
X9000469Y-17646746D02*
X9009993Y-17627698D01*
X9009993Y-17627698D02*
X9019517Y-17618174D01*
X9019517Y-17618174D02*
X9038564Y-17608650D01*
X9038564Y-17608650D02*
X9067136Y-17608650D01*
X9067136Y-17608650D02*
X9086183Y-17618174D01*
X9086183Y-17618174D02*
X9095707Y-17627698D01*
X9095707Y-17627698D02*
X9105231Y-17646746D01*
X9105231Y-17646746D02*
X9105231Y-17703888D01*
X9105231Y-17703888D02*
X9095707Y-17722936D01*
X9095707Y-17722936D02*
X9086183Y-17732460D01*
X9086183Y-17732460D02*
X9067136Y-17741984D01*
X9067136Y-17741984D02*
X9038564Y-17741984D01*
X9219517Y-17741984D02*
X9200469Y-17732460D01*
X9200469Y-17732460D02*
X9190945Y-17713412D01*
X9190945Y-17713412D02*
X9190945Y-17541984D01*
X9371898Y-17732460D02*
X9352850Y-17741984D01*
X9352850Y-17741984D02*
X9314755Y-17741984D01*
X9314755Y-17741984D02*
X9295707Y-17732460D01*
X9295707Y-17732460D02*
X9286183Y-17713412D01*
X9286183Y-17713412D02*
X9286183Y-17637222D01*
X9286183Y-17637222D02*
X9295707Y-17618174D01*
X9295707Y-17618174D02*
X9314755Y-17608650D01*
X9314755Y-17608650D02*
X9352850Y-17608650D01*
X9352850Y-17608650D02*
X9371898Y-17618174D01*
X9371898Y-17618174D02*
X9381422Y-17637222D01*
X9381422Y-17637222D02*
X9381422Y-17656269D01*
X9381422Y-17656269D02*
X9286183Y-17675317D01*
X9457612Y-17732460D02*
X9476660Y-17741984D01*
X9476660Y-17741984D02*
X9514755Y-17741984D01*
X9514755Y-17741984D02*
X9533803Y-17732460D01*
X9533803Y-17732460D02*
X9543326Y-17713412D01*
X9543326Y-17713412D02*
X9543326Y-17703888D01*
X9543326Y-17703888D02*
X9533803Y-17684841D01*
X9533803Y-17684841D02*
X9514755Y-17675317D01*
X9514755Y-17675317D02*
X9486183Y-17675317D01*
X9486183Y-17675317D02*
X9467136Y-17665793D01*
X9467136Y-17665793D02*
X9457612Y-17646746D01*
X9457612Y-17646746D02*
X9457612Y-17637222D01*
X9457612Y-17637222D02*
X9467136Y-17618174D01*
X9467136Y-17618174D02*
X9486183Y-17608650D01*
X9486183Y-17608650D02*
X9514755Y-17608650D01*
X9514755Y-17608650D02*
X9533803Y-17618174D01*
X9609993Y-17818174D02*
X9619517Y-17808650D01*
X9619517Y-17808650D02*
X9638564Y-17780079D01*
X9638564Y-17780079D02*
X9648088Y-17761031D01*
X9648088Y-17761031D02*
X9657612Y-17732460D01*
X9657612Y-17732460D02*
X9667136Y-17684841D01*
X9667136Y-17684841D02*
X9667136Y-17646746D01*
X9667136Y-17646746D02*
X9657612Y-17599127D01*
X9657612Y-17599127D02*
X9648088Y-17570555D01*
X9648088Y-17570555D02*
X9638564Y-17551508D01*
X9638564Y-17551508D02*
X9619517Y-17522936D01*
X9619517Y-17522936D02*
X9609993Y-17513412D01*
M02*
