G04 #@! TF.GenerationSoftware,KiCad,Pcbnew,10.0.5*
G04 #@! TF.CreationDate,2026-08-13T15:43:34+02:00*
G04 #@! TF.ProjectId,dcMotor,64634d6f-746f-4722-9e6b-696361645f70,rev?*
G04 #@! TF.SameCoordinates,Original*
G04 #@! TF.FileFunction,Soldermask,Bot*
G04 #@! TF.FilePolarity,Negative*
%FSLAX46Y46*%
G04 Gerber Fmt 4.6, Leading zero omitted, Abs format (unit mm)*
G04 Created by KiCad (PCBNEW 10.0.5) date 2026-08-13 15:43:34*
%MOMM*%
%LPD*%
G01*
G04 APERTURE LIST*
G04 Aperture macros list*
%AMRoundRect*
0 Rectangle with rounded corners*
0 $1 Rounding radius*
0 $2 $3 $4 $5 $6 $7 $8 $9 X,Y pos of 4 corners*
0 Add a 4 corners polygon primitive as box body*
4,1,4,$2,$3,$4,$5,$6,$7,$8,$9,$2,$3,0*
0 Add four circle primitives for the rounded corners*
1,1,$1+$1,$2,$3*
1,1,$1+$1,$4,$5*
1,1,$1+$1,$6,$7*
1,1,$1+$1,$8,$9*
0 Add four rect primitives between the rounded corners*
20,1,$1+$1,$2,$3,$4,$5,0*
20,1,$1+$1,$4,$5,$6,$7,0*
20,1,$1+$1,$6,$7,$8,$9,0*
20,1,$1+$1,$8,$9,$2,$3,0*%
G04 Aperture macros list end*
%ADD10C,2.800000*%
%ADD11C,1.800000*%
%ADD12C,4.400000*%
%ADD13C,1.000000*%
%ADD14C,1.270000*%
%ADD15R,1.700000X1.700000*%
%ADD16C,1.700000*%
%ADD17RoundRect,0.249999X1.550001X-0.790001X1.550001X0.790001X-1.550001X0.790001X-1.550001X-0.790001X0*%
%ADD18O,3.600000X2.080000*%
%ADD19C,0.770000*%
%ADD20C,0.800000*%
%ADD21C,1.250000*%
%ADD22R,1.250000X1.250000*%
%ADD23C,0.650000*%
%ADD24O,2.100000X1.000000*%
%ADD25O,1.600000X1.000000*%
%ADD26RoundRect,0.170000X0.680000X-0.680000X0.680000X0.680000X-0.680000X0.680000X-0.680000X-0.680000X0*%
%ADD27R,1.000000X1.000000*%
G04 APERTURE END LIST*
D10*
G04 #@! TO.C,TP3*
X86360000Y-94932500D03*
G04 #@! TD*
G04 #@! TO.C,TP7*
X67818000Y-94932500D03*
G04 #@! TD*
G04 #@! TO.C,TP11*
X67818000Y-100838000D03*
G04 #@! TD*
D11*
G04 #@! TO.C,RV1*
X76073000Y-132461000D03*
X78573000Y-132461000D03*
X81073000Y-132461000D03*
D12*
X82973000Y-139461000D03*
X74173000Y-139461000D03*
G04 #@! TD*
D10*
G04 #@! TO.C,TP9*
X98044000Y-106660183D03*
G04 #@! TD*
D13*
G04 #@! TO.C,U4*
X157145000Y-71994000D03*
X131145000Y-71994000D03*
D14*
X144145000Y-76994000D03*
X144145000Y-101994000D03*
D13*
X157145000Y-102994000D03*
X131145000Y-102994000D03*
G04 #@! TD*
D15*
G04 #@! TO.C,J7*
X103116945Y-143256000D03*
D16*
X103116945Y-140716000D03*
X103116945Y-138176000D03*
X103116945Y-135636000D03*
G04 #@! TD*
D17*
G04 #@! TO.C,J6*
X54570500Y-104648000D03*
D18*
X54570500Y-99568000D03*
G04 #@! TD*
D19*
G04 #@! TO.C,U9*
X66487000Y-63343000D03*
X66487000Y-64643000D03*
X66487000Y-65943000D03*
X67787000Y-63343000D03*
X67787000Y-64643000D03*
X67787000Y-65943000D03*
G04 #@! TD*
D20*
G04 #@! TO.C,U8*
X141545000Y-114708000D03*
X146745000Y-123308000D03*
D21*
X142875000Y-126383000D03*
D22*
X145415000Y-115933000D03*
D21*
X142875000Y-115933000D03*
X145415000Y-126383000D03*
G04 #@! TD*
D15*
G04 #@! TO.C,J8*
X77777000Y-67409000D03*
D16*
X77777000Y-64869000D03*
X77777000Y-62329000D03*
X77777000Y-59789000D03*
X77777000Y-57249000D03*
X77777000Y-54709000D03*
G04 #@! TD*
D23*
G04 #@! TO.C,J2*
X53958000Y-120170000D03*
X53958000Y-125950000D03*
D24*
X54458000Y-118740000D03*
D25*
X50278000Y-118740000D03*
D24*
X54458000Y-127380000D03*
D25*
X50278000Y-127380000D03*
G04 #@! TD*
D26*
G04 #@! TO.C,U6*
X103124000Y-143256000D03*
D16*
X103124000Y-140716000D03*
X103124000Y-138176000D03*
X103124000Y-135636000D03*
G04 #@! TD*
D10*
G04 #@! TO.C,TP10*
X67818000Y-77216000D03*
G04 #@! TD*
G04 #@! TO.C,TP2*
X86360000Y-89027000D03*
G04 #@! TD*
D27*
G04 #@! TO.C,J3*
X88646000Y-140843000D03*
D13*
X88646000Y-139573000D03*
X89916000Y-140843000D03*
X89916000Y-139573000D03*
X91186000Y-140843000D03*
X91186000Y-139573000D03*
X92456000Y-140843000D03*
X92456000Y-139573000D03*
X93726000Y-140843000D03*
X93726000Y-139573000D03*
X94996000Y-140843000D03*
X94996000Y-139573000D03*
X96266000Y-140843000D03*
X96266000Y-139573000D03*
G04 #@! TD*
D23*
G04 #@! TO.C,J1*
X54105000Y-82347098D03*
X54105000Y-88127098D03*
D24*
X54605000Y-80917098D03*
D25*
X50425000Y-80917098D03*
D24*
X54605000Y-89557098D03*
D25*
X50425000Y-89557098D03*
G04 #@! TD*
D10*
G04 #@! TO.C,TP12*
X98044000Y-113284000D03*
G04 #@! TD*
G04 #@! TO.C,TP4*
X86360000Y-100838000D03*
G04 #@! TD*
G04 #@! TO.C,TP1*
X86360000Y-83121500D03*
G04 #@! TD*
G04 #@! TO.C,TP8*
X67818000Y-83121500D03*
G04 #@! TD*
G04 #@! TO.C,TP6*
X67818000Y-89027000D03*
G04 #@! TD*
M02*
