G04 #@! TF.GenerationSoftware,KiCad,Pcbnew,10.0.5*
G04 #@! TF.CreationDate,2026-08-13T15:43:34+02:00*
G04 #@! TF.ProjectId,dcMotor,64634d6f-746f-4722-9e6b-696361645f70,rev?*
G04 #@! TF.SameCoordinates,Original*
G04 #@! TF.FileFunction,Paste,Top*
G04 #@! TF.FilePolarity,Positive*
%FSLAX46Y46*%
G04 Gerber Fmt 4.6, Leading zero omitted, Abs format (unit mm)*
G04 Created by KiCad (PCBNEW 10.0.5) date 2026-08-13 15:43:34*
%MOMM*%
%LPD*%
G01*
G04 APERTURE LIST*
G04 Aperture macros list*
%AMRoundRect*
0 Rectangle with rounded corners*
0 $1 Rounding radius*
0 $2 $3 $4 $5 $6 $7 $8 $9 X,Y pos of 4 corners*
0 Add a 4 corners polygon primitive as box body*
4,1,4,$2,$3,$4,$5,$6,$7,$8,$9,$2,$3,0*
0 Add four circle primitives for the rounded corners*
1,1,$1+$1,$2,$3*
1,1,$1+$1,$4,$5*
1,1,$1+$1,$6,$7*
1,1,$1+$1,$8,$9*
0 Add four rect primitives between the rounded corners*
20,1,$1+$1,$2,$3,$4,$5,0*
20,1,$1+$1,$4,$5,$6,$7,0*
20,1,$1+$1,$6,$7,$8,$9,0*
20,1,$1+$1,$8,$9,$2,$3,0*%
G04 Aperture macros list end*
%ADD10RoundRect,0.140000X-0.170000X0.140000X-0.170000X-0.140000X0.170000X-0.140000X0.170000X0.140000X0*%
%ADD11RoundRect,0.140000X0.140000X0.170000X-0.140000X0.170000X-0.140000X-0.170000X0.140000X-0.170000X0*%
%ADD12RoundRect,0.140000X0.170000X-0.140000X0.170000X0.140000X-0.170000X0.140000X-0.170000X-0.140000X0*%
%ADD13RoundRect,0.250000X-1.650000X-0.750000X1.650000X-0.750000X1.650000X0.750000X-1.650000X0.750000X0*%
%ADD14RoundRect,0.150000X0.150000X-0.587500X0.150000X0.587500X-0.150000X0.587500X-0.150000X-0.587500X0*%
%ADD15RoundRect,0.150000X-0.200000X0.150000X-0.200000X-0.150000X0.200000X-0.150000X0.200000X0.150000X0*%
%ADD16RoundRect,0.237500X0.250000X0.237500X-0.250000X0.237500X-0.250000X-0.237500X0.250000X-0.237500X0*%
%ADD17RoundRect,0.250000X-0.475000X0.250000X-0.475000X-0.250000X0.475000X-0.250000X0.475000X0.250000X0*%
%ADD18RoundRect,0.237500X-0.287500X-0.237500X0.287500X-0.237500X0.287500X0.237500X-0.287500X0.237500X0*%
%ADD19RoundRect,0.237500X-0.237500X0.250000X-0.237500X-0.250000X0.237500X-0.250000X0.237500X0.250000X0*%
%ADD20RoundRect,0.250000X-0.350000X-0.450000X0.350000X-0.450000X0.350000X0.450000X-0.350000X0.450000X0*%
%ADD21RoundRect,0.250000X0.337500X0.475000X-0.337500X0.475000X-0.337500X-0.475000X0.337500X-0.475000X0*%
%ADD22RoundRect,0.237500X0.237500X-0.300000X0.237500X0.300000X-0.237500X0.300000X-0.237500X-0.300000X0*%
%ADD23RoundRect,0.250000X-0.262500X-0.450000X0.262500X-0.450000X0.262500X0.450000X-0.262500X0.450000X0*%
%ADD24RoundRect,0.135000X0.185000X-0.135000X0.185000X0.135000X-0.185000X0.135000X-0.185000X-0.135000X0*%
%ADD25RoundRect,0.150000X0.200000X-0.150000X0.200000X0.150000X-0.200000X0.150000X-0.200000X-0.150000X0*%
%ADD26RoundRect,0.250000X0.750000X-1.650000X0.750000X1.650000X-0.750000X1.650000X-0.750000X-1.650000X0*%
%ADD27RoundRect,0.135000X-0.185000X0.135000X-0.185000X-0.135000X0.185000X-0.135000X0.185000X0.135000X0*%
%ADD28RoundRect,0.250000X0.450000X-0.262500X0.450000X0.262500X-0.450000X0.262500X-0.450000X-0.262500X0*%
%ADD29RoundRect,0.250000X-0.750000X1.650000X-0.750000X-1.650000X0.750000X-1.650000X0.750000X1.650000X0*%
%ADD30RoundRect,0.250000X-0.475000X0.337500X-0.475000X-0.337500X0.475000X-0.337500X0.475000X0.337500X0*%
%ADD31RoundRect,0.250000X0.262500X0.450000X-0.262500X0.450000X-0.262500X-0.450000X0.262500X-0.450000X0*%
%ADD32RoundRect,0.250000X1.500000X0.550000X-1.500000X0.550000X-1.500000X-0.550000X1.500000X-0.550000X0*%
%ADD33RoundRect,0.237500X-0.237500X0.300000X-0.237500X-0.300000X0.237500X-0.300000X0.237500X0.300000X0*%
%ADD34RoundRect,0.250000X0.350000X0.450000X-0.350000X0.450000X-0.350000X-0.450000X0.350000X-0.450000X0*%
%ADD35RoundRect,0.250000X1.500000X0.650000X-1.500000X0.650000X-1.500000X-0.650000X1.500000X-0.650000X0*%
%ADD36RoundRect,0.250000X0.650000X-1.500000X0.650000X1.500000X-0.650000X1.500000X-0.650000X-1.500000X0*%
%ADD37RoundRect,0.075000X0.662500X0.075000X-0.662500X0.075000X-0.662500X-0.075000X0.662500X-0.075000X0*%
%ADD38RoundRect,0.075000X0.075000X0.662500X-0.075000X0.662500X-0.075000X-0.662500X0.075000X-0.662500X0*%
%ADD39RoundRect,0.225000X0.225000X0.250000X-0.225000X0.250000X-0.225000X-0.250000X0.225000X-0.250000X0*%
%ADD40RoundRect,0.140000X-0.140000X-0.170000X0.140000X-0.170000X0.140000X0.170000X-0.140000X0.170000X0*%
%ADD41R,2.300000X1.650000*%
%ADD42RoundRect,0.250000X-0.337500X-0.475000X0.337500X-0.475000X0.337500X0.475000X-0.337500X0.475000X0*%
%ADD43RoundRect,0.275000X1.675000X-0.275000X1.675000X0.275000X-1.675000X0.275000X-1.675000X-0.275000X0*%
%ADD44RoundRect,0.150000X-0.150000X0.512500X-0.150000X-0.512500X0.150000X-0.512500X0.150000X0.512500X0*%
%ADD45RoundRect,0.135000X-0.135000X-0.185000X0.135000X-0.185000X0.135000X0.185000X-0.135000X0.185000X0*%
%ADD46R,2.400000X3.100000*%
%ADD47RoundRect,0.125000X-1.000000X-0.125000X1.000000X-0.125000X1.000000X0.125000X-1.000000X0.125000X0*%
%ADD48RoundRect,0.250000X0.450000X-0.350000X0.450000X0.350000X-0.450000X0.350000X-0.450000X-0.350000X0*%
%ADD49RoundRect,0.200000X-0.200000X-0.275000X0.200000X-0.275000X0.200000X0.275000X-0.200000X0.275000X0*%
%ADD50RoundRect,0.237500X-0.250000X-0.237500X0.250000X-0.237500X0.250000X0.237500X-0.250000X0.237500X0*%
%ADD51RoundRect,0.150000X0.512500X0.150000X-0.512500X0.150000X-0.512500X-0.150000X0.512500X-0.150000X0*%
%ADD52RoundRect,0.200000X-0.275000X0.200000X-0.275000X-0.200000X0.275000X-0.200000X0.275000X0.200000X0*%
%ADD53RoundRect,0.225000X-0.225000X-0.250000X0.225000X-0.250000X0.225000X0.250000X-0.225000X0.250000X0*%
%ADD54RoundRect,0.150000X-0.512500X-0.150000X0.512500X-0.150000X0.512500X0.150000X-0.512500X0.150000X0*%
%ADD55RoundRect,0.250000X-0.250000X-0.475000X0.250000X-0.475000X0.250000X0.475000X-0.250000X0.475000X0*%
%ADD56RoundRect,0.250000X0.475000X-0.337500X0.475000X0.337500X-0.475000X0.337500X-0.475000X-0.337500X0*%
%ADD57RoundRect,0.150000X0.150000X-0.825000X0.150000X0.825000X-0.150000X0.825000X-0.150000X-0.825000X0*%
%ADD58RoundRect,0.150000X-0.500000X0.150000X-0.500000X-0.150000X0.500000X-0.150000X0.500000X0.150000X0*%
%ADD59RoundRect,0.075000X-0.575000X0.075000X-0.575000X-0.075000X0.575000X-0.075000X0.575000X0.075000X0*%
%ADD60RoundRect,0.250000X-0.450000X0.350000X-0.450000X-0.350000X0.450000X-0.350000X0.450000X0.350000X0*%
%ADD61RoundRect,0.250000X-0.450000X0.262500X-0.450000X-0.262500X0.450000X-0.262500X0.450000X0.262500X0*%
%ADD62RoundRect,0.250000X-0.400000X0.525000X-0.400000X-0.525000X0.400000X-0.525000X0.400000X0.525000X0*%
%ADD63RoundRect,0.250000X-1.000000X-0.650000X1.000000X-0.650000X1.000000X0.650000X-1.000000X0.650000X0*%
G04 APERTURE END LIST*
D10*
G04 #@! TO.C,C34*
X62357000Y-66576000D03*
X62357000Y-67536000D03*
G04 #@! TD*
D11*
G04 #@! TO.C,C40*
X86840000Y-113030000D03*
X85880000Y-113030000D03*
G04 #@! TD*
D12*
G04 #@! TO.C,C39*
X89408000Y-127861000D03*
X89408000Y-126901000D03*
G04 #@! TD*
D13*
G04 #@! TO.C,TP18*
X103442963Y-124381723D03*
G04 #@! TD*
D14*
G04 #@! TO.C,Q1*
X131006509Y-128318500D03*
X132906509Y-128318500D03*
X131956509Y-126443500D03*
G04 #@! TD*
D15*
G04 #@! TO.C,D3*
X57343550Y-83270098D03*
X57343550Y-81870098D03*
G04 #@! TD*
D16*
G04 #@! TO.C,R14*
X58996500Y-118615000D03*
X57171500Y-118615000D03*
G04 #@! TD*
D17*
G04 #@! TO.C,C13*
X90424000Y-60643750D03*
X90424000Y-62543750D03*
G04 #@! TD*
D18*
G04 #@! TO.C,D6*
X63994250Y-109474000D03*
X65744250Y-109474000D03*
G04 #@! TD*
D19*
G04 #@! TO.C,FB1*
X81534000Y-113895500D03*
X81534000Y-115720500D03*
G04 #@! TD*
D20*
G04 #@! TO.C,R26*
X84365500Y-109220000D03*
X86365500Y-109220000D03*
G04 #@! TD*
D21*
G04 #@! TO.C,C29*
X67839500Y-70421000D03*
X65764500Y-70421000D03*
G04 #@! TD*
D22*
G04 #@! TO.C,C5*
X58896000Y-88624241D03*
X58896000Y-86899241D03*
G04 #@! TD*
D23*
G04 #@! TO.C,R10*
X55316000Y-59115000D03*
X57141000Y-59115000D03*
G04 #@! TD*
D11*
G04 #@! TO.C,C23*
X86840000Y-114046000D03*
X85880000Y-114046000D03*
G04 #@! TD*
D24*
G04 #@! TO.C,R19*
X100330000Y-138430000D03*
X100330000Y-137410000D03*
G04 #@! TD*
D25*
G04 #@! TO.C,D4*
X57394350Y-87077098D03*
X57394350Y-88477098D03*
G04 #@! TD*
D23*
G04 #@! TO.C,R7*
X81129500Y-72980000D03*
X82954500Y-72980000D03*
G04 #@! TD*
D26*
G04 #@! TO.C,TP13*
X80772000Y-85090000D03*
G04 #@! TD*
D27*
G04 #@! TO.C,R17*
X100330000Y-135378000D03*
X100330000Y-136398000D03*
G04 #@! TD*
D20*
G04 #@! TO.C,R11*
X51672500Y-59115000D03*
X53672500Y-59115000D03*
G04 #@! TD*
G04 #@! TO.C,R30*
X88243500Y-105156000D03*
X90243500Y-105156000D03*
G04 #@! TD*
D28*
G04 #@! TO.C,R32*
X120907509Y-127531500D03*
X120907509Y-125706500D03*
G04 #@! TD*
D29*
G04 #@! TO.C,TP14*
X80772000Y-97790000D03*
G04 #@! TD*
D30*
G04 #@! TO.C,C8*
X52418500Y-53505500D03*
X52418500Y-55580500D03*
G04 #@! TD*
D12*
G04 #@! TO.C,C26*
X61214000Y-136977000D03*
X61214000Y-136017000D03*
G04 #@! TD*
D31*
G04 #@! TO.C,R4*
X83312000Y-70694000D03*
X81487000Y-70694000D03*
G04 #@! TD*
D21*
G04 #@! TO.C,C32*
X90297000Y-107188000D03*
X88222000Y-107188000D03*
G04 #@! TD*
D32*
G04 #@! TO.C,C36*
X56675000Y-64897000D03*
X51275000Y-64897000D03*
G04 #@! TD*
D33*
G04 #@! TO.C,C4*
X58801000Y-81576241D03*
X58801000Y-83301241D03*
G04 #@! TD*
D34*
G04 #@! TO.C,R25*
X86365500Y-105156000D03*
X84365500Y-105156000D03*
G04 #@! TD*
D35*
G04 #@! TO.C,D2*
X56562000Y-115189000D03*
X51562000Y-115189000D03*
G04 #@! TD*
D36*
G04 #@! TO.C,D7*
X73836000Y-68540000D03*
X73836000Y-63540000D03*
G04 #@! TD*
D23*
G04 #@! TO.C,R21*
X84916000Y-66376000D03*
X86741000Y-66376000D03*
G04 #@! TD*
D21*
G04 #@! TO.C,C6*
X86762500Y-72980000D03*
X84687500Y-72980000D03*
G04 #@! TD*
D37*
G04 #@! TO.C,U7*
X90816965Y-122638000D03*
X90816965Y-122138000D03*
X90816965Y-121638000D03*
X90816965Y-121138000D03*
X90816965Y-120638000D03*
X90816965Y-120138000D03*
X90816965Y-119638000D03*
X90816965Y-119138000D03*
X90816965Y-118638000D03*
X90816965Y-118138000D03*
X90816965Y-117638000D03*
X90816965Y-117138000D03*
D38*
X89404465Y-115725500D03*
X88904465Y-115725500D03*
X88404465Y-115725500D03*
X87904465Y-115725500D03*
X87404465Y-115725500D03*
X86904465Y-115725500D03*
X86404465Y-115725500D03*
X85904465Y-115725500D03*
X85404465Y-115725500D03*
X84904465Y-115725500D03*
X84404465Y-115725500D03*
X83904465Y-115725500D03*
D37*
X82491965Y-117138000D03*
X82491965Y-117638000D03*
X82491965Y-118138000D03*
X82491965Y-118638000D03*
X82491965Y-119138000D03*
X82491965Y-119638000D03*
X82491965Y-120138000D03*
X82491965Y-120638000D03*
X82491965Y-121138000D03*
X82491965Y-121638000D03*
X82491965Y-122138000D03*
X82491965Y-122638000D03*
D38*
X83904465Y-124050500D03*
X84404465Y-124050500D03*
X84904465Y-124050500D03*
X85404465Y-124050500D03*
X85904465Y-124050500D03*
X86404465Y-124050500D03*
X86904465Y-124050500D03*
X87404465Y-124050500D03*
X87904465Y-124050500D03*
X88404465Y-124050500D03*
X88904465Y-124050500D03*
X89404465Y-124050500D03*
G04 #@! TD*
D39*
G04 #@! TO.C,C2*
X62342250Y-112776000D03*
X60792250Y-112776000D03*
G04 #@! TD*
D40*
G04 #@! TO.C,C22*
X88420000Y-125603000D03*
X89380000Y-125603000D03*
G04 #@! TD*
D11*
G04 #@! TO.C,C31*
X70076000Y-67881000D03*
X69116000Y-67881000D03*
G04 #@! TD*
D41*
G04 #@! TO.C,L1*
X67155250Y-118236000D03*
X67155250Y-114936000D03*
G04 #@! TD*
D42*
G04 #@! TO.C,C1*
X60275750Y-110998000D03*
X62350750Y-110998000D03*
G04 #@! TD*
D23*
G04 #@! TO.C,R28*
X124567009Y-129413000D03*
X126392009Y-129413000D03*
G04 #@! TD*
D43*
G04 #@! TO.C,L2*
X67467526Y-117781820D03*
X67467526Y-115381820D03*
G04 #@! TD*
D44*
G04 #@! TO.C,U3*
X86294000Y-60285500D03*
X85344000Y-60285500D03*
X84394000Y-60285500D03*
X84394000Y-62560500D03*
X86294000Y-62560500D03*
G04 #@! TD*
D35*
G04 #@! TO.C,D5*
X56562000Y-111125000D03*
X51562000Y-111125000D03*
G04 #@! TD*
D30*
G04 #@! TO.C,C12*
X88138000Y-60385500D03*
X88138000Y-62460500D03*
G04 #@! TD*
D45*
G04 #@! TO.C,R8*
X57912000Y-85598000D03*
X58932000Y-85598000D03*
G04 #@! TD*
D31*
G04 #@! TO.C,R20*
X86764500Y-68662000D03*
X84939500Y-68662000D03*
G04 #@! TD*
D21*
G04 #@! TO.C,C9*
X88159500Y-58375000D03*
X86084500Y-58375000D03*
G04 #@! TD*
D11*
G04 #@! TO.C,C25*
X80236000Y-130556000D03*
X79276000Y-130556000D03*
G04 #@! TD*
D46*
G04 #@! TO.C,U9*
X67137000Y-64643000D03*
D47*
X64212000Y-62738000D03*
X64212000Y-64008000D03*
X64212000Y-65278000D03*
X64212000Y-66548000D03*
X70062000Y-66548000D03*
X70062000Y-65278000D03*
X70062000Y-64008000D03*
X70062000Y-62738000D03*
G04 #@! TD*
D48*
G04 #@! TO.C,NT1*
X82423000Y-107156000D03*
X82423000Y-105156000D03*
G04 #@! TD*
D49*
G04 #@! TO.C,R2*
X64552250Y-110998000D03*
X66202250Y-110998000D03*
G04 #@! TD*
D13*
G04 #@! TO.C,TP17*
X103467000Y-71960000D03*
G04 #@! TD*
D50*
G04 #@! TO.C,R15*
X57171500Y-120139000D03*
X58996500Y-120139000D03*
G04 #@! TD*
D51*
G04 #@! TO.C,U1*
X63466750Y-116266000D03*
X63466750Y-115316000D03*
X63466750Y-114366000D03*
X61191750Y-114366000D03*
X61191750Y-115316000D03*
X61191750Y-116266000D03*
G04 #@! TD*
D52*
G04 #@! TO.C,R1*
X67917250Y-111189000D03*
X67917250Y-112839000D03*
G04 #@! TD*
D53*
G04 #@! TO.C,C3*
X61554250Y-117840000D03*
X63104250Y-117840000D03*
G04 #@! TD*
D54*
G04 #@! TO.C,U2*
X54356000Y-55377000D03*
X54356000Y-56327000D03*
X54356000Y-57277000D03*
X56631000Y-57277000D03*
X56631000Y-55377000D03*
G04 #@! TD*
D12*
G04 #@! TO.C,C24*
X59182000Y-136977000D03*
X59182000Y-136017000D03*
G04 #@! TD*
D55*
G04 #@! TO.C,C7*
X64427250Y-112776000D03*
X66327250Y-112776000D03*
G04 #@! TD*
D42*
G04 #@! TO.C,C11*
X54429000Y-53527000D03*
X56504000Y-53527000D03*
G04 #@! TD*
D21*
G04 #@! TO.C,C15*
X83206500Y-66376000D03*
X81131500Y-66376000D03*
G04 #@! TD*
D56*
G04 #@! TO.C,C37*
X63881000Y-72411500D03*
X63881000Y-70336500D03*
G04 #@! TD*
D57*
G04 #@! TO.C,U5*
X88874500Y-72387000D03*
X90144500Y-72387000D03*
X91414500Y-72387000D03*
X92684500Y-72387000D03*
X92684500Y-67437000D03*
X91414500Y-67437000D03*
X90144500Y-67437000D03*
X88874500Y-67437000D03*
G04 #@! TD*
D54*
G04 #@! TO.C,U10*
X123030009Y-125603000D03*
X123030009Y-126553000D03*
X123030009Y-127503000D03*
X125305009Y-127503000D03*
X125305009Y-125603000D03*
G04 #@! TD*
D58*
G04 #@! TO.C,J2*
X55098000Y-119860000D03*
X55098000Y-120660000D03*
D59*
X55098000Y-121810000D03*
X55098000Y-122810000D03*
X55098000Y-123310000D03*
X55098000Y-124310000D03*
D58*
X55098000Y-125460000D03*
X55098000Y-126260000D03*
X55098000Y-126260000D03*
X55098000Y-125460000D03*
D59*
X55098000Y-124810000D03*
X55098000Y-123810000D03*
X55098000Y-122310000D03*
X55098000Y-121310000D03*
D58*
X55098000Y-120660000D03*
X55098000Y-119860000D03*
G04 #@! TD*
D32*
G04 #@! TO.C,C28*
X56675000Y-72517000D03*
X51275000Y-72517000D03*
G04 #@! TD*
D31*
G04 #@! TO.C,R23*
X130964009Y-124079000D03*
X129139009Y-124079000D03*
G04 #@! TD*
D26*
G04 #@! TO.C,TP5*
X164084000Y-141478000D03*
G04 #@! TD*
D40*
G04 #@! TO.C,C19*
X90452000Y-124206000D03*
X91412000Y-124206000D03*
G04 #@! TD*
D42*
G04 #@! TO.C,C27*
X84328000Y-107188000D03*
X86403000Y-107188000D03*
G04 #@! TD*
D23*
G04 #@! TO.C,R27*
X59793500Y-62738000D03*
X61618500Y-62738000D03*
G04 #@! TD*
D60*
G04 #@! TO.C,R13*
X82677000Y-57756000D03*
X82677000Y-59756000D03*
G04 #@! TD*
D28*
G04 #@! TO.C,R29*
X120907509Y-130960500D03*
X120907509Y-129135500D03*
G04 #@! TD*
D40*
G04 #@! TO.C,C35*
X123221509Y-124079000D03*
X124181509Y-124079000D03*
G04 #@! TD*
D23*
G04 #@! TO.C,R24*
X127361009Y-127381000D03*
X129186009Y-127381000D03*
G04 #@! TD*
D58*
G04 #@! TO.C,J1*
X55245000Y-82037098D03*
X55245000Y-82837098D03*
D59*
X55245000Y-83987098D03*
X55245000Y-84987098D03*
X55245000Y-85487098D03*
X55245000Y-86487098D03*
D58*
X55245000Y-87637098D03*
X55245000Y-88437098D03*
X55245000Y-88437098D03*
X55245000Y-87637098D03*
D59*
X55245000Y-86987098D03*
X55245000Y-85987098D03*
X55245000Y-84487098D03*
X55245000Y-83487098D03*
D58*
X55245000Y-82837098D03*
X55245000Y-82037098D03*
G04 #@! TD*
D17*
G04 #@! TO.C,C38*
X92964000Y-62931000D03*
X92964000Y-64831000D03*
G04 #@! TD*
D12*
G04 #@! TO.C,C16*
X100330000Y-141704000D03*
X100330000Y-140744000D03*
G04 #@! TD*
D21*
G04 #@! TO.C,C30*
X67839500Y-68389000D03*
X65764500Y-68389000D03*
G04 #@! TD*
D12*
G04 #@! TO.C,C17*
X82804000Y-115542000D03*
X82804000Y-114582000D03*
G04 #@! TD*
D11*
G04 #@! TO.C,C10*
X58060741Y-121409000D03*
X57100741Y-121409000D03*
G04 #@! TD*
D13*
G04 #@! TO.C,TP15*
X103505000Y-58039000D03*
G04 #@! TD*
D17*
G04 #@! TO.C,C14*
X90424000Y-57341750D03*
X90424000Y-59241750D03*
G04 #@! TD*
D61*
G04 #@! TO.C,R12*
X82677000Y-61399500D03*
X82677000Y-63224500D03*
G04 #@! TD*
D49*
G04 #@! TO.C,R9*
X67346250Y-109474000D03*
X68996250Y-109474000D03*
G04 #@! TD*
D62*
G04 #@! TO.C,SW1*
X57277000Y-136671000D03*
X57277000Y-144631000D03*
X52777000Y-136671000D03*
X52777000Y-144631000D03*
G04 #@! TD*
D34*
G04 #@! TO.C,R31*
X90259500Y-109220000D03*
X88259500Y-109220000D03*
G04 #@! TD*
D31*
G04 #@! TO.C,R6*
X86741000Y-70694000D03*
X84916000Y-70694000D03*
G04 #@! TD*
D11*
G04 #@! TO.C,C20*
X84808000Y-114046000D03*
X83848000Y-114046000D03*
G04 #@! TD*
D62*
G04 #@! TO.C,SW2*
X67564000Y-136671000D03*
X67564000Y-144631000D03*
X63064000Y-136671000D03*
X63064000Y-144631000D03*
G04 #@! TD*
D13*
G04 #@! TO.C,TP16*
X103505000Y-85090000D03*
G04 #@! TD*
D10*
G04 #@! TO.C,C33*
X80137000Y-60579000D03*
X80137000Y-61539000D03*
G04 #@! TD*
D45*
G04 #@! TO.C,R5*
X57910000Y-84582000D03*
X58930000Y-84582000D03*
G04 #@! TD*
D48*
G04 #@! TO.C,NT2*
X92270000Y-107172000D03*
X92270000Y-105172000D03*
G04 #@! TD*
D11*
G04 #@! TO.C,C18*
X89836500Y-65614000D03*
X88876500Y-65614000D03*
G04 #@! TD*
D31*
G04 #@! TO.C,R3*
X83312000Y-68662000D03*
X81487000Y-68662000D03*
G04 #@! TD*
D63*
G04 #@! TO.C,D1*
X52197000Y-78105000D03*
X56197000Y-78105000D03*
G04 #@! TD*
D10*
G04 #@! TO.C,C21*
X80772000Y-122456000D03*
X80772000Y-123416000D03*
G04 #@! TD*
M02*
