G04 #@! TF.GenerationSoftware,KiCad,Pcbnew,10.0.5*
G04 #@! TF.CreationDate,2026-08-13T15:43:34+02:00*
G04 #@! TF.ProjectId,dcMotor,64634d6f-746f-4722-9e6b-696361645f70,rev?*
G04 #@! TF.SameCoordinates,Original*
G04 #@! TF.FileFunction,Copper,L1,Top*
G04 #@! TF.FilePolarity,Positive*
%FSLAX46Y46*%
G04 Gerber Fmt 4.6, Leading zero omitted, Abs format (unit mm)*
G04 Created by KiCad (PCBNEW 10.0.5) date 2026-08-13 15:43:34*
%MOMM*%
%LPD*%
G01*
G04 APERTURE LIST*
G04 Aperture macros list*
%AMRoundRect*
0 Rectangle with rounded corners*
0 $1 Rounding radius*
0 $2 $3 $4 $5 $6 $7 $8 $9 X,Y pos of 4 corners*
0 Add a 4 corners polygon primitive as box body*
4,1,4,$2,$3,$4,$5,$6,$7,$8,$9,$2,$3,0*
0 Add four circle primitives for the rounded corners*
1,1,$1+$1,$2,$3*
1,1,$1+$1,$4,$5*
1,1,$1+$1,$6,$7*
1,1,$1+$1,$8,$9*
0 Add four rect primitives between the rounded corners*
20,1,$1+$1,$2,$3,$4,$5,0*
20,1,$1+$1,$4,$5,$6,$7,0*
20,1,$1+$1,$6,$7,$8,$9,0*
20,1,$1+$1,$8,$9,$2,$3,0*%
G04 Aperture macros list end*
G04 #@! TA.AperFunction,SMDPad,CuDef*
%ADD10RoundRect,0.140000X-0.170000X0.140000X-0.170000X-0.140000X0.170000X-0.140000X0.170000X0.140000X0*%
G04 #@! TD*
G04 #@! TA.AperFunction,SMDPad,CuDef*
%ADD11RoundRect,0.140000X0.140000X0.170000X-0.140000X0.170000X-0.140000X-0.170000X0.140000X-0.170000X0*%
G04 #@! TD*
G04 #@! TA.AperFunction,SMDPad,CuDef*
%ADD12RoundRect,0.140000X0.170000X-0.140000X0.170000X0.140000X-0.170000X0.140000X-0.170000X-0.140000X0*%
G04 #@! TD*
G04 #@! TA.AperFunction,SMDPad,CuDef*
%ADD13RoundRect,0.250000X-1.650000X-0.750000X1.650000X-0.750000X1.650000X0.750000X-1.650000X0.750000X0*%
G04 #@! TD*
G04 #@! TA.AperFunction,SMDPad,CuDef*
%ADD14RoundRect,0.150000X0.150000X-0.587500X0.150000X0.587500X-0.150000X0.587500X-0.150000X-0.587500X0*%
G04 #@! TD*
G04 #@! TA.AperFunction,SMDPad,CuDef*
%ADD15RoundRect,0.150000X-0.200000X0.150000X-0.200000X-0.150000X0.200000X-0.150000X0.200000X0.150000X0*%
G04 #@! TD*
G04 #@! TA.AperFunction,SMDPad,CuDef*
%ADD16RoundRect,0.237500X0.250000X0.237500X-0.250000X0.237500X-0.250000X-0.237500X0.250000X-0.237500X0*%
G04 #@! TD*
G04 #@! TA.AperFunction,ComponentPad*
%ADD17C,2.800000*%
G04 #@! TD*
G04 #@! TA.AperFunction,SMDPad,CuDef*
%ADD18RoundRect,0.250000X-0.475000X0.250000X-0.475000X-0.250000X0.475000X-0.250000X0.475000X0.250000X0*%
G04 #@! TD*
G04 #@! TA.AperFunction,SMDPad,CuDef*
%ADD19RoundRect,0.237500X-0.287500X-0.237500X0.287500X-0.237500X0.287500X0.237500X-0.287500X0.237500X0*%
G04 #@! TD*
G04 #@! TA.AperFunction,SMDPad,CuDef*
%ADD20RoundRect,0.237500X-0.237500X0.250000X-0.237500X-0.250000X0.237500X-0.250000X0.237500X0.250000X0*%
G04 #@! TD*
G04 #@! TA.AperFunction,SMDPad,CuDef*
%ADD21RoundRect,0.250000X-0.350000X-0.450000X0.350000X-0.450000X0.350000X0.450000X-0.350000X0.450000X0*%
G04 #@! TD*
G04 #@! TA.AperFunction,SMDPad,CuDef*
%ADD22RoundRect,0.250000X0.337500X0.475000X-0.337500X0.475000X-0.337500X-0.475000X0.337500X-0.475000X0*%
G04 #@! TD*
G04 #@! TA.AperFunction,SMDPad,CuDef*
%ADD23RoundRect,0.237500X0.237500X-0.300000X0.237500X0.300000X-0.237500X0.300000X-0.237500X-0.300000X0*%
G04 #@! TD*
G04 #@! TA.AperFunction,SMDPad,CuDef*
%ADD24RoundRect,0.250000X-0.262500X-0.450000X0.262500X-0.450000X0.262500X0.450000X-0.262500X0.450000X0*%
G04 #@! TD*
G04 #@! TA.AperFunction,SMDPad,CuDef*
%ADD25RoundRect,0.135000X0.185000X-0.135000X0.185000X0.135000X-0.185000X0.135000X-0.185000X-0.135000X0*%
G04 #@! TD*
G04 #@! TA.AperFunction,SMDPad,CuDef*
%ADD26RoundRect,0.150000X0.200000X-0.150000X0.200000X0.150000X-0.200000X0.150000X-0.200000X-0.150000X0*%
G04 #@! TD*
G04 #@! TA.AperFunction,SMDPad,CuDef*
%ADD27RoundRect,0.250000X0.750000X-1.650000X0.750000X1.650000X-0.750000X1.650000X-0.750000X-1.650000X0*%
G04 #@! TD*
G04 #@! TA.AperFunction,SMDPad,CuDef*
%ADD28RoundRect,0.135000X-0.185000X0.135000X-0.185000X-0.135000X0.185000X-0.135000X0.185000X0.135000X0*%
G04 #@! TD*
G04 #@! TA.AperFunction,SMDPad,CuDef*
%ADD29RoundRect,0.250000X0.450000X-0.262500X0.450000X0.262500X-0.450000X0.262500X-0.450000X-0.262500X0*%
G04 #@! TD*
G04 #@! TA.AperFunction,SMDPad,CuDef*
%ADD30RoundRect,0.250000X-0.750000X1.650000X-0.750000X-1.650000X0.750000X-1.650000X0.750000X1.650000X0*%
G04 #@! TD*
G04 #@! TA.AperFunction,SMDPad,CuDef*
%ADD31RoundRect,0.250000X-0.475000X0.337500X-0.475000X-0.337500X0.475000X-0.337500X0.475000X0.337500X0*%
G04 #@! TD*
G04 #@! TA.AperFunction,SMDPad,CuDef*
%ADD32RoundRect,0.250000X0.262500X0.450000X-0.262500X0.450000X-0.262500X-0.450000X0.262500X-0.450000X0*%
G04 #@! TD*
G04 #@! TA.AperFunction,SMDPad,CuDef*
%ADD33RoundRect,0.250000X1.500000X0.550000X-1.500000X0.550000X-1.500000X-0.550000X1.500000X-0.550000X0*%
G04 #@! TD*
G04 #@! TA.AperFunction,SMDPad,CuDef*
%ADD34RoundRect,0.237500X-0.237500X0.300000X-0.237500X-0.300000X0.237500X-0.300000X0.237500X0.300000X0*%
G04 #@! TD*
G04 #@! TA.AperFunction,SMDPad,CuDef*
%ADD35RoundRect,0.250000X0.350000X0.450000X-0.350000X0.450000X-0.350000X-0.450000X0.350000X-0.450000X0*%
G04 #@! TD*
G04 #@! TA.AperFunction,ComponentPad*
%ADD36C,1.800000*%
G04 #@! TD*
G04 #@! TA.AperFunction,ComponentPad*
%ADD37C,4.400000*%
G04 #@! TD*
G04 #@! TA.AperFunction,SMDPad,CuDef*
%ADD38RoundRect,0.250000X1.500000X0.650000X-1.500000X0.650000X-1.500000X-0.650000X1.500000X-0.650000X0*%
G04 #@! TD*
G04 #@! TA.AperFunction,SMDPad,CuDef*
%ADD39RoundRect,0.250000X0.650000X-1.500000X0.650000X1.500000X-0.650000X1.500000X-0.650000X-1.500000X0*%
G04 #@! TD*
G04 #@! TA.AperFunction,SMDPad,CuDef*
%ADD40RoundRect,0.075000X0.662500X0.075000X-0.662500X0.075000X-0.662500X-0.075000X0.662500X-0.075000X0*%
G04 #@! TD*
G04 #@! TA.AperFunction,SMDPad,CuDef*
%ADD41RoundRect,0.075000X0.075000X0.662500X-0.075000X0.662500X-0.075000X-0.662500X0.075000X-0.662500X0*%
G04 #@! TD*
G04 #@! TA.AperFunction,SMDPad,CuDef*
%ADD42RoundRect,0.225000X0.225000X0.250000X-0.225000X0.250000X-0.225000X-0.250000X0.225000X-0.250000X0*%
G04 #@! TD*
G04 #@! TA.AperFunction,SMDPad,CuDef*
%ADD43RoundRect,0.140000X-0.140000X-0.170000X0.140000X-0.170000X0.140000X0.170000X-0.140000X0.170000X0*%
G04 #@! TD*
G04 #@! TA.AperFunction,SMDPad,CuDef*
%ADD44R,2.300000X1.650000*%
G04 #@! TD*
G04 #@! TA.AperFunction,SMDPad,CuDef*
%ADD45RoundRect,0.250000X-0.337500X-0.475000X0.337500X-0.475000X0.337500X0.475000X-0.337500X0.475000X0*%
G04 #@! TD*
G04 #@! TA.AperFunction,SMDPad,CuDef*
%ADD46RoundRect,0.275000X1.675000X-0.275000X1.675000X0.275000X-1.675000X0.275000X-1.675000X-0.275000X0*%
G04 #@! TD*
G04 #@! TA.AperFunction,SMDPad,CuDef*
%ADD47RoundRect,0.150000X-0.150000X0.512500X-0.150000X-0.512500X0.150000X-0.512500X0.150000X0.512500X0*%
G04 #@! TD*
G04 #@! TA.AperFunction,SMDPad,CuDef*
%ADD48RoundRect,0.135000X-0.135000X-0.185000X0.135000X-0.185000X0.135000X0.185000X-0.135000X0.185000X0*%
G04 #@! TD*
G04 #@! TA.AperFunction,ComponentPad*
%ADD49R,1.700000X1.700000*%
G04 #@! TD*
G04 #@! TA.AperFunction,ComponentPad*
%ADD50C,1.700000*%
G04 #@! TD*
G04 #@! TA.AperFunction,ComponentPad*
%ADD51RoundRect,0.249999X1.550001X-0.790001X1.550001X0.790001X-1.550001X0.790001X-1.550001X-0.790001X0*%
G04 #@! TD*
G04 #@! TA.AperFunction,ComponentPad*
%ADD52O,3.600000X2.080000*%
G04 #@! TD*
G04 #@! TA.AperFunction,SMDPad,CuDef*
%ADD53RoundRect,0.125000X-1.000000X-0.125000X1.000000X-0.125000X1.000000X0.125000X-1.000000X0.125000X0*%
G04 #@! TD*
G04 #@! TA.AperFunction,ComponentPad*
%ADD54C,0.630000*%
G04 #@! TD*
G04 #@! TA.AperFunction,SMDPad,CuDef*
%ADD55RoundRect,0.250000X-1.225000X-2.200000X1.225000X-2.200000X1.225000X2.200000X-1.225000X2.200000X0*%
G04 #@! TD*
G04 #@! TA.AperFunction,SMDPad,CuDef*
%ADD56RoundRect,0.250000X0.450000X-0.350000X0.450000X0.350000X-0.450000X0.350000X-0.450000X-0.350000X0*%
G04 #@! TD*
G04 #@! TA.AperFunction,SMDPad,CuDef*
%ADD57RoundRect,0.200000X-0.200000X-0.275000X0.200000X-0.275000X0.200000X0.275000X-0.200000X0.275000X0*%
G04 #@! TD*
G04 #@! TA.AperFunction,SMDPad,CuDef*
%ADD58RoundRect,0.237500X-0.250000X-0.237500X0.250000X-0.237500X0.250000X0.237500X-0.250000X0.237500X0*%
G04 #@! TD*
G04 #@! TA.AperFunction,SMDPad,CuDef*
%ADD59RoundRect,0.150000X0.512500X0.150000X-0.512500X0.150000X-0.512500X-0.150000X0.512500X-0.150000X0*%
G04 #@! TD*
G04 #@! TA.AperFunction,SMDPad,CuDef*
%ADD60RoundRect,0.200000X-0.275000X0.200000X-0.275000X-0.200000X0.275000X-0.200000X0.275000X0.200000X0*%
G04 #@! TD*
G04 #@! TA.AperFunction,SMDPad,CuDef*
%ADD61RoundRect,0.225000X-0.225000X-0.250000X0.225000X-0.250000X0.225000X0.250000X-0.225000X0.250000X0*%
G04 #@! TD*
G04 #@! TA.AperFunction,SMDPad,CuDef*
%ADD62RoundRect,0.150000X-0.512500X-0.150000X0.512500X-0.150000X0.512500X0.150000X-0.512500X0.150000X0*%
G04 #@! TD*
G04 #@! TA.AperFunction,SMDPad,CuDef*
%ADD63RoundRect,0.250000X-0.250000X-0.475000X0.250000X-0.475000X0.250000X0.475000X-0.250000X0.475000X0*%
G04 #@! TD*
G04 #@! TA.AperFunction,ComponentPad*
%ADD64C,1.250000*%
G04 #@! TD*
G04 #@! TA.AperFunction,ComponentPad*
%ADD65R,1.250000X1.250000*%
G04 #@! TD*
G04 #@! TA.AperFunction,SMDPad,CuDef*
%ADD66RoundRect,0.250000X0.475000X-0.337500X0.475000X0.337500X-0.475000X0.337500X-0.475000X-0.337500X0*%
G04 #@! TD*
G04 #@! TA.AperFunction,SMDPad,CuDef*
%ADD67RoundRect,0.150000X0.150000X-0.825000X0.150000X0.825000X-0.150000X0.825000X-0.150000X-0.825000X0*%
G04 #@! TD*
G04 #@! TA.AperFunction,SMDPad,CuDef*
%ADD68RoundRect,0.150000X-0.500000X0.150000X-0.500000X-0.150000X0.500000X-0.150000X0.500000X0.150000X0*%
G04 #@! TD*
G04 #@! TA.AperFunction,SMDPad,CuDef*
%ADD69RoundRect,0.075000X-0.575000X0.075000X-0.575000X-0.075000X0.575000X-0.075000X0.575000X0.075000X0*%
G04 #@! TD*
G04 #@! TA.AperFunction,ComponentPad*
%ADD70O,2.100000X1.000000*%
G04 #@! TD*
G04 #@! TA.AperFunction,ComponentPad*
%ADD71O,1.600000X1.000000*%
G04 #@! TD*
G04 #@! TA.AperFunction,ComponentPad*
%ADD72RoundRect,0.170000X0.680000X-0.680000X0.680000X0.680000X-0.680000X0.680000X-0.680000X-0.680000X0*%
G04 #@! TD*
G04 #@! TA.AperFunction,SMDPad,CuDef*
%ADD73RoundRect,0.250000X-0.450000X0.350000X-0.450000X-0.350000X0.450000X-0.350000X0.450000X0.350000X0*%
G04 #@! TD*
G04 #@! TA.AperFunction,ComponentPad*
%ADD74R,1.000000X1.000000*%
G04 #@! TD*
G04 #@! TA.AperFunction,ComponentPad*
%ADD75C,1.000000*%
G04 #@! TD*
G04 #@! TA.AperFunction,SMDPad,CuDef*
%ADD76RoundRect,0.250000X-0.450000X0.262500X-0.450000X-0.262500X0.450000X-0.262500X0.450000X0.262500X0*%
G04 #@! TD*
G04 #@! TA.AperFunction,SMDPad,CuDef*
%ADD77RoundRect,0.250000X-0.400000X0.525000X-0.400000X-0.525000X0.400000X-0.525000X0.400000X0.525000X0*%
G04 #@! TD*
G04 #@! TA.AperFunction,SMDPad,CuDef*
%ADD78RoundRect,0.250000X-1.000000X-0.650000X1.000000X-0.650000X1.000000X0.650000X-1.000000X0.650000X0*%
G04 #@! TD*
G04 #@! TA.AperFunction,ViaPad*
%ADD79C,0.700000*%
G04 #@! TD*
G04 #@! TA.AperFunction,ViaPad*
%ADD80C,0.600000*%
G04 #@! TD*
G04 #@! TA.AperFunction,Conductor*
%ADD81C,1.000000*%
G04 #@! TD*
G04 #@! TA.AperFunction,Conductor*
%ADD82C,0.500000*%
G04 #@! TD*
G04 #@! TA.AperFunction,Conductor*
%ADD83C,0.400000*%
G04 #@! TD*
G04 #@! TA.AperFunction,Conductor*
%ADD84C,0.250000*%
G04 #@! TD*
G04 #@! TA.AperFunction,Conductor*
%ADD85C,0.300000*%
G04 #@! TD*
G04 #@! TA.AperFunction,Conductor*
%ADD86C,0.200000*%
G04 #@! TD*
G04 #@! TA.AperFunction,Conductor*
%ADD87C,0.350000*%
G04 #@! TD*
G04 #@! TA.AperFunction,Conductor*
%ADD88C,0.600000*%
G04 #@! TD*
G04 #@! TA.AperFunction,Conductor*
%ADD89C,0.750000*%
G04 #@! TD*
G04 APERTURE END LIST*
D10*
G04 #@! TO.P,C34,1*
G04 #@! TO.N,+3.3V*
X62357000Y-66576000D03*
G04 #@! TO.P,C34,2*
G04 #@! TO.N,GND*
X62357000Y-67536000D03*
G04 #@! TD*
D11*
G04 #@! TO.P,C40,1*
G04 #@! TO.N,GND*
X86840000Y-113030000D03*
G04 #@! TO.P,C40,2*
G04 #@! TO.N,+3.3V*
X85880000Y-113030000D03*
G04 #@! TD*
D12*
G04 #@! TO.P,C39,1*
G04 #@! TO.N,GND*
X89408000Y-127861000D03*
G04 #@! TO.P,C39,2*
G04 #@! TO.N,+3.3V*
X89408000Y-126901000D03*
G04 #@! TD*
D13*
G04 #@! TO.P,TP18,1,1_1*
G04 #@! TO.N,GND*
X103442963Y-124381723D03*
G04 #@! TD*
D14*
G04 #@! TO.P,Q1,1,G_1*
G04 #@! TO.N,/EN_PHOTO*
X131006509Y-128318500D03*
G04 #@! TO.P,Q1,2,S_2*
G04 #@! TO.N,GND*
X132906509Y-128318500D03*
G04 #@! TO.P,Q1,3,D_3*
G04 #@! TO.N,Net-(Q1-D)*
X131956509Y-126443500D03*
G04 #@! TD*
D15*
G04 #@! TO.P,D3,1,K_1*
G04 #@! TO.N,/USB_CC1*
X57343550Y-83270098D03*
G04 #@! TO.P,D3,2,A_2*
G04 #@! TO.N,GND*
X57343550Y-81870098D03*
G04 #@! TD*
D16*
G04 #@! TO.P,R14,1*
G04 #@! TO.N,/VBUS_SENSE*
X58996500Y-118615000D03*
G04 #@! TO.P,R14,2*
G04 #@! TO.N,VBUS*
X57171500Y-118615000D03*
G04 #@! TD*
D17*
G04 #@! TO.P,TP3,1,1_1*
G04 #@! TO.N,/MOTOR-_SENSE*
X86360000Y-94932500D03*
G04 #@! TD*
D18*
G04 #@! TO.P,C13,1*
G04 #@! TO.N,GND*
X90424000Y-60643750D03*
G04 #@! TO.P,C13,2*
G04 #@! TO.N,+1.65V*
X90424000Y-62543750D03*
G04 #@! TD*
D19*
G04 #@! TO.P,D6,1,K_1*
G04 #@! TO.N,GND*
X63994250Y-109474000D03*
G04 #@! TO.P,D6,2,A_2*
G04 #@! TO.N,Net-(D6-A)*
X65744250Y-109474000D03*
G04 #@! TD*
D20*
G04 #@! TO.P,FB1,1*
G04 #@! TO.N,+3.3V*
X81534000Y-113895500D03*
G04 #@! TO.P,FB1,2*
G04 #@! TO.N,Net-(U7-VREF+)*
X81534000Y-115720500D03*
G04 #@! TD*
D21*
G04 #@! TO.P,R26,1*
G04 #@! TO.N,GND*
X84365500Y-109220000D03*
G04 #@! TO.P,R26,2*
G04 #@! TO.N,Net-(C27-Pad2)*
X86365500Y-109220000D03*
G04 #@! TD*
D22*
G04 #@! TO.P,C29,1*
G04 #@! TO.N,VBUS*
X67839500Y-70421000D03*
G04 #@! TO.P,C29,2*
G04 #@! TO.N,GND*
X65764500Y-70421000D03*
G04 #@! TD*
D17*
G04 #@! TO.P,TP7,1,1_1*
G04 #@! TO.N,/TIM2_CH1*
X67818000Y-94932500D03*
G04 #@! TD*
D23*
G04 #@! TO.P,C5,1*
G04 #@! TO.N,GND*
X58896000Y-88624241D03*
G04 #@! TO.P,C5,2*
G04 #@! TO.N,/USB_CC2*
X58896000Y-86899241D03*
G04 #@! TD*
D24*
G04 #@! TO.P,R10,1*
G04 #@! TO.N,Net-(U2-ADJ)*
X55316000Y-59115000D03*
G04 #@! TO.P,R10,2*
G04 #@! TO.N,+5.0V*
X57141000Y-59115000D03*
G04 #@! TD*
D11*
G04 #@! TO.P,C23,1*
G04 #@! TO.N,GND*
X86840000Y-114046000D03*
G04 #@! TO.P,C23,2*
G04 #@! TO.N,+3.3V*
X85880000Y-114046000D03*
G04 #@! TD*
D25*
G04 #@! TO.P,R19,1*
G04 #@! TO.N,/I2C2_SCL*
X100330000Y-138430000D03*
G04 #@! TO.P,R19,2*
G04 #@! TO.N,+3.3V*
X100330000Y-137410000D03*
G04 #@! TD*
D26*
G04 #@! TO.P,D4,1,K_1*
G04 #@! TO.N,/USB_CC2*
X57394350Y-87077098D03*
G04 #@! TO.P,D4,2,A_2*
G04 #@! TO.N,GND*
X57394350Y-88477098D03*
G04 #@! TD*
D24*
G04 #@! TO.P,R7,1*
G04 #@! TO.N,+1.65V*
X81129500Y-72980000D03*
G04 #@! TO.P,R7,2*
G04 #@! TO.N,Net-(U5A-+)*
X82954500Y-72980000D03*
G04 #@! TD*
D27*
G04 #@! TO.P,TP13,1,1_1*
G04 #@! TO.N,GND*
X80772000Y-85090000D03*
G04 #@! TD*
D28*
G04 #@! TO.P,R17,1*
G04 #@! TO.N,/I2C2_SDA*
X100330000Y-135378000D03*
G04 #@! TO.P,R17,2*
G04 #@! TO.N,+3.3V*
X100330000Y-136398000D03*
G04 #@! TD*
D21*
G04 #@! TO.P,R11,1*
G04 #@! TO.N,GND*
X51672500Y-59115000D03*
G04 #@! TO.P,R11,2*
G04 #@! TO.N,Net-(U2-ADJ)*
X53672500Y-59115000D03*
G04 #@! TD*
G04 #@! TO.P,R30,1*
G04 #@! TO.N,Net-(C32-Pad2)*
X88243500Y-105156000D03*
G04 #@! TO.P,R30,2*
G04 #@! TO.N,/TIM2_CH2*
X90243500Y-105156000D03*
G04 #@! TD*
D29*
G04 #@! TO.P,R32,1*
G04 #@! TO.N,Net-(U10-+)*
X120907509Y-127531500D03*
G04 #@! TO.P,R32,2*
G04 #@! TO.N,/PHOTO_OUT_ST*
X120907509Y-125706500D03*
G04 #@! TD*
D30*
G04 #@! TO.P,TP14,1,1_1*
G04 #@! TO.N,GND*
X80772000Y-97790000D03*
G04 #@! TD*
D17*
G04 #@! TO.P,TP11,1,1_1*
G04 #@! TO.N,/TIM2_CH2*
X67818000Y-100838000D03*
G04 #@! TD*
D31*
G04 #@! TO.P,C8,1*
G04 #@! TO.N,GND*
X52418500Y-53505500D03*
G04 #@! TO.P,C8,2*
G04 #@! TO.N,VBUS*
X52418500Y-55580500D03*
G04 #@! TD*
D12*
G04 #@! TO.P,C26,1*
G04 #@! TO.N,GND*
X61214000Y-136977000D03*
G04 #@! TO.P,C26,2*
G04 #@! TO.N,/BUTTON1*
X61214000Y-136017000D03*
G04 #@! TD*
D32*
G04 #@! TO.P,R4,1*
G04 #@! TO.N,Net-(R4-Pad1)*
X83312000Y-70694000D03*
G04 #@! TO.P,R4,2*
G04 #@! TO.N,/MOTOR-*
X81487000Y-70694000D03*
G04 #@! TD*
D22*
G04 #@! TO.P,C32,1*
G04 #@! TO.N,/TIM2_CH2*
X90297000Y-107188000D03*
G04 #@! TO.P,C32,2*
G04 #@! TO.N,Net-(C32-Pad2)*
X88222000Y-107188000D03*
G04 #@! TD*
D33*
G04 #@! TO.P,C36,1*
G04 #@! TO.N,VBUS*
X56675000Y-64897000D03*
G04 #@! TO.P,C36,2*
G04 #@! TO.N,GND*
X51275000Y-64897000D03*
G04 #@! TD*
D34*
G04 #@! TO.P,C4,1*
G04 #@! TO.N,GND*
X58801000Y-81576241D03*
G04 #@! TO.P,C4,2*
G04 #@! TO.N,/USB_CC1*
X58801000Y-83301241D03*
G04 #@! TD*
D35*
G04 #@! TO.P,R25,1*
G04 #@! TO.N,Net-(C27-Pad2)*
X86365500Y-105156000D03*
G04 #@! TO.P,R25,2*
G04 #@! TO.N,/TIM2_CH1*
X84365500Y-105156000D03*
G04 #@! TD*
D36*
G04 #@! TO.P,RV1,1,1_1*
G04 #@! TO.N,+3.3V*
X76073000Y-132461000D03*
G04 #@! TO.P,RV1,2,2_2*
G04 #@! TO.N,/POT*
X78573000Y-132461000D03*
G04 #@! TO.P,RV1,3,3_3*
G04 #@! TO.N,GND*
X81073000Y-132461000D03*
D37*
G04 #@! TO.P,RV1,MP,MP_MP*
G04 #@! TO.N,unconnected-(RV1-PadMP)*
X82973000Y-139461000D03*
X74173000Y-139461000D03*
G04 #@! TD*
D38*
G04 #@! TO.P,D2,1,K_1*
G04 #@! TO.N,VBUS*
X56562000Y-115189000D03*
G04 #@! TO.P,D2,2,A_2*
G04 #@! TO.N,Net-(D2-A)*
X51562000Y-115189000D03*
G04 #@! TD*
D17*
G04 #@! TO.P,TP9,1,1_1*
G04 #@! TO.N,/PHOTO_OUT*
X98044000Y-106660183D03*
G04 #@! TD*
D39*
G04 #@! TO.P,D7,1,K_1*
G04 #@! TO.N,/MOTOR+*
X73836000Y-68540000D03*
G04 #@! TO.P,D7,2,A_2*
G04 #@! TO.N,/MOTOR-*
X73836000Y-63540000D03*
G04 #@! TD*
D24*
G04 #@! TO.P,R21,1*
G04 #@! TO.N,+1.65V*
X84916000Y-66376000D03*
G04 #@! TO.P,R21,2*
G04 #@! TO.N,Net-(U5B-+)*
X86741000Y-66376000D03*
G04 #@! TD*
D22*
G04 #@! TO.P,C6,1*
G04 #@! TO.N,Net-(U5A-+)*
X86762500Y-72980000D03*
G04 #@! TO.P,C6,2*
G04 #@! TO.N,+1.65V*
X84687500Y-72980000D03*
G04 #@! TD*
D40*
G04 #@! TO.P,U7,1,VBAT_1*
G04 #@! TO.N,+3.3V*
X90816965Y-122638000D03*
G04 #@! TO.P,U7,2,PC13_2*
G04 #@! TO.N,unconnected-(U7-PC13-Pad2)*
X90816965Y-122138000D03*
G04 #@! TO.P,U7,3,PC14_3*
G04 #@! TO.N,/VOUT_EN*
X90816965Y-121638000D03*
G04 #@! TO.P,U7,4,PC15_4*
G04 #@! TO.N,unconnected-(U7-PC15-Pad4)*
X90816965Y-121138000D03*
G04 #@! TO.P,U7,5,PF0_5*
G04 #@! TO.N,/I2C2_SDA*
X90816965Y-120638000D03*
G04 #@! TO.P,U7,6,PF1_6*
G04 #@! TO.N,unconnected-(U7-PF1-Pad6)*
X90816965Y-120138000D03*
G04 #@! TO.P,U7,7,PG10_7*
G04 #@! TO.N,/~{RST}*
X90816965Y-119638000D03*
G04 #@! TO.P,U7,8,PA0_8*
G04 #@! TO.N,/MOTOR+_SENSE*
X90816965Y-119138000D03*
G04 #@! TO.P,U7,9,PA1_9*
G04 #@! TO.N,/MOTOR-_SENSE*
X90816965Y-118638000D03*
G04 #@! TO.P,U7,10,PA2_10*
G04 #@! TO.N,/LPUART1_TX*
X90816965Y-118138000D03*
G04 #@! TO.P,U7,11,PA3_11*
G04 #@! TO.N,/LPUART1_RX*
X90816965Y-117638000D03*
G04 #@! TO.P,U7,12,PA4_12*
G04 #@! TO.N,/EN_PHOTO*
X90816965Y-117138000D03*
D41*
G04 #@! TO.P,U7,13,PA5_13*
G04 #@! TO.N,/TIM2_CH1*
X89404465Y-115725500D03*
G04 #@! TO.P,U7,14,PA6_14*
G04 #@! TO.N,unconnected-(U7-PA6-Pad14)*
X88904465Y-115725500D03*
G04 #@! TO.P,U7,15,PA7_15*
G04 #@! TO.N,unconnected-(U7-PA7-Pad15)*
X88404465Y-115725500D03*
G04 #@! TO.P,U7,16,PB0_16*
G04 #@! TO.N,/TIM1_CH2N*
X87904465Y-115725500D03*
G04 #@! TO.P,U7,17,PB1_17*
G04 #@! TO.N,unconnected-(U7-PB1-Pad17)*
X87404465Y-115725500D03*
G04 #@! TO.P,U7,18,PB2_18*
G04 #@! TO.N,unconnected-(U7-PB2-Pad18)*
X86904465Y-115725500D03*
G04 #@! TO.P,U7,19,VSSA_19*
G04 #@! TO.N,GND*
X86404465Y-115725500D03*
G04 #@! TO.P,U7,20,VREF+_20*
G04 #@! TO.N,Net-(U7-VREF+)*
X85904465Y-115725500D03*
G04 #@! TO.P,U7,21,VDDA_21*
G04 #@! TO.N,+3.3V*
X85404465Y-115725500D03*
G04 #@! TO.P,U7,22,PB10_22*
G04 #@! TO.N,unconnected-(U7-PB10-Pad22)*
X84904465Y-115725500D03*
G04 #@! TO.P,U7,23,VSS_23*
G04 #@! TO.N,GND*
X84404465Y-115725500D03*
G04 #@! TO.P,U7,24,VDD_24*
G04 #@! TO.N,+3.3V*
X83904465Y-115725500D03*
D40*
G04 #@! TO.P,U7,25,PB11_25*
G04 #@! TO.N,/IPROPI*
X82491965Y-117138000D03*
G04 #@! TO.P,U7,26,PB12_26*
G04 #@! TO.N,/VBUS_SENSE*
X82491965Y-117638000D03*
G04 #@! TO.P,U7,27,PB13_27*
G04 #@! TO.N,unconnected-(U7-PB13-Pad27)*
X82491965Y-118138000D03*
G04 #@! TO.P,U7,28,PB14_28*
G04 #@! TO.N,/POT*
X82491965Y-118638000D03*
G04 #@! TO.P,U7,29,PB15_29*
G04 #@! TO.N,unconnected-(U7-PB15-Pad29)*
X82491965Y-119138000D03*
G04 #@! TO.P,U7,30,PA8_30*
G04 #@! TO.N,/TIM1_CH1*
X82491965Y-119638000D03*
G04 #@! TO.P,U7,31,PA9_31*
G04 #@! TO.N,/I2C2_SCL*
X82491965Y-120138000D03*
G04 #@! TO.P,U7,32,PA10_32*
G04 #@! TO.N,unconnected-(U7-PA10-Pad32)*
X82491965Y-120638000D03*
G04 #@! TO.P,U7,33,PA11_33*
G04 #@! TO.N,/USB_D-*
X82491965Y-121138000D03*
G04 #@! TO.P,U7,34,PA12_34*
G04 #@! TO.N,/USB_D+*
X82491965Y-121638000D03*
G04 #@! TO.P,U7,35,VSS_35*
G04 #@! TO.N,GND*
X82491965Y-122138000D03*
G04 #@! TO.P,U7,36,VDD_36*
G04 #@! TO.N,+3.3V*
X82491965Y-122638000D03*
D41*
G04 #@! TO.P,U7,37,PA13_37*
G04 #@! TO.N,/SWDIO*
X83904465Y-124050500D03*
G04 #@! TO.P,U7,38,PA14_38*
G04 #@! TO.N,/SWCLK*
X84404465Y-124050500D03*
G04 #@! TO.P,U7,39,PA15_39*
G04 #@! TO.N,/BUTTON1*
X84904465Y-124050500D03*
G04 #@! TO.P,U7,40,PB3_40*
G04 #@! TO.N,/TIM2_CH2*
X85404465Y-124050500D03*
G04 #@! TO.P,U7,41,PB4_41*
G04 #@! TO.N,/USB_CC2*
X85904465Y-124050500D03*
G04 #@! TO.P,U7,42,PB5_42*
G04 #@! TO.N,unconnected-(U7-PB5-Pad42)*
X86404465Y-124050500D03*
G04 #@! TO.P,U7,43,PB6_43*
G04 #@! TO.N,/USB_CC1*
X86904465Y-124050500D03*
G04 #@! TO.P,U7,44,PB7_44*
G04 #@! TO.N,unconnected-(U7-PB7-Pad44)*
X87404465Y-124050500D03*
G04 #@! TO.P,U7,45,PB8_45*
G04 #@! TO.N,unconnected-(U7-PB8-Pad45)*
X87904465Y-124050500D03*
G04 #@! TO.P,U7,46,PB9_46*
G04 #@! TO.N,unconnected-(U7-PB9-Pad46)*
X88404465Y-124050500D03*
G04 #@! TO.P,U7,47,VSS_47*
G04 #@! TO.N,GND*
X88904465Y-124050500D03*
G04 #@! TO.P,U7,48,VDD_48*
G04 #@! TO.N,+3.3V*
X89404465Y-124050500D03*
G04 #@! TD*
D42*
G04 #@! TO.P,C2,1*
G04 #@! TO.N,GND*
X62342250Y-112776000D03*
G04 #@! TO.P,C2,2*
G04 #@! TO.N,VBUS*
X60792250Y-112776000D03*
G04 #@! TD*
D43*
G04 #@! TO.P,C22,1*
G04 #@! TO.N,GND*
X88420000Y-125603000D03*
G04 #@! TO.P,C22,2*
G04 #@! TO.N,+3.3V*
X89380000Y-125603000D03*
G04 #@! TD*
D11*
G04 #@! TO.P,C31,1*
G04 #@! TO.N,VBUS*
X70076000Y-67881000D03*
G04 #@! TO.P,C31,2*
G04 #@! TO.N,GND*
X69116000Y-67881000D03*
G04 #@! TD*
D44*
G04 #@! TO.P,L1,1,1_1*
G04 #@! TO.N,Net-(U1-SW)*
X67155250Y-118236000D03*
G04 #@! TO.P,L1,2,2_2*
G04 #@! TO.N,+3.3V*
X67155250Y-114936000D03*
G04 #@! TD*
D45*
G04 #@! TO.P,C1,1*
G04 #@! TO.N,VBUS*
X60275750Y-110998000D03*
G04 #@! TO.P,C1,2*
G04 #@! TO.N,GND*
X62350750Y-110998000D03*
G04 #@! TD*
D24*
G04 #@! TO.P,R28,1*
G04 #@! TO.N,Net-(U10-+)*
X124567009Y-129413000D03*
G04 #@! TO.P,R28,2*
G04 #@! TO.N,+3.3V*
X126392009Y-129413000D03*
G04 #@! TD*
D46*
G04 #@! TO.P,L2,1,1_1*
G04 #@! TO.N,Net-(U1-SW)*
X67467526Y-117781820D03*
G04 #@! TO.P,L2,2,2_2*
G04 #@! TO.N,+3.3V*
X67467526Y-115381820D03*
G04 #@! TD*
D47*
G04 #@! TO.P,U3,1,IN_1*
G04 #@! TO.N,+3.3V*
X86294000Y-60285500D03*
G04 #@! TO.P,U3,2,GND_2*
G04 #@! TO.N,GND*
X85344000Y-60285500D03*
G04 #@! TO.P,U3,3,EN_3*
G04 #@! TO.N,+3.3V*
X84394000Y-60285500D03*
G04 #@! TO.P,U3,4,ADJ_4*
G04 #@! TO.N,Net-(U3-ADJ)*
X84394000Y-62560500D03*
G04 #@! TO.P,U3,5,OUT_5*
G04 #@! TO.N,+1.65V*
X86294000Y-62560500D03*
G04 #@! TD*
D38*
G04 #@! TO.P,D5,1,K_1*
G04 #@! TO.N,VBUS*
X56562000Y-111125000D03*
G04 #@! TO.P,D5,2,A_2*
G04 #@! TO.N,Net-(D5-A)*
X51562000Y-111125000D03*
G04 #@! TD*
D31*
G04 #@! TO.P,C12,1*
G04 #@! TO.N,GND*
X88138000Y-60385500D03*
G04 #@! TO.P,C12,2*
G04 #@! TO.N,+1.65V*
X88138000Y-62460500D03*
G04 #@! TD*
D48*
G04 #@! TO.P,R8,1*
G04 #@! TO.N,GND*
X57912000Y-85598000D03*
G04 #@! TO.P,R8,2*
G04 #@! TO.N,/USB_CC2*
X58932000Y-85598000D03*
G04 #@! TD*
D32*
G04 #@! TO.P,R20,1*
G04 #@! TO.N,Net-(U5B-+)*
X86764500Y-68662000D03*
G04 #@! TO.P,R20,2*
G04 #@! TO.N,Net-(R20-Pad2)*
X84939500Y-68662000D03*
G04 #@! TD*
D49*
G04 #@! TO.P,J7,1,Pin_1_1*
G04 #@! TO.N,GND*
X103116945Y-143256000D03*
D50*
G04 #@! TO.P,J7,2,Pin_2_2*
G04 #@! TO.N,+3.3V*
X103116945Y-140716000D03*
G04 #@! TO.P,J7,3,Pin_3_3*
G04 #@! TO.N,/I2C2_SCL*
X103116945Y-138176000D03*
G04 #@! TO.P,J7,4,Pin_4_4*
G04 #@! TO.N,/I2C2_SDA*
X103116945Y-135636000D03*
G04 #@! TD*
D22*
G04 #@! TO.P,C9,1*
G04 #@! TO.N,GND*
X88159500Y-58375000D03*
G04 #@! TO.P,C9,2*
G04 #@! TO.N,+3.3V*
X86084500Y-58375000D03*
G04 #@! TD*
D51*
G04 #@! TO.P,J6,1,Pin_1_1*
G04 #@! TO.N,Net-(D5-A)*
X54570500Y-104648000D03*
D52*
G04 #@! TO.P,J6,2,Pin_2_2*
G04 #@! TO.N,GND*
X54570500Y-99568000D03*
G04 #@! TD*
D11*
G04 #@! TO.P,C25,1*
G04 #@! TO.N,GND*
X80236000Y-130556000D03*
G04 #@! TO.P,C25,2*
G04 #@! TO.N,/POT*
X79276000Y-130556000D03*
G04 #@! TD*
D53*
G04 #@! TO.P,U9,1,IPROPI_1*
G04 #@! TO.N,/IPROPI*
X64212000Y-62738000D03*
G04 #@! TO.P,U9,2,IN2_2*
G04 #@! TO.N,/TIM1_CH2N*
X64212000Y-64008000D03*
G04 #@! TO.P,U9,3,IN1_3*
G04 #@! TO.N,/TIM1_CH1*
X64212000Y-65278000D03*
G04 #@! TO.P,U9,4,VREF_4*
G04 #@! TO.N,+3.3V*
X64212000Y-66548000D03*
G04 #@! TO.P,U9,5,VM_5*
G04 #@! TO.N,VBUS*
X70062000Y-66548000D03*
G04 #@! TO.P,U9,6,OUT1_6*
G04 #@! TO.N,/MOTOR+*
X70062000Y-65278000D03*
G04 #@! TO.P,U9,7,GND_7*
G04 #@! TO.N,GND*
X70062000Y-64008000D03*
G04 #@! TO.P,U9,8,OUT2_8*
G04 #@! TO.N,/MOTOR-*
X70062000Y-62738000D03*
D54*
G04 #@! TO.P,U9,9,GND_9*
G04 #@! TO.N,GND*
X66487000Y-63343000D03*
X66487000Y-64643000D03*
X66487000Y-65943000D03*
D55*
X67137000Y-64643000D03*
D54*
X67787000Y-63343000D03*
X67787000Y-64643000D03*
X67787000Y-65943000D03*
G04 #@! TD*
D56*
G04 #@! TO.P,NT1,1,1_1*
G04 #@! TO.N,/TIM2_CH1*
X82423000Y-107156000D03*
G04 #@! TO.P,NT1,2,2_2*
G04 #@! TO.N,/HALL_A*
X82423000Y-105156000D03*
G04 #@! TD*
D57*
G04 #@! TO.P,R2,1*
G04 #@! TO.N,GND*
X64552250Y-110998000D03*
G04 #@! TO.P,R2,2*
G04 #@! TO.N,Net-(U1-FB)*
X66202250Y-110998000D03*
G04 #@! TD*
D13*
G04 #@! TO.P,TP17,1,1_1*
G04 #@! TO.N,GND*
X103467000Y-71960000D03*
G04 #@! TD*
D58*
G04 #@! TO.P,R15,1*
G04 #@! TO.N,GND*
X57171500Y-120139000D03*
G04 #@! TO.P,R15,2*
G04 #@! TO.N,/VBUS_SENSE*
X58996500Y-120139000D03*
G04 #@! TD*
D59*
G04 #@! TO.P,U1,1,CB_1*
G04 #@! TO.N,Net-(U1-CB)*
X63466750Y-116266000D03*
G04 #@! TO.P,U1,2,GND_2*
G04 #@! TO.N,GND*
X63466750Y-115316000D03*
G04 #@! TO.P,U1,3,FB_3*
G04 #@! TO.N,Net-(U1-FB)*
X63466750Y-114366000D03*
G04 #@! TO.P,U1,4,EN_4*
G04 #@! TO.N,VBUS*
X61191750Y-114366000D03*
G04 #@! TO.P,U1,5,VIN_5*
X61191750Y-115316000D03*
G04 #@! TO.P,U1,6,SW_6*
G04 #@! TO.N,Net-(U1-SW)*
X61191750Y-116266000D03*
G04 #@! TD*
D60*
G04 #@! TO.P,R1,1*
G04 #@! TO.N,Net-(U1-FB)*
X67917250Y-111189000D03*
G04 #@! TO.P,R1,2*
G04 #@! TO.N,+3.3V*
X67917250Y-112839000D03*
G04 #@! TD*
D61*
G04 #@! TO.P,C3,1*
G04 #@! TO.N,Net-(U1-SW)*
X61554250Y-117840000D03*
G04 #@! TO.P,C3,2*
G04 #@! TO.N,Net-(U1-CB)*
X63104250Y-117840000D03*
G04 #@! TD*
D62*
G04 #@! TO.P,U2,1,IN_1*
G04 #@! TO.N,VBUS*
X54356000Y-55377000D03*
G04 #@! TO.P,U2,2,GND_2*
G04 #@! TO.N,GND*
X54356000Y-56327000D03*
G04 #@! TO.P,U2,3,EN_3*
G04 #@! TO.N,VBUS*
X54356000Y-57277000D03*
G04 #@! TO.P,U2,4,ADJ_4*
G04 #@! TO.N,Net-(U2-ADJ)*
X56631000Y-57277000D03*
G04 #@! TO.P,U2,5,OUT_5*
G04 #@! TO.N,+5.0V*
X56631000Y-55377000D03*
G04 #@! TD*
D12*
G04 #@! TO.P,C24,1*
G04 #@! TO.N,GND*
X59182000Y-136977000D03*
G04 #@! TO.P,C24,2*
G04 #@! TO.N,/~{RST}*
X59182000Y-136017000D03*
G04 #@! TD*
D63*
G04 #@! TO.P,C7,1*
G04 #@! TO.N,GND*
X64427250Y-112776000D03*
G04 #@! TO.P,C7,2*
G04 #@! TO.N,+3.3V*
X66327250Y-112776000D03*
G04 #@! TD*
D45*
G04 #@! TO.P,C11,1*
G04 #@! TO.N,GND*
X54429000Y-53527000D03*
G04 #@! TO.P,C11,2*
G04 #@! TO.N,+5.0V*
X56504000Y-53527000D03*
G04 #@! TD*
D22*
G04 #@! TO.P,C15,1*
G04 #@! TO.N,Net-(U5B-+)*
X83206500Y-66376000D03*
G04 #@! TO.P,C15,2*
G04 #@! TO.N,+1.65V*
X81131500Y-66376000D03*
G04 #@! TD*
D64*
G04 #@! TO.P,U8,A*
G04 #@! TO.N,Net-(R23-Pad1)*
X142875000Y-126383000D03*
D65*
G04 #@! TO.P,U8,C*
G04 #@! TO.N,/PHOTO_OUT*
X145415000Y-115933000D03*
D64*
G04 #@! TO.P,U8,E*
G04 #@! TO.N,GND*
X142875000Y-115933000D03*
G04 #@! TO.P,U8,K*
G04 #@! TO.N,Net-(Q1-D)*
X145415000Y-126383000D03*
G04 #@! TD*
D66*
G04 #@! TO.P,C37,1*
G04 #@! TO.N,VBUS*
X63881000Y-72411500D03*
G04 #@! TO.P,C37,2*
G04 #@! TO.N,GND*
X63881000Y-70336500D03*
G04 #@! TD*
D49*
G04 #@! TO.P,J8,1,Pin_1_1*
G04 #@! TO.N,/MOTOR+*
X77777000Y-67409000D03*
D50*
G04 #@! TO.P,J8,2,Pin_2_2*
G04 #@! TO.N,/MOTOR-*
X77777000Y-64869000D03*
G04 #@! TO.P,J8,3,Pin_3_3*
G04 #@! TO.N,GND*
X77777000Y-62329000D03*
G04 #@! TO.P,J8,4,Pin_4_4*
G04 #@! TO.N,+5.0V*
X77777000Y-59789000D03*
G04 #@! TO.P,J8,5,Pin_5_5*
G04 #@! TO.N,/HALL_A*
X77777000Y-57249000D03*
G04 #@! TO.P,J8,6,Pin_6_6*
G04 #@! TO.N,/HALL_B*
X77777000Y-54709000D03*
G04 #@! TD*
D67*
G04 #@! TO.P,U5,1*
G04 #@! TO.N,/MOTOR-_SENSE*
X88874500Y-72387000D03*
G04 #@! TO.P,U5,2,-_2*
X90144500Y-72387000D03*
G04 #@! TO.P,U5,3,+_3*
G04 #@! TO.N,Net-(U5A-+)*
X91414500Y-72387000D03*
G04 #@! TO.P,U5,4,V-_4*
G04 #@! TO.N,GND*
X92684500Y-72387000D03*
G04 #@! TO.P,U5,5,+_5*
G04 #@! TO.N,Net-(U5B-+)*
X92684500Y-67437000D03*
G04 #@! TO.P,U5,6,-_6*
G04 #@! TO.N,/MOTOR+_SENSE*
X91414500Y-67437000D03*
G04 #@! TO.P,U5,7*
X90144500Y-67437000D03*
G04 #@! TO.P,U5,8,V+_8*
G04 #@! TO.N,+3.3V*
X88874500Y-67437000D03*
G04 #@! TD*
D62*
G04 #@! TO.P,U10,1*
G04 #@! TO.N,/PHOTO_OUT_ST*
X123030009Y-125603000D03*
G04 #@! TO.P,U10,2,V-_2*
G04 #@! TO.N,GND*
X123030009Y-126553000D03*
G04 #@! TO.P,U10,3,+_3*
G04 #@! TO.N,Net-(U10-+)*
X123030009Y-127503000D03*
G04 #@! TO.P,U10,4,-_4*
G04 #@! TO.N,/PHOTO_OUT*
X125305009Y-127503000D03*
G04 #@! TO.P,U10,5,V+_5*
G04 #@! TO.N,+3.3V*
X125305009Y-125603000D03*
G04 #@! TD*
D68*
G04 #@! TO.P,J2,A1,GND_A1*
G04 #@! TO.N,GND*
X55098000Y-119860000D03*
G04 #@! TO.P,J2,A4,VBUS_A4*
G04 #@! TO.N,Net-(D2-A)*
X55098000Y-120660000D03*
D69*
G04 #@! TO.P,J2,A5,CC1_A5*
G04 #@! TO.N,unconnected-(J2-CC1-PadA5)*
X55098000Y-121810000D03*
G04 #@! TO.P,J2,A6,D+_A6*
G04 #@! TO.N,/USB_D+*
X55098000Y-122810000D03*
G04 #@! TO.P,J2,A7,D-_A7*
G04 #@! TO.N,/USB_D-*
X55098000Y-123310000D03*
G04 #@! TO.P,J2,A8,SBU1_A8*
G04 #@! TO.N,unconnected-(J2-SBU1-PadA8)*
X55098000Y-124310000D03*
D68*
G04 #@! TO.P,J2,A9,VBUS_A9*
G04 #@! TO.N,Net-(D2-A)*
X55098000Y-125460000D03*
G04 #@! TO.P,J2,A12,GND_A12*
G04 #@! TO.N,GND*
X55098000Y-126260000D03*
G04 #@! TO.P,J2,B1,GND_B1*
X55098000Y-126260000D03*
G04 #@! TO.P,J2,B4,VBUS_B4*
G04 #@! TO.N,Net-(D2-A)*
X55098000Y-125460000D03*
D69*
G04 #@! TO.P,J2,B5,CC2_B5*
G04 #@! TO.N,unconnected-(J2-CC2-PadB5)*
X55098000Y-124810000D03*
G04 #@! TO.P,J2,B6,D+_B6*
G04 #@! TO.N,/USB_D+*
X55098000Y-123810000D03*
G04 #@! TO.P,J2,B7,D-_B7*
G04 #@! TO.N,/USB_D-*
X55098000Y-122310000D03*
G04 #@! TO.P,J2,B8,SBU2_B8*
G04 #@! TO.N,unconnected-(J2-SBU2-PadB8)*
X55098000Y-121310000D03*
D68*
G04 #@! TO.P,J2,B9,VBUS_B9*
G04 #@! TO.N,Net-(D2-A)*
X55098000Y-120660000D03*
G04 #@! TO.P,J2,B12,GND_B12*
G04 #@! TO.N,GND*
X55098000Y-119860000D03*
D70*
G04 #@! TO.P,J2,S1,SHIELD_S1*
X54458000Y-118740000D03*
D71*
X50278000Y-118740000D03*
D70*
X54458000Y-127380000D03*
D71*
X50278000Y-127380000D03*
G04 #@! TD*
D33*
G04 #@! TO.P,C28,1*
G04 #@! TO.N,VBUS*
X56675000Y-72517000D03*
G04 #@! TO.P,C28,2*
G04 #@! TO.N,GND*
X51275000Y-72517000D03*
G04 #@! TD*
D32*
G04 #@! TO.P,R23,1*
G04 #@! TO.N,Net-(R23-Pad1)*
X130964009Y-124079000D03*
G04 #@! TO.P,R23,2*
G04 #@! TO.N,+3.3V*
X129139009Y-124079000D03*
G04 #@! TD*
D27*
G04 #@! TO.P,TP5,1,1_1*
G04 #@! TO.N,GND*
X164084000Y-141478000D03*
G04 #@! TD*
D72*
G04 #@! TO.P,U6,1,GND_1*
G04 #@! TO.N,GND*
X103124000Y-143256000D03*
D50*
G04 #@! TO.P,U6,2,VCC_2*
G04 #@! TO.N,+3.3V*
X103124000Y-140716000D03*
G04 #@! TO.P,U6,3,SCL_3*
G04 #@! TO.N,/I2C2_SCL*
X103124000Y-138176000D03*
G04 #@! TO.P,U6,4,SDA_4*
G04 #@! TO.N,/I2C2_SDA*
X103124000Y-135636000D03*
G04 #@! TD*
D43*
G04 #@! TO.P,C19,1*
G04 #@! TO.N,GND*
X90452000Y-124206000D03*
G04 #@! TO.P,C19,2*
G04 #@! TO.N,+3.3V*
X91412000Y-124206000D03*
G04 #@! TD*
D45*
G04 #@! TO.P,C27,1*
G04 #@! TO.N,/TIM2_CH1*
X84328000Y-107188000D03*
G04 #@! TO.P,C27,2*
G04 #@! TO.N,Net-(C27-Pad2)*
X86403000Y-107188000D03*
G04 #@! TD*
D24*
G04 #@! TO.P,R27,1*
G04 #@! TO.N,GND*
X59793500Y-62738000D03*
G04 #@! TO.P,R27,2*
G04 #@! TO.N,/IPROPI*
X61618500Y-62738000D03*
G04 #@! TD*
D17*
G04 #@! TO.P,TP10,1,1_1*
G04 #@! TO.N,/TIM1_CH1*
X67818000Y-77216000D03*
G04 #@! TD*
D73*
G04 #@! TO.P,R13,1*
G04 #@! TO.N,GND*
X82677000Y-57756000D03*
G04 #@! TO.P,R13,2*
G04 #@! TO.N,Net-(U3-ADJ)*
X82677000Y-59756000D03*
G04 #@! TD*
D29*
G04 #@! TO.P,R29,1*
G04 #@! TO.N,GND*
X120907509Y-130960500D03*
G04 #@! TO.P,R29,2*
G04 #@! TO.N,Net-(U10-+)*
X120907509Y-129135500D03*
G04 #@! TD*
D17*
G04 #@! TO.P,TP2,1,1_1*
G04 #@! TO.N,/MOTOR-*
X86360000Y-89027000D03*
G04 #@! TD*
D43*
G04 #@! TO.P,C35,1*
G04 #@! TO.N,GND*
X123221509Y-124079000D03*
G04 #@! TO.P,C35,2*
G04 #@! TO.N,+3.3V*
X124181509Y-124079000D03*
G04 #@! TD*
D24*
G04 #@! TO.P,R24,1*
G04 #@! TO.N,/PHOTO_OUT*
X127361009Y-127381000D03*
G04 #@! TO.P,R24,2*
G04 #@! TO.N,+3.3V*
X129186009Y-127381000D03*
G04 #@! TD*
D74*
G04 #@! TO.P,J3,1,NC_1*
G04 #@! TO.N,unconnected-(J3-NC-Pad1)*
X88646000Y-140843000D03*
D75*
G04 #@! TO.P,J3,2,NC_2*
G04 #@! TO.N,unconnected-(J3-NC-Pad2)*
X88646000Y-139573000D03*
G04 #@! TO.P,J3,3,VCC_3*
G04 #@! TO.N,+3.3V*
X89916000Y-140843000D03*
G04 #@! TO.P,J3,4,JTMS/SWDIO_4*
G04 #@! TO.N,/SWDIO*
X89916000Y-139573000D03*
G04 #@! TO.P,J3,5,GND_5*
G04 #@! TO.N,GND*
X91186000Y-140843000D03*
G04 #@! TO.P,J3,6,JCLK/SWCLK_6*
G04 #@! TO.N,/SWCLK*
X91186000Y-139573000D03*
G04 #@! TO.P,J3,7,GND_7*
G04 #@! TO.N,GND*
X92456000Y-140843000D03*
G04 #@! TO.P,J3,8,JTDO/SWO_8*
G04 #@! TO.N,unconnected-(J3-JTDO{slash}SWO-Pad8)*
X92456000Y-139573000D03*
G04 #@! TO.P,J3,9,JRCLK/NC_9*
G04 #@! TO.N,unconnected-(J3-JRCLK{slash}NC-Pad9)*
X93726000Y-140843000D03*
G04 #@! TO.P,J3,10,JTDI/NC_10*
G04 #@! TO.N,unconnected-(J3-JTDI{slash}NC-Pad10)*
X93726000Y-139573000D03*
G04 #@! TO.P,J3,11,GNDDetect_11*
G04 #@! TO.N,GND*
X94996000Y-140843000D03*
G04 #@! TO.P,J3,12,~{RST}_12*
G04 #@! TO.N,/~{RST}*
X94996000Y-139573000D03*
G04 #@! TO.P,J3,13,VCP_RX_13*
G04 #@! TO.N,/LPUART1_RX*
X96266000Y-140843000D03*
G04 #@! TO.P,J3,14,VCP_TX_14*
G04 #@! TO.N,/LPUART1_TX*
X96266000Y-139573000D03*
G04 #@! TD*
D68*
G04 #@! TO.P,J1,A1,GND_A1*
G04 #@! TO.N,GND*
X55245000Y-82037098D03*
G04 #@! TO.P,J1,A4,VBUS_A4*
G04 #@! TO.N,VBUS*
X55245000Y-82837098D03*
D69*
G04 #@! TO.P,J1,A5,CC1_A5*
G04 #@! TO.N,/USB_CC1*
X55245000Y-83987098D03*
G04 #@! TO.P,J1,A6,D+_A6*
G04 #@! TO.N,unconnected-(J1-D+-PadA6)*
X55245000Y-84987098D03*
G04 #@! TO.P,J1,A7,D-_A7*
G04 #@! TO.N,unconnected-(J1-D--PadA7)*
X55245000Y-85487098D03*
G04 #@! TO.P,J1,A8,SBU1_A8*
G04 #@! TO.N,unconnected-(J1-SBU1-PadA8)*
X55245000Y-86487098D03*
D68*
G04 #@! TO.P,J1,A9,VBUS_A9*
G04 #@! TO.N,VBUS*
X55245000Y-87637098D03*
G04 #@! TO.P,J1,A12,GND_A12*
G04 #@! TO.N,GND*
X55245000Y-88437098D03*
G04 #@! TO.P,J1,B1,GND_B1*
X55245000Y-88437098D03*
G04 #@! TO.P,J1,B4,VBUS_B4*
G04 #@! TO.N,VBUS*
X55245000Y-87637098D03*
D69*
G04 #@! TO.P,J1,B5,CC2_B5*
G04 #@! TO.N,/USB_CC2*
X55245000Y-86987098D03*
G04 #@! TO.P,J1,B6,D+_B6*
G04 #@! TO.N,unconnected-(J1-D+-PadB6)*
X55245000Y-85987098D03*
G04 #@! TO.P,J1,B7,D-_B7*
G04 #@! TO.N,unconnected-(J1-D--PadB7)*
X55245000Y-84487098D03*
G04 #@! TO.P,J1,B8,SBU2_B8*
G04 #@! TO.N,unconnected-(J1-SBU2-PadB8)*
X55245000Y-83487098D03*
D68*
G04 #@! TO.P,J1,B9,VBUS_B9*
G04 #@! TO.N,VBUS*
X55245000Y-82837098D03*
G04 #@! TO.P,J1,B12,GND_B12*
G04 #@! TO.N,GND*
X55245000Y-82037098D03*
D70*
G04 #@! TO.P,J1,S1,SHIELD_S1*
X54605000Y-80917098D03*
D71*
X50425000Y-80917098D03*
D70*
X54605000Y-89557098D03*
D71*
X50425000Y-89557098D03*
G04 #@! TD*
D18*
G04 #@! TO.P,C38,1*
G04 #@! TO.N,GND*
X92964000Y-62931000D03*
G04 #@! TO.P,C38,2*
G04 #@! TO.N,+3.3V*
X92964000Y-64831000D03*
G04 #@! TD*
D12*
G04 #@! TO.P,C16,1*
G04 #@! TO.N,GND*
X100330000Y-141704000D03*
G04 #@! TO.P,C16,2*
G04 #@! TO.N,+3.3V*
X100330000Y-140744000D03*
G04 #@! TD*
D17*
G04 #@! TO.P,TP12,1,1_1*
G04 #@! TO.N,/PHOTO_OUT_ST*
X98044000Y-113284000D03*
G04 #@! TD*
D22*
G04 #@! TO.P,C30,1*
G04 #@! TO.N,VBUS*
X67839500Y-68389000D03*
G04 #@! TO.P,C30,2*
G04 #@! TO.N,GND*
X65764500Y-68389000D03*
G04 #@! TD*
D12*
G04 #@! TO.P,C17,1*
G04 #@! TO.N,Net-(U7-VREF+)*
X82804000Y-115542000D03*
G04 #@! TO.P,C17,2*
G04 #@! TO.N,GND*
X82804000Y-114582000D03*
G04 #@! TD*
D11*
G04 #@! TO.P,C10,1*
G04 #@! TO.N,/VBUS_SENSE*
X58060741Y-121409000D03*
G04 #@! TO.P,C10,2*
G04 #@! TO.N,GND*
X57100741Y-121409000D03*
G04 #@! TD*
D17*
G04 #@! TO.P,TP4,1,1_1*
G04 #@! TO.N,/MOTOR+_SENSE*
X86360000Y-100838000D03*
G04 #@! TD*
G04 #@! TO.P,TP1,1,1_1*
G04 #@! TO.N,/MOTOR+*
X86360000Y-83121500D03*
G04 #@! TD*
G04 #@! TO.P,TP8,1,1_1*
G04 #@! TO.N,/TIM1_CH2N*
X67818000Y-83121500D03*
G04 #@! TD*
D13*
G04 #@! TO.P,TP15,1,1_1*
G04 #@! TO.N,GND*
X103505000Y-58039000D03*
G04 #@! TD*
D18*
G04 #@! TO.P,C14,1*
G04 #@! TO.N,GND*
X90424000Y-57341750D03*
G04 #@! TO.P,C14,2*
G04 #@! TO.N,+1.65V*
X90424000Y-59241750D03*
G04 #@! TD*
D76*
G04 #@! TO.P,R12,1*
G04 #@! TO.N,Net-(U3-ADJ)*
X82677000Y-61399500D03*
G04 #@! TO.P,R12,2*
G04 #@! TO.N,+1.65V*
X82677000Y-63224500D03*
G04 #@! TD*
D57*
G04 #@! TO.P,R9,1*
G04 #@! TO.N,Net-(D6-A)*
X67346250Y-109474000D03*
G04 #@! TO.P,R9,2*
G04 #@! TO.N,+3.3V*
X68996250Y-109474000D03*
G04 #@! TD*
D77*
G04 #@! TO.P,SW1,1,1_1*
G04 #@! TO.N,GND*
X57277000Y-136671000D03*
X57277000Y-144631000D03*
G04 #@! TO.P,SW1,2,2_2*
G04 #@! TO.N,/~{RST}*
X52777000Y-136671000D03*
X52777000Y-144631000D03*
G04 #@! TD*
D35*
G04 #@! TO.P,R31,1*
G04 #@! TO.N,GND*
X90259500Y-109220000D03*
G04 #@! TO.P,R31,2*
G04 #@! TO.N,Net-(C32-Pad2)*
X88259500Y-109220000D03*
G04 #@! TD*
D32*
G04 #@! TO.P,R6,1*
G04 #@! TO.N,Net-(U5A-+)*
X86741000Y-70694000D03*
G04 #@! TO.P,R6,2*
G04 #@! TO.N,Net-(R4-Pad1)*
X84916000Y-70694000D03*
G04 #@! TD*
D11*
G04 #@! TO.P,C20,1*
G04 #@! TO.N,GND*
X84808000Y-114046000D03*
G04 #@! TO.P,C20,2*
G04 #@! TO.N,+3.3V*
X83848000Y-114046000D03*
G04 #@! TD*
D77*
G04 #@! TO.P,SW2,1,1_1*
G04 #@! TO.N,GND*
X67564000Y-136671000D03*
X67564000Y-144631000D03*
G04 #@! TO.P,SW2,2,2_2*
G04 #@! TO.N,/BUTTON1*
X63064000Y-136671000D03*
X63064000Y-144631000D03*
G04 #@! TD*
D13*
G04 #@! TO.P,TP16,1,1_1*
G04 #@! TO.N,GND*
X103505000Y-85090000D03*
G04 #@! TD*
D10*
G04 #@! TO.P,C33,1*
G04 #@! TO.N,+5.0V*
X80137000Y-60579000D03*
G04 #@! TO.P,C33,2*
G04 #@! TO.N,GND*
X80137000Y-61539000D03*
G04 #@! TD*
D48*
G04 #@! TO.P,R5,1*
G04 #@! TO.N,GND*
X57910000Y-84582000D03*
G04 #@! TO.P,R5,2*
G04 #@! TO.N,/USB_CC1*
X58930000Y-84582000D03*
G04 #@! TD*
D56*
G04 #@! TO.P,NT2,1,1_1*
G04 #@! TO.N,/TIM2_CH2*
X92270000Y-107172000D03*
G04 #@! TO.P,NT2,2,2_2*
G04 #@! TO.N,/HALL_B*
X92270000Y-105172000D03*
G04 #@! TD*
D11*
G04 #@! TO.P,C18,1*
G04 #@! TO.N,GND*
X89836500Y-65614000D03*
G04 #@! TO.P,C18,2*
G04 #@! TO.N,+3.3V*
X88876500Y-65614000D03*
G04 #@! TD*
D32*
G04 #@! TO.P,R3,1*
G04 #@! TO.N,Net-(R20-Pad2)*
X83312000Y-68662000D03*
G04 #@! TO.P,R3,2*
G04 #@! TO.N,/MOTOR+*
X81487000Y-68662000D03*
G04 #@! TD*
D78*
G04 #@! TO.P,D1,1,A1_1*
G04 #@! TO.N,VBUS*
X52197000Y-78105000D03*
G04 #@! TO.P,D1,2,A2_2*
G04 #@! TO.N,GND*
X56197000Y-78105000D03*
G04 #@! TD*
D10*
G04 #@! TO.P,C21,1*
G04 #@! TO.N,GND*
X80772000Y-122456000D03*
G04 #@! TO.P,C21,2*
G04 #@! TO.N,+3.3V*
X80772000Y-123416000D03*
G04 #@! TD*
D17*
G04 #@! TO.P,TP6,1,1_1*
G04 #@! TO.N,/IPROPI*
X67818000Y-89027000D03*
G04 #@! TD*
D79*
G04 #@! TO.N,GND*
X71628000Y-64008000D03*
X64579000Y-68389000D03*
X67137000Y-60960000D03*
X63500000Y-61595000D03*
X70612000Y-61595000D03*
D80*
X87630000Y-113030000D03*
X89408000Y-128651000D03*
D79*
X58896000Y-89629000D03*
X52324000Y-71120000D03*
D80*
X90725500Y-65614000D03*
D79*
X57023000Y-84582000D03*
D80*
X53080500Y-56666000D03*
D79*
X103505000Y-83312000D03*
X57394350Y-89631357D03*
D80*
X62329250Y-113792000D03*
D79*
X54610000Y-101346000D03*
D80*
X51429500Y-54507000D03*
D79*
X58039000Y-78105000D03*
X50038000Y-71120000D03*
D80*
X66040000Y-136652000D03*
X90452000Y-124968000D03*
D79*
X100965000Y-85090000D03*
D80*
X51683500Y-57912000D03*
X62329250Y-114808000D03*
D79*
X58801000Y-80645000D03*
D80*
X63345250Y-113284000D03*
X87122000Y-57486000D03*
X88138000Y-122682000D03*
D79*
X56327550Y-80919098D03*
X52324000Y-63525400D03*
X105982963Y-124430723D03*
X50038000Y-73914000D03*
X78994000Y-85090000D03*
X57372000Y-81028357D03*
D80*
X89027000Y-57486000D03*
X62329250Y-109728000D03*
X86995000Y-61401500D03*
X63599250Y-110998000D03*
D79*
X54610000Y-97790000D03*
D80*
X94295000Y-62931000D03*
D79*
X82550000Y-85090000D03*
D80*
X85302000Y-62947000D03*
X62329250Y-115824000D03*
D79*
X100965000Y-58039000D03*
D80*
X100330000Y-142494000D03*
D79*
X66802000Y-69405000D03*
X50038000Y-66319400D03*
D80*
X124167509Y-126553000D03*
X55345000Y-52602000D03*
X92684500Y-73869000D03*
D79*
X103505000Y-70231000D03*
X51816000Y-99568000D03*
D80*
X55493500Y-57851000D03*
D79*
X50419000Y-82296000D03*
D80*
X92964000Y-61849000D03*
X82103902Y-114808001D03*
X132906509Y-129667000D03*
X84808000Y-113284000D03*
X63345250Y-112268000D03*
D79*
X106045000Y-85090000D03*
D80*
X53207500Y-54507000D03*
D79*
X165989000Y-140462000D03*
X80772000Y-82550000D03*
D80*
X83947000Y-57740000D03*
X91545500Y-109220000D03*
X120907509Y-132080000D03*
D79*
X56134000Y-76454000D03*
X53594000Y-64922400D03*
D80*
X53334500Y-52602000D03*
X92684500Y-70948000D03*
X83905000Y-61423000D03*
X83185000Y-109220000D03*
D79*
X103505000Y-59817000D03*
D80*
X84963000Y-59137000D03*
D79*
X62611000Y-68453000D03*
D80*
X51429500Y-52602000D03*
D79*
X63881000Y-69088000D03*
X78994000Y-97790000D03*
X103505000Y-56261000D03*
D80*
X55620500Y-56327000D03*
D79*
X103505000Y-73787000D03*
D80*
X87503000Y-125603000D03*
D79*
X103442963Y-126208723D03*
D80*
X61214000Y-137795000D03*
D79*
X80772000Y-87630000D03*
X50038000Y-63525400D03*
X62611000Y-70358000D03*
D80*
X87122000Y-59264000D03*
D79*
X82423000Y-97790000D03*
X103505000Y-86868000D03*
X106045000Y-58039000D03*
X100902963Y-124430723D03*
D80*
X89027000Y-61401500D03*
D79*
X58674000Y-62738000D03*
X50419000Y-88138000D03*
D80*
X59182000Y-137795000D03*
D79*
X57023000Y-85598000D03*
X55819550Y-79649098D03*
X165989000Y-142494000D03*
D80*
X87630000Y-114046000D03*
X79908400Y-122428000D03*
D79*
X53594000Y-72517000D03*
X80772000Y-95250000D03*
D80*
X88904465Y-122682000D03*
D79*
X57150000Y-99568000D03*
X54610000Y-90678000D03*
X162433000Y-140462000D03*
X52324000Y-66319400D03*
D80*
X85302000Y-61550000D03*
X56890500Y-56327000D03*
X89027000Y-59391000D03*
X55345000Y-54634000D03*
D79*
X162306000Y-142494000D03*
X106045000Y-72009000D03*
X52324000Y-73914000D03*
X80772000Y-100330000D03*
D80*
X64615250Y-115316000D03*
X62329250Y-116840000D03*
X122431509Y-124079000D03*
D79*
X103442963Y-122652723D03*
X56479950Y-89631357D03*
X100965000Y-72009000D03*
D80*
G04 #@! TO.N,/USB_CC1*
X85979000Y-119227600D03*
X75692000Y-106934000D03*
X72390000Y-106934000D03*
X80264000Y-114808000D03*
G04 #@! TO.N,/VBUS_SENSE*
X75565000Y-118745000D03*
X78359000Y-118745000D03*
G04 #@! TO.N,VBUS*
X56483000Y-82798698D03*
X53533550Y-87015098D03*
X53025550Y-83205098D03*
X56483000Y-87637098D03*
G04 #@! TO.N,/MOTOR-_SENSE*
X95250000Y-116205000D03*
X95250000Y-96393000D03*
X95250000Y-119126000D03*
G04 #@! TO.N,+1.65V*
X87833200Y-67868800D03*
X87833200Y-70408800D03*
G04 #@! TO.N,+3.3V*
X77851000Y-112839000D03*
X86995000Y-77343000D03*
X77851000Y-108204000D03*
X62357000Y-73533000D03*
X86360000Y-126873000D03*
X85090000Y-117144800D03*
X77851000Y-103505000D03*
X86918800Y-118262400D03*
X62357000Y-71374000D03*
X82169000Y-126873000D03*
X92583000Y-77343000D03*
X72771000Y-112839000D03*
G04 #@! TO.N,/USB_CC2*
X80391000Y-116332000D03*
X85915500Y-120713500D03*
X72390000Y-108458000D03*
X75692000Y-108458000D03*
G04 #@! TO.N,/I2C2_SCL*
X85598000Y-125476000D03*
X98044000Y-130810000D03*
X83820000Y-121666000D03*
X94488000Y-130810000D03*
G04 #@! TO.N,/I2C2_SDA*
X99364800Y-131826000D03*
X94386400Y-129438400D03*
G04 #@! TO.N,/TIM2_CH2*
X91059000Y-103759000D03*
X90170000Y-102362000D03*
G04 #@! TO.N,/PHOTO_OUT_ST*
X98679000Y-118618000D03*
G04 #@! TO.N,/BUTTON1*
X85598000Y-132080000D03*
X69342000Y-134620000D03*
X85598000Y-135636000D03*
X71374000Y-134620000D03*
G04 #@! TO.N,/PHOTO_OUT*
X127381000Y-121412000D03*
X127384509Y-125095000D03*
G04 #@! TO.N,/MOTOR+*
X80264000Y-68662000D03*
G04 #@! TO.N,/~{RST}*
X85979000Y-137033000D03*
X92100400Y-137007600D03*
G04 #@! TO.N,/MOTOR+_SENSE*
X94107000Y-102489000D03*
X94107000Y-116205000D03*
X94107000Y-119761000D03*
G04 #@! TO.N,/TIM1_CH2N*
X75692000Y-105410000D03*
X59563000Y-70485000D03*
X59563000Y-74803000D03*
X73406000Y-105410000D03*
G04 #@! TO.N,/IPROPI*
X58166000Y-74041000D03*
X58166000Y-70866000D03*
G04 #@! TO.N,/TIM1_CH1*
X60833000Y-71120000D03*
X60833000Y-75946000D03*
D79*
G04 #@! TO.N,GND*
X70612000Y-59817000D03*
X67183000Y-59817000D03*
X63500000Y-59817000D03*
G04 #@! TD*
G04 #@! TO.N,VBUS*
D81*
X58326000Y-72390000D02*
X67839500Y-72390000D01*
X67839500Y-72390000D02*
X67839500Y-70421000D01*
D82*
X67839500Y-68389000D02*
X68284500Y-68834000D01*
X68284500Y-68834000D02*
X68961000Y-68834000D01*
G04 #@! TO.N,GND*
X69116000Y-67711000D02*
X67137000Y-65732000D01*
X66040000Y-68113500D02*
X66040000Y-65740000D01*
X67772000Y-64008000D02*
X67137000Y-64643000D01*
D83*
X70012000Y-64008000D02*
X71628000Y-64008000D01*
D82*
X69116000Y-67881000D02*
X69116000Y-67711000D01*
X64579000Y-68389000D02*
X65764500Y-68389000D01*
X66040000Y-65740000D02*
X67137000Y-64643000D01*
X67137000Y-65732000D02*
X67137000Y-64643000D01*
X65764500Y-68389000D02*
X66040000Y-68113500D01*
X70012000Y-64008000D02*
X67772000Y-64008000D01*
X67137000Y-64643000D02*
X67137000Y-60960000D01*
G04 #@! TO.N,+5.0V*
X56504000Y-53527000D02*
X56571000Y-53594000D01*
X56571000Y-53594000D02*
X71374000Y-53594000D01*
X71374000Y-53594000D02*
X77569000Y-59789000D01*
X77569000Y-59789000D02*
X77777000Y-59789000D01*
G04 #@! TO.N,Net-(U7-VREF+)*
D84*
X85904465Y-115725500D02*
X85904465Y-117549535D01*
X85904465Y-117549535D02*
X85471000Y-117983000D01*
X85471000Y-117983000D02*
X84709000Y-117983000D01*
X84709000Y-117983000D02*
X82804000Y-116078000D01*
X82804000Y-116078000D02*
X82804000Y-115542000D01*
G04 #@! TO.N,/TIM2_CH2*
X85404465Y-124050500D02*
X85404465Y-122615465D01*
X85404465Y-122615465D02*
X85217000Y-122428000D01*
X85217000Y-122428000D02*
X85217000Y-118999000D01*
X86969600Y-117246400D02*
X89255600Y-117246400D01*
X85217000Y-118999000D02*
X86969600Y-117246400D01*
X89255600Y-117246400D02*
X92270000Y-114232000D01*
X92270000Y-114232000D02*
X92270000Y-107172000D01*
G04 #@! TO.N,+3.3V*
X83848000Y-114046000D02*
X83848000Y-112748000D01*
X83848000Y-112748000D02*
X84074000Y-112522000D01*
X84074000Y-112522000D02*
X85372000Y-112522000D01*
X85372000Y-112522000D02*
X85880000Y-113030000D01*
D85*
X85880000Y-113030000D02*
X85880000Y-114046000D01*
G04 #@! TO.N,GND*
X86840000Y-113030000D02*
X87630000Y-113030000D01*
G04 #@! TO.N,/TIM1_CH2N*
D84*
X75692000Y-105410000D02*
X76327000Y-105410000D01*
X76327000Y-105410000D02*
X78994000Y-108077000D01*
X78994000Y-108077000D02*
X78994000Y-108712000D01*
X78994000Y-108712000D02*
X81788000Y-111506000D01*
X81788000Y-111506000D02*
X88265000Y-111506000D01*
X88265000Y-111506000D02*
X88646000Y-111887000D01*
X88646000Y-111887000D02*
X88646000Y-114173000D01*
X88646000Y-114173000D02*
X87904465Y-114914535D01*
X87904465Y-114914535D02*
X87904465Y-115725500D01*
G04 #@! TO.N,GND*
X87630000Y-114046000D02*
X86868000Y-114046000D01*
G04 #@! TO.N,/TIM2_CH1*
X89404465Y-115725500D02*
X89404465Y-111502465D01*
X89404465Y-111502465D02*
X88773000Y-110871000D01*
X88773000Y-110871000D02*
X82677000Y-110871000D01*
X82423000Y-110617000D02*
X82423000Y-107156000D01*
X82677000Y-110871000D02*
X82423000Y-110617000D01*
G04 #@! TO.N,+3.3V*
D82*
X89916000Y-126873000D02*
X90424000Y-126873000D01*
X90424000Y-126873000D02*
X91412000Y-125885000D01*
G04 #@! TO.N,GND*
X89408000Y-128651000D02*
X89408000Y-127861000D01*
X90452000Y-124968000D02*
X90452000Y-124206000D01*
G04 #@! TO.N,+3.3V*
D85*
X89404465Y-124050500D02*
X89404465Y-125578535D01*
X89404465Y-125578535D02*
X89380000Y-125603000D01*
G04 #@! TO.N,GND*
D83*
X87503000Y-125603000D02*
X88420000Y-125603000D01*
G04 #@! TO.N,/PHOTO_OUT*
D85*
X127381000Y-121412000D02*
X109982000Y-121412000D01*
X109982000Y-121412000D02*
X98044000Y-109474000D01*
X98044000Y-109474000D02*
X98044000Y-106660183D01*
X127381000Y-121412000D02*
X139954000Y-121412000D01*
X139954000Y-121412000D02*
X145415000Y-115951000D01*
X145415000Y-115951000D02*
X145415000Y-115933000D01*
G04 #@! TO.N,/EN_PHOTO*
X131006509Y-128318500D02*
X131006509Y-126431000D01*
X130051509Y-122936000D02*
X129416509Y-122301000D01*
X131006509Y-126431000D02*
X130051509Y-125476000D01*
X130051509Y-125476000D02*
X130051509Y-122936000D01*
X129416509Y-122301000D02*
X109093000Y-122301000D01*
X109093000Y-122301000D02*
X103930000Y-117138000D01*
D84*
X103930000Y-117138000D02*
X90816965Y-117138000D01*
G04 #@! TO.N,/PHOTO_OUT_ST*
D85*
X120907509Y-125706500D02*
X111228500Y-125706500D01*
X111228500Y-125706500D02*
X104140000Y-118618000D01*
X104140000Y-118618000D02*
X98679000Y-118618000D01*
G04 #@! TO.N,GND*
D82*
X58896000Y-88624241D02*
X58871500Y-88599741D01*
X64615250Y-115316000D02*
X63466750Y-115316000D01*
D83*
X58039000Y-78105000D02*
X56197000Y-78105000D01*
D84*
X86404465Y-115725500D02*
X86404465Y-114481535D01*
D82*
X55529550Y-79359098D02*
X55819550Y-79649098D01*
D84*
X84404465Y-114449535D02*
X84808000Y-114046000D01*
D83*
X100902963Y-124430723D02*
X103442963Y-124430723D01*
D84*
X55246550Y-88917098D02*
X54606550Y-89557098D01*
D83*
X50419000Y-80923098D02*
X50425000Y-80917098D01*
D85*
X57583000Y-136977000D02*
X57277000Y-136671000D01*
D83*
X51300400Y-64922400D02*
X51275000Y-64897000D01*
D86*
X57351541Y-120176000D02*
X57314541Y-120139000D01*
D85*
X56892500Y-119860000D02*
X55098000Y-119860000D01*
D84*
X58615550Y-88474741D02*
X58740550Y-88599741D01*
X54606550Y-90674550D02*
X54606550Y-89557098D01*
D83*
X165989000Y-140462000D02*
X165100000Y-140462000D01*
X106045000Y-85090000D02*
X103505000Y-85090000D01*
D85*
X57100741Y-120209759D02*
X57171500Y-120139000D01*
X54606550Y-80917098D02*
X56325550Y-80917098D01*
D83*
X105982963Y-124430723D02*
X103442963Y-124430723D01*
D84*
X50737550Y-89557098D02*
X50426550Y-89557098D01*
X81073000Y-132461000D02*
X81073000Y-131393000D01*
X123030009Y-126553000D02*
X124167509Y-126553000D01*
X56325550Y-80917098D02*
X56327550Y-80919098D01*
D83*
X106045000Y-58039000D02*
X103505000Y-58039000D01*
X89171250Y-57341750D02*
X89027000Y-57486000D01*
D84*
X132906509Y-129667000D02*
X132906509Y-128318500D01*
X81090000Y-122138000D02*
X80772000Y-122456000D01*
D83*
X106045000Y-72009000D02*
X103505000Y-72009000D01*
D82*
X58871500Y-88599741D02*
X58740550Y-88599741D01*
X56737000Y-81917357D02*
X57296291Y-81917357D01*
D87*
X80137000Y-61539000D02*
X78567000Y-61539000D01*
D83*
X50419000Y-82296000D02*
X50419000Y-80923098D01*
D82*
X55098000Y-119380000D02*
X54458000Y-118740000D01*
D84*
X86404465Y-114481535D02*
X86840000Y-114046000D01*
D85*
X57343550Y-81870098D02*
X57343550Y-81056807D01*
D83*
X62611000Y-70358000D02*
X63859500Y-70358000D01*
X51275000Y-72517000D02*
X51275000Y-72677000D01*
X56134000Y-76454000D02*
X56134000Y-78042000D01*
D84*
X55246550Y-81557098D02*
X55246550Y-82037098D01*
D85*
X63601600Y-110995650D02*
X63599250Y-110998000D01*
D82*
X57394350Y-89605898D02*
X57394350Y-88477098D01*
D83*
X54610000Y-99528500D02*
X54570500Y-99568000D01*
D82*
X55098000Y-126740000D02*
X54458000Y-127380000D01*
X62329250Y-115316000D02*
X63466750Y-115316000D01*
D85*
X57277000Y-136671000D02*
X57277000Y-144631000D01*
D82*
X59793500Y-62738000D02*
X58674000Y-62738000D01*
D83*
X54610000Y-101346000D02*
X54610000Y-99607500D01*
X50419000Y-89551098D02*
X50425000Y-89557098D01*
X80772000Y-82550000D02*
X80772000Y-85090000D01*
X90424000Y-57341750D02*
X89171250Y-57341750D01*
D82*
X57296291Y-81917357D02*
X57343550Y-81870098D01*
D83*
X162433000Y-140462000D02*
X165989000Y-140462000D01*
D85*
X79908400Y-122428000D02*
X80744000Y-122428000D01*
D83*
X51275000Y-72517000D02*
X51275000Y-64897000D01*
X100965000Y-72009000D02*
X103505000Y-72009000D01*
D84*
X120907509Y-130960500D02*
X120907509Y-132080000D01*
X122431509Y-124079000D02*
X123221509Y-124079000D01*
D85*
X90259500Y-109220000D02*
X91545500Y-109220000D01*
D84*
X51683500Y-58872000D02*
X51926500Y-59115000D01*
D82*
X54655350Y-89605898D02*
X54606550Y-89557098D01*
D83*
X103505000Y-86868000D02*
X103505000Y-85090000D01*
X54610000Y-97790000D02*
X54610000Y-99528500D01*
X63859500Y-70358000D02*
X63881000Y-70336500D01*
X50038000Y-73914000D02*
X50038000Y-71120000D01*
X82550000Y-85090000D02*
X80772000Y-85090000D01*
D82*
X56617259Y-82037098D02*
X56737000Y-81917357D01*
D83*
X56134000Y-78042000D02*
X56197000Y-78105000D01*
D85*
X63994250Y-109474000D02*
X63994250Y-109792550D01*
D84*
X55246550Y-88437098D02*
X55246550Y-88917098D01*
X82677000Y-57756000D02*
X83931000Y-57756000D01*
D83*
X103505000Y-73787000D02*
X103505000Y-72009000D01*
X100965000Y-58039000D02*
X103505000Y-58039000D01*
X54610000Y-99607500D02*
X54570500Y-99568000D01*
X100965000Y-85090000D02*
X103505000Y-85090000D01*
D85*
X67564000Y-136671000D02*
X66059000Y-136671000D01*
D83*
X63881000Y-70336500D02*
X63881000Y-69088000D01*
D82*
X55246550Y-82037098D02*
X56617259Y-82037098D01*
X56479950Y-89605898D02*
X54655350Y-89605898D01*
D83*
X80772000Y-95250000D02*
X80772000Y-97790000D01*
X92964000Y-62931000D02*
X92964000Y-61849000D01*
X53419500Y-56327000D02*
X54356000Y-56327000D01*
X103505000Y-70231000D02*
X103505000Y-72009000D01*
D84*
X57267350Y-88474741D02*
X58615550Y-88474741D01*
X55246550Y-88437098D02*
X57354350Y-88437098D01*
D82*
X58896000Y-89552741D02*
X58896000Y-88624241D01*
X57394350Y-89605898D02*
X56479950Y-89605898D01*
D84*
X88904465Y-122682000D02*
X88904465Y-124050500D01*
D83*
X51816000Y-99568000D02*
X54570500Y-99568000D01*
D82*
X55529550Y-78635098D02*
X55529550Y-79359098D01*
D84*
X84404465Y-115725500D02*
X84404465Y-114449535D01*
D83*
X50038000Y-66319400D02*
X50038000Y-63525400D01*
X80772000Y-100330000D02*
X80772000Y-97790000D01*
D85*
X92684500Y-73869000D02*
X92684500Y-72387000D01*
X82103902Y-114808001D02*
X82329903Y-114582000D01*
X78994000Y-97790000D02*
X82423000Y-97790000D01*
D83*
X103505000Y-56261000D02*
X103505000Y-58039000D01*
D82*
X58801000Y-81663741D02*
X58801000Y-80645000D01*
D87*
X78567000Y-61539000D02*
X77777000Y-62329000D01*
D83*
X89600250Y-60385500D02*
X88138000Y-60385500D01*
D84*
X54610000Y-90678000D02*
X54606550Y-90674550D01*
X54606550Y-80917098D02*
X55246550Y-81557098D01*
D85*
X89836500Y-65614000D02*
X90725500Y-65614000D01*
D83*
X52324000Y-66319400D02*
X52324000Y-63525400D01*
D85*
X63601600Y-110185200D02*
X63601600Y-110995650D01*
D82*
X85344000Y-59518000D02*
X85344000Y-60285500D01*
D85*
X83185000Y-109220000D02*
X84365500Y-109220000D01*
D82*
X55098000Y-119860000D02*
X55098000Y-119380000D01*
D84*
X82491965Y-122138000D02*
X81090000Y-122138000D01*
D83*
X53080500Y-56666000D02*
X53419500Y-56327000D01*
X103442963Y-122652723D02*
X103442963Y-124430723D01*
D84*
X83931000Y-57756000D02*
X83947000Y-57740000D01*
D85*
X67564000Y-136671000D02*
X67564000Y-144631000D01*
D83*
X89858500Y-60643750D02*
X89600250Y-60385500D01*
D84*
X101572000Y-141704000D02*
X103124000Y-143256000D01*
D83*
X90424000Y-60643750D02*
X89858500Y-60643750D01*
D85*
X63994250Y-109792550D02*
X63601600Y-110185200D01*
D82*
X62329250Y-115824000D02*
X62329250Y-115316000D01*
D83*
X65680000Y-70336500D02*
X65764500Y-70421000D01*
D82*
X62329250Y-110976500D02*
X62350750Y-110998000D01*
D83*
X53594000Y-64922400D02*
X51300400Y-64922400D01*
X50419000Y-88138000D02*
X50419000Y-89551098D01*
D84*
X81073000Y-131393000D02*
X80236000Y-130556000D01*
D82*
X65786000Y-70442500D02*
X65764500Y-70421000D01*
X55098000Y-126260000D02*
X55098000Y-126740000D01*
D83*
X53594000Y-72517000D02*
X51275000Y-72517000D01*
D82*
X62329250Y-109728000D02*
X62329250Y-110976500D01*
D83*
X78994000Y-85090000D02*
X80772000Y-85090000D01*
D85*
X59182000Y-136977000D02*
X59182000Y-137795000D01*
D83*
X64558500Y-70336500D02*
X65807000Y-70336500D01*
X52324000Y-73914000D02*
X52324000Y-71120000D01*
D85*
X66059000Y-136671000D02*
X66040000Y-136652000D01*
D82*
X56325550Y-80917098D02*
X56325550Y-80155098D01*
D83*
X57150000Y-99568000D02*
X54570500Y-99568000D01*
X103442963Y-126208723D02*
X103442963Y-124430723D01*
D84*
X84808000Y-113284000D02*
X84808000Y-114046000D01*
D85*
X92684500Y-72387000D02*
X92684500Y-70948000D01*
X64643250Y-110907000D02*
X64552250Y-110998000D01*
X80744000Y-122428000D02*
X80772000Y-122456000D01*
D84*
X88396465Y-125579465D02*
X88420000Y-125603000D01*
D83*
X103505000Y-59817000D02*
X103505000Y-58039000D01*
D85*
X61214000Y-136977000D02*
X61214000Y-137795000D01*
X82329903Y-114582000D02*
X82804000Y-114582000D01*
D82*
X55783550Y-79613098D02*
X55819550Y-79649098D01*
X66802000Y-69405000D02*
X66780500Y-69405000D01*
D84*
X50585461Y-80917098D02*
X50426550Y-80917098D01*
D82*
X56325550Y-80155098D02*
X55819550Y-79649098D01*
D85*
X57171500Y-120139000D02*
X56892500Y-119860000D01*
D84*
X57910000Y-84582000D02*
X57023000Y-84582000D01*
D83*
X56388000Y-77914000D02*
X56197000Y-78105000D01*
D84*
X100330000Y-141704000D02*
X100330000Y-142494000D01*
D83*
X94295000Y-62931000D02*
X92964000Y-62931000D01*
D85*
X57100741Y-121409000D02*
X57100741Y-120209759D01*
X59182000Y-136977000D02*
X57583000Y-136977000D01*
D84*
X57912000Y-85598000D02*
X57023000Y-85598000D01*
D83*
X103505000Y-83312000D02*
X103505000Y-85090000D01*
D84*
X51683500Y-57912000D02*
X51683500Y-58872000D01*
D83*
X80772000Y-87630000D02*
X80772000Y-85090000D01*
D85*
X57343550Y-81056807D02*
X57372000Y-81028357D01*
D84*
X100330000Y-141704000D02*
X101572000Y-141704000D01*
D83*
X162306000Y-142494000D02*
X165989000Y-142494000D01*
D84*
X57354350Y-88437098D02*
X57394350Y-88477098D01*
D82*
X84963000Y-59137000D02*
X85344000Y-59518000D01*
X88138000Y-122682000D02*
X88904465Y-122682000D01*
G04 #@! TO.N,/EN_PHOTO*
D84*
X131006509Y-128318500D02*
X130940509Y-128252500D01*
G04 #@! TO.N,Net-(Q1-D)*
D85*
X144036000Y-127762000D02*
X145415000Y-126383000D01*
X134750509Y-127762000D02*
X144036000Y-127762000D01*
X131998259Y-126401750D02*
X131956509Y-126443500D01*
X131956509Y-126443500D02*
X133432009Y-126443500D01*
X133432009Y-126443500D02*
X134750509Y-127762000D01*
G04 #@! TO.N,/USB_CC1*
D84*
X76708000Y-107950000D02*
X75692000Y-106934000D01*
X80264000Y-114808000D02*
X76962000Y-114808000D01*
X58930000Y-83430241D02*
X58801000Y-83301241D01*
X61214000Y-84582000D02*
X58930000Y-84582000D01*
X62230000Y-85598000D02*
X61214000Y-84582000D01*
X76708000Y-114554000D02*
X76708000Y-107950000D01*
X58930000Y-84582000D02*
X58930000Y-83430241D01*
X57343550Y-83270098D02*
X57278550Y-83270098D01*
X57278550Y-83270098D02*
X56561550Y-83987098D01*
X63246000Y-106934000D02*
X62230000Y-105918000D01*
X76962000Y-114808000D02*
X76708000Y-114554000D01*
X58769857Y-83270098D02*
X57343550Y-83270098D01*
X86904465Y-120178465D02*
X86904465Y-124050500D01*
X85979000Y-119227600D02*
X85979000Y-119253000D01*
X62230000Y-105918000D02*
X62230000Y-85598000D01*
X56561550Y-83987098D02*
X55246550Y-83987098D01*
X72390000Y-106934000D02*
X63246000Y-106934000D01*
X58801000Y-83301241D02*
X58769857Y-83270098D01*
X85979000Y-119253000D02*
X86904465Y-120178465D01*
G04 #@! TO.N,/VBUS_SENSE*
X81117000Y-117638000D02*
X80010000Y-118745000D01*
X73279000Y-121031000D02*
X59888500Y-121031000D01*
X82491965Y-117638000D02*
X81117000Y-117638000D01*
X75565000Y-118745000D02*
X73279000Y-121031000D01*
X59888500Y-121031000D02*
X58996500Y-120139000D01*
D85*
X58996500Y-120473241D02*
X58060741Y-121409000D01*
D84*
X80010000Y-118745000D02*
X78359000Y-118745000D01*
D85*
X58996500Y-118615000D02*
X58996500Y-120139000D01*
G04 #@! TO.N,VBUS*
D82*
X60275750Y-111484500D02*
X60805250Y-112014000D01*
D81*
X52324000Y-91186000D02*
X52324000Y-90678000D01*
D82*
X56675000Y-63152000D02*
X56675000Y-64897000D01*
D81*
X56675000Y-72517000D02*
X56802000Y-72390000D01*
X56675000Y-64897000D02*
X56675000Y-72517000D01*
D84*
X56483000Y-82798698D02*
X56576144Y-82798698D01*
X54606499Y-82837098D02*
X55246550Y-82837098D01*
D82*
X54864000Y-61341000D02*
X56675000Y-63152000D01*
D81*
X56562000Y-115189000D02*
X56562000Y-111125000D01*
D88*
X53025550Y-83205098D02*
X53025550Y-82997550D01*
X60148750Y-111125000D02*
X60275750Y-110998000D01*
D84*
X56576144Y-82798698D02*
X55284950Y-82798698D01*
X56483000Y-87637098D02*
X56610000Y-87764098D01*
D85*
X57171500Y-115798500D02*
X56562000Y-115189000D01*
D88*
X53025550Y-83205098D02*
X53025550Y-86507098D01*
D85*
X61191750Y-114366000D02*
X61191750Y-113175500D01*
X61191750Y-115316000D02*
X61191750Y-114366000D01*
D83*
X52705000Y-57531000D02*
X52197000Y-57023000D01*
D81*
X59690000Y-98552000D02*
X59690000Y-106426000D01*
D82*
X50038000Y-56388000D02*
X50038000Y-60579000D01*
X60792250Y-112027000D02*
X60792250Y-112776000D01*
D88*
X52324000Y-90678000D02*
X52324000Y-87208648D01*
D84*
X56483000Y-87637098D02*
X55246550Y-87637098D01*
D82*
X50845500Y-55580500D02*
X50038000Y-56388000D01*
D81*
X52197000Y-76280000D02*
X55960000Y-72517000D01*
D84*
X54606499Y-87637098D02*
X54396499Y-87427098D01*
D82*
X50800000Y-61341000D02*
X54864000Y-61341000D01*
D81*
X59690000Y-98552000D02*
X52324000Y-91186000D01*
D88*
X52324000Y-82296000D02*
X52324000Y-78742357D01*
D82*
X50038000Y-60579000D02*
X50800000Y-61341000D01*
D83*
X54356000Y-57277000D02*
X53594000Y-57277000D01*
D82*
X54356000Y-55377000D02*
X52622000Y-55377000D01*
D83*
X53594000Y-57277000D02*
X53340000Y-57531000D01*
D81*
X55960000Y-72517000D02*
X56675000Y-72517000D01*
D83*
X53340000Y-57531000D02*
X52705000Y-57531000D01*
D84*
X55246550Y-87637098D02*
X54606499Y-87637098D01*
D88*
X52324000Y-78742357D02*
X51689000Y-78107357D01*
D85*
X61191750Y-113175500D02*
X60792250Y-112776000D01*
D82*
X52622000Y-55377000D02*
X52418500Y-55580500D01*
D81*
X59690000Y-106426000D02*
X56562000Y-109554000D01*
D88*
X52324000Y-87208648D02*
X53025550Y-86507098D01*
D84*
X54396499Y-87427098D02*
X53945550Y-87427098D01*
D81*
X56562000Y-109554000D02*
X56562000Y-111125000D01*
X52197000Y-78105000D02*
X52197000Y-76280000D01*
D82*
X52418500Y-55580500D02*
X50845500Y-55580500D01*
D88*
X53025550Y-82997550D02*
X52324000Y-82296000D01*
D82*
X60275750Y-110998000D02*
X60275750Y-111484500D01*
D88*
X56562000Y-111125000D02*
X60148750Y-111125000D01*
D84*
X53025550Y-83205098D02*
X54238499Y-83205098D01*
D82*
X60805250Y-112014000D02*
X60792250Y-112027000D01*
D85*
X57171500Y-118615000D02*
X57171500Y-115798500D01*
D84*
X53945550Y-87427098D02*
X53533550Y-87015098D01*
D83*
X52197000Y-55802000D02*
X52418500Y-55580500D01*
D84*
X54238499Y-83205098D02*
X54606499Y-82837098D01*
D83*
X52197000Y-57023000D02*
X52197000Y-55802000D01*
D88*
X53025550Y-86507098D02*
X53533550Y-87015098D01*
D84*
X55284950Y-82798698D02*
X55246550Y-82837098D01*
G04 #@! TO.N,/MOTOR-_SENSE*
X95250000Y-116205000D02*
X95250000Y-96393000D01*
D85*
X90144500Y-72387000D02*
X90170000Y-72412500D01*
D84*
X94762000Y-118638000D02*
X95250000Y-119126000D01*
D85*
X90170000Y-91122500D02*
X86360000Y-94932500D01*
D84*
X90816965Y-118638000D02*
X94762000Y-118638000D01*
D85*
X90144500Y-72387000D02*
X88874500Y-72387000D01*
X90170000Y-72412500D02*
X90170000Y-91122500D01*
G04 #@! TO.N,+1.65V*
X81129500Y-73712700D02*
X81129500Y-72980000D01*
X87833200Y-74117200D02*
X87122000Y-74828400D01*
X83618750Y-71837000D02*
X82042000Y-71837000D01*
X84916000Y-66677000D02*
X84074000Y-67519000D01*
X81129500Y-72749500D02*
X81129500Y-72980000D01*
X87833200Y-62765300D02*
X87833200Y-67868800D01*
X82245200Y-74828400D02*
X81129500Y-73712700D01*
X82042000Y-71837000D02*
X81129500Y-72749500D01*
D82*
X91120000Y-59241750D02*
X90424000Y-59241750D01*
X91694000Y-61593750D02*
X91694000Y-59815750D01*
D85*
X82274500Y-67519000D02*
X81131500Y-66376000D01*
D84*
X83288500Y-63836000D02*
X85852000Y-63836000D01*
X85852000Y-63836000D02*
X86294000Y-63394000D01*
D82*
X90340750Y-62460500D02*
X90424000Y-62543750D01*
X88138000Y-62460500D02*
X90340750Y-62460500D01*
D84*
X86294000Y-63394000D02*
X86294000Y-62560500D01*
D85*
X84687500Y-72980000D02*
X84687500Y-72905750D01*
X84074000Y-67519000D02*
X82274500Y-67519000D01*
D82*
X90744000Y-62543750D02*
X91694000Y-61593750D01*
D85*
X87833200Y-70408800D02*
X87833200Y-74117200D01*
D82*
X90424000Y-62543750D02*
X90744000Y-62543750D01*
X86294000Y-62560500D02*
X88038000Y-62560500D01*
D85*
X81131500Y-66376000D02*
X81131500Y-64770000D01*
X84916000Y-66376000D02*
X84916000Y-66677000D01*
D82*
X88038000Y-62560500D02*
X88138000Y-62460500D01*
D85*
X87122000Y-74828400D02*
X82245200Y-74828400D01*
D82*
X91694000Y-59815750D02*
X91120000Y-59241750D01*
D85*
X88138000Y-62460500D02*
X87833200Y-62765300D01*
D84*
X82677000Y-63224500D02*
X83288500Y-63836000D01*
D85*
X81131500Y-64770000D02*
X82677000Y-63224500D01*
X84687500Y-72905750D02*
X83618750Y-71837000D01*
G04 #@! TO.N,Net-(D6-A)*
X65744250Y-109474000D02*
X67346250Y-109474000D01*
G04 #@! TO.N,+3.3V*
D82*
X80772000Y-124206000D02*
X80772000Y-126873000D01*
D84*
X124181509Y-125325000D02*
X124181509Y-124079000D01*
D89*
X86995000Y-145415000D02*
X86995000Y-135255000D01*
D82*
X66327250Y-112776000D02*
X67854250Y-112776000D01*
D83*
X89916000Y-146050000D02*
X89916000Y-140843000D01*
D82*
X128400509Y-129413000D02*
X126392009Y-129413000D01*
X66463250Y-115132000D02*
X66327250Y-114996000D01*
D84*
X91700800Y-122638000D02*
X91846400Y-122783600D01*
X90816965Y-122638000D02*
X91700800Y-122638000D01*
D83*
X61595000Y-66929000D02*
X61948000Y-66576000D01*
D82*
X129186009Y-128627500D02*
X128400509Y-129413000D01*
D83*
X89093000Y-64831000D02*
X93218000Y-64831000D01*
D84*
X99060000Y-146050000D02*
X99060000Y-140716000D01*
D82*
X129186009Y-127381000D02*
X129186009Y-124126000D01*
D83*
X62357000Y-71374000D02*
X61595000Y-70612000D01*
D84*
X89529465Y-120873065D02*
X89529465Y-122752665D01*
X86918800Y-118262400D02*
X89529465Y-120873065D01*
D85*
X68996250Y-109474000D02*
X68996250Y-112776000D01*
D82*
X66327250Y-114996000D02*
X66327250Y-112776000D01*
D83*
X89380000Y-125603000D02*
X89380000Y-126845000D01*
D82*
X95311000Y-64831000D02*
X95351600Y-64871600D01*
D84*
X83904465Y-114102465D02*
X83848000Y-114046000D01*
D89*
X86995000Y-135255000D02*
X86233000Y-134493000D01*
D84*
X91846400Y-122783600D02*
X91846400Y-123799600D01*
D83*
X88876500Y-65047500D02*
X89093000Y-64831000D01*
D84*
X125305009Y-125603000D02*
X124459509Y-125603000D01*
X84841116Y-58375000D02*
X86084500Y-58375000D01*
D82*
X62484000Y-73660000D02*
X73279000Y-73660000D01*
D85*
X88874500Y-65616000D02*
X88876500Y-65614000D01*
D82*
X86084500Y-58375000D02*
X86084500Y-56460300D01*
X73279000Y-73660000D02*
X75692000Y-76073000D01*
D84*
X83904465Y-115725500D02*
X83904465Y-114102465D01*
D82*
X67155250Y-115132000D02*
X66463250Y-115132000D01*
D84*
X91440000Y-124206000D02*
X91412000Y-124206000D01*
D82*
X92964000Y-64831000D02*
X95311000Y-64831000D01*
D84*
X81713965Y-123416000D02*
X82491965Y-122638000D01*
X83697500Y-113895500D02*
X81534000Y-113895500D01*
D82*
X129186009Y-124126000D02*
X129139009Y-124079000D01*
D83*
X64234000Y-66576000D02*
X64262000Y-66548000D01*
D84*
X89529465Y-122752665D02*
X90220800Y-123444000D01*
X85404465Y-114521535D02*
X85880000Y-114046000D01*
D83*
X80772000Y-123571000D02*
X80772000Y-124206000D01*
D82*
X95351600Y-64871600D02*
X95351600Y-74574400D01*
D89*
X82169000Y-126873000D02*
X80772000Y-126873000D01*
D82*
X86294000Y-60285500D02*
X86294000Y-58584500D01*
D84*
X89380000Y-125603000D02*
X89380000Y-125448000D01*
D85*
X88874500Y-67437000D02*
X88874500Y-65616000D01*
D89*
X99060000Y-146050000D02*
X87630000Y-146050000D01*
D82*
X77851000Y-112839000D02*
X78907500Y-113895500D01*
X78907500Y-113895500D02*
X81534000Y-113895500D01*
X67854250Y-112776000D02*
X67917250Y-112839000D01*
D89*
X80772000Y-126873000D02*
X78359000Y-126873000D01*
X76835000Y-134493000D02*
X76073000Y-133731000D01*
X126392009Y-143736991D02*
X126392009Y-129413000D01*
D82*
X86995000Y-77343000D02*
X75692000Y-77343000D01*
D84*
X91412000Y-124206000D02*
X91412000Y-125885000D01*
X100330000Y-140744000D02*
X103096000Y-140744000D01*
D89*
X78359000Y-126873000D02*
X76073000Y-129159000D01*
D84*
X84394000Y-60285500D02*
X84328000Y-60219500D01*
X84328000Y-58888116D02*
X84841116Y-58375000D01*
D82*
X86294000Y-58584500D02*
X86084500Y-58375000D01*
X75692000Y-76073000D02*
X75692000Y-77343000D01*
D84*
X85404465Y-115725500D02*
X85404465Y-114521535D01*
D89*
X76073000Y-129159000D02*
X76073000Y-132461000D01*
D82*
X95351600Y-58216800D02*
X95351600Y-64871600D01*
X86614000Y-55930800D02*
X93065600Y-55930800D01*
D84*
X91412000Y-124076400D02*
X91412000Y-124206000D01*
D83*
X61595000Y-70612000D02*
X61595000Y-66929000D01*
D82*
X77851000Y-103505000D02*
X75692000Y-101346000D01*
D84*
X100330000Y-140744000D02*
X100302000Y-140716000D01*
D85*
X63528000Y-66548000D02*
X64262000Y-66548000D01*
D82*
X72771000Y-112839000D02*
X67917250Y-112839000D01*
D85*
X124181509Y-124079000D02*
X129139009Y-124079000D01*
D84*
X124459509Y-125603000D02*
X124181509Y-125325000D01*
X100330000Y-137410000D02*
X100330000Y-136398000D01*
D82*
X93065600Y-55930800D02*
X95351600Y-58216800D01*
D89*
X86233000Y-134493000D02*
X76835000Y-134493000D01*
D83*
X61948000Y-66576000D02*
X62357000Y-66576000D01*
D84*
X91846400Y-123799600D02*
X91440000Y-124206000D01*
D82*
X95351600Y-74574400D02*
X92583000Y-77343000D01*
D89*
X99060000Y-146050000D02*
X124079000Y-146050000D01*
D84*
X83848000Y-114046000D02*
X83697500Y-113895500D01*
X99060000Y-136398000D02*
X99060000Y-140716000D01*
D89*
X124079000Y-146050000D02*
X126392009Y-143736991D01*
D82*
X86084500Y-56460300D02*
X86614000Y-55930800D01*
D84*
X100330000Y-136398000D02*
X99060000Y-136398000D01*
D83*
X88876500Y-65614000D02*
X88876500Y-65047500D01*
D84*
X84328000Y-60219500D02*
X84328000Y-58888116D01*
D82*
X62357000Y-73533000D02*
X62484000Y-73660000D01*
D84*
X85404465Y-116830335D02*
X85404465Y-115725500D01*
X80772000Y-123416000D02*
X81713965Y-123416000D01*
D83*
X62357000Y-66576000D02*
X64234000Y-66576000D01*
D84*
X100302000Y-140716000D02*
X99060000Y-140716000D01*
X85090000Y-117144800D02*
X85404465Y-116830335D01*
D82*
X77851000Y-112839000D02*
X77851000Y-108204000D01*
D84*
X90220800Y-123444000D02*
X90779600Y-123444000D01*
D89*
X76073000Y-133731000D02*
X76073000Y-132461000D01*
D82*
X75692000Y-101346000D02*
X75692000Y-77343000D01*
D84*
X103096000Y-140744000D02*
X103124000Y-140716000D01*
D82*
X129186009Y-127381000D02*
X129186009Y-128627500D01*
D84*
X90779600Y-123444000D02*
X91412000Y-124076400D01*
D89*
X87630000Y-146050000D02*
X86995000Y-145415000D01*
G04 #@! TO.N,Net-(U7-VREF+)*
D84*
X81788000Y-115720500D02*
X81534000Y-115720500D01*
X81966500Y-115542000D02*
X81788000Y-115720500D01*
X82804000Y-115542000D02*
X81966500Y-115542000D01*
G04 #@! TO.N,Net-(C27-Pad2)*
D85*
X86365500Y-107225500D02*
X86403000Y-107188000D01*
X86365500Y-105156000D02*
X86365500Y-107150500D01*
X86365500Y-107150500D02*
X86403000Y-107188000D01*
X86365500Y-109220000D02*
X86365500Y-107225500D01*
G04 #@! TO.N,/TIM2_CH1*
X82423000Y-107156000D02*
X84296000Y-107156000D01*
D84*
X65278000Y-103124000D02*
X65278000Y-97218500D01*
D85*
X84365500Y-107225500D02*
X84328000Y-107188000D01*
D84*
X65786000Y-103632000D02*
X65278000Y-103124000D01*
X75692000Y-103632000D02*
X65786000Y-103632000D01*
D85*
X84328000Y-107188000D02*
X84328000Y-105193500D01*
X84328000Y-105193500D02*
X84365500Y-105156000D01*
D84*
X65278000Y-97218500D02*
X67564000Y-94932500D01*
X82423000Y-107156000D02*
X79216000Y-107156000D01*
D85*
X84296000Y-107156000D02*
X84328000Y-107188000D01*
D84*
X79216000Y-107156000D02*
X75692000Y-103632000D01*
G04 #@! TO.N,/USB_CC2*
X58720500Y-87074741D02*
X58896000Y-86899241D01*
X57519350Y-86952098D02*
X57394350Y-87077098D01*
X75692000Y-115189000D02*
X75692000Y-108458000D01*
X58896000Y-86899241D02*
X58896000Y-86868000D01*
X58805000Y-86808241D02*
X58896000Y-86899241D01*
X70866000Y-107696000D02*
X62527326Y-107696000D01*
X71628000Y-108458000D02*
X70866000Y-107696000D01*
X57304350Y-86987098D02*
X57394350Y-87077098D01*
X55246550Y-86987098D02*
X57304350Y-86987098D01*
X85915500Y-120713500D02*
X85904465Y-121613535D01*
X61468000Y-86868000D02*
X60198000Y-85598000D01*
X80391000Y-116332000D02*
X76835000Y-116332000D01*
X85904465Y-121613535D02*
X85904465Y-124050500D01*
X57267350Y-87074741D02*
X58720500Y-87074741D01*
X62527326Y-107696000D02*
X61468000Y-106636674D01*
X72390000Y-108458000D02*
X71628000Y-108458000D01*
X61468000Y-106636674D02*
X61468000Y-86868000D01*
X76835000Y-116332000D02*
X75692000Y-115189000D01*
X60198000Y-85598000D02*
X58932000Y-85598000D01*
X58932000Y-85598000D02*
X58932000Y-86810598D01*
G04 #@! TO.N,Net-(U2-ADJ)*
X56631000Y-57872200D02*
X56631000Y-57277000D01*
X55316000Y-59115000D02*
X53672500Y-59115000D01*
X55388200Y-59115000D02*
X56631000Y-57872200D01*
X55316000Y-59115000D02*
X55388200Y-59115000D01*
G04 #@! TO.N,+5.0V*
X56631000Y-53654000D02*
X56504000Y-53527000D01*
X57885000Y-57936000D02*
X57885000Y-55904000D01*
D87*
X78567000Y-60579000D02*
X77777000Y-59789000D01*
D84*
X57141000Y-59115000D02*
X57141000Y-58680000D01*
D82*
X56631000Y-55377000D02*
X56631000Y-53654000D01*
D87*
X80137000Y-60579000D02*
X78567000Y-60579000D01*
D84*
X57141000Y-58680000D02*
X57885000Y-57936000D01*
X57885000Y-55904000D02*
X57358000Y-55377000D01*
X57358000Y-55377000D02*
X56631000Y-55377000D01*
D83*
X80137000Y-60579000D02*
X80077000Y-60519000D01*
G04 #@! TO.N,/I2C2_SCL*
D84*
X98044000Y-130810000D02*
X101193600Y-130810000D01*
X85598000Y-129413000D02*
X86995000Y-130810000D01*
X83562000Y-120138000D02*
X82491965Y-120138000D01*
X104343200Y-138176000D02*
X103124000Y-138176000D01*
X83820000Y-120396000D02*
X83562000Y-120138000D01*
X101193600Y-130810000D02*
X105105200Y-134721600D01*
X105105200Y-134721600D02*
X105105200Y-137414000D01*
X102870000Y-138430000D02*
X103124000Y-138176000D01*
X105105200Y-137414000D02*
X104343200Y-138176000D01*
X86995000Y-130810000D02*
X94488000Y-130810000D01*
X85598000Y-125476000D02*
X85598000Y-129413000D01*
X100330000Y-138430000D02*
X102870000Y-138430000D01*
X83820000Y-121666000D02*
X83820000Y-120396000D01*
G04 #@! TO.N,Net-(U5A-+)*
D85*
X87183200Y-70144400D02*
X87183200Y-70139561D01*
X87183200Y-70139561D02*
X87675961Y-69646800D01*
X91084400Y-69646800D02*
X91414500Y-69976900D01*
X86741000Y-70694000D02*
X86741000Y-70586600D01*
X86762500Y-73085500D02*
X85725000Y-74123000D01*
X83947000Y-74123000D02*
X85725000Y-74123000D01*
X86741000Y-70586600D02*
X87183200Y-70144400D01*
X91414500Y-69976900D02*
X91414500Y-72387000D01*
X83947000Y-74123000D02*
X82954500Y-73130500D01*
X82954500Y-73130500D02*
X82954500Y-72980000D01*
X87675961Y-69646800D02*
X91084400Y-69646800D01*
X86762500Y-70715500D02*
X86741000Y-70694000D01*
X86762500Y-72980000D02*
X86762500Y-73085500D01*
X86762500Y-72980000D02*
X86762500Y-70715500D01*
G04 #@! TO.N,/I2C2_SDA*
D84*
X99364800Y-131826000D02*
X99364800Y-133045200D01*
X94335600Y-129438400D02*
X92964000Y-128066800D01*
X100330000Y-135378000D02*
X102866000Y-135378000D01*
X92964000Y-121158000D02*
X92444000Y-120638000D01*
X102866000Y-135378000D02*
X103124000Y-135636000D01*
X100330000Y-134010400D02*
X100330000Y-135378000D01*
X92444000Y-120638000D02*
X90816965Y-120638000D01*
X92964000Y-128066800D02*
X92964000Y-121158000D01*
X94386400Y-129438400D02*
X94335600Y-129438400D01*
X99364800Y-133045200D02*
X100330000Y-134010400D01*
G04 #@! TO.N,Net-(C32-Pad2)*
X88259500Y-107225500D02*
X88222000Y-107188000D01*
X88222000Y-105177500D02*
X88243500Y-105156000D01*
X88222000Y-107188000D02*
X88222000Y-105177500D01*
X88259500Y-109220000D02*
X88259500Y-107225500D01*
G04 #@! TO.N,/TIM2_CH2*
X80899000Y-104267000D02*
X77216000Y-104267000D01*
X88392000Y-103251000D02*
X81915000Y-103251000D01*
D85*
X90243500Y-104574500D02*
X91059000Y-103759000D01*
D84*
X90170000Y-102362000D02*
X89281000Y-102362000D01*
X77216000Y-104267000D02*
X73787000Y-100838000D01*
D85*
X92270000Y-107172000D02*
X90313000Y-107172000D01*
D84*
X81915000Y-103251000D02*
X80899000Y-104267000D01*
X89281000Y-102362000D02*
X88392000Y-103251000D01*
X73787000Y-100838000D02*
X67818000Y-100838000D01*
D85*
X90313000Y-107172000D02*
X90297000Y-107188000D01*
X90297000Y-105209500D02*
X90243500Y-105156000D01*
D84*
X85404465Y-124050500D02*
X85379465Y-124025500D01*
D85*
X90243500Y-105156000D02*
X90243500Y-104574500D01*
X90297000Y-107188000D02*
X90297000Y-105209500D01*
G04 #@! TO.N,Net-(U10-+)*
D84*
X123447509Y-129413000D02*
X124567009Y-129413000D01*
X120903009Y-127503000D02*
X120865509Y-127465500D01*
X123030009Y-127503000D02*
X123030009Y-128995500D01*
X123030009Y-127503000D02*
X120903009Y-127503000D01*
X123030009Y-128995500D02*
X123447509Y-129413000D01*
X120907509Y-129135500D02*
X120907509Y-127531500D01*
G04 #@! TO.N,/PHOTO_OUT_ST*
X120903009Y-125603000D02*
X120865509Y-125640500D01*
X123030009Y-125603000D02*
X120903009Y-125603000D01*
G04 #@! TO.N,/BUTTON1*
X63064000Y-136580000D02*
X65024000Y-134620000D01*
X63064000Y-136671000D02*
X63064000Y-136580000D01*
X85598000Y-135636000D02*
X85090000Y-136144000D01*
D85*
X63064000Y-144631000D02*
X63064000Y-136671000D01*
D84*
X61214000Y-136017000D02*
X62410000Y-136017000D01*
X65024000Y-134620000D02*
X69342000Y-134620000D01*
X84904465Y-131386465D02*
X84904465Y-124050500D01*
X72898000Y-136144000D02*
X71374000Y-134620000D01*
X85090000Y-136144000D02*
X72898000Y-136144000D01*
X64897000Y-134747000D02*
X65024000Y-134620000D01*
X85598000Y-132080000D02*
X84904465Y-131386465D01*
X62410000Y-136017000D02*
X63064000Y-136671000D01*
G04 #@! TO.N,Net-(R4-Pad1)*
D85*
X83312000Y-70694000D02*
X84916000Y-70694000D01*
G04 #@! TO.N,/MOTOR-*
D81*
X75165000Y-64869000D02*
X73836000Y-63540000D01*
D82*
X73034000Y-62738000D02*
X73836000Y-63540000D01*
D84*
X87934800Y-75641200D02*
X80721200Y-75641200D01*
D82*
X70012000Y-62738000D02*
X73034000Y-62738000D01*
D84*
X80721200Y-75641200D02*
X79502000Y-74422000D01*
X86360000Y-89027000D02*
X89154000Y-86233000D01*
X89154000Y-86233000D02*
X89154000Y-76860400D01*
X79502000Y-66594000D02*
X77777000Y-64869000D01*
D81*
X77777000Y-64869000D02*
X75165000Y-64869000D01*
D84*
X79502000Y-74422000D02*
X79502000Y-66594000D01*
X89154000Y-76860400D02*
X87934800Y-75641200D01*
X81487000Y-70694000D02*
X79502000Y-70694000D01*
G04 #@! TO.N,/POT*
X84582000Y-119126000D02*
X84582000Y-121920000D01*
X82491965Y-118638000D02*
X84094000Y-118638000D01*
X84094000Y-118638000D02*
X84582000Y-119126000D01*
X83312000Y-128143000D02*
X82550000Y-128905000D01*
X82550000Y-128905000D02*
X80137000Y-128905000D01*
X79276000Y-129766000D02*
X79276000Y-130556000D01*
X79276000Y-130556000D02*
X79276000Y-131758000D01*
X79276000Y-131758000D02*
X78573000Y-132461000D01*
X80137000Y-128905000D02*
X79276000Y-129766000D01*
X83312000Y-123190000D02*
X83312000Y-128143000D01*
X84582000Y-121920000D02*
X83312000Y-123190000D01*
G04 #@! TO.N,unconnected-(RV1-PadMP)*
D85*
X74173000Y-139461000D02*
X82973000Y-139461000D01*
G04 #@! TO.N,Net-(D2-A)*
X54258305Y-120895000D02*
X54493305Y-120660000D01*
X52079000Y-120895000D02*
X54258305Y-120895000D01*
X52070000Y-120904000D02*
X52079000Y-120895000D01*
D89*
X52070000Y-119634000D02*
X52070000Y-115697000D01*
D85*
X54493305Y-125460000D02*
X52070000Y-123036695D01*
X54493305Y-120660000D02*
X55098000Y-120660000D01*
X55098000Y-125460000D02*
X54493305Y-125460000D01*
X51562000Y-115189000D02*
X52070000Y-115697000D01*
X52070000Y-123036695D02*
X52070000Y-119634000D01*
G04 #@! TO.N,/PHOTO_OUT*
D84*
X127257509Y-127277500D02*
X127361009Y-127381000D01*
X125427009Y-127381000D02*
X125305009Y-127503000D01*
D85*
X127361009Y-127381000D02*
X127361009Y-125118500D01*
D84*
X127361009Y-127381000D02*
X125427009Y-127381000D01*
D85*
X127361009Y-125118500D02*
X127384509Y-125095000D01*
G04 #@! TO.N,/MOTOR+*
D84*
X77777000Y-67409000D02*
X78867000Y-68499000D01*
X87426800Y-76250800D02*
X88011000Y-76835000D01*
D81*
X73836000Y-68385000D02*
X73836000Y-68540000D01*
D84*
X81487000Y-68662000D02*
X80264000Y-68662000D01*
D81*
X74812000Y-67409000D02*
X73836000Y-68385000D01*
D84*
X78867000Y-74955400D02*
X80162400Y-76250800D01*
D82*
X71374000Y-65278000D02*
X73836000Y-67740000D01*
X73836000Y-67740000D02*
X73836000Y-68540000D01*
X70012000Y-65278000D02*
X71374000Y-65278000D01*
D81*
X77777000Y-67409000D02*
X74812000Y-67409000D01*
D84*
X88011000Y-76835000D02*
X88011000Y-81470500D01*
X80162400Y-76250800D02*
X87426800Y-76250800D01*
X88011000Y-81470500D02*
X86360000Y-83121500D01*
X86360000Y-83121500D02*
X86360000Y-82169000D01*
X78867000Y-68499000D02*
X78867000Y-74955400D01*
G04 #@! TO.N,Net-(U5B-+)*
D85*
X86741000Y-65995000D02*
X86741000Y-66376000D01*
X86764500Y-68662000D02*
X87088900Y-68986400D01*
X83206500Y-66376000D02*
X83206500Y-66227500D01*
X86764500Y-68408000D02*
X86764500Y-66399500D01*
X86764500Y-66399500D02*
X86741000Y-66376000D01*
X85979000Y-65233000D02*
X86741000Y-65995000D01*
X83206500Y-66227500D02*
X84201000Y-65233000D01*
X92684500Y-68605500D02*
X92684500Y-67437000D01*
X92303600Y-68986400D02*
X92684500Y-68605500D01*
X84201000Y-65233000D02*
X85979000Y-65233000D01*
X87088900Y-68986400D02*
X92303600Y-68986400D01*
G04 #@! TO.N,/~{RST}*
X85852000Y-142392400D02*
X81838800Y-146405600D01*
X59182000Y-136017000D02*
X57785000Y-134620000D01*
D84*
X93980000Y-127508000D02*
X93980000Y-120777000D01*
D85*
X92125800Y-137033000D02*
X93599000Y-137033000D01*
X52777000Y-136671000D02*
X54828000Y-134620000D01*
X85852000Y-137160000D02*
X85852000Y-142392400D01*
X81838800Y-146405600D02*
X54551600Y-146405600D01*
D84*
X92841000Y-119638000D02*
X90816965Y-119638000D01*
D85*
X52777000Y-144631000D02*
X52777000Y-136671000D01*
X92100400Y-137007600D02*
X92125800Y-137033000D01*
D84*
X93980000Y-120777000D02*
X92841000Y-119638000D01*
X95504000Y-137922000D02*
X95504000Y-129032000D01*
X94996000Y-138430000D02*
X95504000Y-137922000D01*
X95504000Y-129032000D02*
X93980000Y-127508000D01*
D85*
X54551600Y-146405600D02*
X52777000Y-144631000D01*
X57785000Y-134620000D02*
X54828000Y-134620000D01*
X85979000Y-137033000D02*
X85852000Y-137160000D01*
X93599000Y-137033000D02*
X94996000Y-138430000D01*
D84*
X94996000Y-139573000D02*
X94996000Y-138430000D01*
G04 #@! TO.N,/MOTOR+_SENSE*
D85*
X91414500Y-66462001D02*
X92008501Y-65868000D01*
X92008501Y-65868000D02*
X93173000Y-65868000D01*
D84*
X93484000Y-119138000D02*
X90816965Y-119138000D01*
D85*
X93173000Y-65868000D02*
X93980000Y-66675000D01*
X93980000Y-73787000D02*
X91313000Y-76454000D01*
X91313000Y-76454000D02*
X91313000Y-95885000D01*
X91313000Y-95885000D02*
X86360000Y-100838000D01*
X93980000Y-66675000D02*
X93980000Y-73787000D01*
D84*
X94107000Y-116205000D02*
X94107000Y-102489000D01*
X94107000Y-119761000D02*
X93484000Y-119138000D01*
D85*
X91414500Y-67437000D02*
X91414500Y-66462001D01*
X90144500Y-67437000D02*
X91414500Y-67437000D01*
G04 #@! TO.N,/LPUART1_TX*
D84*
X95405000Y-118138000D02*
X96266000Y-118999000D01*
X90816965Y-118138000D02*
X95405000Y-118138000D01*
X96266000Y-118999000D02*
X96266000Y-139573000D01*
G04 #@! TO.N,/LPUART1_RX*
X97028000Y-140843000D02*
X97536000Y-140335000D01*
X97028000Y-118618000D02*
X96048000Y-117638000D01*
X97536000Y-136525000D02*
X97028000Y-136017000D01*
X96266000Y-140843000D02*
X97028000Y-140843000D01*
X97536000Y-140335000D02*
X97536000Y-136525000D01*
X97028000Y-136017000D02*
X97028000Y-118618000D01*
X96048000Y-117638000D02*
X90816965Y-117638000D01*
G04 #@! TO.N,/TIM1_CH2N*
X59563000Y-66675000D02*
X62230000Y-64008000D01*
X63754000Y-86931500D02*
X67564000Y-83121500D01*
X63754000Y-104394000D02*
X63754000Y-86931500D01*
X71882000Y-78803500D02*
X71882000Y-75946000D01*
X62230000Y-64008000D02*
X64262000Y-64008000D01*
X59944000Y-75184000D02*
X59563000Y-74803000D01*
X71882000Y-75946000D02*
X71120000Y-75184000D01*
X59563000Y-70485000D02*
X59563000Y-66675000D01*
X71120000Y-75184000D02*
X59944000Y-75184000D01*
X73406000Y-105410000D02*
X64770000Y-105410000D01*
X64770000Y-105410000D02*
X63754000Y-104394000D01*
X67564000Y-83121500D02*
X71882000Y-78803500D01*
G04 #@! TO.N,/IPROPI*
X58166000Y-70866000D02*
X58166000Y-67056000D01*
X64516000Y-92075000D02*
X67564000Y-89027000D01*
X73152000Y-83439000D02*
X73152000Y-75946000D01*
X64516000Y-103886000D02*
X64516000Y-92075000D01*
X71755000Y-74549000D02*
X61468000Y-74549000D01*
X67564000Y-89027000D02*
X73152000Y-83439000D01*
X58166000Y-67056000D02*
X61618500Y-63603500D01*
X74676000Y-115316000D02*
X74676000Y-105156000D01*
X64212000Y-62738000D02*
X61618500Y-62738000D01*
X65024000Y-104394000D02*
X64516000Y-103886000D01*
X60960000Y-74041000D02*
X58166000Y-74041000D01*
X76498000Y-117138000D02*
X74676000Y-115316000D01*
X61468000Y-74549000D02*
X60960000Y-74041000D01*
X74676000Y-105156000D02*
X73914000Y-104394000D01*
X61618500Y-63603500D02*
X61618500Y-62738000D01*
X82491965Y-117138000D02*
X76498000Y-117138000D01*
X73152000Y-75946000D02*
X71755000Y-74549000D01*
X73914000Y-104394000D02*
X65024000Y-104394000D01*
D85*
X61571500Y-62691000D02*
X61618500Y-62738000D01*
G04 #@! TO.N,/TIM1_CH1*
D84*
X64262000Y-65278000D02*
X61976000Y-65278000D01*
X82491965Y-119638000D02*
X77855000Y-119638000D01*
X60833000Y-75946000D02*
X62103000Y-77216000D01*
X61976000Y-65278000D02*
X60833000Y-66421000D01*
X62103000Y-77216000D02*
X68834000Y-77216000D01*
X62992000Y-105156000D02*
X62992000Y-81788000D01*
X60833000Y-66421000D02*
X60833000Y-71120000D01*
X77855000Y-119638000D02*
X73660000Y-115443000D01*
X62992000Y-81788000D02*
X67564000Y-77216000D01*
X73660000Y-106934000D02*
X72898000Y-106172000D01*
X64008000Y-106172000D02*
X62992000Y-105156000D01*
X73660000Y-115443000D02*
X73660000Y-106934000D01*
X72898000Y-106172000D02*
X64008000Y-106172000D01*
G04 #@! TO.N,/USB_D-*
D86*
X55166000Y-123304000D02*
X54483590Y-123304000D01*
D84*
X75054000Y-122304000D02*
X76220000Y-121138000D01*
X76220000Y-121138000D02*
X82491965Y-121138000D01*
X53961000Y-123054000D02*
X53961000Y-122546000D01*
X54203000Y-122304000D02*
X75054000Y-122304000D01*
X54215000Y-123308000D02*
X53961000Y-123054000D01*
D86*
X54483590Y-123304000D02*
X54479590Y-123308000D01*
D84*
X54479590Y-123308000D02*
X54215000Y-123308000D01*
X53961000Y-122546000D02*
X54203000Y-122304000D01*
G04 #@! TO.N,/USB_D+*
X82491965Y-121638000D02*
X81433490Y-121638000D01*
X56374000Y-123572709D02*
X56374000Y-123054000D01*
X56142709Y-123804000D02*
X56374000Y-123572709D01*
X55166000Y-123804000D02*
X56142709Y-123804000D01*
X76523000Y-121597000D02*
X75311000Y-122809000D01*
X81392490Y-121597000D02*
X76523000Y-121597000D01*
X55166000Y-122804000D02*
X56124000Y-122804000D01*
X56619000Y-122809000D02*
X56374000Y-123054000D01*
X56124000Y-122804000D02*
X56374000Y-123054000D01*
X75311000Y-122809000D02*
X56619000Y-122809000D01*
X81433490Y-121638000D02*
X81392490Y-121597000D01*
G04 #@! TO.N,/SWDIO*
X89535000Y-133477000D02*
X85090000Y-133477000D01*
X85090000Y-133477000D02*
X83904465Y-132291465D01*
X83904465Y-132291465D02*
X83904465Y-124050500D01*
X89916000Y-133858000D02*
X89535000Y-133477000D01*
X89916000Y-139573000D02*
X89916000Y-133858000D01*
G04 #@! TO.N,/SWCLK*
X90424000Y-132842000D02*
X85344000Y-132842000D01*
X91186000Y-139573000D02*
X91186000Y-133604000D01*
X91186000Y-133604000D02*
X90424000Y-132842000D01*
X84404465Y-131902465D02*
X84404465Y-124050500D01*
X85344000Y-132842000D02*
X84404465Y-131902465D01*
G04 #@! TO.N,Net-(U1-SW)*
D82*
X65767250Y-117532000D02*
X67155250Y-117532000D01*
D85*
X61562750Y-116637000D02*
X61191750Y-116266000D01*
D82*
X64427250Y-118872000D02*
X65767250Y-117532000D01*
X61554250Y-117840000D02*
X61554250Y-117843000D01*
X61554250Y-117843000D02*
X62583250Y-118872000D01*
X62583250Y-118872000D02*
X64427250Y-118872000D01*
D85*
X61562750Y-117840000D02*
X61562750Y-116637000D01*
G04 #@! TO.N,Net-(U3-ADJ)*
D84*
X83941500Y-62560500D02*
X84394000Y-62560500D01*
X82677000Y-59756000D02*
X82677000Y-61399500D01*
X82780500Y-61399500D02*
X83941500Y-62560500D01*
X82677000Y-61399500D02*
X82780500Y-61399500D01*
G04 #@! TO.N,Net-(D5-A)*
D81*
X51562000Y-107656500D02*
X54570500Y-104648000D01*
X51562000Y-111125000D02*
X51562000Y-107656500D01*
G04 #@! TO.N,Net-(R20-Pad2)*
D85*
X83312000Y-68662000D02*
X84939500Y-68662000D01*
G04 #@! TO.N,/HALL_A*
D84*
X92583000Y-100965000D02*
X89789000Y-103759000D01*
X92583000Y-80010000D02*
X92583000Y-100965000D01*
X77777000Y-57249000D02*
X80543000Y-54483000D01*
X94361000Y-54483000D02*
X96570800Y-56692800D01*
X96570800Y-56692800D02*
X96570800Y-76022200D01*
X80543000Y-54483000D02*
X94361000Y-54483000D01*
X82677000Y-103759000D02*
X82423000Y-104013000D01*
X96570800Y-76022200D02*
X92583000Y-80010000D01*
X82423000Y-104013000D02*
X82423000Y-105156000D01*
X89789000Y-103759000D02*
X82677000Y-103759000D01*
G04 #@! TO.N,Net-(U1-FB)*
D82*
X66393250Y-111189000D02*
X66202250Y-110998000D01*
D85*
X64549250Y-114366000D02*
X63466750Y-114366000D01*
X65377250Y-111823000D02*
X65377250Y-113538000D01*
X66202250Y-110998000D02*
X65377250Y-111823000D01*
D82*
X67917250Y-111189000D02*
X66393250Y-111189000D01*
D85*
X65377250Y-113538000D02*
X64549250Y-114366000D01*
G04 #@! TO.N,Net-(U1-CB)*
X63112750Y-116620000D02*
X63466750Y-116266000D01*
X63112750Y-117840000D02*
X63112750Y-116620000D01*
G04 #@! TO.N,Net-(R23-Pad1)*
X132591509Y-124079000D02*
X134895509Y-126383000D01*
X134895509Y-126383000D02*
X142875000Y-126383000D01*
X130964009Y-124079000D02*
X132591509Y-124079000D01*
G04 #@! TO.N,/HALL_B*
D84*
X93980000Y-80645000D02*
X97485200Y-77139800D01*
X94742000Y-53848000D02*
X78638000Y-53848000D01*
X93980000Y-101219000D02*
X93980000Y-80645000D01*
X97485200Y-77139800D02*
X97485200Y-56591200D01*
X97485200Y-56591200D02*
X94742000Y-53848000D01*
X92270000Y-105172000D02*
X92270000Y-102929000D01*
X92270000Y-102929000D02*
X93980000Y-101219000D01*
X78638000Y-53848000D02*
X77777000Y-54709000D01*
G04 #@! TO.N,+3.3V*
D83*
X89888000Y-126845000D02*
X89916000Y-126873000D01*
D82*
X86360000Y-126873000D02*
X89916000Y-126873000D01*
G04 #@! TD*
G04 #@! TA.AperFunction,Conductor*
G04 #@! TO.N,GND*
G36*
X89309039Y-56680185D02*
G01*
X89354794Y-56732989D01*
X89366000Y-56784500D01*
X89366000Y-61591833D01*
X89346315Y-61658872D01*
X89293511Y-61704627D01*
X89242000Y-61715833D01*
X89028837Y-61715833D01*
X88961798Y-61696148D01*
X88953912Y-61690637D01*
X88885343Y-61638639D01*
X88744561Y-61583122D01*
X88698926Y-61577642D01*
X88656102Y-61572500D01*
X87619898Y-61572500D01*
X87580853Y-61577188D01*
X87531438Y-61583122D01*
X87390656Y-61638639D01*
X87322088Y-61690637D01*
X87256777Y-61715460D01*
X87247163Y-61715833D01*
X86793380Y-61715833D01*
X86726341Y-61696148D01*
X86719756Y-61691610D01*
X86656882Y-61645207D01*
X86656880Y-61645206D01*
X86528700Y-61600353D01*
X86498270Y-61597500D01*
X86498266Y-61597500D01*
X86089734Y-61597500D01*
X86089730Y-61597500D01*
X86059300Y-61600353D01*
X86059298Y-61600353D01*
X85931119Y-61645206D01*
X85931118Y-61645207D01*
X85868252Y-61691603D01*
X85802625Y-61715574D01*
X85794620Y-61715833D01*
X85683000Y-61715833D01*
X85683000Y-63242833D01*
X85663315Y-63309872D01*
X85610511Y-63355627D01*
X85559000Y-63366833D01*
X85093229Y-63366833D01*
X85026190Y-63347148D01*
X84980435Y-63294344D01*
X84970491Y-63225186D01*
X84976187Y-63201878D01*
X84991646Y-63157699D01*
X84994500Y-63127266D01*
X84994500Y-61993734D01*
X84994284Y-61991436D01*
X84991646Y-61963300D01*
X84991646Y-61963298D01*
X84952843Y-61852408D01*
X84946793Y-61835118D01*
X84866150Y-61725850D01*
X84756882Y-61645207D01*
X84756880Y-61645206D01*
X84628700Y-61600353D01*
X84598270Y-61597500D01*
X84598266Y-61597500D01*
X84189734Y-61597500D01*
X84189730Y-61597500D01*
X84159301Y-61600353D01*
X84111954Y-61616921D01*
X84042175Y-61620482D01*
X83981548Y-61585753D01*
X83949321Y-61523760D01*
X83947000Y-61499879D01*
X83947000Y-61346120D01*
X83966685Y-61279081D01*
X84019489Y-61233326D01*
X84088647Y-61223382D01*
X84111952Y-61229078D01*
X84159301Y-61245646D01*
X84159300Y-61245646D01*
X84189730Y-61248500D01*
X84189734Y-61248500D01*
X84598270Y-61248500D01*
X84628699Y-61245646D01*
X84628701Y-61245646D01*
X84693421Y-61222999D01*
X84756882Y-61200793D01*
X84836774Y-61141830D01*
X84902401Y-61117860D01*
X84966701Y-61131116D01*
X85068850Y-61183164D01*
X85144000Y-61195065D01*
X85144000Y-60409500D01*
X85163685Y-60342461D01*
X85216489Y-60296706D01*
X85268000Y-60285500D01*
X85420000Y-60285500D01*
X85487039Y-60305185D01*
X85532794Y-60357989D01*
X85544000Y-60409500D01*
X85544000Y-61195064D01*
X85619149Y-61183164D01*
X85619152Y-61183163D01*
X85721297Y-61131117D01*
X85789966Y-61118220D01*
X85851226Y-61141831D01*
X85931113Y-61200790D01*
X85931115Y-61200791D01*
X85931118Y-61200793D01*
X85973845Y-61215744D01*
X86059299Y-61245646D01*
X86089730Y-61248500D01*
X86089734Y-61248500D01*
X86498270Y-61248500D01*
X86528699Y-61245646D01*
X86528701Y-61245646D01*
X86593421Y-61222999D01*
X86656882Y-61200793D01*
X86766150Y-61120150D01*
X86846793Y-61010882D01*
X86869219Y-60946790D01*
X86891646Y-60882701D01*
X86891646Y-60882699D01*
X86894500Y-60852269D01*
X86894500Y-60770844D01*
X87163000Y-60770844D01*
X87169401Y-60830372D01*
X87169403Y-60830379D01*
X87219645Y-60965086D01*
X87219649Y-60965093D01*
X87305809Y-61080187D01*
X87305812Y-61080190D01*
X87420906Y-61166350D01*
X87420913Y-61166354D01*
X87555620Y-61216596D01*
X87555627Y-61216598D01*
X87615155Y-61222999D01*
X87615172Y-61223000D01*
X87938000Y-61223000D01*
X88338000Y-61223000D01*
X88660828Y-61223000D01*
X88660844Y-61222999D01*
X88720372Y-61216598D01*
X88720379Y-61216596D01*
X88855086Y-61166354D01*
X88855093Y-61166350D01*
X88970187Y-61080190D01*
X88970190Y-61080187D01*
X89056350Y-60965093D01*
X89056354Y-60965086D01*
X89106596Y-60830379D01*
X89106598Y-60830372D01*
X89112999Y-60770844D01*
X89113000Y-60770827D01*
X89113000Y-60585500D01*
X88338000Y-60585500D01*
X88338000Y-61223000D01*
X87938000Y-61223000D01*
X87938000Y-60585500D01*
X87163000Y-60585500D01*
X87163000Y-60770844D01*
X86894500Y-60770844D01*
X86894500Y-60000155D01*
X87163000Y-60000155D01*
X87163000Y-60185500D01*
X87938000Y-60185500D01*
X87938000Y-59548000D01*
X88338000Y-59548000D01*
X88338000Y-60185500D01*
X89113000Y-60185500D01*
X89113000Y-60000172D01*
X89112999Y-60000155D01*
X89106598Y-59940627D01*
X89106596Y-59940620D01*
X89056354Y-59805913D01*
X89056350Y-59805906D01*
X88970190Y-59690812D01*
X88970187Y-59690809D01*
X88855093Y-59604649D01*
X88855086Y-59604645D01*
X88720379Y-59554403D01*
X88720374Y-59554401D01*
X88713337Y-59553645D01*
X88648787Y-59526904D01*
X88608941Y-59469510D01*
X88606450Y-59399685D01*
X88642105Y-59339597D01*
X88683265Y-59314174D01*
X88739084Y-59293355D01*
X88739093Y-59293350D01*
X88854187Y-59207190D01*
X88854190Y-59207187D01*
X88940350Y-59092093D01*
X88940354Y-59092086D01*
X88990596Y-58957379D01*
X88990598Y-58957372D01*
X88996999Y-58897844D01*
X88997000Y-58897827D01*
X88997000Y-58575000D01*
X88359500Y-58575000D01*
X88359500Y-59350000D01*
X88360069Y-59350569D01*
X88393554Y-59411892D01*
X88388570Y-59481584D01*
X88360069Y-59525931D01*
X88338000Y-59548000D01*
X87938000Y-59548000D01*
X87937431Y-59547431D01*
X87903946Y-59486108D01*
X87908930Y-59416416D01*
X87937431Y-59372069D01*
X87959500Y-59350000D01*
X87959500Y-58575000D01*
X87322000Y-58575000D01*
X87322000Y-58897844D01*
X87328401Y-58957372D01*
X87328403Y-58957379D01*
X87378645Y-59092086D01*
X87378649Y-59092093D01*
X87464809Y-59207187D01*
X87464812Y-59207190D01*
X87579906Y-59293350D01*
X87579915Y-59293355D01*
X87626112Y-59310585D01*
X87682046Y-59352455D01*
X87706464Y-59417919D01*
X87691613Y-59486192D01*
X87642208Y-59535598D01*
X87596038Y-59550056D01*
X87555626Y-59554401D01*
X87555620Y-59554403D01*
X87420913Y-59604645D01*
X87420906Y-59604649D01*
X87305812Y-59690809D01*
X87305809Y-59690812D01*
X87219649Y-59805906D01*
X87219645Y-59805913D01*
X87169403Y-59940620D01*
X87169401Y-59940627D01*
X87163000Y-60000155D01*
X86894500Y-60000155D01*
X86894500Y-59718730D01*
X86891646Y-59688302D01*
X86851458Y-59573449D01*
X86844500Y-59532495D01*
X86844500Y-59245616D01*
X86864185Y-59178577D01*
X86869697Y-59170690D01*
X86870770Y-59169275D01*
X86906361Y-59122342D01*
X86961877Y-58981564D01*
X86972500Y-58893102D01*
X86972500Y-57856898D01*
X86971930Y-57852155D01*
X87322000Y-57852155D01*
X87322000Y-58175000D01*
X87959500Y-58175000D01*
X88359500Y-58175000D01*
X88997000Y-58175000D01*
X88997000Y-57852172D01*
X88996999Y-57852155D01*
X88990598Y-57792627D01*
X88990596Y-57792620D01*
X88940354Y-57657913D01*
X88940350Y-57657906D01*
X88854190Y-57542812D01*
X88854187Y-57542809D01*
X88739093Y-57456649D01*
X88739086Y-57456645D01*
X88604379Y-57406403D01*
X88604372Y-57406401D01*
X88544844Y-57400000D01*
X88359500Y-57400000D01*
X88359500Y-58175000D01*
X87959500Y-58175000D01*
X87959500Y-57400000D01*
X87774155Y-57400000D01*
X87714627Y-57406401D01*
X87714620Y-57406403D01*
X87579913Y-57456645D01*
X87579906Y-57456649D01*
X87464812Y-57542809D01*
X87464809Y-57542812D01*
X87378649Y-57657906D01*
X87378645Y-57657913D01*
X87328403Y-57792620D01*
X87328401Y-57792627D01*
X87322000Y-57852155D01*
X86971930Y-57852155D01*
X86961877Y-57768436D01*
X86906361Y-57627658D01*
X86906360Y-57627657D01*
X86906360Y-57627656D01*
X86814922Y-57507077D01*
X86687584Y-57410514D01*
X86689117Y-57408491D01*
X86649426Y-57367783D01*
X86635000Y-57309736D01*
X86635000Y-56784500D01*
X86654685Y-56717461D01*
X86707489Y-56671706D01*
X86759000Y-56660500D01*
X89242000Y-56660500D01*
X89309039Y-56680185D01*
G37*
G04 #@! TD.AperFunction*
G04 #@! TD*
G04 #@! TA.AperFunction,Conductor*
G04 #@! TO.N,GND*
G36*
X63973795Y-110255685D02*
G01*
X64019550Y-110308489D01*
X64029494Y-110377647D01*
X64006526Y-110433634D01*
X63949903Y-110510354D01*
X63905100Y-110638395D01*
X63905100Y-110638399D01*
X63902250Y-110668793D01*
X63902250Y-110798000D01*
X64428250Y-110798000D01*
X64495289Y-110817685D01*
X64541044Y-110870489D01*
X64552250Y-110922000D01*
X64552250Y-110998000D01*
X64628250Y-110998000D01*
X64695289Y-111017685D01*
X64741044Y-111070489D01*
X64752250Y-111122000D01*
X64752250Y-111729000D01*
X64732565Y-111796039D01*
X64679761Y-111841794D01*
X64628250Y-111853000D01*
X64627250Y-111853000D01*
X64627250Y-112652000D01*
X64607565Y-112719039D01*
X64554761Y-112764794D01*
X64503250Y-112776000D01*
X64427250Y-112776000D01*
X64427250Y-112852000D01*
X64407565Y-112919039D01*
X64354761Y-112964794D01*
X64303250Y-112976000D01*
X63677250Y-112976000D01*
X63677250Y-113298844D01*
X63683651Y-113358372D01*
X63683653Y-113358379D01*
X63733895Y-113493086D01*
X63733899Y-113493093D01*
X63809206Y-113593689D01*
X63833624Y-113659153D01*
X63818773Y-113727426D01*
X63769368Y-113776832D01*
X63709940Y-113792000D01*
X62837248Y-113792000D01*
X62781561Y-113847686D01*
X62750179Y-113870487D01*
X62715906Y-113887950D01*
X62626200Y-113977657D01*
X62626199Y-113977657D01*
X62608735Y-114011931D01*
X62585940Y-114043308D01*
X62583250Y-114045997D01*
X62575358Y-114065052D01*
X62571444Y-114081355D01*
X62571620Y-114081412D01*
X62570895Y-114083641D01*
X62569735Y-114088476D01*
X62568603Y-114090696D01*
X62568603Y-114090697D01*
X62553750Y-114184475D01*
X62553750Y-114547517D01*
X62559104Y-114581320D01*
X62568604Y-114641304D01*
X62569733Y-114643521D01*
X62570891Y-114648342D01*
X62571620Y-114650585D01*
X62571443Y-114650642D01*
X62583250Y-114699817D01*
X62583250Y-115932181D01*
X62571444Y-115981355D01*
X62571620Y-115981412D01*
X62570895Y-115983641D01*
X62569735Y-115988476D01*
X62568603Y-115990696D01*
X62568603Y-115990697D01*
X62553750Y-116084475D01*
X62553750Y-116447517D01*
X62564542Y-116515657D01*
X62568604Y-116541304D01*
X62569733Y-116543521D01*
X62570891Y-116548342D01*
X62571620Y-116550585D01*
X62571443Y-116550642D01*
X62583250Y-116599817D01*
X62583250Y-116970000D01*
X62563565Y-117037039D01*
X62510761Y-117082794D01*
X62459250Y-117094000D01*
X62087250Y-117094000D01*
X62020211Y-117074315D01*
X61974456Y-117021511D01*
X61963250Y-116970000D01*
X61963250Y-116774754D01*
X61982935Y-116707715D01*
X61999570Y-116687072D01*
X62032296Y-116654346D01*
X62032300Y-116654342D01*
X62089896Y-116541304D01*
X62089896Y-116541302D01*
X62089897Y-116541301D01*
X62104749Y-116447524D01*
X62104750Y-116447519D01*
X62104749Y-116084482D01*
X62089896Y-115990696D01*
X62032300Y-115877658D01*
X62032295Y-115877653D01*
X62026561Y-115869759D01*
X62027915Y-115868774D01*
X61999840Y-115817368D01*
X62004819Y-115747676D01*
X62027263Y-115712751D01*
X62026561Y-115712241D01*
X62032292Y-115704349D01*
X62032300Y-115704342D01*
X62089896Y-115591304D01*
X62089896Y-115591302D01*
X62089897Y-115591301D01*
X62104749Y-115497524D01*
X62104750Y-115497519D01*
X62104749Y-115134482D01*
X62089896Y-115040696D01*
X62032300Y-114927658D01*
X62032295Y-114927653D01*
X62026561Y-114919759D01*
X62027915Y-114918774D01*
X61999840Y-114867368D01*
X62004819Y-114797676D01*
X62027263Y-114762751D01*
X62026561Y-114762241D01*
X62032292Y-114754349D01*
X62032300Y-114754342D01*
X62089896Y-114641304D01*
X62089896Y-114641302D01*
X62089897Y-114641301D01*
X62104749Y-114547524D01*
X62104750Y-114547519D01*
X62104749Y-114184482D01*
X62089896Y-114090696D01*
X62032300Y-113977658D01*
X62032296Y-113977654D01*
X62032295Y-113977652D01*
X61942597Y-113887954D01*
X61942594Y-113887952D01*
X61942592Y-113887950D01*
X61863570Y-113847686D01*
X61829551Y-113830352D01*
X61735774Y-113815500D01*
X61735769Y-113815500D01*
X61716250Y-113815500D01*
X61649211Y-113795815D01*
X61603456Y-113743011D01*
X61592250Y-113691500D01*
X61592250Y-113474059D01*
X61611935Y-113407020D01*
X61664739Y-113361265D01*
X61733897Y-113351321D01*
X61790561Y-113374792D01*
X61887265Y-113447184D01*
X61887266Y-113447185D01*
X62015241Y-113494917D01*
X62015244Y-113494918D01*
X62071805Y-113500999D01*
X62542250Y-113500999D01*
X62612683Y-113500999D01*
X62612689Y-113500998D01*
X62669257Y-113494918D01*
X62797231Y-113447186D01*
X62797234Y-113447184D01*
X62906579Y-113365329D01*
X62988434Y-113255984D01*
X62988435Y-113255983D01*
X63036166Y-113128010D01*
X63042249Y-113071428D01*
X63042250Y-113071427D01*
X63042250Y-112976000D01*
X62542250Y-112976000D01*
X62542250Y-113500999D01*
X62071805Y-113500999D01*
X62142249Y-113500998D01*
X62142250Y-113500998D01*
X62142250Y-112072085D01*
X62542250Y-112072085D01*
X62542250Y-112576000D01*
X63042249Y-112576000D01*
X63042249Y-112480566D01*
X63042248Y-112480560D01*
X63036168Y-112423994D01*
X62988434Y-112296015D01*
X62956349Y-112253155D01*
X63677250Y-112253155D01*
X63677250Y-112576000D01*
X64227250Y-112576000D01*
X64227250Y-111795000D01*
X64246935Y-111727961D01*
X64299739Y-111682206D01*
X64351250Y-111671000D01*
X64352250Y-111671000D01*
X64352250Y-111198000D01*
X63902251Y-111198000D01*
X63902251Y-111327196D01*
X63905101Y-111357606D01*
X63949903Y-111485645D01*
X64030458Y-111594793D01*
X64050853Y-111609845D01*
X64093104Y-111665492D01*
X64098563Y-111735148D01*
X64065496Y-111796698D01*
X64020554Y-111825797D01*
X63935161Y-111857646D01*
X63935156Y-111857649D01*
X63820062Y-111943809D01*
X63820059Y-111943812D01*
X63733899Y-112058906D01*
X63733895Y-112058913D01*
X63683653Y-112193620D01*
X63683651Y-112193627D01*
X63677250Y-112253155D01*
X62956349Y-112253155D01*
X62906579Y-112186670D01*
X62855258Y-112148251D01*
X62813387Y-112092317D01*
X62808403Y-112022625D01*
X62841888Y-111961302D01*
X62886237Y-111932801D01*
X62930340Y-111916352D01*
X62930343Y-111916350D01*
X63045437Y-111830190D01*
X63045440Y-111830187D01*
X63131600Y-111715093D01*
X63131604Y-111715086D01*
X63181846Y-111580379D01*
X63181848Y-111580372D01*
X63188249Y-111520844D01*
X63188250Y-111520827D01*
X63188250Y-111198000D01*
X62550750Y-111198000D01*
X62550750Y-112043138D01*
X62542250Y-112072085D01*
X62142250Y-112072085D01*
X62142250Y-111980862D01*
X62150750Y-111951914D01*
X62150750Y-111122000D01*
X62170435Y-111054961D01*
X62223239Y-111009206D01*
X62274750Y-110998000D01*
X62350750Y-110998000D01*
X62350750Y-110922000D01*
X62370435Y-110854961D01*
X62423239Y-110809206D01*
X62474750Y-110798000D01*
X63188250Y-110798000D01*
X63188250Y-110475172D01*
X63188249Y-110475155D01*
X63181848Y-110415627D01*
X63181846Y-110415620D01*
X63177264Y-110403333D01*
X63172280Y-110333641D01*
X63205765Y-110272318D01*
X63267089Y-110238834D01*
X63293446Y-110236000D01*
X63906756Y-110236000D01*
X63973795Y-110255685D01*
G37*
G04 #@! TD.AperFunction*
G04 #@! TD*
G04 #@! TA.AperFunction,Conductor*
G04 #@! TO.N,GND*
G36*
X55665872Y-52216685D02*
G01*
X55711627Y-52269489D01*
X55722833Y-52321000D01*
X55722833Y-52684295D01*
X55703148Y-52751334D01*
X55697637Y-52759219D01*
X55682140Y-52779654D01*
X55626622Y-52920438D01*
X55623718Y-52944625D01*
X55616000Y-53008898D01*
X55616000Y-54045102D01*
X55620802Y-54085088D01*
X55626622Y-54133561D01*
X55682139Y-54274343D01*
X55697635Y-54294776D01*
X55722460Y-54360087D01*
X55722833Y-54369703D01*
X55722833Y-54972683D01*
X55715875Y-55013637D01*
X55670853Y-55142302D01*
X55668000Y-55172730D01*
X55668000Y-55581269D01*
X55670853Y-55611699D01*
X55670853Y-55611701D01*
X55715874Y-55740359D01*
X55716914Y-55760742D01*
X55722829Y-55780283D01*
X55722833Y-55781314D01*
X55722833Y-55988000D01*
X57153000Y-55988000D01*
X57220039Y-56007685D01*
X57265794Y-56060489D01*
X57277000Y-56112000D01*
X57277000Y-56552500D01*
X57257315Y-56619539D01*
X57204511Y-56665294D01*
X57153000Y-56676500D01*
X56064230Y-56676500D01*
X56033800Y-56679353D01*
X56033798Y-56679353D01*
X55905619Y-56724206D01*
X55905617Y-56724207D01*
X55796350Y-56804850D01*
X55715707Y-56914117D01*
X55715706Y-56914119D01*
X55670853Y-57042298D01*
X55670853Y-57042300D01*
X55668000Y-57072730D01*
X55668000Y-57481269D01*
X55670853Y-57511699D01*
X55670853Y-57511701D01*
X55715706Y-57639880D01*
X55715707Y-57639882D01*
X55796350Y-57749150D01*
X55865968Y-57800530D01*
X55885216Y-57814736D01*
X55927467Y-57870384D01*
X55932925Y-57940040D01*
X55899857Y-58001589D01*
X55899352Y-58002098D01*
X55898859Y-58002592D01*
X55837570Y-58036139D01*
X55811089Y-58039000D01*
X55174748Y-58039000D01*
X55107709Y-58019315D01*
X55061954Y-57966511D01*
X55052010Y-57897353D01*
X55081035Y-57833797D01*
X55101114Y-57815230D01*
X55190650Y-57749150D01*
X55271293Y-57639882D01*
X55293719Y-57575790D01*
X55316146Y-57511701D01*
X55316146Y-57511699D01*
X55319000Y-57481269D01*
X55319000Y-57072730D01*
X55316146Y-57042300D01*
X55316146Y-57042298D01*
X55271293Y-56914119D01*
X55271292Y-56914117D01*
X55212328Y-56834224D01*
X55188359Y-56768598D01*
X55201616Y-56704297D01*
X55253665Y-56602146D01*
X55253666Y-56602144D01*
X55265568Y-56527000D01*
X54480000Y-56527000D01*
X54412961Y-56507315D01*
X54367206Y-56454511D01*
X54356000Y-56403000D01*
X54356000Y-56251000D01*
X54375685Y-56183961D01*
X54428489Y-56138206D01*
X54480000Y-56127000D01*
X55265565Y-56127000D01*
X55253663Y-56051847D01*
X55251067Y-56043854D01*
X55245000Y-56005542D01*
X55245000Y-55816311D01*
X55254692Y-55783302D01*
X55264131Y-55750141D01*
X55264534Y-55749785D01*
X55264685Y-55749272D01*
X55269233Y-55742673D01*
X55271293Y-55739882D01*
X55286244Y-55697154D01*
X55316146Y-55611701D01*
X55316146Y-55611699D01*
X55319000Y-55581269D01*
X55319000Y-55172730D01*
X55316146Y-55142300D01*
X55316146Y-55142298D01*
X55271293Y-55014119D01*
X55271292Y-55014117D01*
X55250503Y-54985949D01*
X55190650Y-54904850D01*
X55081382Y-54824207D01*
X55081380Y-54824206D01*
X54953200Y-54779353D01*
X54922770Y-54776500D01*
X54922766Y-54776500D01*
X53789234Y-54776500D01*
X53789230Y-54776500D01*
X53758800Y-54779353D01*
X53758798Y-54779354D01*
X53643951Y-54819541D01*
X53602996Y-54826500D01*
X53297029Y-54826500D01*
X53229990Y-54806815D01*
X53222117Y-54801314D01*
X53165842Y-54758639D01*
X53165841Y-54758638D01*
X53025061Y-54703122D01*
X52979426Y-54697642D01*
X52936602Y-54692500D01*
X51900398Y-54692500D01*
X51861353Y-54697188D01*
X51811938Y-54703122D01*
X51671156Y-54758639D01*
X51550577Y-54850077D01*
X51479032Y-54944425D01*
X51422839Y-54985949D01*
X51380228Y-54993500D01*
X51178000Y-54993500D01*
X51110961Y-54973815D01*
X51065206Y-54921011D01*
X51054000Y-54869500D01*
X51054000Y-53890844D01*
X51443500Y-53890844D01*
X51449901Y-53950372D01*
X51449903Y-53950379D01*
X51500145Y-54085086D01*
X51500149Y-54085093D01*
X51586309Y-54200187D01*
X51586312Y-54200190D01*
X51701406Y-54286350D01*
X51701413Y-54286354D01*
X51836120Y-54336596D01*
X51836127Y-54336598D01*
X51895655Y-54342999D01*
X51895672Y-54343000D01*
X52218500Y-54343000D01*
X52618500Y-54343000D01*
X52941328Y-54343000D01*
X52941344Y-54342999D01*
X53000872Y-54336598D01*
X53000879Y-54336596D01*
X53135586Y-54286354D01*
X53135593Y-54286350D01*
X53250687Y-54200190D01*
X53250690Y-54200187D01*
X53336850Y-54085093D01*
X53336853Y-54085088D01*
X53354084Y-54038888D01*
X53395954Y-53982953D01*
X53461418Y-53958535D01*
X53529692Y-53973386D01*
X53579098Y-54022790D01*
X53593556Y-54068961D01*
X53597901Y-54109373D01*
X53597903Y-54109379D01*
X53648145Y-54244086D01*
X53648149Y-54244093D01*
X53734309Y-54359187D01*
X53734312Y-54359190D01*
X53849406Y-54445350D01*
X53849413Y-54445354D01*
X53984120Y-54495596D01*
X53984127Y-54495598D01*
X54043655Y-54501999D01*
X54043672Y-54502000D01*
X54229000Y-54502000D01*
X54629000Y-54502000D01*
X54814328Y-54502000D01*
X54814344Y-54501999D01*
X54873872Y-54495598D01*
X54873879Y-54495596D01*
X55008586Y-54445354D01*
X55008593Y-54445350D01*
X55123687Y-54359190D01*
X55123690Y-54359187D01*
X55209850Y-54244093D01*
X55209854Y-54244086D01*
X55260096Y-54109379D01*
X55260098Y-54109372D01*
X55266499Y-54049844D01*
X55266500Y-54049827D01*
X55266500Y-53727000D01*
X54629000Y-53727000D01*
X54629000Y-54502000D01*
X54229000Y-54502000D01*
X54229000Y-53727000D01*
X53591500Y-53727000D01*
X53590931Y-53727569D01*
X53576101Y-53735666D01*
X53564338Y-53747796D01*
X53546072Y-53752063D01*
X53529608Y-53761054D01*
X53512754Y-53759848D01*
X53496301Y-53763693D01*
X53478627Y-53757408D01*
X53459916Y-53756070D01*
X53446389Y-53745944D01*
X53430470Y-53740283D01*
X53415569Y-53727569D01*
X53393500Y-53705500D01*
X52618500Y-53705500D01*
X52618500Y-54343000D01*
X52218500Y-54343000D01*
X52218500Y-53705500D01*
X51443500Y-53705500D01*
X51443500Y-53890844D01*
X51054000Y-53890844D01*
X51054000Y-53120155D01*
X51443500Y-53120155D01*
X51443500Y-53305500D01*
X52218500Y-53305500D01*
X52218500Y-52668000D01*
X52618500Y-52668000D01*
X52618500Y-53305500D01*
X53393500Y-53305500D01*
X53394069Y-53304931D01*
X53408898Y-53296833D01*
X53420662Y-53284704D01*
X53438927Y-53280436D01*
X53455392Y-53271446D01*
X53472245Y-53272651D01*
X53488699Y-53268807D01*
X53506372Y-53275091D01*
X53525084Y-53276430D01*
X53543601Y-53288330D01*
X53554530Y-53292217D01*
X53559346Y-53298450D01*
X53569431Y-53304931D01*
X53591500Y-53327000D01*
X54229000Y-53327000D01*
X54629000Y-53327000D01*
X55266500Y-53327000D01*
X55266500Y-53004172D01*
X55266499Y-53004155D01*
X55260098Y-52944627D01*
X55260096Y-52944620D01*
X55209854Y-52809913D01*
X55209850Y-52809906D01*
X55123690Y-52694812D01*
X55123687Y-52694809D01*
X55008593Y-52608649D01*
X55008586Y-52608645D01*
X54873879Y-52558403D01*
X54873872Y-52558401D01*
X54814344Y-52552000D01*
X54629000Y-52552000D01*
X54629000Y-53327000D01*
X54229000Y-53327000D01*
X54229000Y-52552000D01*
X54043655Y-52552000D01*
X53984127Y-52558401D01*
X53984120Y-52558403D01*
X53849413Y-52608645D01*
X53849406Y-52608649D01*
X53734312Y-52694809D01*
X53734309Y-52694812D01*
X53648149Y-52809906D01*
X53648145Y-52809913D01*
X53597903Y-52944620D01*
X53597901Y-52944625D01*
X53597145Y-52951663D01*
X53570404Y-53016213D01*
X53513009Y-53056058D01*
X53443184Y-53058549D01*
X53383097Y-53022893D01*
X53357674Y-52981734D01*
X53336855Y-52925915D01*
X53336850Y-52925906D01*
X53250690Y-52810812D01*
X53250687Y-52810809D01*
X53135593Y-52724649D01*
X53135586Y-52724645D01*
X53000879Y-52674403D01*
X53000872Y-52674401D01*
X52941344Y-52668000D01*
X52618500Y-52668000D01*
X52218500Y-52668000D01*
X51895655Y-52668000D01*
X51836127Y-52674401D01*
X51836120Y-52674403D01*
X51701413Y-52724645D01*
X51701406Y-52724649D01*
X51586312Y-52810809D01*
X51586309Y-52810812D01*
X51500149Y-52925906D01*
X51500145Y-52925913D01*
X51449903Y-53060620D01*
X51449901Y-53060627D01*
X51443500Y-53120155D01*
X51054000Y-53120155D01*
X51054000Y-52321000D01*
X51073685Y-52253961D01*
X51126489Y-52208206D01*
X51178000Y-52197000D01*
X55598833Y-52197000D01*
X55665872Y-52216685D01*
G37*
G04 #@! TD.AperFunction*
G04 #@! TD*
G04 #@! TA.AperFunction,Conductor*
G04 #@! TO.N,GND*
G36*
X71317039Y-58947685D02*
G01*
X71362794Y-59000489D01*
X71374000Y-59052000D01*
X71374000Y-61852000D01*
X71354315Y-61919039D01*
X71301511Y-61964794D01*
X71250000Y-61976000D01*
X63116000Y-61976000D01*
X63048961Y-61956315D01*
X63003206Y-61903511D01*
X62992000Y-61852000D01*
X62992000Y-59052000D01*
X63011685Y-58984961D01*
X63064489Y-58939206D01*
X63116000Y-58928000D01*
X71250000Y-58928000D01*
X71317039Y-58947685D01*
G37*
G04 #@! TD.AperFunction*
G04 #@! TD*
G04 #@! TA.AperFunction,Conductor*
G04 #@! TO.N,GND*
G36*
X65044048Y-67315021D02*
G01*
X65054901Y-67318207D01*
X65113682Y-67355977D01*
X65142711Y-67419531D01*
X65132772Y-67488690D01*
X65132768Y-67488698D01*
X65131355Y-67491792D01*
X65092871Y-67539547D01*
X65069810Y-67556809D01*
X64983648Y-67671907D01*
X64983646Y-67671910D01*
X64933402Y-67806621D01*
X64933400Y-67806628D01*
X64927000Y-67866146D01*
X64927000Y-67866155D01*
X64927000Y-68189000D01*
X66602000Y-68189000D01*
X66602000Y-67866172D01*
X66601999Y-67866155D01*
X66601998Y-67866146D01*
X66601998Y-67866138D01*
X66595598Y-67806628D01*
X66595596Y-67806621D01*
X66595596Y-67806620D01*
X66545354Y-67671913D01*
X66545350Y-67671906D01*
X66459190Y-67556812D01*
X66459188Y-67556811D01*
X66459188Y-67556810D01*
X66442012Y-67543952D01*
X66417052Y-67518992D01*
X66410274Y-67509937D01*
X66385860Y-67444472D01*
X66400714Y-67376199D01*
X66450121Y-67326796D01*
X66451738Y-67325913D01*
X66453133Y-67325152D01*
X66512531Y-67310000D01*
X66914170Y-67310000D01*
X66949106Y-67315023D01*
X66964104Y-67319427D01*
X67022855Y-67357172D01*
X67024042Y-67358541D01*
X67051518Y-67413402D01*
X67053163Y-67420960D01*
X67056000Y-67447331D01*
X67056000Y-67531541D01*
X67050976Y-67566479D01*
X67042432Y-67595574D01*
X67022264Y-67635556D01*
X67017643Y-67641649D01*
X67017643Y-67641650D01*
X67017633Y-67641667D01*
X66962124Y-67782429D01*
X66961475Y-67785843D01*
X66961238Y-67789806D01*
X66952068Y-67866172D01*
X66951500Y-67870898D01*
X66951500Y-68907102D01*
X66957126Y-68953954D01*
X66962122Y-68995561D01*
X66993523Y-69075191D01*
X67017638Y-69136342D01*
X67017639Y-69136343D01*
X67020028Y-69139494D01*
X67037134Y-69170358D01*
X67047910Y-69198710D01*
X67056000Y-69242764D01*
X67056000Y-69563541D01*
X67050976Y-69598479D01*
X67042432Y-69627574D01*
X67022264Y-69667556D01*
X67017643Y-69673649D01*
X67017643Y-69673650D01*
X67017633Y-69673667D01*
X66962124Y-69814429D01*
X66961475Y-69817843D01*
X66961238Y-69821806D01*
X66951500Y-69902897D01*
X66951500Y-70597170D01*
X66946475Y-70632114D01*
X66942070Y-70647112D01*
X66904327Y-70705855D01*
X66902958Y-70707042D01*
X66848097Y-70734518D01*
X66840539Y-70736163D01*
X66814168Y-70739000D01*
X66743830Y-70739000D01*
X66708889Y-70733975D01*
X66693890Y-70729570D01*
X66635144Y-70691827D01*
X66633957Y-70690458D01*
X66606478Y-70635586D01*
X66603668Y-70622668D01*
X66602000Y-70621000D01*
X66601999Y-70621000D01*
X64938830Y-70621000D01*
X64926587Y-70617405D01*
X64903889Y-70615975D01*
X64888890Y-70611570D01*
X64873894Y-70601932D01*
X64871791Y-70601315D01*
X64870355Y-70599658D01*
X64830120Y-70573800D01*
X64815679Y-70557135D01*
X64810087Y-70549587D01*
X64797000Y-70536500D01*
X62906000Y-70536500D01*
X62906000Y-70597170D01*
X62900975Y-70632114D01*
X62896570Y-70647112D01*
X62858827Y-70705855D01*
X62857458Y-70707042D01*
X62802597Y-70734518D01*
X62795039Y-70736163D01*
X62768668Y-70739000D01*
X62499006Y-70739000D01*
X62464070Y-70733977D01*
X62438828Y-70726565D01*
X62386083Y-70695269D01*
X62278926Y-70588112D01*
X62257774Y-70559856D01*
X62245167Y-70536767D01*
X62230000Y-70477342D01*
X62230000Y-69951146D01*
X62906000Y-69951146D01*
X62906000Y-69951155D01*
X62906000Y-70136500D01*
X63681000Y-70136500D01*
X63681000Y-69499000D01*
X64081000Y-69499000D01*
X64081000Y-70136500D01*
X64844172Y-70136500D01*
X64879106Y-70141523D01*
X64892729Y-70145523D01*
X64892396Y-70146654D01*
X64944859Y-70176686D01*
X64945651Y-70175845D01*
X64952815Y-70182588D01*
X64973501Y-70208004D01*
X64974292Y-70209293D01*
X64985998Y-70220999D01*
X64986000Y-70221000D01*
X65564500Y-70221000D01*
X65964500Y-70221000D01*
X66602000Y-70221000D01*
X66602000Y-69898172D01*
X66601999Y-69898155D01*
X66601998Y-69898138D01*
X66595598Y-69838628D01*
X66595596Y-69838621D01*
X66595596Y-69838620D01*
X66545354Y-69703913D01*
X66545350Y-69703906D01*
X66522713Y-69673667D01*
X66459193Y-69588816D01*
X66459190Y-69588814D01*
X66459190Y-69588813D01*
X66360527Y-69514953D01*
X66335572Y-69489998D01*
X66327252Y-69478884D01*
X66302834Y-69413420D01*
X66317684Y-69345150D01*
X66321411Y-69338323D01*
X66355928Y-69298489D01*
X66459190Y-69221186D01*
X66545350Y-69106093D01*
X66545354Y-69106086D01*
X66595596Y-68971379D01*
X66595598Y-68971372D01*
X66597471Y-68953954D01*
X66601998Y-68911860D01*
X66602000Y-68911827D01*
X66602000Y-68589000D01*
X65964500Y-68589000D01*
X65964500Y-70221000D01*
X65564500Y-70221000D01*
X65564500Y-68589000D01*
X64927000Y-68589000D01*
X64927000Y-68911852D01*
X64933400Y-68971370D01*
X64933401Y-68971372D01*
X64933403Y-68971379D01*
X64983645Y-69106086D01*
X64983649Y-69106093D01*
X65008651Y-69139491D01*
X65069807Y-69221185D01*
X65069808Y-69221186D01*
X65069809Y-69221187D01*
X65069812Y-69221190D01*
X65098631Y-69242764D01*
X65168474Y-69295049D01*
X65193431Y-69320007D01*
X65201749Y-69331119D01*
X65226164Y-69396583D01*
X65211311Y-69464854D01*
X65207585Y-69471679D01*
X65173068Y-69511510D01*
X65069822Y-69588800D01*
X65069811Y-69588809D01*
X65069804Y-69588818D01*
X64984018Y-69703410D01*
X64972434Y-69716778D01*
X64959230Y-69729982D01*
X64897907Y-69763467D01*
X64828223Y-69758486D01*
X64823925Y-69756882D01*
X64767991Y-69715016D01*
X64767987Y-69715010D01*
X64713197Y-69641821D01*
X64713194Y-69641817D01*
X64713190Y-69641812D01*
X64713187Y-69641809D01*
X64713185Y-69641807D01*
X64608635Y-69563541D01*
X64598093Y-69555649D01*
X64598088Y-69555646D01*
X64598089Y-69555646D01*
X64463377Y-69505402D01*
X64463370Y-69505400D01*
X64403852Y-69499000D01*
X64403844Y-69499000D01*
X64081000Y-69499000D01*
X63681000Y-69499000D01*
X63358146Y-69499000D01*
X63298628Y-69505400D01*
X63298621Y-69505402D01*
X63163910Y-69555646D01*
X63163907Y-69555648D01*
X63048813Y-69641807D01*
X63048807Y-69641813D01*
X62962648Y-69756907D01*
X62962646Y-69756910D01*
X62912402Y-69891621D01*
X62912400Y-69891628D01*
X62906000Y-69951146D01*
X62230000Y-69951146D01*
X62230000Y-67693131D01*
X62507000Y-67693131D01*
X62507000Y-67693132D01*
X62507000Y-68065999D01*
X62557689Y-68065999D01*
X62649013Y-68051535D01*
X62649014Y-68051535D01*
X62649015Y-68051534D01*
X62649017Y-68051534D01*
X62759093Y-67995447D01*
X62759098Y-67995444D01*
X62846444Y-67908098D01*
X62846448Y-67908093D01*
X62902536Y-67798015D01*
X62902536Y-67798013D01*
X62902537Y-67798012D01*
X62917000Y-67706696D01*
X62917000Y-67686000D01*
X62517917Y-67686000D01*
X62517916Y-67686000D01*
X62507000Y-67693131D01*
X62230000Y-67693131D01*
X62230000Y-67644972D01*
X62249685Y-67577933D01*
X62286177Y-67541164D01*
X62362488Y-67491308D01*
X62366426Y-67477895D01*
X62404196Y-67419121D01*
X62405571Y-67417930D01*
X62460420Y-67390477D01*
X62467979Y-67388833D01*
X62494332Y-67386000D01*
X62916997Y-67386000D01*
X62916999Y-67386000D01*
X62928750Y-67374248D01*
X62935205Y-67368240D01*
X62954853Y-67351216D01*
X62965571Y-67341928D01*
X63020420Y-67314476D01*
X63025562Y-67313358D01*
X63027982Y-67312832D01*
X63054331Y-67310000D01*
X65009121Y-67310000D01*
X65044048Y-67315021D01*
G37*
G04 #@! TD.AperFunction*
G04 #@! TD*
G04 #@! TA.AperFunction,Conductor*
G04 #@! TO.N,VBUS*
G36*
X70205039Y-66567685D02*
G01*
X70250794Y-66620489D01*
X70262000Y-66672000D01*
X70262000Y-67048000D01*
X71097582Y-67048000D01*
X71170482Y-67037379D01*
X71282918Y-66982412D01*
X71371412Y-66893918D01*
X71392599Y-66850580D01*
X71439727Y-66798998D01*
X71507261Y-66781083D01*
X71573759Y-66802523D01*
X71618110Y-66856512D01*
X71628000Y-66905040D01*
X71628000Y-72774000D01*
X71608315Y-72841039D01*
X71555511Y-72886794D01*
X71504000Y-72898000D01*
X67434000Y-72898000D01*
X67366961Y-72878315D01*
X67321206Y-72825511D01*
X67310000Y-72774000D01*
X67310000Y-71518546D01*
X67329685Y-71451507D01*
X67382489Y-71405752D01*
X67447259Y-71395257D01*
X67454163Y-71395999D01*
X67454172Y-71396000D01*
X67639500Y-71396000D01*
X68039500Y-71396000D01*
X68224828Y-71396000D01*
X68224844Y-71395999D01*
X68284372Y-71389598D01*
X68284379Y-71389596D01*
X68419086Y-71339354D01*
X68419093Y-71339350D01*
X68534187Y-71253190D01*
X68534190Y-71253187D01*
X68620350Y-71138093D01*
X68620354Y-71138086D01*
X68670596Y-71003379D01*
X68670598Y-71003372D01*
X68676999Y-70943844D01*
X68677000Y-70943827D01*
X68677000Y-70621000D01*
X68039500Y-70621000D01*
X68039500Y-71396000D01*
X67639500Y-71396000D01*
X67639500Y-68513000D01*
X67659185Y-68445961D01*
X67711989Y-68400206D01*
X67763500Y-68389000D01*
X67915500Y-68389000D01*
X67982539Y-68408685D01*
X68028294Y-68461489D01*
X68039500Y-68513000D01*
X68039500Y-70221000D01*
X68677000Y-70221000D01*
X68677000Y-69898172D01*
X68676999Y-69898155D01*
X68670598Y-69838627D01*
X68670596Y-69838620D01*
X68620354Y-69703913D01*
X68620350Y-69703906D01*
X68534190Y-69588813D01*
X68421252Y-69504267D01*
X68379381Y-69448333D01*
X68374397Y-69378641D01*
X68407882Y-69317318D01*
X68421252Y-69305733D01*
X68534190Y-69221186D01*
X68620350Y-69106093D01*
X68620354Y-69106086D01*
X68670596Y-68971379D01*
X68670598Y-68971372D01*
X68676999Y-68911844D01*
X68677000Y-68911827D01*
X68677000Y-68704000D01*
X68696685Y-68636961D01*
X68749489Y-68591206D01*
X68801000Y-68580000D01*
X69850000Y-68580000D01*
X69850000Y-68515728D01*
X69869685Y-68448689D01*
X69876000Y-68441453D01*
X69876000Y-68436356D01*
X70276000Y-68436356D01*
X70338017Y-68426534D01*
X70448093Y-68370447D01*
X70448098Y-68370444D01*
X70535444Y-68283098D01*
X70535448Y-68283093D01*
X70591536Y-68173015D01*
X70606000Y-68081691D01*
X70606000Y-68081000D01*
X70276000Y-68081000D01*
X70276000Y-68436356D01*
X69876000Y-68436356D01*
X69876000Y-67681000D01*
X70276000Y-67681000D01*
X70605999Y-67681000D01*
X70605999Y-67680310D01*
X70591534Y-67588982D01*
X70535447Y-67478906D01*
X70535444Y-67478901D01*
X70448098Y-67391555D01*
X70448093Y-67391551D01*
X70338015Y-67335463D01*
X70338016Y-67335463D01*
X70276000Y-67325641D01*
X70276000Y-67681000D01*
X69876000Y-67681000D01*
X69876000Y-67313800D01*
X69855275Y-67282051D01*
X69850000Y-67246270D01*
X69850000Y-67111362D01*
X69862000Y-67070494D01*
X69862000Y-66672000D01*
X69881685Y-66604961D01*
X69934489Y-66559206D01*
X69986000Y-66548000D01*
X70138000Y-66548000D01*
X70205039Y-66567685D01*
G37*
G04 #@! TD.AperFunction*
G04 #@! TD*
M02*
